<?xml version="1.0" encoding="UTF-8"?><svg id="Camada_1" xmlns="http://www.w3.org/2000/svg" xmlns:xlink="http://www.w3.org/1999/xlink" viewBox="0 0 384 341"><defs><style>.cls-1{fill:#fff;}.cls-2{fill:#4d4d4d;}.cls-3{fill:#709fe3;filter:url(#drop-shadow-4);}.cls-4{fill:#b187d0;filter:url(#drop-shadow-5);}.cls-5{fill:#ff7bac;filter:url(#drop-shadow-6);}.cls-6{fill:#72c6f0;filter:url(#drop-shadow-3);}.cls-7{fill:#f7931e;filter:url(#drop-shadow-2);}.cls-8{fill:#00a99d;filter:url(#drop-shadow-7);}.cls-9{fill:#006837;filter:url(#drop-shadow-8);}.cls-10{fill:#0071bc;filter:url(#drop-shadow-1);}</style><filter id="drop-shadow-1" filterUnits="userSpaceOnUse"><feOffset dx="7" dy="7"/><feGaussianBlur result="blur" stdDeviation="5"/><feFlood flood-color="#000" flood-opacity=".15"/><feComposite in2="blur" operator="in"/><feComposite in="SourceGraphic"/></filter><filter id="drop-shadow-2" filterUnits="userSpaceOnUse"><feOffset dx="7" dy="7"/><feGaussianBlur result="blur-2" stdDeviation="5"/><feFlood flood-color="#000" flood-opacity=".15"/><feComposite in2="blur-2" operator="in"/><feComposite in="SourceGraphic"/></filter><filter id="drop-shadow-3" filterUnits="userSpaceOnUse"><feOffset dx="7" dy="7"/><feGaussianBlur result="blur-3" stdDeviation="5"/><feFlood flood-color="#000" flood-opacity=".15"/><feComposite in2="blur-3" operator="in"/><feComposite in="SourceGraphic"/></filter><filter id="drop-shadow-4" filterUnits="userSpaceOnUse"><feOffset dx="7" dy="7"/><feGaussianBlur result="blur-4" stdDeviation="5"/><feFlood flood-color="#000" flood-opacity=".15"/><feComposite in2="blur-4" operator="in"/><feComposite in="SourceGraphic"/></filter><filter id="drop-shadow-5" filterUnits="userSpaceOnUse"><feOffset dx="7" dy="7"/><feGaussianBlur result="blur-5" stdDeviation="5"/><feFlood flood-color="#000" flood-opacity=".15"/><feComposite in2="blur-5" operator="in"/><feComposite in="SourceGraphic"/></filter><filter id="drop-shadow-6" filterUnits="userSpaceOnUse"><feOffset dx="7" dy="7"/><feGaussianBlur result="blur-6" stdDeviation="5"/><feFlood flood-color="#000" flood-opacity=".15"/><feComposite in2="blur-6" operator="in"/><feComposite in="SourceGraphic"/></filter><filter id="drop-shadow-7" filterUnits="userSpaceOnUse"><feOffset dx="7" dy="7"/><feGaussianBlur result="blur-7" stdDeviation="5"/><feFlood flood-color="#000" flood-opacity=".15"/><feComposite in2="blur-7" operator="in"/><feComposite in="SourceGraphic"/></filter><filter id="drop-shadow-8" filterUnits="userSpaceOnUse"><feOffset dx="7" dy="7"/><feGaussianBlur result="blur-8" stdDeviation="5"/><feFlood flood-color="#000" flood-opacity=".15"/><feComposite in2="blur-8" operator="in"/><feComposite in="SourceGraphic"/></filter></defs><circle class="cls-10" cx="193.46" cy="41.71" r="41.71"/><path class="cls-7" d="M337.62,75.37c0,23.04-18.67,41.71-41.71,41.71-23.04,0-41.71-18.67-41.71-41.71,0-23.04,18.67-41.71,41.71-41.71,23.04,0,41.71,18.67,41.71,41.71Z"/><circle class="cls-6" cx="295.91" cy="262.7" r="41.71"/><circle class="cls-3" cx="88.09" cy="75.37" r="41.71"/><circle class="cls-4" cx="88.09" cy="262.7" r="41.71"/><path class="cls-5" d="M235.17,299.29c0,23.04-18.67,41.71-41.71,41.71-23.04,0-41.71-18.67-41.71-41.71s18.67-41.71,41.71-41.71c23.04,0,41.71,18.67,41.71,41.71Z"/><path class="cls-8" d="M328.11,212.21c-23.04,0-41.71-18.67-41.71-41.71,0-23.04,18.67-41.71,41.71-41.71,23.04,0,41.71,18.67,41.71,41.71,0,23.04-18.67,41.71-41.71,41.71Z"/><path class="cls-9" d="M55.89,212.21c-23.04,0-41.71-18.67-41.71-41.71,0-23.04,18.67-41.71,41.71-41.71s41.71,18.67,41.71,41.71c0,23.04-18.67,41.71-41.71,41.71Z"/><g><path class="cls-1" d="M164.59,41.2c-.18,.33-.45,.59-.83,.79-.38,.2-.85,.3-1.43,.3h-1.17v2.68h-1.4v-6.98h2.57c.54,0,1,.09,1.38,.28,.38,.19,.67,.44,.85,.77,.19,.33,.28,.7,.28,1.11,0,.37-.09,.72-.26,1.05Zm-1.46-.31c.19-.18,.28-.42,.28-.74,0-.68-.38-1.02-1.14-1.02h-1.11v2.03h1.11c.39,0,.67-.09,.86-.27Z"/><path class="cls-1" d="M167.95,39.6c.29-.17,.62-.25,1-.25v1.47h-.37c-.44,0-.77,.1-.99,.31-.22,.21-.34,.57-.34,1.08v2.76h-1.4v-5.54h1.4v.86c.18-.29,.42-.52,.71-.69Z"/><path class="cls-1" d="M170.91,44.7c-.43-.24-.76-.57-1-1-.24-.43-.37-.93-.37-1.5s.12-1.07,.38-1.5c.25-.43,.59-.77,1.03-1,.43-.24,.92-.35,1.45-.35s1.02,.12,1.45,.35c.43,.24,.78,.57,1.03,1,.25,.43,.38,.93,.38,1.5s-.13,1.07-.38,1.5c-.26,.43-.6,.77-1.04,1-.44,.24-.92,.35-1.46,.35s-1.01-.12-1.44-.35Zm2.16-1.05c.22-.12,.4-.31,.54-.56,.13-.25,.2-.55,.2-.9,0-.53-.14-.93-.42-1.21-.28-.28-.61-.43-1.01-.43s-.74,.14-1,.43c-.27,.28-.41,.69-.41,1.21s.13,.93,.4,1.21c.26,.28,.59,.43,1,.43,.25,0,.49-.06,.71-.19Z"/><path class="cls-1" d="M179.53,39.58c.31,.16,.56,.38,.74,.63v-.79h1.41v5.58c0,.51-.1,.97-.31,1.38-.21,.4-.52,.72-.93,.96-.41,.24-.91,.35-1.5,.35-.79,0-1.43-.18-1.94-.55-.5-.37-.79-.87-.85-1.5h1.39c.07,.25,.23,.45,.47,.6,.24,.15,.54,.22,.89,.22,.41,0,.74-.12,.99-.36,.25-.24,.38-.61,.38-1.1v-.86c-.18,.26-.43,.48-.75,.65-.32,.17-.68,.26-1.08,.26-.47,0-.89-.12-1.28-.36-.39-.24-.69-.58-.92-1.02-.22-.44-.33-.94-.33-1.5s.11-1.06,.33-1.49c.22-.43,.53-.77,.91-1,.38-.23,.81-.35,1.29-.35,.41,0,.78,.08,1.09,.25Zm.54,1.74c-.13-.24-.31-.43-.54-.56s-.47-.19-.73-.19-.5,.06-.72,.19-.4,.31-.54,.56c-.14,.24-.21,.53-.21,.86s.07,.62,.21,.88,.32,.44,.54,.58,.46,.2,.71,.2,.5-.06,.73-.19,.41-.32,.54-.56c.13-.24,.2-.54,.2-.88s-.07-.63-.2-.88Z"/><path class="cls-1" d="M185.15,39.6c.29-.17,.62-.25,1-.25v1.47h-.37c-.44,0-.77,.1-1,.31s-.33,.57-.33,1.08v2.76h-1.4v-5.54h1.4v.86c.18-.29,.42-.52,.71-.69Z"/><path class="cls-1" d="M187.06,40.69c.22-.43,.53-.77,.91-1,.38-.23,.81-.35,1.29-.35,.41,0,.77,.08,1.08,.25,.31,.17,.56,.38,.75,.63v-.79h1.41v5.54h-1.41v-.81c-.18,.26-.43,.48-.75,.65-.32,.17-.68,.25-1.1,.25-.47,0-.89-.12-1.27-.36-.38-.24-.69-.58-.91-1.02-.22-.44-.33-.94-.33-1.5s.11-1.06,.33-1.49Zm3.83,.63c-.13-.24-.31-.43-.54-.56s-.47-.19-.73-.19-.5,.06-.72,.19-.4,.31-.54,.56c-.14,.24-.21,.53-.21,.86s.07,.62,.21,.88,.32,.44,.54,.58,.46,.2,.71,.2,.5-.06,.73-.19,.41-.32,.54-.56c.13-.24,.2-.54,.2-.88s-.07-.63-.2-.88Z"/><path class="cls-1" d="M202.39,39.97c.42,.42,.62,1,.62,1.75v3.25h-1.4v-3.06c0-.43-.11-.77-.33-1-.22-.23-.52-.34-.9-.34s-.68,.11-.91,.34c-.22,.23-.33,.56-.33,1v3.06h-1.4v-3.06c0-.43-.11-.77-.33-1-.22-.23-.52-.34-.9-.34s-.69,.11-.92,.34-.33,.56-.33,1v3.06h-1.4v-5.54h1.4v.67c.18-.23,.41-.42,.7-.55s.59-.2,.93-.2c.43,0,.82,.09,1.16,.27,.34,.18,.6,.45,.79,.79,.18-.32,.44-.58,.79-.77,.34-.19,.71-.29,1.12-.29,.68,0,1.23,.21,1.64,.62Z"/><path class="cls-1" d="M204.32,40.69c.22-.43,.53-.77,.91-1,.38-.23,.81-.35,1.29-.35,.41,0,.77,.08,1.08,.25,.31,.17,.56,.38,.75,.63v-.79h1.41v5.54h-1.41v-.81c-.18,.26-.43,.48-.75,.65-.32,.17-.68,.25-1.1,.25-.47,0-.89-.12-1.27-.36-.38-.24-.69-.58-.91-1.02-.22-.44-.33-.94-.33-1.5s.11-1.06,.33-1.49Zm3.83,.63c-.13-.24-.31-.43-.54-.56s-.47-.19-.73-.19-.5,.06-.72,.19-.4,.31-.54,.56c-.14,.24-.21,.53-.21,.86s.07,.62,.21,.88,.32,.44,.54,.58,.46,.2,.71,.2,.5-.06,.73-.19,.41-.32,.54-.56c.13-.24,.2-.54,.2-.88s-.07-.63-.2-.88Z"/><path class="cls-1" d="M214.61,43.1h1.51c-.14,.54-.4,.98-.77,1.32-.38,.34-.85,.54-1.42,.61v.39c.37,0,.67,.09,.92,.28s.38,.46,.38,.81-.13,.64-.38,.83c-.26,.19-.57,.29-.95,.29h-1.42v-.82h1.19c.16,0,.28-.02,.36-.07,.08-.05,.12-.13,.12-.25s-.04-.2-.12-.25c-.08-.04-.21-.06-.36-.06h-.62v-1.15c-.45-.07-.85-.23-1.2-.48-.34-.25-.61-.58-.8-.98-.19-.4-.29-.86-.29-1.38,0-.57,.12-1.08,.35-1.5,.23-.43,.56-.76,.97-1,.41-.24,.89-.35,1.42-.35,.69,0,1.25,.17,1.71,.51,.45,.34,.75,.83,.9,1.45h-1.51c-.08-.24-.21-.43-.41-.56-.19-.14-.42-.21-.71-.21-.4,0-.72,.15-.95,.44s-.35,.7-.35,1.23,.12,.94,.35,1.23,.55,.44,.95,.44c.57,0,.94-.25,1.11-.76Z"/><path class="cls-1" d="M217.12,40.69c.22-.43,.53-.77,.91-1,.38-.23,.81-.35,1.29-.35,.41,0,.77,.08,1.08,.25,.31,.17,.56,.38,.75,.63v-.79h1.41v5.54h-1.41v-.81c-.18,.26-.43,.48-.75,.65-.32,.17-.68,.25-1.1,.25-.47,0-.89-.12-1.27-.36-.38-.24-.69-.58-.91-1.02-.22-.44-.33-.94-.33-1.5s.11-1.06,.33-1.49Zm1.36-2.78c.22-.22,.49-.32,.82-.32,.14,0,.26,.02,.37,.06s.23,.1,.36,.19c.2,.13,.37,.19,.5,.19,.25,0,.39-.14,.43-.43h.75c-.06,.44-.2,.77-.42,.99-.22,.22-.49,.32-.83,.32-.14,0-.26-.02-.37-.06-.11-.04-.23-.1-.36-.19-.19-.13-.36-.2-.5-.2-.25,0-.39,.15-.44,.44h-.74c.06-.44,.2-.77,.42-.99Zm2.46,3.41c-.13-.24-.31-.43-.54-.56s-.47-.19-.73-.19-.5,.06-.72,.19-.4,.31-.54,.56c-.14,.24-.21,.53-.21,.86s.07,.62,.21,.88,.32,.44,.54,.58,.46,.2,.71,.2,.5-.06,.73-.19,.41-.32,.54-.56c.13-.24,.2-.54,.2-.88s-.07-.63-.2-.88Z"/><path class="cls-1" d="M224.95,44.7c-.43-.24-.76-.57-1-1-.24-.43-.37-.93-.37-1.5s.12-1.07,.38-1.5c.25-.43,.59-.77,1.03-1,.43-.24,.92-.35,1.45-.35s1.02,.12,1.45,.35c.43,.24,.78,.57,1.03,1,.25,.43,.38,.93,.38,1.5s-.13,1.07-.38,1.5c-.26,.43-.6,.77-1.04,1-.44,.24-.92,.35-1.46,.35s-1.01-.12-1.44-.35Zm2.16-1.05c.22-.12,.4-.31,.54-.56,.13-.25,.2-.55,.2-.9,0-.53-.14-.93-.42-1.21-.28-.28-.61-.43-1.01-.43s-.74,.14-1,.43c-.27,.28-.41,.69-.41,1.21s.13,.93,.4,1.21c.26,.28,.59,.43,1,.43,.25,0,.49-.06,.71-.19Z"/></g><g><path class="cls-1" d="M158.85,291.12v1.75h2.35v1.11h-2.35v1.85h2.65v1.14h-4.05v-6.99h4.05v1.14h-2.65Z"/><path class="cls-1" d="M163.67,296.81c-.36-.16-.65-.39-.85-.67-.21-.28-.32-.59-.34-.93h1.41c.03,.21,.13,.39,.32,.53,.18,.14,.41,.21,.68,.21s.48-.05,.62-.16c.15-.11,.23-.24,.23-.41,0-.18-.09-.31-.27-.4-.18-.09-.48-.19-.88-.29-.41-.1-.75-.2-1.02-.31s-.49-.27-.68-.49c-.19-.22-.29-.52-.29-.89,0-.31,.09-.59,.27-.84,.18-.25,.43-.45,.76-.6,.33-.15,.72-.22,1.17-.22,.66,0,1.19,.17,1.58,.5,.39,.33,.61,.78,.65,1.33h-1.34c-.02-.22-.11-.39-.27-.53-.16-.13-.38-.19-.66-.19-.25,0-.45,.05-.58,.14-.14,.09-.21,.22-.21,.39,0,.19,.09,.33,.28,.43,.19,.1,.48,.19,.87,.29,.4,.1,.73,.2,.99,.31,.26,.11,.48,.27,.67,.5s.29,.52,.3,.88c0,.32-.09,.61-.27,.86-.18,.25-.43,.45-.76,.59-.33,.14-.71,.21-1.15,.21s-.86-.08-1.22-.24Z"/><path class="cls-1" d="M169.85,292.58v2.68c0,.19,.05,.32,.14,.41s.24,.12,.46,.12h.65v1.18h-.88c-1.18,0-1.77-.57-1.77-1.72v-2.67h-.66v-1.15h.66v-1.37h1.41v1.37h1.24v1.15h-1.24Z"/><path class="cls-1" d="M174.2,291.6c.29-.17,.62-.25,1-.25v1.47h-.37c-.44,0-.77,.1-1,.31-.22,.21-.33,.57-.33,1.08v2.76h-1.4v-5.54h1.4v.86c.18-.29,.42-.52,.71-.69Z"/><path class="cls-1" d="M176.11,292.69c.22-.43,.53-.77,.91-1,.38-.23,.81-.35,1.28-.35,.41,0,.77,.08,1.08,.25,.31,.17,.56,.38,.75,.63v-.79h1.41v5.54h-1.41v-.81c-.18,.26-.43,.47-.75,.64-.32,.17-.68,.25-1.09,.25-.47,0-.89-.12-1.27-.36-.38-.24-.69-.58-.91-1.02-.22-.44-.33-.94-.33-1.5s.11-1.06,.33-1.49Zm3.83,.63c-.13-.24-.31-.43-.54-.56-.23-.13-.47-.19-.73-.19s-.5,.06-.72,.19c-.22,.13-.4,.31-.54,.56-.14,.24-.21,.53-.21,.86s.07,.62,.21,.88,.32,.44,.54,.58c.22,.13,.46,.2,.72,.2s.5-.07,.73-.2c.23-.13,.41-.32,.54-.56,.13-.24,.2-.54,.2-.88s-.07-.63-.2-.88Z"/><path class="cls-1" d="M184.55,292.58v2.68c0,.19,.05,.32,.14,.41s.24,.12,.46,.12h.65v1.18h-.88c-1.18,0-1.77-.57-1.77-1.72v-2.67h-.66v-1.15h.66v-1.37h1.41v1.37h1.24v1.15h-1.24Z"/><path class="cls-1" d="M191.91,294.62h-4.05c.03,.4,.17,.71,.42,.94,.25,.23,.55,.34,.91,.34,.52,0,.89-.22,1.11-.67h1.51c-.16,.53-.47,.97-.92,1.32-.45,.34-1.01,.51-1.67,.51-.53,0-1.01-.12-1.44-.35s-.75-.57-.99-1c-.24-.43-.35-.93-.35-1.5s.12-1.08,.35-1.51c.23-.43,.56-.77,.98-1s.9-.35,1.45-.35,1,.11,1.42,.34,.74,.55,.97,.96c.23,.42,.34,.9,.34,1.44,0,.2-.01,.38-.04,.54Zm-1.41-.94c0-.36-.14-.65-.39-.86-.25-.22-.56-.33-.93-.33-.35,0-.64,.1-.88,.31-.24,.21-.38,.5-.44,.88h2.63Zm-.21-3.71l-2.3,1.05v-1l2.3-1.19v1.14Z"/><path class="cls-1" d="M196.23,291.58c.31,.16,.56,.38,.74,.63v-.79h1.41v5.58c0,.51-.1,.97-.31,1.38-.21,.4-.52,.72-.93,.96s-.91,.36-1.5,.36c-.79,0-1.43-.18-1.94-.55-.5-.37-.79-.87-.85-1.5h1.39c.07,.25,.23,.45,.48,.6,.24,.15,.54,.22,.88,.22,.41,0,.74-.12,.99-.36,.25-.24,.38-.61,.38-1.11v-.86c-.18,.26-.43,.48-.75,.65-.32,.17-.68,.26-1.08,.26-.47,0-.89-.12-1.28-.36s-.69-.58-.91-1.02c-.22-.44-.33-.94-.33-1.5s.11-1.06,.33-1.49c.22-.43,.53-.77,.91-1s.81-.35,1.29-.35c.41,0,.78,.08,1.09,.25Zm.54,1.74c-.13-.24-.31-.43-.54-.56s-.47-.19-.73-.19-.5,.06-.72,.19c-.22,.13-.4,.31-.54,.56-.14,.24-.21,.53-.21,.86s.07,.62,.21,.88,.32,.44,.54,.58c.22,.13,.46,.2,.72,.2s.5-.07,.73-.2,.41-.32,.54-.56c.13-.24,.2-.54,.2-.88s-.07-.63-.2-.88Z"/><path class="cls-1" d="M199.84,290.53c-.16-.16-.25-.35-.25-.58s.08-.43,.25-.58c.16-.16,.37-.24,.61-.24s.45,.08,.62,.24c.16,.16,.25,.35,.25,.58s-.08,.43-.25,.58c-.16,.16-.37,.23-.62,.23s-.45-.08-.61-.23Zm1.3,.89v5.54h-1.4v-5.54h1.4Z"/><path class="cls-1" d="M202.5,292.69c.22-.43,.53-.77,.91-1,.38-.23,.81-.35,1.29-.35,.41,0,.77,.08,1.08,.25,.31,.17,.56,.38,.75,.63v-.79h1.41v5.54h-1.41v-.81c-.18,.26-.43,.47-.75,.64-.32,.17-.68,.25-1.1,.25-.47,0-.89-.12-1.27-.36-.38-.24-.69-.58-.91-1.02-.22-.44-.33-.94-.33-1.5s.11-1.06,.33-1.49Zm3.83,.63c-.13-.24-.31-.43-.54-.56s-.47-.19-.73-.19-.5,.06-.72,.19c-.22,.13-.4,.31-.54,.56-.14,.24-.21,.53-.21,.86s.07,.62,.21,.88,.32,.44,.54,.58c.22,.13,.46,.2,.71,.2s.5-.07,.73-.2,.41-.32,.54-.56c.13-.24,.2-.54,.2-.88s-.07-.63-.2-.88Z"/><path class="cls-1" d="M210.21,296.81c-.36-.16-.64-.39-.85-.67-.21-.28-.33-.59-.35-.93h1.41c.03,.21,.13,.39,.32,.53,.18,.14,.41,.21,.68,.21s.48-.05,.62-.16c.15-.11,.23-.24,.23-.41,0-.18-.09-.31-.28-.4-.18-.09-.47-.19-.88-.29-.41-.1-.75-.2-1.01-.31-.26-.11-.49-.27-.68-.49-.19-.22-.29-.52-.29-.89,0-.31,.09-.59,.27-.84,.18-.25,.43-.45,.76-.6,.33-.15,.72-.22,1.17-.22,.66,0,1.19,.17,1.58,.5s.61,.78,.65,1.33h-1.34c-.02-.22-.11-.39-.27-.53-.16-.13-.38-.19-.66-.19-.25,0-.45,.05-.58,.14-.14,.09-.21,.22-.21,.39,0,.19,.09,.33,.28,.43s.48,.19,.87,.29c.4,.1,.73,.2,.99,.31,.26,.11,.49,.27,.68,.5,.19,.22,.29,.52,.29,.88,0,.32-.09,.61-.27,.86s-.43,.45-.76,.59c-.33,.14-.71,.21-1.16,.21s-.86-.08-1.22-.24Z"/><path class="cls-1" d="M217.11,292.69c.22-.43,.53-.77,.92-1s.82-.35,1.29-.35c.36,0,.7,.08,1.03,.24,.33,.16,.59,.37,.78,.62v-2.63h1.42v7.4h-1.42v-.82c-.17,.27-.42,.49-.73,.66-.31,.17-.68,.25-1.09,.25-.47,0-.89-.12-1.28-.36s-.69-.58-.92-1.02c-.22-.44-.33-.94-.33-1.5s.11-1.06,.33-1.49Zm3.83,.63c-.13-.24-.31-.43-.54-.56s-.47-.19-.73-.19-.5,.06-.72,.19c-.22,.13-.4,.31-.54,.56-.14,.24-.21,.53-.21,.86s.07,.62,.21,.88,.32,.44,.54,.58c.22,.13,.46,.2,.71,.2s.5-.07,.73-.2,.41-.32,.54-.56c.13-.24,.2-.54,.2-.88s-.07-.63-.2-.88Z"/><path class="cls-1" d="M229.03,294.62h-4.05c.03,.4,.17,.71,.42,.94,.25,.23,.55,.34,.91,.34,.52,0,.89-.22,1.11-.67h1.51c-.16,.53-.47,.97-.92,1.32-.45,.34-1.01,.51-1.67,.51-.53,0-1.01-.12-1.44-.35-.42-.24-.75-.57-.99-1-.24-.43-.35-.93-.35-1.5s.12-1.08,.35-1.51c.23-.43,.56-.77,.98-1s.9-.35,1.45-.35,1,.11,1.42,.34c.42,.23,.74,.55,.97,.96,.23,.42,.34,.9,.34,1.44,0,.2-.01,.38-.04,.54Zm-1.41-.94c0-.36-.14-.65-.39-.86-.25-.22-.56-.33-.93-.33-.35,0-.64,.1-.88,.31-.24,.21-.38,.5-.44,.88h2.63Z"/><path class="cls-1" d="M160.37,307.64h-2.78l-.46,1.33h-1.47l2.51-6.99h1.63l2.51,6.99h-1.48l-.46-1.33Zm-.38-1.12l-1.01-2.92-1.01,2.92h2.02Z"/><path class="cls-1" d="M165.39,303.59c.32-.17,.68-.25,1.08-.25,.47,0,.9,.12,1.29,.35s.69,.56,.91,.99c.22,.43,.33,.93,.33,1.5s-.11,1.07-.33,1.5c-.22,.44-.53,.78-.91,1.02s-.81,.36-1.29,.36c-.41,0-.77-.08-1.07-.25-.31-.17-.56-.38-.76-.63v3.43h-1.4v-8.18h1.4v.8c.18-.25,.43-.46,.75-.63Zm1.98,1.72c-.14-.24-.32-.43-.54-.56-.22-.13-.46-.19-.73-.19s-.49,.06-.71,.19c-.22,.13-.4,.32-.54,.57s-.21,.54-.21,.87,.07,.62,.21,.87c.14,.25,.32,.43,.54,.56,.22,.13,.46,.2,.71,.2s.5-.07,.73-.2c.22-.13,.4-.32,.54-.57,.14-.25,.21-.54,.21-.88s-.07-.62-.21-.86Z"/><path class="cls-1" d="M172.13,303.6c.29-.17,.62-.25,1-.25v1.47h-.37c-.44,0-.77,.1-1,.31-.22,.21-.33,.57-.33,1.08v2.76h-1.4v-5.54h1.4v.86c.18-.29,.42-.52,.71-.69Z"/><path class="cls-1" d="M179.18,306.62h-4.05c.03,.4,.17,.71,.42,.94,.25,.23,.55,.34,.91,.34,.52,0,.89-.22,1.11-.67h1.51c-.16,.53-.47,.97-.92,1.32-.45,.34-1.01,.51-1.67,.51-.53,0-1.01-.12-1.44-.35s-.75-.57-.99-1c-.24-.43-.35-.93-.35-1.5s.12-1.08,.35-1.51c.23-.43,.56-.77,.98-1s.9-.35,1.45-.35,1,.11,1.42,.34,.74,.55,.97,.96c.23,.42,.34,.9,.34,1.44,0,.2-.01,.38-.04,.54Zm-1.41-.94c0-.36-.14-.65-.39-.86-.25-.22-.56-.33-.93-.33-.35,0-.64,.1-.88,.31-.24,.21-.38,.5-.44,.88h2.63Z"/><path class="cls-1" d="M184.91,303.97c.41,.42,.61,1,.61,1.75v3.25h-1.4v-3.06c0-.44-.11-.78-.33-1.02-.22-.24-.52-.35-.9-.35s-.69,.12-.92,.35c-.22,.24-.33,.58-.33,1.02v3.06h-1.4v-5.54h1.4v.69c.19-.24,.43-.43,.72-.57s.61-.21,.95-.21c.66,0,1.19,.21,1.6,.62Z"/><path class="cls-1" d="M186.82,304.69c.22-.43,.53-.77,.92-1s.82-.35,1.29-.35c.36,0,.7,.08,1.03,.24,.33,.16,.59,.37,.78,.62v-2.63h1.42v7.4h-1.42v-.82c-.17,.27-.42,.49-.73,.66-.31,.17-.68,.25-1.09,.25-.47,0-.89-.12-1.28-.36s-.69-.58-.92-1.02c-.22-.44-.33-.94-.33-1.5s.11-1.06,.33-1.49Zm3.83,.63c-.13-.24-.31-.43-.54-.56-.23-.13-.47-.19-.73-.19s-.5,.06-.72,.19c-.22,.13-.4,.31-.54,.56-.14,.24-.21,.53-.21,.86s.07,.62,.21,.88,.32,.44,.54,.58c.22,.13,.46,.2,.72,.2s.5-.07,.73-.2c.23-.13,.41-.32,.54-.56,.13-.24,.2-.54,.2-.88s-.07-.63-.2-.88Z"/><path class="cls-1" d="M193.72,302.53c-.16-.16-.25-.35-.25-.58s.08-.43,.25-.58c.16-.16,.37-.24,.61-.24s.45,.08,.62,.24c.16,.16,.25,.35,.25,.58s-.08,.43-.25,.58c-.16,.16-.37,.23-.62,.23s-.45-.08-.61-.23Zm1.3,.89v5.54h-1.4v-5.54h1.4Z"/><path class="cls-1" d="M197.69,307.82h2.47v1.15h-4.06v-1.13l2.42-3.26h-2.41v-1.15h4.02v1.13l-2.44,3.26Z"/><path class="cls-1" d="M201.21,304.69c.22-.43,.53-.77,.91-1s.81-.35,1.29-.35c.41,0,.78,.08,1.09,.25,.31,.17,.56,.38,.74,.63v-.79h1.41v5.54h-1.41v-.81c-.18,.26-.43,.47-.74,.64-.32,.17-.68,.25-1.1,.25-.47,0-.89-.12-1.28-.36s-.69-.58-.91-1.02c-.22-.44-.33-.94-.33-1.5s.11-1.06,.33-1.49Zm3.83,.63c-.13-.24-.31-.43-.54-.56s-.47-.19-.73-.19-.5,.06-.72,.19c-.22,.13-.4,.31-.54,.56-.14,.24-.21,.53-.21,.86s.07,.62,.21,.88,.32,.44,.54,.58c.22,.13,.46,.2,.71,.2s.5-.07,.73-.2,.41-.32,.54-.56c.13-.24,.2-.54,.2-.88s-.07-.63-.2-.88Z"/><path class="cls-1" d="M211.28,303.58c.31,.16,.56,.38,.74,.63v-.79h1.41v5.58c0,.51-.1,.97-.31,1.38-.21,.4-.52,.72-.93,.96-.41,.24-.91,.36-1.5,.36-.79,0-1.43-.18-1.94-.55-.5-.37-.79-.87-.85-1.5h1.39c.07,.25,.23,.45,.47,.6,.24,.15,.54,.22,.89,.22,.41,0,.74-.12,.99-.36,.25-.24,.38-.61,.38-1.11v-.86c-.18,.26-.43,.48-.75,.65-.32,.17-.68,.26-1.08,.26-.47,0-.89-.12-1.28-.36s-.69-.58-.92-1.02c-.22-.44-.33-.94-.33-1.5s.11-1.06,.33-1.49c.22-.43,.53-.77,.91-1,.38-.23,.81-.35,1.29-.35,.41,0,.78,.08,1.09,.25Zm.54,1.74c-.13-.24-.31-.43-.54-.56s-.47-.19-.73-.19-.5,.06-.72,.19c-.22,.13-.4,.31-.54,.56-.14,.24-.21,.53-.21,.86s.07,.62,.21,.88,.32,.44,.54,.58c.22,.13,.46,.2,.71,.2s.5-.07,.73-.2,.41-.32,.54-.56c.13-.24,.2-.54,.2-.88s-.07-.63-.2-.88Z"/><path class="cls-1" d="M219.91,306.62h-4.05c.03,.4,.17,.71,.42,.94,.25,.23,.55,.34,.91,.34,.52,0,.89-.22,1.11-.67h1.51c-.16,.53-.47,.97-.92,1.32-.45,.34-1.01,.51-1.67,.51-.53,0-1.01-.12-1.44-.35-.42-.24-.75-.57-.99-1-.24-.43-.35-.93-.35-1.5s.12-1.08,.35-1.51c.23-.43,.56-.77,.98-1s.9-.35,1.45-.35,1,.11,1.42,.34c.42,.23,.74,.55,.97,.96,.23,.42,.34,.9,.34,1.44,0,.2-.01,.38-.04,.54Zm-1.41-.94c0-.36-.14-.65-.39-.86-.25-.22-.56-.33-.93-.33-.35,0-.64,.1-.88,.31-.24,.21-.38,.5-.44,.88h2.63Z"/><path class="cls-1" d="M229.49,303.97c.42,.42,.62,1,.62,1.75v3.25h-1.4v-3.06c0-.43-.11-.77-.33-1-.22-.23-.52-.34-.9-.34s-.68,.11-.91,.34c-.22,.23-.33,.56-.33,1v3.06h-1.4v-3.06c0-.43-.11-.77-.33-1-.22-.23-.52-.34-.9-.34s-.69,.11-.92,.34c-.22,.23-.33,.56-.33,1v3.06h-1.4v-5.54h1.4v.67c.18-.23,.41-.42,.7-.55,.28-.13,.59-.2,.93-.2,.43,0,.82,.09,1.16,.28s.6,.45,.79,.79c.18-.32,.44-.58,.79-.77,.34-.19,.71-.29,1.12-.29,.68,0,1.23,.21,1.64,.62Z"/></g><g><path class="cls-1" d="M28.05,166.58c-.55-.31-.98-.73-1.3-1.27-.32-.54-.48-1.16-.48-1.84s.16-1.29,.48-1.84c.32-.54,.75-.97,1.3-1.27,.55-.31,1.15-.46,1.8-.46s1.26,.15,1.8,.46,.97,.73,1.29,1.27c.32,.54,.48,1.16,.48,1.84s-.16,1.3-.48,1.84c-.32,.54-.75,.97-1.29,1.27-.55,.31-1.15,.46-1.8,.46s-1.25-.15-1.8-.46Zm2.91-1.07c.32-.19,.57-.46,.75-.81,.18-.35,.27-.76,.27-1.23s-.09-.88-.27-1.23-.43-.62-.75-.81-.69-.28-1.11-.28-.79,.09-1.12,.28-.57,.46-.75,.81-.27,.76-.27,1.23,.09,.88,.27,1.23c.18,.35,.43,.62,.75,.81s.69,.28,1.12,.28,.79-.09,1.11-.28Z"/><path class="cls-1" d="M36.6,161.59c.32-.17,.68-.25,1.08-.25,.47,0,.9,.12,1.29,.35s.69,.56,.91,.99c.22,.43,.33,.93,.33,1.5s-.11,1.07-.33,1.5c-.22,.44-.53,.78-.91,1.02-.38,.24-.81,.36-1.29,.36-.41,0-.77-.08-1.08-.24-.31-.16-.56-.38-.75-.64v.79h-1.4v-7.4h1.4v2.67c.18-.27,.43-.48,.75-.65Zm1.98,1.73c-.14-.24-.32-.43-.54-.56s-.46-.19-.73-.19-.49,.06-.71,.19c-.22,.13-.4,.32-.54,.56-.14,.25-.21,.54-.21,.87s.07,.62,.21,.87,.32,.44,.54,.56c.22,.13,.46,.19,.71,.19s.5-.07,.73-.2,.4-.32,.54-.57c.14-.25,.21-.54,.21-.88s-.07-.62-.21-.86Z"/><path class="cls-1" d="M42.64,167.88c0,.61-.15,1.05-.46,1.32-.3,.27-.74,.41-1.3,.41h-.62v-1.19h.4c.21,0,.36-.04,.45-.12,.09-.08,.13-.22,.13-.41v-6.46h1.4v6.45Zm-1.31-7.35c-.16-.16-.25-.35-.25-.58s.08-.43,.25-.58,.37-.23,.62-.23,.45,.08,.61,.23c.16,.16,.24,.35,.24,.58s-.08,.43-.24,.58c-.16,.16-.36,.23-.61,.23s-.46-.08-.62-.23Z"/><path class="cls-1" d="M49.13,164.62h-4.05c.03,.4,.17,.71,.42,.94,.25,.23,.55,.34,.91,.34,.52,0,.89-.22,1.11-.67h1.51c-.16,.53-.47,.97-.92,1.32-.45,.34-1.01,.51-1.67,.51-.53,0-1.01-.12-1.44-.35-.42-.24-.75-.57-.99-1-.24-.43-.35-.93-.35-1.5s.12-1.08,.35-1.51c.23-.43,.56-.77,.98-1s.9-.35,1.45-.35,1,.11,1.42,.34,.74,.55,.97,.96c.23,.42,.34,.9,.34,1.44,0,.2-.01,.38-.04,.54Zm-1.41-.94c0-.36-.14-.65-.39-.86-.25-.22-.56-.33-.93-.33-.35,0-.64,.1-.88,.31-.24,.21-.38,.5-.44,.88h2.63Z"/><path class="cls-1" d="M51.82,162.58v2.68c0,.19,.05,.32,.14,.4,.09,.08,.24,.12,.46,.12h.65v1.18h-.88c-1.18,0-1.77-.57-1.77-1.72v-2.67h-.66v-1.15h.66v-1.37h1.41v1.37h1.24v1.15h-1.24Z"/><path class="cls-1" d="M54.16,160.53c-.16-.16-.25-.35-.25-.58s.08-.43,.25-.58c.16-.16,.37-.23,.61-.23s.45,.08,.62,.23c.16,.16,.24,.35,.24,.58s-.08,.43-.24,.58c-.16,.16-.37,.23-.62,.23s-.45-.08-.61-.23Zm1.3,.9v5.54h-1.4v-5.54h1.4Z"/><path class="cls-1" d="M59.16,165.68l1.4-4.25h1.49l-2.05,5.54h-1.7l-2.04-5.54h1.5l1.4,4.25Z"/><path class="cls-1" d="M63.86,166.7c-.43-.24-.76-.57-1-1-.24-.43-.37-.93-.37-1.5s.12-1.07,.38-1.5c.25-.43,.59-.77,1.03-1,.43-.24,.92-.35,1.45-.35s1.02,.12,1.45,.35c.43,.24,.78,.57,1.03,1,.25,.43,.38,.93,.38,1.5s-.13,1.07-.38,1.5c-.26,.43-.6,.77-1.04,1-.44,.24-.92,.35-1.46,.35s-1.01-.12-1.44-.35Zm2.16-1.05c.22-.12,.4-.31,.54-.56,.13-.25,.2-.55,.2-.9,0-.53-.14-.93-.42-1.21-.28-.28-.61-.43-1.01-.43s-.74,.14-1,.43c-.27,.28-.41,.69-.41,1.21s.13,.93,.4,1.21c.26,.28,.59,.43,1,.43,.25,0,.49-.06,.71-.19Z"/><path class="cls-1" d="M71.57,162.69c.22-.43,.53-.77,.92-1s.82-.35,1.29-.35c.36,0,.7,.08,1.03,.23,.33,.16,.59,.37,.78,.62v-2.63h1.42v7.4h-1.42v-.82c-.17,.27-.42,.49-.73,.66s-.68,.25-1.09,.25c-.47,0-.89-.12-1.28-.36-.39-.24-.69-.58-.92-1.02-.22-.44-.33-.94-.33-1.5s.11-1.06,.33-1.49Zm3.83,.63c-.13-.24-.31-.43-.54-.56s-.47-.19-.73-.19-.5,.06-.72,.19-.4,.31-.54,.56c-.14,.24-.21,.53-.21,.86s.07,.62,.21,.88,.32,.44,.54,.58,.46,.2,.71,.2,.5-.06,.73-.19,.41-.32,.54-.56c.13-.24,.2-.54,.2-.88s-.07-.63-.2-.88Z"/><path class="cls-1" d="M83.49,164.62h-4.05c.03,.4,.17,.71,.42,.94,.25,.23,.55,.34,.91,.34,.52,0,.89-.22,1.11-.67h1.51c-.16,.53-.47,.97-.92,1.32-.45,.34-1.01,.51-1.67,.51-.53,0-1.01-.12-1.44-.35-.42-.24-.75-.57-.99-1-.24-.43-.35-.93-.35-1.5s.12-1.08,.35-1.51c.23-.43,.56-.77,.98-1s.9-.35,1.45-.35,1,.11,1.42,.34c.42,.23,.74,.55,.97,.96,.23,.42,.34,.9,.34,1.44,0,.2-.01,.38-.04,.54Zm-1.41-.94c0-.36-.14-.65-.39-.86-.25-.22-.56-.33-.93-.33-.35,0-.64,.1-.88,.31-.24,.21-.38,.5-.44,.88h2.63Z"/><path class="cls-1" d="M23.37,177.64h-2.78l-.46,1.33h-1.47l2.51-6.99h1.63l2.51,6.99h-1.48l-.46-1.33Zm-.38-1.12l-1.01-2.92-1.01,2.92h2.02Z"/><path class="cls-1" d="M28.39,173.59c.32-.17,.68-.25,1.08-.25,.47,0,.9,.12,1.29,.35s.69,.56,.91,.99c.22,.43,.33,.93,.33,1.5s-.11,1.07-.33,1.5c-.22,.44-.53,.78-.91,1.02s-.81,.36-1.29,.36c-.41,0-.77-.08-1.07-.25-.31-.17-.56-.38-.76-.63v3.43h-1.4v-8.18h1.4v.8c.18-.25,.43-.46,.75-.63Zm1.98,1.72c-.14-.24-.32-.43-.54-.56-.22-.13-.46-.19-.73-.19s-.49,.06-.71,.19c-.22,.13-.4,.32-.54,.57s-.21,.54-.21,.87,.07,.62,.21,.87c.14,.25,.32,.43,.54,.56,.22,.13,.46,.2,.71,.2s.5-.07,.73-.2c.22-.13,.4-.32,.54-.57,.14-.25,.21-.54,.21-.88s-.07-.62-.21-.86Z"/><path class="cls-1" d="M35.13,173.6c.29-.17,.62-.25,1-.25v1.47h-.37c-.44,0-.77,.1-1,.31-.22,.21-.33,.57-.33,1.08v2.76h-1.4v-5.54h1.4v.86c.18-.29,.42-.52,.71-.69Z"/><path class="cls-1" d="M42.18,176.62h-4.05c.03,.4,.17,.71,.42,.94,.25,.23,.55,.34,.91,.34,.52,0,.89-.22,1.11-.67h1.51c-.16,.53-.47,.97-.92,1.32-.45,.34-1.01,.51-1.67,.51-.53,0-1.01-.12-1.44-.35s-.75-.57-.99-1c-.24-.43-.35-.93-.35-1.5s.12-1.08,.35-1.51c.23-.43,.56-.77,.98-1s.9-.35,1.45-.35,1,.11,1.42,.34,.74,.55,.97,.96c.23,.42,.34,.9,.34,1.44,0,.2-.01,.38-.04,.54Zm-1.41-.94c0-.36-.14-.65-.39-.86-.25-.22-.56-.33-.93-.33-.35,0-.64,.1-.88,.31-.24,.21-.38,.5-.44,.88h2.63Z"/><path class="cls-1" d="M47.91,173.97c.41,.42,.61,1,.61,1.75v3.25h-1.4v-3.06c0-.44-.11-.78-.33-1.02-.22-.24-.52-.35-.9-.35s-.69,.12-.92,.35c-.22,.24-.33,.58-.33,1.02v3.06h-1.4v-5.54h1.4v.69c.19-.24,.43-.43,.72-.57s.61-.21,.95-.21c.66,0,1.19,.21,1.6,.62Z"/><path class="cls-1" d="M49.82,174.69c.22-.43,.53-.77,.92-1s.82-.35,1.29-.35c.36,0,.7,.08,1.03,.24,.33,.16,.59,.37,.78,.62v-2.63h1.42v7.4h-1.42v-.82c-.17,.27-.42,.49-.73,.66-.31,.17-.68,.25-1.09,.25-.47,0-.89-.12-1.28-.36s-.69-.58-.92-1.02c-.22-.44-.33-.94-.33-1.5s.11-1.06,.33-1.49Zm3.83,.63c-.13-.24-.31-.43-.54-.56-.23-.13-.47-.19-.73-.19s-.5,.06-.72,.19c-.22,.13-.4,.31-.54,.56-.14,.24-.21,.53-.21,.86s.07,.62,.21,.88,.32,.44,.54,.58c.22,.13,.46,.2,.72,.2s.5-.07,.73-.2c.23-.13,.41-.32,.54-.56,.13-.24,.2-.54,.2-.88s-.07-.63-.2-.88Z"/><path class="cls-1" d="M56.72,172.53c-.16-.16-.25-.35-.25-.58s.08-.43,.25-.58c.16-.16,.37-.24,.61-.24s.45,.08,.62,.24c.16,.16,.24,.35,.24,.58s-.08,.43-.24,.58c-.16,.16-.37,.23-.62,.23s-.45-.08-.61-.23Zm1.3,.89v5.54h-1.4v-5.54h1.4Z"/><path class="cls-1" d="M60.69,177.82h2.47v1.15h-4.06v-1.13l2.42-3.26h-2.41v-1.15h4.02v1.13l-2.44,3.26Z"/><path class="cls-1" d="M64.21,174.69c.22-.43,.53-.77,.91-1s.81-.35,1.29-.35c.41,0,.78,.08,1.09,.25,.31,.17,.56,.38,.74,.63v-.79h1.41v5.54h-1.41v-.81c-.18,.26-.43,.47-.74,.64-.32,.17-.68,.25-1.1,.25-.47,0-.89-.12-1.28-.36s-.69-.58-.91-1.02c-.22-.44-.33-.94-.33-1.5s.11-1.06,.33-1.49Zm3.83,.63c-.13-.24-.31-.43-.54-.56s-.47-.19-.73-.19-.5,.06-.72,.19c-.22,.13-.4,.31-.54,.56-.14,.24-.21,.53-.21,.86s.07,.62,.21,.88,.32,.44,.54,.58c.22,.13,.46,.2,.71,.2s.5-.07,.73-.2,.41-.32,.54-.56c.13-.24,.2-.54,.2-.88s-.07-.63-.2-.88Z"/><path class="cls-1" d="M74.28,173.58c.31,.16,.56,.38,.74,.63v-.79h1.41v5.58c0,.51-.1,.97-.31,1.38-.21,.4-.52,.72-.93,.96-.41,.24-.91,.36-1.5,.36-.79,0-1.43-.18-1.94-.55-.5-.37-.79-.87-.85-1.5h1.39c.07,.25,.23,.45,.47,.6,.24,.15,.54,.22,.89,.22,.41,0,.74-.12,.99-.36,.25-.24,.38-.61,.38-1.11v-.86c-.18,.26-.43,.48-.75,.65-.32,.17-.68,.26-1.08,.26-.47,0-.89-.12-1.28-.36s-.69-.58-.92-1.02c-.22-.44-.33-.94-.33-1.5s.11-1.06,.33-1.49c.22-.43,.53-.77,.91-1,.38-.23,.81-.35,1.29-.35,.41,0,.78,.08,1.09,.25Zm.54,1.74c-.13-.24-.31-.43-.54-.56s-.47-.19-.73-.19-.5,.06-.72,.19c-.22,.13-.4,.31-.54,.56-.14,.24-.21,.53-.21,.86s.07,.62,.21,.88,.32,.44,.54,.58c.22,.13,.46,.2,.71,.2s.5-.07,.73-.2,.41-.32,.54-.56c.13-.24,.2-.54,.2-.88s-.07-.63-.2-.88Z"/><path class="cls-1" d="M82.91,176.62h-4.05c.03,.4,.17,.71,.42,.94,.25,.23,.55,.34,.91,.34,.52,0,.89-.22,1.11-.67h1.51c-.16,.53-.47,.97-.92,1.32-.45,.34-1.01,.51-1.67,.51-.53,0-1.01-.12-1.44-.35-.42-.24-.75-.57-.99-1-.24-.43-.35-.93-.35-1.5s.12-1.08,.35-1.51c.23-.43,.56-.77,.98-1s.9-.35,1.45-.35,1,.11,1.42,.34c.42,.23,.74,.55,.97,.96,.23,.42,.34,.9,.34,1.44,0,.2-.01,.38-.04,.54Zm-1.41-.94c0-.36-.14-.65-.39-.86-.25-.22-.56-.33-.93-.33-.35,0-.64,.1-.88,.31-.24,.21-.38,.5-.44,.88h2.63Z"/><path class="cls-1" d="M92.49,173.97c.42,.42,.62,1,.62,1.75v3.25h-1.4v-3.06c0-.43-.11-.77-.33-1-.22-.23-.52-.34-.9-.34s-.68,.11-.91,.34c-.22,.23-.33,.56-.33,1v3.06h-1.4v-3.06c0-.43-.11-.77-.33-1-.22-.23-.52-.34-.9-.34s-.69,.11-.92,.34c-.22,.23-.33,.56-.33,1v3.06h-1.4v-5.54h1.4v.67c.18-.23,.41-.42,.7-.55,.28-.13,.59-.2,.93-.2,.43,0,.82,.09,1.16,.28s.6,.45,.79,.79c.18-.32,.44-.58,.79-.77,.34-.19,.71-.29,1.12-.29,.68,0,1.23,.21,1.64,.62Z"/></g><g><path class="cls-1" d="M273.7,75.98c.25,.32,.38,.69,.38,1.1,0,.37-.09,.7-.27,.99-.18,.28-.45,.5-.79,.66-.35,.16-.76,.24-1.23,.24h-3.01v-6.98h2.88c.47,0,.88,.08,1.22,.23,.34,.15,.6,.37,.78,.64s.26,.58,.26,.93c0,.41-.11,.75-.32,1.02-.22,.27-.51,.47-.87,.58,.39,.07,.72,.27,.97,.59Zm-3.53-1.11h1.28c.33,0,.59-.07,.77-.23,.18-.15,.27-.36,.27-.65s-.09-.5-.27-.65c-.18-.15-.44-.23-.77-.23h-1.28v1.75Zm2.21,2.72c.19-.16,.29-.39,.29-.68s-.1-.54-.3-.71-.47-.25-.81-.25h-1.38v1.88h1.41c.34,0,.61-.08,.79-.24Z"/><path class="cls-1" d="M275.29,72.53c-.16-.16-.25-.35-.25-.58s.08-.43,.25-.58,.37-.23,.62-.23,.45,.08,.62,.23,.24,.35,.24,.58-.08,.43-.24,.58-.37,.23-.62,.23-.45-.08-.62-.23Zm1.3,.9v5.54h-1.4v-5.54h1.4Z"/><path class="cls-1" d="M280.12,73.59c.32-.17,.68-.25,1.08-.25,.47,0,.9,.12,1.29,.35,.38,.23,.69,.56,.91,.99,.22,.43,.33,.93,.33,1.5s-.11,1.07-.33,1.5c-.22,.44-.53,.78-.91,1.02-.38,.24-.81,.36-1.29,.36-.41,0-.78-.08-1.08-.24-.31-.16-.56-.38-.75-.64v.79h-1.4v-7.4h1.4v2.67c.18-.27,.43-.48,.75-.65Zm1.98,1.73c-.14-.24-.32-.43-.54-.56-.22-.13-.47-.19-.73-.19s-.49,.06-.71,.19-.4,.32-.54,.56c-.14,.25-.21,.54-.21,.87s.07,.62,.21,.87,.32,.44,.54,.56,.46,.19,.71,.19,.5-.07,.73-.2c.22-.13,.4-.32,.54-.57,.14-.25,.2-.54,.2-.88s-.07-.62-.2-.86Z"/><path class="cls-1" d="M286.16,71.57v7.4h-1.4v-7.4h1.4Z"/><path class="cls-1" d="M287.63,72.53c-.16-.16-.25-.35-.25-.58s.08-.43,.25-.58c.16-.16,.37-.23,.62-.23s.45,.08,.61,.23c.16,.16,.25,.35,.25,.58s-.08,.43-.25,.58c-.16,.16-.37,.23-.61,.23s-.45-.08-.62-.23Zm1.3,.9v5.54h-1.4v-5.54h1.4Z"/><path class="cls-1" d="M291.34,78.7c-.43-.24-.76-.57-1-1-.24-.43-.37-.93-.37-1.5s.12-1.07,.38-1.5c.25-.43,.59-.77,1.03-1,.43-.24,.92-.35,1.45-.35s1.02,.12,1.45,.35c.43,.24,.78,.57,1.03,1,.25,.43,.38,.93,.38,1.5s-.13,1.07-.38,1.5c-.26,.43-.6,.77-1.04,1-.44,.24-.92,.35-1.46,.35s-1.01-.12-1.44-.35Zm2.16-1.05c.22-.12,.4-.31,.54-.56,.13-.25,.2-.55,.2-.9,0-.53-.14-.93-.42-1.21-.28-.28-.61-.43-1.01-.43s-.74,.14-1,.43c-.27,.28-.41,.69-.41,1.21s.13,.93,.4,1.21c.26,.28,.59,.43,1,.43,.25,0,.49-.06,.71-.19Z"/><path class="cls-1" d="M299.96,73.58c.31,.16,.56,.38,.74,.63v-.79h1.41v5.58c0,.51-.1,.97-.31,1.38-.21,.4-.52,.72-.93,.96-.41,.24-.91,.35-1.5,.35-.79,0-1.43-.18-1.94-.55-.5-.37-.79-.87-.85-1.5h1.39c.07,.25,.23,.45,.47,.6,.24,.15,.54,.22,.89,.22,.41,0,.74-.12,.99-.36,.25-.24,.38-.61,.38-1.1v-.86c-.18,.26-.43,.48-.75,.65-.32,.17-.68,.26-1.08,.26-.47,0-.89-.12-1.28-.36-.39-.24-.69-.58-.92-1.02-.22-.44-.33-.94-.33-1.5s.11-1.06,.33-1.49c.22-.43,.53-.77,.91-1,.38-.23,.81-.35,1.29-.35,.41,0,.78,.08,1.09,.25Zm.54,1.74c-.13-.24-.31-.43-.54-.56s-.47-.19-.73-.19-.5,.06-.72,.19-.4,.31-.54,.56c-.14,.24-.21,.53-.21,.86s.07,.62,.21,.88,.32,.44,.54,.58,.46,.2,.71,.2,.5-.06,.73-.19,.41-.32,.54-.56c.13-.24,.2-.54,.2-.88s-.07-.63-.2-.88Z"/><path class="cls-1" d="M305.58,73.6c.29-.17,.62-.25,1-.25v1.47h-.37c-.44,0-.77,.1-1,.31s-.33,.57-.33,1.08v2.76h-1.4v-5.54h1.4v.86c.18-.29,.42-.52,.71-.69Z"/><path class="cls-1" d="M307.49,74.69c.22-.43,.53-.77,.91-1,.38-.23,.81-.35,1.29-.35,.41,0,.77,.08,1.08,.25,.31,.17,.56,.38,.75,.63v-.79h1.41v5.54h-1.41v-.81c-.18,.26-.43,.48-.75,.65-.32,.17-.68,.25-1.1,.25-.47,0-.89-.12-1.27-.36-.38-.24-.69-.58-.91-1.02-.22-.44-.33-.94-.33-1.5s.11-1.06,.33-1.49Zm3.83,.63c-.13-.24-.31-.43-.54-.56s-.47-.19-.73-.19-.5,.06-.72,.19-.4,.31-.54,.56c-.14,.24-.21,.53-.21,.86s.07,.62,.21,.88,.32,.44,.54,.58,.46,.2,.71,.2,.5-.06,.73-.19,.41-.32,.54-.56c.13-.24,.2-.54,.2-.88s-.07-.63-.2-.88Z"/><path class="cls-1" d="M316.84,74.58h-.97v4.39h-1.42v-4.39h-.63v-1.15h.63v-.28c0-.68,.19-1.18,.58-1.5,.39-.32,.97-.47,1.75-.45v1.18c-.34,0-.58,.05-.71,.17s-.2,.34-.2,.65v.23h.97v1.15Z"/><path class="cls-1" d="M317.84,72.53c-.16-.16-.25-.35-.25-.58s.08-.43,.25-.58c.16-.16,.37-.23,.62-.23s.45,.08,.61,.23c.16,.16,.25,.35,.25,.58s-.08,.43-.25,.58c-.16,.16-.37,.23-.61,.23s-.45-.08-.62-.23Zm1.3,.9v5.54h-1.4v-5.54h1.4Z"/><path class="cls-1" d="M320.5,74.69c.22-.43,.53-.77,.91-1,.38-.23,.81-.35,1.29-.35,.41,0,.77,.08,1.08,.25,.31,.17,.56,.38,.75,.63v-.79h1.41v5.54h-1.41v-.81c-.18,.26-.43,.48-.75,.65-.32,.17-.68,.25-1.1,.25-.47,0-.89-.12-1.27-.36-.38-.24-.69-.58-.91-1.02-.22-.44-.33-.94-.33-1.5s.11-1.06,.33-1.49Zm3.83,.63c-.13-.24-.31-.43-.54-.56s-.47-.19-.73-.19-.5,.06-.72,.19-.4,.31-.54,.56c-.14,.24-.21,.53-.21,.86s.07,.62,.21,.88,.32,.44,.54,.58,.46,.2,.71,.2,.5-.06,.73-.19,.41-.32,.54-.56c.13-.24,.2-.54,.2-.88s-.07-.63-.2-.88Z"/></g><g><path class="cls-1" d="M59.14,72.42c.56,.29,.99,.69,1.29,1.22,.3,.53,.46,1.15,.46,1.85s-.15,1.31-.46,1.83-.73,.93-1.29,1.21c-.56,.29-1.2,.43-1.94,.43h-2.44v-6.98h2.44c.73,0,1.38,.14,1.94,.43Zm-.29,4.76c.4-.4,.6-.96,.6-1.69s-.2-1.29-.6-1.71c-.4-.41-.97-.61-1.7-.61h-.99v4.61h.99c.73,0,1.3-.2,1.7-.6Z"/><path class="cls-1" d="M61.91,74.69c.22-.43,.53-.77,.91-1,.38-.23,.81-.35,1.29-.35,.41,0,.77,.08,1.08,.25s.56,.38,.75,.63v-.79h1.41v5.54h-1.41v-.81c-.18,.26-.43,.48-.75,.65s-.68,.25-1.1,.25c-.47,0-.89-.12-1.27-.36-.38-.24-.69-.58-.91-1.02-.22-.44-.34-.94-.34-1.5s.11-1.06,.34-1.49Zm3.82,.63c-.13-.24-.31-.43-.54-.56s-.47-.19-.73-.19-.5,.06-.72,.19c-.22,.13-.4,.31-.54,.56-.14,.24-.21,.53-.21,.86s.07,.62,.21,.88,.32,.44,.54,.58c.22,.13,.46,.2,.71,.2s.5-.06,.73-.19,.41-.32,.54-.56c.13-.24,.2-.54,.2-.88s-.07-.63-.2-.88Z"/><path class="cls-1" d="M68.69,74.69c.22-.43,.53-.77,.92-1s.82-.35,1.29-.35c.36,0,.7,.08,1.03,.23,.33,.16,.59,.37,.78,.62v-2.63h1.42v7.4h-1.42v-.82c-.17,.27-.42,.49-.73,.66s-.68,.25-1.09,.25c-.47,0-.89-.12-1.28-.36-.39-.24-.69-.58-.92-1.02-.22-.44-.33-.94-.33-1.5s.11-1.06,.33-1.49Zm3.83,.63c-.13-.24-.31-.43-.54-.56s-.47-.19-.73-.19-.5,.06-.72,.19-.4,.31-.54,.56c-.14,.24-.21,.53-.21,.86s.07,.62,.21,.88,.32,.44,.54,.58,.46,.2,.71,.2,.5-.06,.73-.19,.41-.32,.54-.56c.13-.24,.2-.54,.2-.88s-.07-.63-.2-.88Z"/><path class="cls-1" d="M76.52,78.7c-.43-.24-.76-.57-1-1-.24-.43-.37-.93-.37-1.5s.12-1.07,.38-1.5c.25-.43,.59-.77,1.03-1,.43-.24,.92-.35,1.45-.35s1.02,.12,1.45,.35c.43,.24,.78,.57,1.03,1,.25,.43,.38,.93,.38,1.5s-.13,1.07-.38,1.5c-.26,.43-.6,.77-1.04,1-.44,.24-.92,.35-1.46,.35s-1.01-.12-1.44-.35Zm2.16-1.05c.22-.12,.4-.31,.54-.56,.13-.25,.2-.55,.2-.9,0-.53-.14-.93-.42-1.21-.28-.28-.61-.43-1.01-.43s-.74,.14-1,.43c-.27,.28-.41,.69-.41,1.21s.13,.93,.4,1.21c.26,.28,.59,.43,1,.43,.25,0,.49-.06,.71-.19Z"/><path class="cls-1" d="M82.78,78.81c-.36-.16-.64-.39-.85-.67-.21-.28-.33-.59-.35-.93h1.41c.03,.21,.13,.39,.32,.53,.18,.14,.41,.21,.68,.21s.48-.05,.62-.16c.15-.11,.23-.24,.23-.41,0-.18-.09-.31-.28-.4-.18-.09-.47-.19-.88-.29-.41-.1-.75-.2-1.01-.31-.26-.11-.49-.27-.68-.49-.19-.22-.29-.52-.29-.89,0-.31,.09-.59,.27-.84s.43-.45,.76-.6c.33-.15,.72-.22,1.17-.22,.66,0,1.19,.17,1.58,.5,.39,.33,.61,.77,.65,1.33h-1.34c-.02-.22-.11-.4-.27-.53-.16-.13-.38-.19-.66-.19-.25,0-.45,.05-.58,.14s-.21,.22-.21,.39c0,.19,.09,.33,.28,.43s.48,.19,.87,.29c.4,.1,.73,.2,.99,.31,.26,.11,.49,.27,.68,.5,.19,.22,.29,.52,.29,.88,0,.32-.09,.61-.27,.86-.18,.25-.43,.45-.76,.6s-.71,.21-1.16,.21-.86-.08-1.22-.24Z"/><path class="cls-1" d="M94.57,74.09c-.16-.29-.38-.52-.66-.67-.28-.15-.61-.23-.98-.23-.41,0-.78,.09-1.1,.28-.32,.19-.57,.45-.75,.8-.18,.35-.27,.75-.27,1.2s.09,.87,.28,1.22c.18,.35,.44,.61,.76,.8,.33,.19,.71,.28,1.14,.28,.53,0,.97-.14,1.31-.42s.56-.68,.67-1.19h-2.4v-1.07h3.78v1.22c-.09,.49-.29,.94-.6,1.35-.31,.41-.7,.75-1.19,1s-1.03,.38-1.62,.38c-.67,0-1.28-.15-1.83-.46-.54-.3-.97-.73-1.28-1.27-.31-.54-.47-1.15-.47-1.84s.16-1.3,.47-1.85c.31-.54,.74-.97,1.28-1.27,.54-.3,1.15-.45,1.82-.45,.79,0,1.47,.19,2.05,.57,.58,.38,.98,.92,1.2,1.62h-1.61Z"/><path class="cls-1" d="M102.5,76.62h-4.05c.03,.4,.17,.71,.42,.94,.25,.23,.55,.34,.91,.34,.52,0,.89-.22,1.11-.67h1.51c-.16,.53-.47,.97-.92,1.32-.45,.34-1.01,.51-1.67,.51-.53,0-1.01-.12-1.44-.35-.42-.24-.75-.57-.99-1-.24-.43-.35-.93-.35-1.5s.12-1.08,.35-1.51c.23-.43,.56-.77,.98-1s.9-.35,1.45-.35,1,.11,1.42,.34c.42,.23,.74,.55,.97,.96,.23,.42,.34,.9,.34,1.44,0,.2-.01,.38-.04,.54Zm-1.41-.94c0-.36-.14-.65-.39-.86-.25-.22-.56-.33-.93-.33-.35,0-.64,.1-.88,.31-.24,.21-.38,.5-.44,.88h2.63Z"/><path class="cls-1" d="M105.66,73.6c.29-.17,.62-.25,1-.25v1.47h-.37c-.44,0-.77,.1-1,.31s-.33,.57-.33,1.08v2.76h-1.4v-5.54h1.4v.86c.18-.29,.42-.52,.71-.69Z"/><path class="cls-1" d="M107.57,74.69c.22-.43,.53-.77,.91-1,.38-.23,.81-.35,1.29-.35,.41,0,.77,.08,1.08,.25,.31,.17,.56,.38,.75,.63v-.79h1.41v5.54h-1.41v-.81c-.18,.26-.43,.48-.75,.65-.32,.17-.68,.25-1.1,.25-.47,0-.89-.12-1.27-.36-.38-.24-.69-.58-.91-1.02-.22-.44-.33-.94-.33-1.5s.11-1.06,.33-1.49Zm3.83,.63c-.13-.24-.31-.43-.54-.56s-.47-.19-.73-.19-.5,.06-.72,.19-.4,.31-.54,.56c-.14,.24-.21,.53-.21,.86s.07,.62,.21,.88,.32,.44,.54,.58,.46,.2,.71,.2,.5-.06,.73-.19,.41-.32,.54-.56c.13-.24,.2-.54,.2-.88s-.07-.63-.2-.88Z"/><path class="cls-1" d="M114.47,72.53c-.16-.16-.25-.35-.25-.58s.08-.43,.25-.58c.16-.16,.37-.23,.62-.23s.45,.08,.61,.23c.16,.16,.25,.35,.25,.58s-.08,.43-.25,.58c-.16,.16-.37,.23-.61,.23s-.45-.08-.62-.23Zm1.3,.9v5.54h-1.4v-5.54h1.4Z"/><path class="cls-1" d="M118.06,78.81c-.36-.16-.64-.39-.85-.67-.21-.28-.33-.59-.35-.93h1.41c.03,.21,.13,.39,.32,.53,.18,.14,.41,.21,.68,.21s.48-.05,.62-.16c.15-.11,.23-.24,.23-.41,0-.18-.09-.31-.28-.4-.18-.09-.47-.19-.88-.29-.41-.1-.75-.2-1.01-.31-.26-.11-.49-.27-.68-.49-.19-.22-.29-.52-.29-.89,0-.31,.09-.59,.27-.84s.43-.45,.76-.6c.33-.15,.72-.22,1.17-.22,.66,0,1.19,.17,1.58,.5,.39,.33,.61,.77,.65,1.33h-1.34c-.02-.22-.11-.4-.27-.53-.16-.13-.38-.19-.66-.19-.25,0-.45,.05-.58,.14s-.21,.22-.21,.39c0,.19,.09,.33,.28,.43s.48,.19,.87,.29c.4,.1,.73,.2,.99,.31,.26,.11,.49,.27,.68,.5,.19,.22,.29,.52,.29,.88,0,.32-.09,.61-.27,.86-.18,.25-.43,.45-.76,.6s-.71,.21-1.16,.21-.86-.08-1.22-.24Z"/></g><g><path class="cls-1" d="M311.05,173.64h-2.78l-.46,1.33h-1.47l2.51-6.99h1.63l2.51,6.99h-1.48l-.46-1.33Zm-.38-1.12l-1.01-2.92-1.01,2.92h2.02Z"/><path class="cls-1" d="M316.24,173.68l1.4-4.25h1.49l-2.05,5.54h-1.7l-2.04-5.54h1.5l1.4,4.25Z"/><path class="cls-1" d="M319.89,170.69c.22-.43,.53-.77,.91-1,.38-.23,.81-.35,1.29-.35,.41,0,.77,.08,1.08,.25,.31,.17,.56,.38,.75,.63v-.79h1.41v5.54h-1.41v-.81c-.18,.26-.43,.47-.75,.64-.32,.17-.68,.25-1.1,.25-.47,0-.89-.12-1.27-.36-.38-.24-.69-.58-.91-1.02-.22-.44-.33-.94-.33-1.5s.11-1.06,.33-1.49Zm3.83,.63c-.13-.24-.31-.43-.54-.56s-.47-.19-.73-.19-.5,.06-.72,.19-.4,.31-.54,.56-.21,.53-.21,.86,.07,.62,.21,.88,.32,.44,.54,.58c.22,.13,.46,.2,.71,.2s.5-.07,.73-.2,.41-.32,.54-.56c.13-.24,.2-.54,.2-.88s-.07-.63-.2-.88Z"/><path class="cls-1" d="M328.1,167.57v7.4h-1.4v-7.4h1.4Z"/><path class="cls-1" d="M329.57,168.53c-.16-.16-.25-.35-.25-.58s.08-.43,.25-.58c.16-.16,.37-.23,.62-.23s.45,.08,.61,.23c.16,.16,.25,.35,.25,.58s-.08,.43-.25,.58c-.16,.16-.37,.23-.61,.23s-.45-.08-.62-.23Zm1.3,.9v5.54h-1.4v-5.54h1.4Z"/><path class="cls-1" d="M332.23,170.69c.22-.43,.53-.77,.91-1,.38-.23,.81-.35,1.29-.35,.41,0,.77,.08,1.08,.25,.31,.17,.56,.38,.75,.63v-.79h1.41v5.54h-1.41v-.81c-.18,.26-.43,.47-.75,.64-.32,.17-.68,.25-1.1,.25-.47,0-.89-.12-1.27-.36-.38-.24-.69-.58-.91-1.02-.22-.44-.33-.94-.33-1.5s.11-1.06,.33-1.49Zm3.83,.63c-.13-.24-.31-.43-.54-.56s-.47-.19-.73-.19-.5,.06-.72,.19-.4,.31-.54,.56-.21,.53-.21,.86,.07,.62,.21,.88,.32,.44,.54,.58c.22,.13,.46,.2,.71,.2s.5-.07,.73-.2,.41-.32,.54-.56c.13-.24,.2-.54,.2-.88s-.07-.63-.2-.88Z"/><path class="cls-1" d="M342.52,173.1h1.51c-.14,.54-.4,.98-.77,1.32-.38,.34-.85,.54-1.42,.61v.39c.37,0,.67,.09,.92,.28s.38,.46,.38,.81-.13,.64-.38,.83c-.26,.19-.57,.29-.95,.29h-1.42v-.82h1.19c.16,0,.28-.02,.36-.07,.08-.05,.12-.13,.12-.25s-.04-.2-.12-.25c-.08-.04-.21-.07-.36-.07h-.62v-1.15c-.45-.07-.85-.23-1.2-.48-.34-.25-.61-.58-.8-.98-.19-.4-.29-.86-.29-1.38,0-.57,.12-1.08,.35-1.51,.23-.43,.56-.76,.97-1,.41-.24,.89-.35,1.42-.35,.69,0,1.25,.17,1.71,.51,.45,.34,.75,.83,.9,1.45h-1.51c-.08-.24-.21-.43-.41-.56-.19-.14-.42-.21-.71-.21-.4,0-.72,.15-.95,.44s-.35,.7-.35,1.24,.12,.93,.35,1.22,.55,.44,.95,.44c.57,0,.94-.25,1.11-.76Z"/><path class="cls-1" d="M345.03,170.69c.22-.43,.53-.77,.91-1,.38-.23,.81-.35,1.29-.35,.41,0,.77,.08,1.08,.25,.31,.17,.56,.38,.75,.63v-.79h1.41v5.54h-1.41v-.81c-.18,.26-.43,.47-.75,.64-.32,.17-.68,.25-1.1,.25-.47,0-.89-.12-1.27-.36-.38-.24-.69-.58-.91-1.02-.22-.44-.33-.94-.33-1.5s.11-1.06,.33-1.49Zm1.36-2.78c.22-.22,.49-.32,.82-.32,.14,0,.26,.02,.37,.06s.23,.1,.36,.19c.2,.13,.37,.19,.5,.19,.25,0,.39-.14,.43-.43h.75c-.06,.44-.2,.77-.42,.99-.22,.22-.49,.32-.83,.32-.14,0-.26-.02-.37-.06-.11-.04-.23-.1-.36-.19-.19-.13-.36-.2-.5-.2-.25,0-.39,.15-.44,.44h-.74c.06-.44,.2-.77,.42-.99Zm2.46,3.41c-.13-.24-.31-.43-.54-.56s-.47-.19-.73-.19-.5,.06-.72,.19-.4,.31-.54,.56-.21,.53-.21,.86,.07,.62,.21,.88,.32,.44,.54,.58c.22,.13,.46,.2,.71,.2s.5-.07,.73-.2,.41-.32,.54-.56c.13-.24,.2-.54,.2-.88s-.07-.63-.2-.88Z"/><path class="cls-1" d="M352.86,174.7c-.43-.24-.76-.57-1-1s-.37-.93-.37-1.5,.12-1.07,.38-1.5c.25-.43,.59-.77,1.03-1,.43-.24,.92-.35,1.45-.35s1.02,.12,1.45,.35c.43,.24,.78,.57,1.03,1,.25,.43,.38,.93,.38,1.5s-.13,1.07-.38,1.5c-.26,.43-.6,.77-1.04,1s-.92,.35-1.46,.35-1.01-.12-1.44-.35Zm2.16-1.05c.22-.12,.4-.31,.54-.56,.13-.25,.2-.55,.2-.9,0-.53-.14-.93-.42-1.22-.28-.28-.61-.43-1.01-.43s-.74,.14-1,.43c-.27,.28-.41,.69-.41,1.22s.13,.93,.4,1.21c.26,.28,.59,.42,1,.42,.25,0,.49-.06,.71-.18Z"/></g><g><path class="cls-1" d="M277.37,260.97l-1.54-2.72h-.66v2.72h-1.4v-6.98h2.62c.54,0,1,.09,1.38,.29,.38,.19,.67,.45,.85,.77,.19,.32,.29,.68,.29,1.08,0,.46-.13,.88-.4,1.25-.27,.37-.66,.62-1.19,.76l1.67,2.83h-1.62Zm-2.2-3.77h1.17c.38,0,.66-.09,.85-.28s.28-.44,.28-.76-.09-.57-.28-.75-.47-.26-.85-.26h-1.17v2.05Z"/><path class="cls-1" d="M285.29,258.62h-4.05c.03,.4,.17,.71,.42,.94,.25,.23,.55,.34,.91,.34,.52,0,.89-.22,1.11-.67h1.51c-.16,.53-.47,.97-.92,1.32-.45,.34-1.01,.51-1.67,.51-.53,0-1.01-.12-1.44-.35s-.75-.57-.99-1-.35-.93-.35-1.5,.12-1.08,.35-1.51c.23-.43,.56-.77,.98-1s.9-.35,1.45-.35,1,.11,1.42,.34c.42,.23,.74,.55,.97,.96,.23,.42,.34,.9,.34,1.44,0,.2-.01,.38-.04,.54Zm-1.41-.94c0-.36-.14-.65-.39-.86-.25-.22-.56-.33-.93-.33-.35,0-.64,.1-.88,.31s-.38,.5-.44,.88h2.63Z"/><path class="cls-1" d="M286.34,256.69c.23-.43,.56-.76,.97-1,.41-.24,.89-.36,1.42-.36,.69,0,1.25,.17,1.71,.51,.45,.34,.75,.83,.9,1.45h-1.51c-.08-.24-.21-.43-.41-.56-.19-.14-.42-.21-.71-.21-.4,0-.72,.14-.95,.43s-.35,.7-.35,1.24,.12,.93,.35,1.22,.55,.44,.95,.44c.57,0,.94-.25,1.11-.76h1.51c-.15,.6-.46,1.08-.91,1.43-.45,.35-1.02,.53-1.7,.53-.53,0-1.01-.12-1.42-.35-.41-.24-.74-.57-.97-1s-.35-.93-.35-1.5,.12-1.08,.35-1.5Z"/><path class="cls-1" d="M297.6,255.43v5.54h-1.41v-.7c-.18,.24-.42,.43-.71,.57s-.6,.21-.94,.21c-.43,0-.82-.09-1.15-.28-.33-.18-.59-.45-.79-.81-.19-.36-.29-.78-.29-1.28v-3.25h1.4v3.05c0,.44,.11,.78,.33,1.02s.52,.35,.9,.35,.69-.12,.91-.35c.22-.24,.33-.58,.33-1.02v-3.05h1.41Z"/><path class="cls-1" d="M301.08,255.6c.29-.17,.62-.25,1-.25v1.47h-.37c-.44,0-.77,.1-1,.31-.22,.21-.33,.57-.33,1.08v2.76h-1.4v-5.54h1.4v.86c.18-.29,.42-.52,.71-.69Z"/><path class="cls-1" d="M303.92,260.81c-.36-.16-.64-.39-.85-.67-.21-.28-.33-.59-.35-.93h1.41c.03,.21,.13,.39,.32,.53,.18,.14,.41,.21,.68,.21s.48-.05,.62-.16c.15-.11,.23-.24,.23-.41,0-.18-.09-.31-.28-.4-.18-.09-.47-.19-.88-.29-.41-.1-.75-.2-1.01-.31-.26-.11-.49-.27-.68-.49-.19-.22-.29-.52-.29-.89,0-.31,.09-.59,.27-.84,.18-.25,.43-.45,.76-.6,.33-.15,.72-.22,1.17-.22,.66,0,1.19,.17,1.58,.5s.61,.78,.65,1.33h-1.34c-.02-.22-.11-.39-.27-.53-.16-.13-.38-.19-.66-.19-.25,0-.45,.05-.58,.14-.14,.09-.21,.22-.21,.39,0,.19,.09,.33,.28,.43s.48,.19,.87,.29c.4,.1,.73,.2,.99,.31,.26,.11,.49,.27,.68,.5,.19,.22,.29,.52,.29,.88,0,.32-.09,.61-.27,.86s-.43,.45-.76,.59c-.33,.14-.71,.21-1.16,.21s-.86-.08-1.22-.24Z"/><path class="cls-1" d="M309.49,260.7c-.43-.24-.76-.57-1-1s-.37-.93-.37-1.5,.12-1.07,.38-1.5,.59-.77,1.03-1c.43-.24,.92-.36,1.45-.36s1.02,.12,1.45,.36c.43,.24,.78,.57,1.03,1s.38,.93,.38,1.5-.13,1.07-.38,1.5c-.26,.43-.6,.77-1.04,1s-.92,.35-1.46,.35-1.01-.12-1.44-.35Zm2.16-1.05c.22-.12,.4-.31,.54-.56,.13-.25,.2-.55,.2-.9,0-.53-.14-.93-.42-1.21-.28-.28-.61-.43-1.01-.43s-.74,.14-1,.43c-.27,.28-.41,.69-.41,1.21s.13,.93,.4,1.21c.26,.28,.59,.42,1,.42,.25,0,.49-.06,.71-.18Z"/><path class="cls-1" d="M315.75,260.81c-.36-.16-.64-.39-.85-.67-.21-.28-.33-.59-.35-.93h1.41c.03,.21,.13,.39,.32,.53,.18,.14,.41,.21,.68,.21s.48-.05,.62-.16c.15-.11,.23-.24,.23-.41,0-.18-.09-.31-.28-.4-.18-.09-.47-.19-.88-.29-.41-.1-.75-.2-1.01-.31-.26-.11-.49-.27-.68-.49-.19-.22-.29-.52-.29-.89,0-.31,.09-.59,.27-.84,.18-.25,.43-.45,.76-.6,.33-.15,.72-.22,1.17-.22,.66,0,1.19,.17,1.58,.5s.61,.78,.65,1.33h-1.34c-.02-.22-.11-.39-.27-.53-.16-.13-.38-.19-.66-.19-.25,0-.45,.05-.58,.14-.14,.09-.21,.22-.21,.39,0,.19,.09,.33,.28,.43s.48,.19,.87,.29c.4,.1,.73,.2,.99,.31,.26,.11,.49,.27,.68,.5,.19,.22,.29,.52,.29,.88,0,.32-.09,.61-.27,.86s-.43,.45-.76,.59c-.33,.14-.71,.21-1.16,.21s-.86-.08-1.22-.24Z"/><path class="cls-1" d="M278.14,266.42c.56,.29,.99,.7,1.29,1.22,.3,.53,.46,1.15,.46,1.85s-.15,1.31-.46,1.83c-.3,.52-.73,.93-1.29,1.21s-1.2,.43-1.94,.43h-2.44v-6.98h2.44c.73,0,1.38,.14,1.94,.43Zm-.29,4.76c.4-.4,.6-.96,.6-1.69s-.2-1.29-.6-1.71-.97-.62-1.7-.62h-.99v4.61h.99c.73,0,1.3-.2,1.7-.6Z"/><path class="cls-1" d="M281.03,266.53c-.16-.16-.25-.35-.25-.58s.08-.43,.25-.58c.16-.16,.37-.24,.62-.24s.45,.08,.62,.24c.16,.16,.24,.35,.24,.58s-.08,.43-.24,.58c-.16,.16-.37,.23-.62,.23s-.45-.08-.62-.23Zm1.3,.89v5.54h-1.4v-5.54h1.4Z"/><path class="cls-1" d="M283.69,268.69c.22-.43,.53-.77,.92-1s.82-.35,1.29-.35c.36,0,.7,.08,1.03,.24,.33,.16,.59,.37,.78,.62v-2.63h1.42v7.4h-1.42v-.82c-.17,.27-.42,.49-.73,.66-.31,.17-.68,.25-1.09,.25-.47,0-.89-.12-1.28-.36s-.69-.58-.92-1.02c-.22-.44-.33-.94-.33-1.5s.11-1.06,.33-1.49Zm3.83,.63c-.13-.24-.31-.43-.54-.56s-.47-.19-.73-.19-.5,.06-.72,.19c-.22,.13-.4,.31-.54,.56-.14,.24-.21,.53-.21,.86s.07,.62,.21,.88,.32,.44,.54,.58c.22,.13,.46,.2,.71,.2s.5-.07,.73-.2,.41-.32,.54-.56c.13-.24,.2-.54,.2-.88s-.07-.63-.2-.88Z"/><path class="cls-1" d="M290.47,268.69c.22-.43,.53-.77,.91-1,.38-.23,.81-.35,1.29-.35,.41,0,.77,.08,1.08,.25,.31,.17,.56,.38,.75,.63v-.79h1.41v5.54h-1.41v-.81c-.18,.26-.43,.47-.75,.64-.32,.17-.68,.25-1.1,.25-.47,0-.89-.12-1.27-.36-.38-.24-.69-.58-.91-1.02-.22-.44-.33-.94-.33-1.5s.11-1.06,.33-1.49Zm3.83,.63c-.13-.24-.31-.43-.54-.56s-.47-.19-.73-.19-.5,.06-.72,.19c-.22,.13-.4,.31-.54,.56-.14,.24-.21,.53-.21,.86s.07,.62,.21,.88,.32,.44,.54,.58c.22,.13,.46,.2,.71,.2s.5-.07,.73-.2,.41-.32,.54-.56c.13-.24,.2-.54,.2-.88s-.07-.63-.2-.88Zm0-3.33l-2.3,1.05v-1l2.3-1.19v1.14Z"/><path class="cls-1" d="M298.91,268.58v2.68c0,.19,.04,.32,.13,.41s.24,.12,.46,.12h.65v1.18h-.88c-1.18,0-1.77-.57-1.77-1.72v-2.67h-.66v-1.15h.66v-1.37h1.41v1.37h1.24v1.15h-1.24Z"/><path class="cls-1" d="M301.25,266.53c-.16-.16-.25-.35-.25-.58s.08-.43,.25-.58c.16-.16,.37-.24,.62-.24s.45,.08,.61,.24c.16,.16,.25,.35,.25,.58s-.08,.43-.25,.58c-.16,.16-.37,.23-.61,.23s-.45-.08-.62-.23Zm1.3,.89v5.54h-1.4v-5.54h1.4Z"/><path class="cls-1" d="M303.93,268.69c.23-.43,.56-.76,.97-1,.41-.24,.89-.36,1.42-.36,.69,0,1.25,.17,1.71,.51,.45,.34,.75,.83,.9,1.45h-1.51c-.08-.24-.21-.43-.41-.56-.19-.14-.42-.21-.71-.21-.4,0-.72,.14-.95,.43s-.35,.7-.35,1.24,.12,.93,.35,1.22,.55,.44,.95,.44c.57,0,.94-.25,1.11-.76h1.51c-.15,.6-.46,1.08-.91,1.43-.45,.35-1.02,.53-1.7,.53-.53,0-1.01-.12-1.42-.35-.41-.24-.74-.57-.97-1s-.35-.93-.35-1.5,.12-1.08,.35-1.5Z"/><path class="cls-1" d="M310.98,272.7c-.43-.24-.76-.57-1-1s-.37-.93-.37-1.5,.12-1.07,.38-1.5,.59-.77,1.03-1c.43-.24,.92-.36,1.45-.36s1.02,.12,1.45,.36c.43,.24,.78,.57,1.03,1s.38,.93,.38,1.5-.13,1.07-.38,1.5c-.26,.43-.6,.77-1.04,1s-.92,.35-1.46,.35-1.01-.12-1.44-.35Zm2.16-1.05c.22-.12,.4-.31,.54-.56,.13-.25,.2-.55,.2-.9,0-.53-.14-.93-.42-1.21-.28-.28-.61-.43-1.01-.43s-.74,.14-1,.43c-.27,.28-.41,.69-.41,1.21s.13,.93,.4,1.21c.26,.28,.59,.42,1,.42,.25,0,.49-.06,.71-.18Z"/><path class="cls-1" d="M317.24,272.81c-.36-.16-.64-.39-.85-.67-.21-.28-.33-.59-.35-.93h1.41c.03,.21,.13,.39,.32,.53,.18,.14,.41,.21,.68,.21s.48-.05,.62-.16c.15-.11,.23-.24,.23-.41,0-.18-.09-.31-.28-.4-.18-.09-.47-.19-.88-.29-.41-.1-.75-.2-1.01-.31-.26-.11-.49-.27-.68-.49-.19-.22-.29-.52-.29-.89,0-.31,.09-.59,.27-.84,.18-.25,.43-.45,.76-.6,.33-.15,.72-.22,1.17-.22,.66,0,1.19,.17,1.58,.5s.61,.78,.65,1.33h-1.34c-.02-.22-.11-.39-.27-.53-.16-.13-.38-.19-.66-.19-.25,0-.45,.05-.58,.14-.14,.09-.21,.22-.21,.39,0,.19,.09,.33,.28,.43s.48,.19,.87,.29c.4,.1,.73,.2,.99,.31,.26,.11,.49,.27,.68,.5,.19,.22,.29,.52,.29,.88,0,.32-.09,.61-.27,.86s-.43,.45-.76,.59c-.33,.14-.71,.21-1.16,.21s-.86-.08-1.22-.24Z"/></g><g><path class="cls-1" d="M62.89,261.62c.31-.54,.73-.97,1.27-1.27,.54-.3,1.14-.45,1.81-.45,.78,0,1.46,.2,2.05,.6s1,.95,1.23,1.66h-1.61c-.16-.33-.39-.58-.68-.75-.29-.17-.62-.25-1-.25-.41,0-.77,.09-1.08,.29-.32,.19-.56,.46-.74,.8-.18,.35-.27,.75-.27,1.22s.09,.87,.27,1.21c.18,.35,.42,.62,.74,.81,.32,.19,.68,.29,1.08,.29,.38,0,.72-.08,1-.25,.29-.17,.52-.42,.68-.76h1.61c-.23,.71-.64,1.27-1.23,1.67-.58,.4-1.27,.6-2.05,.6-.67,0-1.27-.15-1.81-.46-.54-.3-.96-.73-1.27-1.27s-.46-1.15-.46-1.84,.15-1.3,.46-1.84Z"/><path class="cls-1" d="M71.47,266.7c-.43-.24-.76-.57-1.01-1-.24-.43-.37-.93-.37-1.5s.12-1.07,.38-1.5,.59-.77,1.03-1c.43-.24,.92-.36,1.45-.36s1.02,.12,1.45,.36c.43,.24,.78,.57,1.03,1s.38,.93,.38,1.5-.13,1.07-.38,1.5c-.26,.43-.6,.77-1.04,1-.44,.24-.92,.35-1.46,.35s-1.01-.12-1.44-.35Zm2.15-1.05c.22-.12,.4-.31,.54-.56,.13-.25,.2-.55,.2-.9,0-.53-.14-.93-.41-1.21s-.62-.43-1.02-.43-.73,.14-1,.43c-.27,.28-.41,.69-.41,1.21s.13,.93,.4,1.21c.26,.28,.59,.42,.99,.42,.25,0,.49-.06,.71-.18Z"/><path class="cls-1" d="M81.5,261.97c.41,.42,.61,1,.61,1.75v3.25h-1.4v-3.06c0-.44-.11-.78-.33-1.02-.22-.24-.52-.35-.9-.35s-.69,.12-.92,.35c-.22,.24-.33,.58-.33,1.02v3.06h-1.4v-5.54h1.4v.69c.19-.24,.42-.43,.71-.57s.61-.21,.96-.21c.66,0,1.19,.21,1.6,.62Z"/><path class="cls-1" d="M85.07,262.58v2.68c0,.19,.04,.32,.13,.41s.24,.12,.46,.12h.65v1.18h-.88c-1.18,0-1.77-.57-1.77-1.72v-2.67h-.66v-1.15h.66v-1.37h1.41v1.37h1.24v1.15h-1.24Z"/><path class="cls-1" d="M92.43,264.62h-4.05c.03,.4,.17,.71,.42,.94,.25,.23,.55,.34,.91,.34,.52,0,.89-.22,1.11-.67h1.51c-.16,.53-.47,.97-.92,1.32-.45,.34-1.01,.51-1.67,.51-.53,0-1.01-.12-1.44-.35-.42-.24-.75-.57-.99-1-.24-.43-.35-.93-.35-1.5s.12-1.08,.35-1.51c.23-.43,.56-.77,.98-1s.9-.35,1.45-.35,1,.11,1.42,.34c.42,.23,.74,.55,.97,.96,.23,.42,.34,.9,.34,1.44,0,.2-.01,.38-.04,.54Zm-1.41-.94c0-.36-.14-.65-.39-.86-.25-.22-.56-.33-.93-.33-.35,0-.64,.1-.88,.31-.24,.21-.38,.5-.44,.88h2.63Z"/><path class="cls-1" d="M98.72,261.43v5.54h-1.41v-.7c-.18,.24-.42,.43-.71,.57s-.6,.21-.94,.21c-.43,0-.82-.09-1.15-.28-.33-.18-.59-.45-.79-.81-.19-.36-.29-.78-.29-1.28v-3.25h1.4v3.05c0,.44,.11,.78,.33,1.02s.52,.35,.9,.35,.69-.12,.91-.35c.22-.24,.33-.58,.33-1.02v-3.05h1.41Zm-1.52-1.44l-2.3,1.05v-1l2.3-1.19v1.14Z"/><path class="cls-1" d="M100.07,262.69c.22-.43,.53-.77,.92-1s.82-.35,1.29-.35c.36,0,.7,.08,1.03,.24,.33,.16,.59,.37,.78,.62v-2.63h1.42v7.4h-1.42v-.82c-.17,.27-.42,.49-.73,.66-.31,.17-.68,.25-1.09,.25-.47,0-.89-.12-1.28-.36s-.69-.58-.92-1.02c-.22-.44-.33-.94-.33-1.5s.11-1.06,.33-1.49Zm3.83,.63c-.13-.24-.31-.43-.54-.56s-.47-.19-.73-.19-.5,.06-.72,.19c-.22,.13-.4,.31-.54,.56-.14,.24-.21,.53-.21,.86s.07,.62,.21,.88,.32,.44,.54,.58c.22,.13,.46,.2,.71,.2s.5-.07,.73-.2,.41-.32,.54-.56c.13-.24,.2-.54,.2-.88s-.07-.63-.2-.88Z"/><path class="cls-1" d="M107.9,266.7c-.43-.24-.76-.57-1-1s-.37-.93-.37-1.5,.12-1.07,.38-1.5,.59-.77,1.03-1c.43-.24,.92-.36,1.45-.36s1.02,.12,1.45,.36c.43,.24,.78,.57,1.03,1s.38,.93,.38,1.5-.13,1.07-.38,1.5c-.26,.43-.6,.77-1.04,1s-.92,.35-1.46,.35-1.01-.12-1.44-.35Zm2.16-1.05c.22-.12,.4-.31,.54-.56,.13-.25,.2-.55,.2-.9,0-.53-.14-.93-.42-1.21-.28-.28-.61-.43-1.01-.43s-.74,.14-1,.43c-.27,.28-.41,.69-.41,1.21s.13,.93,.4,1.21c.26,.28,.59,.42,1,.42,.25,0,.49-.06,.71-.18Z"/></g><g><path class="cls-2" d="M166.02,154.24l-.94-1.4c-.26,.05-.53,.07-.8,.07-.79,0-1.52-.19-2.18-.56s-1.19-.89-1.58-1.55-.58-1.41-.58-2.24,.19-1.58,.58-2.24,.91-1.17,1.58-1.54c.66-.37,1.39-.55,2.18-.55s1.53,.18,2.19,.55c.66,.37,1.18,.88,1.57,1.54,.38,.66,.58,1.41,.58,2.24,0,.7-.14,1.34-.42,1.93-.28,.59-.66,1.08-1.15,1.47l1.79,2.28h-2.81Zm-3.17-4.1c.34,.39,.82,.58,1.43,.58s1.07-.2,1.42-.59,.52-.92,.52-1.57-.17-1.2-.52-1.59c-.35-.39-.82-.58-1.42-.58s-1.08,.19-1.43,.58c-.34,.39-.52,.92-.52,1.59s.17,1.19,.52,1.58Z"/><path class="cls-2" d="M171.98,144.37v4.91c0,.46,.11,.81,.32,1.06,.21,.25,.53,.37,.97,.37s.76-.13,.98-.38c.22-.25,.33-.6,.33-1.05v-4.91h2.35v4.91c0,.78-.16,1.44-.49,1.99-.33,.55-.77,.96-1.34,1.24s-1.19,.41-1.88,.41-1.3-.14-1.84-.41-.96-.69-1.27-1.23c-.31-.54-.46-1.21-.46-1.99v-4.91h2.34Z"/><path class="cls-2" d="M183.58,151.45h-3l-.46,1.38h-2.47l3.08-8.46h2.71l3.07,8.46h-2.48l-.46-1.38Zm-.59-1.8l-.91-2.74-.9,2.74h1.81Z"/><path class="cls-2" d="M189.64,151.03h2.63v1.8h-4.98v-8.46h2.35v6.66Z"/><path class="cls-2" d="M195.53,144.37v8.46h-2.35v-8.46h2.35Z"/><path class="cls-2" d="M202.55,144.9c.67,.36,1.18,.85,1.54,1.49,.36,.64,.54,1.37,.54,2.2s-.18,1.54-.55,2.18c-.36,.64-.88,1.14-1.55,1.51s-1.44,.55-2.32,.55h-3.35v-8.46h3.35c.89,0,1.67,.18,2.33,.53Zm-.89,5.29c.39-.38,.59-.91,.59-1.6s-.2-1.23-.59-1.61c-.39-.38-.93-.57-1.62-.57h-.82v4.34h.82c.69,0,1.23-.19,1.62-.56Z"/><path class="cls-2" d="M211.04,151.45h-3l-.46,1.38h-2.47l3.08-8.46h2.71l3.07,8.46h-2.48l-.46-1.38Zm-.59-1.8l-.91-2.74-.9,2.74h1.81Z"/><path class="cls-2" d="M220.43,144.9c.67,.36,1.18,.85,1.54,1.49,.36,.64,.54,1.37,.54,2.2s-.18,1.54-.55,2.18c-.36,.64-.88,1.14-1.55,1.51s-1.44,.55-2.32,.55h-3.35v-8.46h3.35c.89,0,1.67,.18,2.33,.53Zm-.89,5.29c.39-.38,.59-.91,.59-1.6s-.2-1.23-.59-1.61c-.39-.38-.93-.57-1.62-.57h-.82v4.34h.82c.69,0,1.23-.19,1.62-.56Z"/><path class="cls-2" d="M225.92,146.25v1.38h2.7v1.79h-2.7v1.52h3.06v1.88h-5.41v-8.46h5.41v1.88h-3.06Z"/><path class="cls-2" d="M230.91,152.21c-.63-.47-.97-1.14-1.02-2.01h2.51c.02,.3,.11,.51,.26,.65,.15,.14,.35,.2,.59,.2,.22,0,.39-.05,.53-.16,.14-.11,.21-.26,.21-.45,0-.25-.12-.44-.35-.58-.23-.14-.61-.29-1.13-.46-.55-.18-1-.36-1.34-.53-.34-.17-.64-.42-.89-.76-.25-.33-.38-.77-.38-1.3s.14-1.01,.41-1.4c.27-.39,.65-.68,1.13-.88,.48-.2,1.02-.3,1.63-.3,.98,0,1.77,.23,2.36,.69s.9,1.11,.94,1.94h-2.56c0-.26-.09-.45-.23-.58-.15-.13-.34-.19-.57-.19-.18,0-.32,.05-.43,.16-.11,.1-.17,.25-.17,.44,0,.16,.06,.3,.19,.41,.12,.12,.28,.22,.46,.3,.18,.08,.46,.19,.82,.32,.54,.18,.98,.37,1.33,.55,.35,.18,.65,.43,.9,.76,.25,.32,.38,.73,.38,1.23s-.13,.96-.38,1.36-.62,.72-1.09,.95c-.48,.23-1.04,.35-1.69,.35-.98,0-1.79-.23-2.42-.7Z"/><path class="cls-2" d="M169.66,159.3c.67,.36,1.18,.85,1.54,1.49,.36,.64,.54,1.37,.54,2.2s-.18,1.54-.55,2.18c-.36,.64-.88,1.14-1.55,1.51s-1.44,.55-2.32,.55h-3.35v-8.46h3.35c.89,0,1.67,.18,2.33,.53Zm-.89,5.29c.39-.38,.59-.91,.59-1.6s-.2-1.23-.59-1.61c-.39-.38-.93-.57-1.62-.57h-.82v4.34h.82c.69,0,1.23-.19,1.62-.56Z"/><path class="cls-2" d="M175.15,160.65v1.38h2.7v1.79h-2.7v1.52h3.06v1.88h-5.41v-8.46h5.41v1.88h-3.06Z"/><path class="cls-2" d="M180.14,166.61c-.63-.47-.97-1.14-1.02-2.01h2.51c.02,.3,.11,.51,.26,.65,.15,.14,.35,.2,.59,.2,.22,0,.39-.05,.53-.16s.21-.26,.21-.45c0-.25-.12-.44-.35-.58s-.61-.29-1.13-.46c-.55-.18-1-.36-1.34-.53-.34-.17-.64-.42-.89-.76-.25-.33-.38-.77-.38-1.3s.14-1.01,.41-1.4c.27-.39,.65-.68,1.13-.88,.48-.2,1.02-.3,1.63-.3,.98,0,1.77,.23,2.36,.69,.59,.46,.9,1.11,.94,1.94h-2.56c0-.26-.09-.45-.23-.58-.15-.13-.34-.19-.57-.19-.18,0-.32,.05-.43,.16-.11,.1-.17,.25-.17,.44,0,.16,.06,.3,.19,.41,.12,.12,.28,.22,.46,.3s.46,.19,.82,.32c.54,.18,.98,.37,1.33,.55,.35,.18,.65,.43,.9,.76,.25,.32,.38,.73,.38,1.23s-.13,.96-.38,1.36-.62,.72-1.09,.95c-.48,.23-1.04,.35-1.69,.35-.98,0-1.79-.23-2.42-.7Z"/><path class="cls-2" d="M189.16,160.65v1.38h2.7v1.79h-2.7v1.52h3.06v1.88h-5.41v-8.46h5.41v1.88h-3.06Z"/><path class="cls-2" d="M198.99,158.77v5.6c0,.95-.26,1.68-.77,2.18-.52,.5-1.23,.76-2.13,.76-.96,0-1.73-.27-2.3-.8-.57-.54-.86-1.31-.86-2.32h2.33c0,.66,.25,1,.73,1,.43,0,.65-.27,.65-.82v-5.6h2.35Z"/><path class="cls-2" d="M205.75,165.85h-3l-.46,1.38h-2.47l3.08-8.46h2.71l3.07,8.46h-2.48l-.46-1.38Zm-.02-8.75l-3,1.18v-1.6l3-1.36v1.78Zm-.56,6.95l-.91-2.74-.9,2.74h1.81Z"/><path class="cls-2" d="M217.69,158.77l-2.92,8.46h-3.01l-2.93-8.46h2.52l1.92,6.11,1.91-6.11h2.51Z"/><path class="cls-2" d="M220.77,160.65v1.38h2.7v1.79h-2.7v1.52h3.06v1.88h-5.41v-8.46h5.41v1.88h-3.06Z"/><path class="cls-2" d="M227.35,158.77v8.46h-2.35v-8.46h2.35Z"/><path class="cls-2" d="M229.46,166.61c-.63-.47-.97-1.14-1.02-2.01h2.51c.02,.3,.11,.51,.26,.65,.15,.14,.35,.2,.59,.2,.22,0,.39-.05,.53-.16,.14-.11,.21-.26,.21-.45,0-.25-.12-.44-.35-.58-.23-.14-.61-.29-1.13-.46-.55-.18-1-.36-1.34-.53-.34-.17-.64-.42-.89-.76s-.38-.77-.38-1.3,.14-1.01,.41-1.4c.27-.39,.65-.68,1.13-.88,.48-.2,1.02-.3,1.63-.3,.98,0,1.77,.23,2.36,.69,.59,.46,.9,1.11,.94,1.94h-2.56c0-.26-.09-.45-.23-.58s-.34-.19-.57-.19c-.18,0-.32,.05-.43,.16-.11,.1-.17,.25-.17,.44,0,.16,.06,.3,.19,.41,.12,.12,.28,.22,.46,.3,.18,.08,.46,.19,.82,.32,.54,.18,.98,.37,1.33,.55,.35,.18,.65,.43,.9,.76,.25,.32,.38,.73,.38,1.23s-.13,.96-.38,1.36-.62,.72-1.09,.95c-.48,.23-1.04,.35-1.69,.35-.98,0-1.79-.23-2.42-.7Z"/><path class="cls-2" d="M146.46,175.05v1.38h2.7v1.79h-2.7v1.52h3.06v1.88h-5.41v-8.46h5.41v1.88h-3.06Z"/><path class="cls-2" d="M160.56,173.17v8.46h-2.35v-4.67l-1.6,4.67h-1.97l-1.61-4.7v4.7h-2.35v-8.46h2.84l2.12,5.5,2.08-5.5h2.83Z"/><path class="cls-2" d="M166.5,173.17v4.91c0,.46,.11,.81,.32,1.06s.53,.37,.97,.37,.76-.13,.98-.38c.22-.25,.33-.6,.33-1.05v-4.91h2.35v4.91c0,.78-.16,1.44-.49,1.99-.33,.55-.77,.96-1.34,1.24s-1.19,.41-1.88,.41-1.3-.14-1.84-.41-.96-.69-1.27-1.23c-.31-.54-.46-1.21-.46-1.99v-4.91h2.34Z"/><path class="cls-2" d="M182.62,173.17v8.46h-2.35v-4.67l-1.6,4.67h-1.97l-1.61-4.7v4.7h-2.35v-8.46h2.84l2.12,5.5,2.08-5.5h2.83Z"/><path class="cls-2" d="M188.6,173.17v8.46h-2.35v-8.46h2.35Z"/><path class="cls-2" d="M197.78,181.63h-2.35l-3.13-4.73v4.73h-2.35v-8.46h2.35l3.13,4.79v-4.79h2.35v8.46Z"/><path class="cls-2" d="M204.81,173.7c.67,.36,1.18,.85,1.54,1.49,.36,.64,.54,1.37,.54,2.2s-.18,1.54-.55,2.18c-.36,.64-.88,1.14-1.55,1.51s-1.44,.55-2.32,.55h-3.35v-8.46h3.35c.89,0,1.67,.18,2.33,.53Zm-.89,5.29c.39-.38,.59-.91,.59-1.6s-.2-1.23-.59-1.61c-.39-.38-.93-.57-1.62-.57h-.82v4.34h.82c.69,0,1.23-.19,1.62-.56Z"/><path class="cls-2" d="M210.3,173.17v8.46h-2.35v-8.46h2.35Z"/><path class="cls-2" d="M211.88,175.15c.35-.65,.84-1.16,1.48-1.52,.64-.36,1.38-.55,2.21-.55,1.06,0,1.94,.28,2.66,.85,.72,.56,1.18,1.33,1.39,2.3h-2.53c-.15-.32-.36-.56-.63-.73-.27-.17-.58-.25-.93-.25-.54,0-.98,.19-1.3,.58-.32,.39-.49,.91-.49,1.55s.16,1.18,.49,1.57c.32,.39,.76,.58,1.3,.58,.35,0,.66-.08,.93-.25,.27-.17,.48-.41,.63-.73h2.53c-.21,.97-.67,1.73-1.39,2.3-.72,.56-1.61,.85-2.66,.85-.83,0-1.57-.18-2.21-.55-.64-.36-1.13-.87-1.48-1.52-.35-.65-.52-1.4-.52-2.24s.17-1.57,.52-2.23Z"/><path class="cls-2" d="M226.09,180.25h-3l-.46,1.38h-2.47l3.08-8.46h2.71l3.07,8.46h-2.48l-.46-1.38Zm-.59-1.8l-.91-2.74-.9,2.74h1.81Z"/><path class="cls-2" d="M235.48,173.7c.67,.36,1.18,.85,1.54,1.49,.36,.64,.54,1.37,.54,2.2s-.18,1.54-.55,2.18c-.36,.64-.88,1.14-1.55,1.51s-1.44,.55-2.32,.55h-3.35v-8.46h3.35c.89,0,1.67,.18,2.33,.53Zm-.89,5.29c.39-.38,.59-.91,.59-1.6s-.2-1.23-.59-1.61c-.39-.38-.93-.57-1.62-.57h-.82v4.34h.82c.69,0,1.23-.19,1.62-.56Z"/><path class="cls-2" d="M240.49,181.15c-.66-.37-1.19-.89-1.58-1.55-.39-.66-.58-1.41-.58-2.24s.19-1.58,.58-2.24c.39-.66,.91-1.17,1.58-1.54s1.39-.55,2.18-.55,1.53,.18,2.19,.55,1.18,.88,1.57,1.54c.38,.66,.58,1.41,.58,2.24s-.19,1.58-.58,2.24c-.38,.66-.91,1.18-1.57,1.55s-1.39,.56-2.18,.56-1.52-.19-2.18-.56Zm3.61-2.21c.35-.39,.52-.92,.52-1.57s-.17-1.2-.52-1.59c-.35-.39-.82-.58-1.42-.58s-1.08,.19-1.43,.58c-.34,.39-.52,.92-.52,1.59s.17,1.19,.52,1.58c.34,.39,.82,.58,1.43,.58s1.07-.2,1.42-.59Z"/><path class="cls-2" d="M252.35,181.63l-1.68-3.12h-.25v3.12h-2.35v-8.46h3.71c.68,0,1.26,.12,1.73,.35,.47,.24,.83,.56,1.07,.97,.24,.41,.36,.87,.36,1.39,0,.58-.16,1.08-.47,1.52-.32,.44-.78,.75-1.39,.93l1.91,3.3h-2.63Zm-1.93-4.73h1.16c.32,0,.56-.08,.72-.23,.16-.15,.24-.37,.24-.66,0-.27-.08-.49-.25-.64-.16-.16-.4-.23-.71-.23h-1.16v1.76Z"/><path class="cls-2" d="M176.67,188.1c.67,.36,1.18,.85,1.54,1.49,.36,.64,.54,1.37,.54,2.2s-.18,1.54-.55,2.18c-.36,.64-.88,1.14-1.55,1.51s-1.44,.55-2.32,.55h-3.35v-8.46h3.35c.89,0,1.67,.18,2.33,.53Zm-.89,5.29c.39-.38,.59-.91,.59-1.6s-.2-1.23-.59-1.61-.93-.57-1.62-.57h-.82v4.34h.82c.69,0,1.23-.19,1.62-.56Z"/><path class="cls-2" d="M182.16,189.45v1.38h2.7v1.79h-2.7v1.52h3.06v1.88h-5.41v-8.46h5.41v1.88h-3.06Z"/><path class="cls-2" d="M189.44,195.41c-.63-.47-.97-1.14-1.02-2.01h2.51c.02,.3,.11,.51,.26,.65,.15,.14,.35,.2,.59,.2,.22,0,.39-.05,.53-.16,.14-.11,.21-.26,.21-.45,0-.25-.12-.44-.35-.58s-.61-.29-1.13-.46c-.55-.18-1-.36-1.34-.53s-.64-.42-.89-.76c-.25-.33-.38-.77-.38-1.3s.14-1.01,.41-1.4c.27-.39,.65-.68,1.13-.88s1.02-.3,1.63-.3c.98,0,1.77,.23,2.36,.69,.59,.46,.9,1.11,.94,1.94h-2.56c0-.26-.09-.45-.23-.58-.15-.13-.34-.19-.57-.19-.18,0-.32,.05-.43,.16-.11,.1-.17,.25-.17,.44,0,.16,.06,.3,.19,.41,.12,.12,.28,.22,.46,.3s.46,.19,.82,.32c.54,.18,.98,.37,1.33,.55,.35,.18,.65,.43,.9,.76s.38,.73,.38,1.23-.13,.96-.38,1.36-.62,.72-1.09,.95c-.48,.23-1.04,.35-1.69,.35-.98,0-1.79-.23-2.42-.7Z"/><path class="cls-2" d="M201.47,194.65h-3l-.46,1.38h-2.47l3.08-8.46h2.71l3.07,8.46h-2.48l-.46-1.38Zm-.59-1.8l-.91-2.74-.9,2.74h1.81Z"/><path class="cls-2" d="M207.48,187.57v4.91c0,.46,.11,.81,.32,1.06s.53,.37,.97,.37,.76-.13,.98-.38,.33-.6,.33-1.05v-4.91h2.35v4.91c0,.78-.16,1.44-.49,1.99-.33,.55-.77,.96-1.34,1.24-.56,.28-1.19,.41-1.88,.41s-1.3-.14-1.84-.41-.96-.69-1.27-1.23c-.31-.54-.46-1.21-.46-1.99v-4.91h2.34Zm2.77-1.67l-3,1.18v-1.6l3-1.36v1.78Z"/><path class="cls-2" d="M219.4,188.1c.67,.36,1.18,.85,1.54,1.49,.36,.64,.54,1.37,.54,2.2s-.18,1.54-.55,2.18c-.36,.64-.88,1.14-1.55,1.51s-1.44,.55-2.32,.55h-3.35v-8.46h3.35c.89,0,1.67,.18,2.33,.53Zm-.89,5.29c.39-.38,.59-.91,.59-1.6s-.2-1.23-.59-1.61c-.39-.38-.93-.57-1.62-.57h-.82v4.34h.82c.69,0,1.23-.19,1.62-.56Z"/><path class="cls-2" d="M224.89,189.45v1.38h2.7v1.79h-2.7v1.52h3.06v1.88h-5.41v-8.46h5.41v1.88h-3.06Z"/></g></svg>