<?xml version="1.0" encoding="UTF-8"?><svg id="Camada_1" xmlns="http://www.w3.org/2000/svg" viewBox="0 0 402.5 345"><defs><style>.cls-1{fill:#00a99d;}.cls-2{fill:#0071bc;}.cls-3{fill:#f7931e;}.cls-4{fill:#fff;}.cls-5{fill:#4d4d4d;}.cls-6{opacity:.7;}</style></defs><g><g><g class="cls-6"><circle class="cls-2" cx="199.71" cy="126.7" r="84.85"/></g><g class="cls-6"><circle class="cls-3" cx="151.11" cy="188.41" r="84.85"/></g><g class="cls-6"><circle class="cls-1" cx="251.39" cy="188.41" r="84.85"/></g><path class="cls-4" d="M201.05,119.6c-21.05,15.44-34.71,40.35-34.71,68.46,0,5.87,.6,11.59,1.73,17.12,9.72,3.88,20.33,6.02,31.44,6.02,12.4,0,24.18-2.66,34.8-7.44,.95-5.09,1.46-10.33,1.46-15.7,0-28.1-13.67-53.01-34.71-68.46Z"/></g><g><path class="cls-5" d="M189.77,175.7c.31-.58,.75-1.04,1.33-1.36,.57-.33,1.23-.49,1.97-.49,.94,0,1.74,.25,2.38,.76,.64,.5,1.06,1.19,1.25,2.05h-2.26c-.14-.29-.32-.5-.56-.65-.24-.15-.52-.23-.83-.23-.49,0-.87,.17-1.16,.52-.29,.35-.43,.81-.43,1.39s.14,1.05,.43,1.4c.29,.35,.68,.52,1.16,.52,.32,0,.59-.08,.83-.23,.24-.15,.43-.37,.56-.65h2.26c-.19,.87-.6,1.55-1.25,2.05-.64,.5-1.44,.76-2.38,.76-.74,0-1.4-.16-1.97-.49s-1.01-.78-1.33-1.36c-.31-.58-.47-1.25-.47-2s.16-1.41,.47-1.99Z"/><path class="cls-5" d="M204.46,173.93v7.57h-2.1v-3.04h-2.56v3.04h-2.1v-7.57h2.1v2.84h2.56v-2.84h2.1Z"/><path class="cls-5" d="M210.45,180.26h-2.68l-.41,1.23h-2.21l2.76-7.57h2.43l2.75,7.57h-2.22l-.41-1.23Zm-.53-1.61l-.82-2.45-.8,2.45h1.62Z"/></g><g><path class="cls-4" d="M172.35,85.42v7.53h-1.84v-3.1h-2.85v3.1h-1.83v-7.53h1.83v2.95h2.85v-2.95h1.84Z"/><path class="cls-4" d="M173.65,88.32c.23-.47,.55-.82,.95-1.07,.4-.25,.85-.38,1.34-.38,.42,0,.79,.09,1.11,.26,.32,.17,.56,.4,.73,.68v-.85h1.84v5.99h-1.84v-.85c-.18,.28-.43,.5-.75,.68-.32,.17-.69,.26-1.11,.26-.49,0-.93-.13-1.33-.38s-.72-.62-.95-1.08c-.23-.47-.35-1.01-.35-1.63s.12-1.16,.35-1.62Zm3.76,.55c-.25-.26-.56-.4-.93-.4s-.67,.13-.93,.39-.38,.62-.38,1.08,.13,.82,.38,1.09c.25,.27,.56,.4,.93,.4s.67-.13,.93-.4,.38-.63,.38-1.08-.13-.82-.38-1.08Z"/><path class="cls-4" d="M183.53,87.13c.32-.17,.69-.26,1.11-.26,.49,0,.94,.13,1.34,.38,.4,.25,.72,.61,.95,1.07,.23,.46,.35,1,.35,1.62s-.12,1.16-.35,1.63c-.23,.47-.55,.83-.95,1.08-.4,.25-.85,.38-1.34,.38-.42,0-.79-.08-1.11-.25s-.56-.39-.74-.67v.84h-1.84v-7.94h1.84v2.8c.17-.28,.42-.5,.74-.68Zm1.5,1.73c-.25-.26-.57-.39-.94-.39s-.67,.13-.93,.4-.38,.63-.38,1.08,.13,.82,.38,1.08,.56,.4,.93,.4,.68-.13,.93-.4c.26-.27,.39-.63,.39-1.09s-.13-.82-.38-1.08Z"/><path class="cls-4" d="M188.38,86.05c-.2-.19-.31-.42-.31-.7s.1-.52,.31-.71c.2-.19,.47-.28,.79-.28s.57,.09,.78,.28c.2,.19,.31,.43,.31,.71s-.1,.51-.31,.7c-.2,.19-.46,.28-.78,.28s-.58-.09-.79-.28Zm1.7,.91v5.99h-1.84v-5.99h1.84Z"/><path class="cls-4" d="M193.24,85.01v7.94h-1.84v-7.94h1.84Z"/><path class="cls-4" d="M194.71,86.05c-.2-.19-.31-.42-.31-.7s.1-.52,.31-.71c.2-.19,.47-.28,.79-.28s.57,.09,.78,.28c.2,.19,.31,.43,.31,.71s-.1,.51-.31,.7c-.2,.19-.46,.28-.78,.28s-.58-.09-.79-.28Zm1.7,.91v5.99h-1.84v-5.99h1.84Z"/><path class="cls-4" d="M197.72,88.32c.23-.47,.55-.82,.95-1.07,.4-.25,.85-.38,1.34-.38,.39,0,.75,.08,1.08,.25,.33,.16,.58,.39,.77,.67v-2.78h1.83v7.94h-1.83v-.86c-.17,.29-.42,.52-.74,.69-.32,.17-.69,.26-1.11,.26-.49,0-.94-.13-1.34-.38-.4-.25-.72-.62-.95-1.08-.23-.47-.35-1.01-.35-1.63s.12-1.16,.35-1.62Zm3.76,.55c-.25-.26-.56-.4-.93-.4s-.67,.13-.93,.39-.38,.62-.38,1.08,.13,.82,.38,1.09c.25,.27,.56,.4,.93,.4s.67-.13,.93-.4,.38-.63,.38-1.08-.13-.82-.38-1.08Z"/><path class="cls-4" d="M205.01,88.32c.23-.47,.55-.82,.95-1.07,.4-.25,.85-.38,1.34-.38,.42,0,.79,.09,1.11,.26,.32,.17,.56,.4,.74,.68v-.85h1.83v5.99h-1.83v-.85c-.18,.28-.43,.5-.75,.68-.32,.17-.69,.26-1.11,.26-.49,0-.93-.13-1.33-.38-.4-.25-.72-.62-.95-1.08-.23-.47-.35-1.01-.35-1.63s.12-1.16,.35-1.62Zm3.76,.55c-.25-.26-.56-.4-.93-.4s-.67,.13-.93,.39-.38,.62-.38,1.08,.13,.82,.38,1.09c.25,.27,.56,.4,.93,.4s.67-.13,.93-.4,.38-.63,.38-1.08-.13-.82-.38-1.08Z"/><path class="cls-4" d="M212.3,88.32c.23-.47,.55-.82,.95-1.07,.4-.25,.85-.38,1.34-.38,.39,0,.75,.08,1.08,.25,.33,.16,.58,.39,.77,.67v-2.78h1.83v7.94h-1.83v-.86c-.17,.29-.42,.52-.74,.69-.32,.17-.69,.26-1.11,.26-.49,0-.94-.13-1.34-.38-.4-.25-.72-.62-.95-1.08-.23-.47-.35-1.01-.35-1.63s.12-1.16,.35-1.62Zm3.76,.55c-.25-.26-.56-.4-.93-.4s-.67,.13-.93,.39-.38,.62-.38,1.08,.13,.82,.38,1.09c.25,.27,.56,.4,.93,.4s.67-.13,.93-.4,.38-.63,.38-1.08-.13-.82-.38-1.08Z"/><path class="cls-4" d="M225.21,90.4h-4.15c.03,.37,.15,.66,.36,.85s.47,.3,.78,.3c.46,0,.78-.19,.96-.58h1.95c-.1,.39-.28,.75-.54,1.06-.26,.31-.59,.56-.98,.74-.39,.18-.83,.27-1.32,.27-.59,0-1.11-.12-1.57-.38s-.82-.61-1.07-1.07c-.26-.47-.39-1.01-.39-1.63s.13-1.17,.38-1.63c.25-.47,.61-.82,1.07-1.07,.46-.25,.98-.38,1.58-.38s1.09,.12,1.55,.37c.45,.24,.8,.59,1.06,1.04,.25,.45,.38,.98,.38,1.58,0,.17-.01,.35-.03,.54Zm-1.85-1.02c0-.31-.11-.57-.32-.75s-.48-.28-.8-.28-.57,.09-.78,.27-.34,.43-.39,.76h2.3Z"/><path class="cls-4" d="M227.25,92.77c-.41-.18-.73-.42-.97-.73-.24-.31-.37-.66-.4-1.05h1.81c.02,.21,.12,.38,.29,.5,.17,.13,.38,.19,.63,.19,.23,0,.41-.04,.53-.13s.19-.21,.19-.35c0-.17-.09-.3-.27-.38-.18-.08-.47-.17-.87-.27-.43-.1-.79-.21-1.07-.32-.29-.11-.53-.29-.74-.53-.21-.24-.31-.56-.31-.97,0-.34,.09-.66,.28-.94,.19-.28,.47-.51,.84-.67s.81-.25,1.31-.25c.75,0,1.34,.19,1.78,.56s.68,.87,.75,1.48h-1.7c-.03-.21-.12-.37-.27-.49-.15-.12-.36-.18-.61-.18-.21,0-.38,.04-.49,.12-.12,.08-.17,.2-.17,.34,0,.17,.09,.3,.27,.39s.47,.17,.85,.26c.44,.11,.8,.23,1.08,.34s.52,.29,.74,.54,.32,.58,.33,.99c0,.35-.1,.66-.29,.94-.2,.28-.48,.49-.85,.65-.37,.16-.8,.24-1.28,.24-.52,0-.99-.09-1.4-.27Z"/></g><g><path class="cls-4" d="M260.74,191.18h-2.81l-.45,1.33h-1.92l2.73-7.53h2.12l2.73,7.53h-1.94l-.45-1.33Zm-.47-1.42l-.93-2.76-.92,2.76h1.86Z"/><path class="cls-4" d="M267.3,190.95v1.56h-.93c-.67,0-1.18-.16-1.56-.49-.37-.33-.56-.86-.56-1.59v-2.38h-.73v-1.52h.73v-1.46h1.83v1.46h1.2v1.52h-1.2v2.4c0,.18,.04,.31,.13,.39,.09,.08,.23,.12,.43,.12h.65Z"/><path class="cls-4" d="M268.45,185.61c-.2-.19-.31-.42-.31-.7s.1-.52,.31-.71,.47-.28,.79-.28,.57,.09,.78,.28c.2,.19,.31,.43,.31,.71s-.1,.51-.31,.7c-.2,.19-.46,.28-.78,.28s-.58-.09-.79-.28Zm1.7,.91v5.99h-1.84v-5.99h1.84Z"/><path class="cls-4" d="M274.82,190.95v1.56h-.93c-.67,0-1.18-.16-1.56-.49-.37-.33-.56-.86-.56-1.59v-2.38h-.73v-1.52h.73v-1.46h1.83v1.46h1.2v1.52h-1.2v2.4c0,.18,.04,.31,.13,.39,.09,.08,.23,.12,.43,.12h.65Z"/><path class="cls-4" d="M281.75,186.52v5.99h-1.83v-.82c-.19,.26-.44,.48-.76,.64s-.67,.24-1.06,.24c-.46,0-.86-.1-1.21-.31s-.62-.5-.82-.89-.29-.84-.29-1.36v-3.5h1.83v3.25c0,.4,.1,.71,.31,.93,.21,.22,.49,.33,.84,.33s.64-.11,.85-.33c.21-.22,.31-.53,.31-.93v-3.25h1.83Z"/><path class="cls-4" d="M283.06,187.88c.23-.46,.55-.82,.95-1.07,.4-.25,.85-.38,1.34-.38,.39,0,.75,.08,1.08,.25,.33,.17,.58,.39,.77,.67v-2.78h1.83v7.94h-1.83v-.86c-.17,.29-.42,.51-.74,.69s-.69,.26-1.11,.26c-.49,0-.94-.13-1.34-.38-.4-.25-.72-.62-.95-1.08s-.35-1.01-.35-1.63,.12-1.16,.35-1.62Zm3.76,.55c-.25-.26-.56-.4-.93-.4s-.67,.13-.93,.39c-.25,.26-.38,.62-.38,1.08s.13,.82,.38,1.09c.25,.27,.56,.4,.93,.4s.67-.13,.93-.4,.38-.63,.38-1.08-.13-.82-.38-1.08Z"/><path class="cls-4" d="M295.97,189.95h-4.15c.03,.37,.15,.66,.36,.85,.21,.2,.47,.29,.78,.29,.46,0,.78-.19,.96-.58h1.95c-.1,.39-.28,.75-.54,1.06-.26,.31-.59,.56-.98,.74s-.83,.27-1.32,.27c-.59,0-1.11-.12-1.57-.38-.46-.25-.82-.61-1.07-1.07-.26-.46-.39-1.01-.39-1.63s.13-1.17,.38-1.63c.25-.46,.61-.82,1.07-1.07,.46-.25,.98-.38,1.58-.38s1.09,.12,1.55,.36c.45,.24,.8,.59,1.06,1.04,.25,.45,.38,.98,.38,1.58,0,.17-.01,.35-.03,.54Zm-1.85-1.02c0-.31-.11-.56-.32-.75-.21-.19-.48-.28-.8-.28s-.57,.09-.78,.27-.34,.43-.39,.76h2.3Z"/><path class="cls-4" d="M298.01,192.32c-.41-.18-.73-.42-.97-.74-.24-.31-.37-.66-.4-1.05h1.81c.02,.21,.12,.38,.29,.5s.38,.19,.63,.19c.23,0,.41-.04,.53-.13,.12-.09,.19-.21,.19-.35,0-.17-.09-.3-.27-.38-.18-.08-.47-.17-.87-.27-.43-.1-.79-.21-1.07-.32-.29-.11-.53-.29-.74-.53-.21-.24-.31-.56-.31-.97,0-.34,.09-.66,.28-.94,.19-.28,.47-.51,.84-.67,.37-.16,.81-.25,1.31-.25,.75,0,1.34,.19,1.78,.56s.68,.87,.75,1.48h-1.7c-.03-.21-.12-.37-.27-.49-.15-.12-.36-.18-.61-.18-.21,0-.38,.04-.49,.12-.12,.08-.17,.19-.17,.34,0,.17,.09,.3,.27,.39,.18,.08,.47,.17,.85,.26,.44,.12,.8,.23,1.08,.34,.28,.11,.52,.29,.74,.54s.32,.58,.33,.99c0,.35-.1,.66-.29,.94-.2,.28-.48,.49-.85,.65-.37,.16-.8,.24-1.28,.24-.52,0-.99-.09-1.4-.27Z"/></g><g><path class="cls-4" d="M72.97,186.74c.32-.58,.77-1.04,1.35-1.36,.58-.33,1.23-.49,1.96-.49,.89,0,1.66,.24,2.3,.71,.64,.47,1.06,1.12,1.28,1.93h-2.02c-.15-.32-.36-.55-.64-.72-.28-.16-.59-.25-.94-.25-.56,0-1.02,.2-1.37,.59s-.53,.92-.53,1.58,.18,1.18,.53,1.58,.81,.59,1.37,.59c.35,0,.66-.08,.94-.25,.28-.17,.49-.4,.64-.72h2.02c-.21,.82-.64,1.46-1.28,1.93s-1.4,.7-2.3,.7c-.73,0-1.38-.16-1.96-.49-.58-.33-1.02-.78-1.35-1.36-.32-.58-.48-1.24-.48-1.99s.16-1.41,.48-1.99Z"/><path class="cls-4" d="M82.12,192.22c-.47-.25-.84-.61-1.11-1.07-.27-.46-.4-1.01-.4-1.63s.14-1.16,.41-1.63c.27-.47,.64-.83,1.12-1.08,.47-.25,1-.38,1.59-.38s1.12,.12,1.59,.38c.47,.25,.84,.61,1.12,1.08,.27,.47,.41,1.01,.41,1.63s-.14,1.16-.41,1.63c-.28,.47-.65,.83-1.13,1.08-.48,.25-1.01,.38-1.59,.38s-1.11-.12-1.58-.38Zm2.48-1.6c.25-.26,.37-.63,.37-1.11s-.12-.85-.36-1.11-.53-.39-.89-.39-.65,.13-.89,.38c-.24,.25-.35,.62-.35,1.11s.12,.85,.35,1.11,.52,.39,.88,.39,.65-.13,.9-.39Z"/><path class="cls-4" d="M93.14,187.13c.42,.46,.63,1.08,.63,1.87v3.5h-1.82v-3.25c0-.4-.1-.71-.31-.93s-.49-.33-.84-.33-.63,.11-.84,.33-.31,.53-.31,.93v3.25h-1.83v-5.99h1.83v.79c.19-.26,.44-.47,.75-.63,.31-.15,.67-.23,1.06-.23,.7,0,1.26,.23,1.68,.68Z"/><path class="cls-4" d="M100.38,187.13c.42,.46,.62,1.08,.62,1.87v3.5h-1.82v-3.25c0-.4-.1-.71-.31-.93s-.49-.33-.84-.33-.63,.11-.84,.33-.31,.53-.31,.93v3.25h-1.83v-7.94h1.83v2.76c.19-.26,.44-.48,.76-.63,.32-.16,.68-.24,1.08-.24,.69,0,1.24,.23,1.65,.68Z"/><path class="cls-4" d="M107.9,189.95h-4.15c.03,.37,.15,.66,.36,.85,.21,.2,.47,.29,.78,.29,.46,0,.78-.19,.96-.58h1.95c-.1,.39-.28,.75-.54,1.06-.26,.31-.59,.56-.98,.74s-.83,.27-1.32,.27c-.59,0-1.11-.12-1.57-.38-.46-.25-.82-.61-1.07-1.07-.26-.46-.39-1.01-.39-1.63s.13-1.17,.38-1.63c.25-.46,.61-.82,1.07-1.07,.46-.25,.98-.38,1.58-.38s1.09,.12,1.55,.36,.8,.59,1.06,1.04c.25,.45,.38,.98,.38,1.58,0,.17-.01,.35-.03,.54Zm-1.85-1.02c0-.31-.11-.56-.32-.75-.21-.19-.48-.28-.8-.28s-.57,.09-.78,.27-.34,.43-.39,.76h2.3Z"/><path class="cls-4" d="M108.91,187.88c.25-.46,.61-.82,1.06-1.07,.45-.25,.97-.38,1.56-.38,.75,0,1.38,.2,1.88,.59,.5,.39,.84,.95,.99,1.66h-1.95c-.16-.46-.48-.69-.96-.69-.34,0-.6,.13-.81,.39-.2,.26-.3,.64-.3,1.12s.1,.86,.3,1.12c.2,.26,.47,.39,.81,.39,.47,0,.79-.23,.96-.69h1.95c-.16,.7-.49,1.25-1,1.65-.51,.4-1.13,.6-1.88,.6-.59,0-1.11-.12-1.56-.38-.45-.25-.81-.61-1.06-1.07-.25-.46-.38-1.01-.38-1.63s.13-1.17,.38-1.63Z"/><path class="cls-4" d="M115.52,185.61c-.2-.19-.31-.42-.31-.7s.1-.52,.31-.71c.2-.19,.47-.28,.79-.28s.57,.09,.78,.28c.2,.19,.31,.43,.31,.71s-.1,.51-.31,.7c-.2,.19-.46,.28-.78,.28s-.58-.09-.79-.28Zm1.7,.91v5.99h-1.83v-5.99h1.83Z"/><path class="cls-4" d="M127.97,187.13c.44,.45,.66,1.08,.66,1.88v3.5h-1.82v-3.25c0-.39-.1-.68-.31-.9-.2-.21-.48-.32-.84-.32s-.64,.11-.84,.32c-.2,.21-.31,.51-.31,.9v3.25h-1.82v-3.25c0-.39-.1-.68-.31-.9-.2-.21-.48-.32-.84-.32s-.64,.11-.84,.32c-.2,.21-.31,.51-.31,.9v3.25h-1.83v-5.99h1.83v.75c.19-.25,.43-.45,.73-.6s.64-.22,1.02-.22c.45,0,.85,.1,1.21,.29s.63,.47,.83,.83c.21-.33,.49-.6,.85-.81,.36-.21,.75-.31,1.17-.31,.74,0,1.34,.22,1.78,.68Z"/><path class="cls-4" d="M135.53,189.95h-4.15c.03,.37,.15,.66,.36,.85,.21,.2,.47,.29,.78,.29,.46,0,.78-.19,.96-.58h1.95c-.1,.39-.28,.75-.54,1.06-.26,.31-.59,.56-.98,.74s-.83,.27-1.32,.27c-.59,0-1.11-.12-1.57-.38-.46-.25-.82-.61-1.07-1.07-.26-.46-.39-1.01-.39-1.63s.13-1.17,.38-1.63c.25-.46,.61-.82,1.07-1.07,.46-.25,.98-.38,1.58-.38s1.09,.12,1.55,.36,.8,.59,1.06,1.04c.25,.45,.38,.98,.38,1.58,0,.17-.01,.35-.03,.54Zm-1.85-1.02c0-.31-.11-.56-.32-.75-.21-.19-.48-.28-.8-.28s-.57,.09-.78,.27-.34,.43-.39,.76h2.3Z"/><path class="cls-4" d="M141.86,187.13c.42,.46,.63,1.08,.63,1.87v3.5h-1.82v-3.25c0-.4-.1-.71-.31-.93s-.49-.33-.84-.33-.63,.11-.84,.33-.31,.53-.31,.93v3.25h-1.83v-5.99h1.83v.79c.19-.26,.44-.47,.75-.63,.31-.15,.67-.23,1.06-.23,.7,0,1.26,.23,1.68,.68Z"/><path class="cls-4" d="M147.1,190.95v1.56h-.93c-.67,0-1.18-.16-1.56-.49s-.56-.86-.56-1.59v-2.38h-.73v-1.52h.73v-1.46h1.84v1.46h1.2v1.52h-1.2v2.4c0,.18,.04,.31,.13,.39,.09,.08,.23,.12,.43,.12h.65Z"/><path class="cls-4" d="M149.26,192.22c-.47-.25-.84-.61-1.11-1.07-.27-.46-.4-1.01-.4-1.63s.14-1.16,.41-1.63c.27-.47,.64-.83,1.12-1.08,.47-.25,1-.38,1.59-.38s1.12,.12,1.59,.38c.47,.25,.84,.61,1.12,1.08,.27,.47,.41,1.01,.41,1.63s-.14,1.16-.41,1.63c-.28,.47-.65,.83-1.13,1.08-.48,.25-1.01,.38-1.59,.38s-1.11-.12-1.58-.38Zm2.48-1.6c.25-.26,.37-.63,.37-1.11s-.12-.85-.36-1.11-.53-.39-.89-.39-.65,.13-.89,.38c-.24,.25-.35,.62-.35,1.11s.12,.85,.35,1.11,.52,.39,.88,.39,.65-.13,.9-.39Z"/><path class="cls-4" d="M156,192.32c-.41-.18-.73-.42-.97-.74-.24-.31-.37-.66-.4-1.05h1.81c.02,.21,.12,.38,.29,.5,.17,.13,.38,.19,.63,.19,.23,0,.41-.04,.53-.13,.13-.09,.19-.21,.19-.35,0-.17-.09-.3-.27-.38-.18-.08-.47-.17-.87-.27-.43-.1-.79-.21-1.07-.32s-.53-.29-.74-.53c-.21-.24-.31-.56-.31-.97,0-.34,.09-.66,.28-.94,.19-.28,.47-.51,.84-.67,.37-.16,.81-.25,1.31-.25,.75,0,1.34,.19,1.78,.56s.68,.87,.75,1.48h-1.7c-.03-.21-.12-.37-.27-.49-.15-.12-.36-.18-.61-.18-.21,0-.38,.04-.49,.12-.11,.08-.17,.19-.17,.34,0,.17,.09,.3,.27,.39,.18,.08,.47,.17,.85,.26,.44,.12,.8,.23,1.08,.34,.28,.11,.52,.29,.73,.54s.32,.58,.33,.99c0,.35-.1,.66-.3,.94s-.48,.49-.85,.65c-.37,.16-.8,.24-1.28,.24-.52,0-.99-.09-1.4-.27Z"/></g></g><g class="cls-6"><rect class="cls-2" x="123.62" y="4.39" width="155.25" height="28.54" rx="14.27" ry="14.27"/></g><g><path class="cls-4" d="M140,19.22h-2.78l-.51,1.42h-.88l2.3-6.33h.96l2.29,6.33h-.88l-.51-1.42Zm-.24-.68l-1.15-3.21-1.15,3.21h2.3Z"/><path class="cls-4" d="M143.96,15.84c.33-.19,.7-.29,1.14-.29s.85,.11,1.21,.32c.36,.21,.65,.51,.85,.9s.31,.84,.31,1.35-.1,.96-.31,1.35c-.21,.4-.49,.7-.85,.92-.36,.22-.77,.33-1.21,.33s-.8-.1-1.13-.29c-.33-.19-.57-.43-.74-.72v3.3h-.83v-7.38h.83v.92c.16-.29,.41-.53,.74-.72Zm2.43,1.29c-.15-.28-.36-.49-.62-.64-.26-.15-.54-.22-.85-.22s-.59,.07-.84,.22c-.26,.15-.47,.37-.62,.65s-.23,.61-.23,.98,.08,.71,.23,.99,.36,.5,.62,.65,.54,.22,.84,.22,.6-.07,.85-.22,.46-.37,.62-.65,.23-.62,.23-1-.08-.71-.23-.99Z"/><path class="cls-4" d="M149.4,13.88v6.76h-.83v-6.76h.83Z"/><path class="cls-4" d="M150.84,14.66c-.11-.11-.16-.24-.16-.4s.05-.29,.16-.4c.11-.11,.24-.16,.4-.16s.28,.05,.39,.16c.11,.11,.16,.24,.16,.4s-.05,.29-.16,.4c-.11,.11-.24,.16-.39,.16s-.29-.05-.4-.16Zm.8,.98v5h-.83v-5h.83Z"/><path class="cls-4" d="M153.06,16.77c.21-.39,.49-.69,.86-.9,.37-.21,.79-.32,1.26-.32,.61,0,1.12,.15,1.52,.45s.66,.71,.79,1.24h-.9c-.09-.3-.25-.54-.5-.72s-.55-.27-.92-.27c-.48,0-.86,.16-1.15,.49-.29,.33-.44,.79-.44,1.38s.15,1.07,.44,1.4c.29,.33,.68,.49,1.15,.49,.37,0,.67-.08,.91-.26,.24-.17,.41-.41,.5-.73h.9c-.13,.51-.4,.92-.8,1.23s-.9,.46-1.51,.46c-.48,0-.9-.11-1.26-.32-.37-.21-.66-.51-.86-.9s-.31-.85-.31-1.37,.1-.97,.31-1.36Z"/><path class="cls-4" d="M158.61,16.77c.21-.39,.49-.69,.85-.9,.36-.21,.77-.32,1.21-.32s.82,.09,1.14,.28c.32,.19,.56,.43,.72,.71v-.91h.84v5h-.84v-.93c-.16,.29-.41,.53-.74,.73s-.7,.29-1.14,.29-.85-.11-1.21-.33c-.36-.22-.64-.53-.85-.92-.21-.4-.31-.85-.31-1.35s.1-.96,.31-1.35Zm3.7,.37c-.15-.28-.36-.49-.62-.64-.26-.15-.54-.22-.85-.22s-.59,.07-.85,.22c-.26,.15-.46,.36-.61,.64-.15,.28-.23,.61-.23,.99s.08,.72,.23,1,.36,.5,.61,.65c.26,.15,.54,.22,.85,.22s.59-.07,.85-.22c.26-.15,.46-.37,.62-.65s.23-.61,.23-.99-.08-.71-.23-.99Z"/><path class="cls-4" d="M167.82,19.76c.24-.17,.41-.41,.5-.73h.9c-.12,.48-.36,.86-.72,1.16-.36,.3-.8,.47-1.34,.52v.46c.36,0,.65,.07,.86,.23,.21,.16,.32,.38,.32,.68s-.1,.51-.31,.69c-.21,.17-.48,.26-.8,.26h-1.05v-.54h.89c.2,0,.35-.03,.44-.09,.09-.06,.14-.16,.14-.31s-.05-.24-.14-.3-.24-.09-.44-.09h-.46v-.98c-.42-.04-.79-.17-1.11-.4-.32-.22-.57-.52-.75-.9-.18-.37-.27-.8-.27-1.28,0-.52,.1-.97,.31-1.36s.49-.69,.86-.9c.37-.21,.79-.32,1.26-.32,.61,0,1.12,.15,1.52,.45s.66,.71,.79,1.24h-.9c-.09-.3-.25-.54-.5-.72s-.55-.27-.92-.27c-.48,0-.86,.16-1.15,.49-.29,.33-.44,.79-.44,1.38s.15,1.07,.44,1.4c.29,.33,.68,.49,1.15,.49,.37,0,.67-.08,.91-.26Z"/><path class="cls-4" d="M170.32,16.77c.21-.39,.49-.69,.85-.9,.36-.21,.77-.32,1.21-.32s.82,.09,1.14,.28c.32,.19,.56,.43,.72,.71v-.91h.84v5h-.84v-.93c-.16,.29-.41,.53-.74,.73s-.7,.29-1.14,.29-.85-.11-1.21-.33c-.36-.22-.64-.53-.85-.92-.21-.4-.31-.85-.31-1.35s.1-.96,.31-1.35Zm3.7,.37c-.15-.28-.36-.49-.62-.64-.26-.15-.54-.22-.85-.22s-.59,.07-.85,.22c-.26,.15-.46,.36-.61,.64-.15,.28-.23,.61-.23,.99s.08,.72,.23,1,.36,.5,.61,.65c.26,.15,.54,.22,.85,.22s.59-.07,.85-.22c.26-.15,.46-.37,.62-.65s.23-.61,.23-.99-.08-.71-.23-.99Zm-2.34-2.76c.16-.16,.36-.25,.61-.25,.12,0,.21,.02,.3,.06,.08,.04,.18,.1,.3,.17,.09,.06,.16,.11,.23,.14,.07,.03,.14,.05,.22,.05,.1,0,.19-.03,.26-.1s.12-.16,.14-.29h.47c-.04,.3-.14,.54-.3,.7-.16,.16-.37,.25-.61,.25-.12,0-.22-.02-.31-.06s-.19-.1-.3-.18c-.1-.06-.17-.11-.23-.14-.06-.03-.13-.05-.21-.05-.1,0-.19,.03-.26,.1-.07,.07-.11,.17-.13,.3h-.48c.04-.31,.14-.55,.31-.71Z"/><path class="cls-4" d="M177.41,20.4c-.38-.21-.68-.52-.9-.91-.22-.39-.32-.85-.32-1.37s.11-.96,.33-1.36,.52-.69,.91-.9c.38-.21,.81-.31,1.29-.31s.9,.1,1.29,.31c.38,.21,.69,.51,.91,.9s.33,.84,.33,1.36-.11,.97-.34,1.37c-.23,.39-.54,.7-.93,.91-.39,.21-.82,.32-1.3,.32s-.89-.11-1.27-.32Zm2.11-.62c.26-.14,.47-.35,.63-.63,.16-.28,.24-.62,.24-1.02s-.08-.74-.24-1.02c-.16-.28-.37-.49-.62-.63-.26-.14-.53-.21-.83-.21s-.58,.07-.84,.21c-.25,.14-.46,.35-.61,.63-.15,.28-.23,.62-.23,1.02s.07,.75,.22,1.03c.15,.28,.35,.49,.6,.63,.25,.14,.52,.21,.82,.21s.58-.07,.84-.21Z"/><path class="cls-4" d="M184.78,16.77c.21-.39,.49-.69,.85-.9,.36-.21,.77-.32,1.22-.32,.39,0,.75,.09,1.09,.27s.59,.42,.77,.71v-2.65h.84v6.76h-.84v-.94c-.16,.3-.41,.54-.73,.73-.32,.19-.7,.29-1.13,.29s-.85-.11-1.21-.33-.65-.53-.85-.92c-.21-.4-.31-.85-.31-1.35s.1-.96,.31-1.35Zm3.7,.37c-.15-.28-.36-.49-.62-.64-.26-.15-.54-.22-.85-.22s-.59,.07-.85,.22c-.26,.15-.46,.36-.61,.64-.15,.28-.23,.61-.23,.99s.08,.72,.23,1c.15,.28,.36,.5,.61,.65s.54,.22,.85,.22,.59-.07,.85-.22,.46-.37,.62-.65c.15-.28,.23-.61,.23-.99s-.08-.71-.23-.99Z"/><path class="cls-4" d="M191.86,20.4c-.38-.21-.68-.52-.9-.91-.22-.39-.32-.85-.32-1.37s.11-.96,.33-1.36c.22-.39,.53-.69,.91-.9,.38-.21,.81-.31,1.29-.31s.9,.1,1.29,.31c.38,.21,.69,.51,.91,.9,.22,.39,.33,.84,.33,1.36s-.11,.97-.34,1.37c-.23,.39-.54,.7-.93,.91-.39,.21-.82,.32-1.3,.32s-.89-.11-1.27-.32Zm2.11-.62c.26-.14,.47-.35,.63-.63,.16-.28,.24-.62,.24-1.02s-.08-.74-.24-1.02c-.16-.28-.37-.49-.62-.63-.26-.14-.53-.21-.83-.21s-.58,.07-.83,.21c-.25,.14-.46,.35-.61,.63-.15,.28-.23,.62-.23,1.02s.07,.75,.22,1.03c.15,.28,.35,.49,.6,.63,.25,.14,.52,.21,.82,.21s.58-.07,.84-.21Z"/><path class="cls-4" d="M199.24,16.77c.21-.39,.5-.69,.86-.9,.37-.21,.79-.32,1.26-.32,.62,0,1.12,.15,1.52,.45s.66,.71,.79,1.24h-.89c-.09-.3-.25-.54-.5-.72-.25-.18-.55-.27-.92-.27-.47,0-.86,.16-1.15,.49-.29,.33-.44,.79-.44,1.38s.15,1.07,.44,1.4c.29,.33,.68,.49,1.15,.49,.37,0,.67-.08,.91-.26,.24-.17,.41-.41,.5-.73h.89c-.13,.51-.4,.92-.8,1.23-.4,.31-.9,.46-1.51,.46-.47,0-.9-.11-1.26-.32-.37-.21-.66-.51-.86-.9s-.31-.85-.31-1.37,.1-.97,.31-1.36Z"/><path class="cls-4" d="M205.69,20.4c-.38-.21-.68-.52-.9-.91-.22-.39-.32-.85-.32-1.37s.11-.96,.33-1.36c.22-.39,.53-.69,.91-.9,.38-.21,.81-.31,1.29-.31s.9,.1,1.29,.31c.38,.21,.69,.51,.91,.9,.22,.39,.33,.84,.33,1.36s-.11,.97-.34,1.37c-.23,.39-.54,.7-.93,.91-.39,.21-.82,.32-1.3,.32s-.89-.11-1.27-.32Zm2.11-.62c.26-.14,.47-.35,.63-.63,.16-.28,.24-.62,.24-1.02s-.08-.74-.24-1.02c-.16-.28-.37-.49-.62-.63-.26-.14-.53-.21-.83-.21s-.58,.07-.83,.21c-.25,.14-.46,.35-.61,.63-.15,.28-.23,.62-.23,1.02s.07,.75,.22,1.03c.15,.28,.35,.49,.6,.63,.25,.14,.52,.21,.82,.21s.58-.07,.84-.21Z"/><path class="cls-4" d="M214.54,16.09c.38,.37,.57,.9,.57,1.59v2.95h-.82v-2.83c0-.5-.12-.88-.37-1.15-.25-.27-.59-.4-1.02-.4s-.79,.14-1.04,.41c-.26,.27-.39,.67-.39,1.2v2.77h-.83v-5h.83v.71c.16-.26,.39-.45,.67-.59,.28-.14,.6-.21,.94-.21,.61,0,1.1,.18,1.48,.55Z"/><path class="cls-4" d="M219.98,15.78c.3,.16,.54,.4,.72,.73,.17,.32,.26,.72,.26,1.18v2.95h-.82v-2.83c0-.5-.12-.88-.37-1.15-.25-.27-.59-.4-1.02-.4s-.79,.14-1.04,.41c-.26,.27-.39,.67-.39,1.2v2.77h-.83v-6.76h.83v2.47c.16-.26,.39-.45,.68-.59s.61-.21,.97-.21c.38,0,.72,.08,1.02,.24Z"/><path class="cls-4" d="M226.85,18.45h-4c.03,.49,.2,.88,.51,1.16,.31,.28,.68,.42,1.12,.42,.36,0,.66-.08,.9-.25,.24-.17,.41-.39,.51-.67h.89c-.13,.48-.4,.87-.8,1.17-.4,.3-.9,.45-1.5,.45-.47,0-.9-.11-1.27-.32-.38-.21-.67-.52-.88-.91-.21-.39-.32-.85-.32-1.37s.1-.97,.31-1.36,.5-.69,.87-.9c.38-.21,.81-.31,1.29-.31s.9,.1,1.26,.31,.65,.49,.84,.85,.3,.77,.3,1.23c0,.16,0,.33-.03,.5Zm-1.04-1.49c-.14-.23-.33-.4-.57-.52-.24-.12-.51-.18-.8-.18-.42,0-.78,.13-1.07,.4-.29,.27-.46,.64-.51,1.11h3.16c0-.32-.07-.59-.21-.82Z"/><path class="cls-4" d="M227.98,16.77c.21-.39,.5-.69,.86-.9,.37-.21,.79-.32,1.26-.32,.62,0,1.12,.15,1.52,.45s.66,.71,.79,1.24h-.89c-.09-.3-.25-.54-.5-.72-.25-.18-.55-.27-.92-.27-.47,0-.86,.16-1.15,.49-.29,.33-.44,.79-.44,1.38s.15,1.07,.44,1.4c.29,.33,.68,.49,1.15,.49,.37,0,.67-.08,.91-.26,.24-.17,.41-.41,.5-.73h.89c-.13,.51-.4,.92-.8,1.23-.4,.31-.9,.46-1.51,.46-.47,0-.9-.11-1.26-.32-.37-.21-.66-.51-.86-.9s-.31-.85-.31-1.37,.1-.97,.31-1.36Z"/><path class="cls-4" d="M233.55,14.66c-.11-.11-.16-.24-.16-.4s.05-.29,.16-.4c.11-.11,.24-.16,.4-.16s.28,.05,.39,.16c.11,.11,.16,.24,.16,.4s-.05,.29-.16,.4c-.11,.11-.24,.16-.39,.16-.16,0-.29-.05-.4-.16Zm.8,.98v5h-.83v-5h.83Z"/><path class="cls-4" d="M242.83,15.78c.3,.16,.54,.4,.72,.73,.18,.32,.26,.72,.26,1.18v2.95h-.82v-2.83c0-.5-.12-.88-.37-1.15-.25-.27-.58-.4-1-.4s-.78,.14-1.03,.42c-.26,.28-.38,.68-.38,1.2v2.76h-.82v-2.83c0-.5-.12-.88-.37-1.15-.25-.27-.58-.4-1-.4s-.78,.14-1.03,.42c-.26,.28-.38,.68-.38,1.2v2.76h-.83v-5h.83v.72c.16-.26,.38-.46,.66-.6s.58-.21,.92-.21c.42,0,.79,.09,1.11,.28,.32,.19,.56,.47,.72,.83,.14-.35,.37-.63,.69-.82,.32-.19,.68-.29,1.08-.29s.74,.08,1.04,.24Z"/><path class="cls-4" d="M249.71,18.45h-4c.03,.49,.2,.88,.51,1.16,.31,.28,.68,.42,1.12,.42,.36,0,.66-.08,.9-.25,.24-.17,.41-.39,.51-.67h.89c-.13,.48-.4,.87-.8,1.17-.4,.3-.9,.45-1.5,.45-.47,0-.9-.11-1.27-.32-.38-.21-.67-.52-.88-.91-.21-.39-.32-.85-.32-1.37s.1-.97,.31-1.36,.5-.69,.87-.9c.38-.21,.81-.31,1.29-.31s.9,.1,1.26,.31,.65,.49,.84,.85,.3,.77,.3,1.23c0,.16,0,.33-.03,.5Zm-1.04-1.49c-.14-.23-.33-.4-.57-.52-.24-.12-.51-.18-.8-.18-.42,0-.78,.13-1.07,.4-.29,.27-.46,.64-.51,1.11h3.16c0-.32-.07-.59-.21-.82Z"/><path class="cls-4" d="M254.75,16.09c.38,.37,.57,.9,.57,1.59v2.95h-.82v-2.83c0-.5-.12-.88-.37-1.15-.25-.27-.59-.4-1.02-.4s-.79,.14-1.04,.41c-.26,.27-.39,.67-.39,1.2v2.77h-.83v-5h.83v.71c.16-.26,.39-.45,.67-.59,.28-.14,.6-.21,.94-.21,.61,0,1.1,.18,1.48,.55Z"/><path class="cls-4" d="M257.69,16.32v2.95c0,.24,.05,.42,.16,.52s.28,.15,.54,.15h.61v.7h-.75c-.46,0-.81-.11-1.04-.32-.23-.21-.35-.56-.35-1.05v-2.95h-.65v-.68h.65v-1.26h.83v1.26h1.31v.68h-1.31Z"/><path class="cls-4" d="M260.91,20.4c-.38-.21-.68-.52-.9-.91-.22-.39-.32-.85-.32-1.37s.11-.96,.33-1.36c.22-.39,.53-.69,.91-.9,.38-.21,.81-.31,1.29-.31s.9,.1,1.29,.31c.38,.21,.69,.51,.91,.9,.22,.39,.33,.84,.33,1.36s-.11,.97-.34,1.37c-.23,.39-.54,.7-.93,.91-.39,.21-.82,.32-1.3,.32s-.89-.11-1.27-.32Zm2.11-.62c.26-.14,.47-.35,.63-.63,.16-.28,.24-.62,.24-1.02s-.08-.74-.24-1.02c-.16-.28-.37-.49-.62-.63-.26-.14-.53-.21-.83-.21s-.58,.07-.83,.21c-.25,.14-.46,.35-.61,.63-.15,.28-.23,.62-.23,1.02s.07,.75,.22,1.03c.15,.28,.35,.49,.6,.63,.25,.14,.52,.21,.82,.21s.58-.07,.84-.21Z"/><path class="cls-4" d="M265.71,20.53c-.11-.11-.17-.24-.17-.4s.06-.29,.17-.4c.11-.11,.24-.16,.4-.16s.28,.05,.39,.16c.11,.11,.16,.24,.16,.4s-.05,.29-.16,.4c-.11,.11-.24,.16-.39,.16s-.29-.05-.4-.16Z"/></g><g class="cls-6"><rect class="cls-3" x="30.73" y="285.82" width="156.39" height="54.8" rx="27.4" ry="27.4"/></g><g><path class="cls-4" d="M52.28,294.35c.28-.5,.66-.88,1.15-1.16s1.02-.42,1.61-.42c.69,0,1.3,.17,1.82,.5s.9,.81,1.13,1.42h-1c-.18-.38-.43-.68-.76-.89-.33-.21-.73-.31-1.19-.31s-.84,.1-1.2,.31-.63,.5-.83,.88c-.2,.38-.3,.83-.3,1.34s.1,.95,.3,1.33c.2,.38,.48,.67,.83,.88s.75,.31,1.2,.31,.86-.1,1.19-.31c.33-.2,.59-.5,.76-.88h1c-.24,.61-.61,1.08-1.13,1.41-.52,.33-1.12,.5-1.82,.5-.59,0-1.13-.14-1.61-.42-.48-.28-.87-.66-1.15-1.16-.28-.49-.42-1.05-.42-1.67s.14-1.18,.42-1.68Z"/><path class="cls-4" d="M60.13,298.98c-.38-.21-.68-.52-.9-.91s-.32-.85-.32-1.37,.11-.96,.33-1.36c.22-.39,.52-.69,.91-.9,.38-.21,.81-.32,1.29-.32s.9,.11,1.29,.32c.38,.21,.69,.51,.91,.9s.33,.84,.33,1.36-.11,.97-.34,1.37c-.23,.39-.54,.7-.93,.91s-.82,.32-1.3,.32-.89-.11-1.27-.32Zm2.11-.62c.26-.14,.47-.35,.63-.63,.16-.28,.24-.62,.24-1.02s-.08-.74-.24-1.02-.37-.49-.62-.63c-.26-.14-.53-.21-.83-.21s-.58,.07-.84,.21c-.25,.14-.46,.35-.61,.63s-.23,.62-.23,1.02,.07,.75,.22,1.03c.15,.28,.35,.49,.6,.63,.25,.14,.52,.21,.82,.21s.58-.07,.84-.21Z"/><path class="cls-4" d="M68.99,294.68c.38,.37,.57,.9,.57,1.59v2.95h-.82v-2.83c0-.5-.12-.88-.37-1.15-.25-.26-.59-.4-1.02-.4s-.79,.14-1.05,.41c-.26,.27-.39,.67-.39,1.2v2.77h-.83v-5h.83v.71c.16-.26,.39-.45,.67-.59,.28-.14,.6-.21,.94-.21,.61,0,1.1,.18,1.48,.55Z"/><path class="cls-4" d="M74.42,294.36c.3,.16,.54,.4,.72,.73,.17,.32,.26,.72,.26,1.18v2.95h-.82v-2.83c0-.5-.12-.88-.37-1.15-.25-.26-.59-.4-1.02-.4s-.79,.14-1.05,.41c-.26,.27-.39,.67-.39,1.2v2.77h-.83v-6.76h.83v2.47c.16-.26,.39-.45,.68-.59,.29-.14,.61-.21,.97-.21,.38,0,.72,.08,1.02,.24Z"/><path class="cls-4" d="M81.3,297.03h-4c.03,.49,.2,.88,.51,1.16,.31,.28,.68,.42,1.12,.42,.36,0,.66-.08,.9-.25s.41-.39,.51-.67h.9c-.13,.48-.4,.87-.8,1.17-.4,.3-.9,.45-1.5,.45-.48,0-.9-.11-1.27-.32s-.67-.52-.88-.91c-.21-.39-.32-.85-.32-1.37s.1-.97,.31-1.36,.5-.69,.87-.9c.37-.21,.81-.32,1.29-.32s.9,.1,1.26,.31,.65,.49,.84,.85c.2,.36,.3,.77,.3,1.23,0,.16,0,.33-.03,.5Zm-1.04-1.49c-.14-.23-.33-.4-.57-.52-.24-.12-.51-.18-.8-.18-.42,0-.78,.13-1.07,.4-.3,.27-.46,.64-.51,1.11h3.16c0-.32-.07-.59-.21-.82Z"/><path class="cls-4" d="M82.42,295.35c.21-.39,.49-.69,.86-.9,.37-.21,.79-.32,1.26-.32,.61,0,1.12,.15,1.52,.45,.4,.3,.66,.71,.79,1.24h-.9c-.09-.3-.25-.54-.5-.72-.25-.18-.55-.26-.92-.26-.48,0-.86,.16-1.15,.49-.29,.33-.44,.79-.44,1.38s.15,1.07,.44,1.4c.29,.33,.68,.49,1.15,.49,.37,0,.67-.08,.91-.26,.24-.17,.41-.41,.5-.73h.9c-.13,.51-.4,.92-.8,1.23s-.9,.46-1.51,.46c-.48,0-.9-.11-1.26-.32-.37-.21-.66-.51-.86-.9s-.31-.85-.31-1.37,.1-.97,.31-1.36Z"/><path class="cls-4" d="M87.99,293.24c-.11-.11-.16-.24-.16-.4s.05-.29,.16-.4c.11-.11,.24-.17,.4-.17s.28,.05,.39,.17c.11,.11,.16,.24,.16,.4s-.05,.29-.16,.4c-.11,.11-.24,.16-.39,.16s-.29-.05-.4-.16Zm.8,.98v5h-.83v-5h.83Z"/><path class="cls-4" d="M97.27,294.36c.3,.16,.54,.4,.72,.73,.18,.32,.27,.72,.27,1.18v2.95h-.82v-2.83c0-.5-.12-.88-.37-1.15-.25-.26-.58-.4-1-.4s-.78,.14-1.03,.42c-.26,.28-.38,.68-.38,1.2v2.76h-.82v-2.83c0-.5-.12-.88-.37-1.15-.25-.26-.58-.4-1-.4s-.78,.14-1.03,.42c-.26,.28-.38,.68-.38,1.2v2.76h-.83v-5h.83v.72c.16-.26,.39-.46,.66-.6,.28-.14,.58-.21,.92-.21,.42,0,.79,.09,1.11,.28,.32,.19,.56,.47,.72,.83,.14-.35,.37-.63,.69-.82,.32-.19,.68-.29,1.08-.29s.74,.08,1.04,.24Z"/><path class="cls-4" d="M104.16,297.03h-4c.03,.49,.2,.88,.51,1.16,.31,.28,.68,.42,1.12,.42,.36,0,.66-.08,.9-.25s.41-.39,.51-.67h.9c-.13,.48-.4,.87-.8,1.17-.4,.3-.9,.45-1.5,.45-.48,0-.9-.11-1.27-.32s-.67-.52-.88-.91c-.21-.39-.32-.85-.32-1.37s.1-.97,.31-1.36,.5-.69,.87-.9c.37-.21,.81-.32,1.29-.32s.9,.1,1.26,.31,.65,.49,.84,.85c.2,.36,.3,.77,.3,1.23,0,.16,0,.33-.03,.5Zm-1.04-1.49c-.14-.23-.33-.4-.57-.52-.24-.12-.51-.18-.8-.18-.42,0-.78,.13-1.07,.4-.3,.27-.46,.64-.51,1.11h3.16c0-.32-.07-.59-.21-.82Z"/><path class="cls-4" d="M109.2,294.68c.38,.37,.57,.9,.57,1.59v2.95h-.82v-2.83c0-.5-.12-.88-.37-1.15-.25-.26-.59-.4-1.02-.4s-.79,.14-1.05,.41c-.26,.27-.39,.67-.39,1.2v2.77h-.83v-5h.83v.71c.16-.26,.39-.45,.67-.59,.28-.14,.6-.21,.94-.21,.61,0,1.1,.18,1.48,.55Z"/><path class="cls-4" d="M112.14,294.9v2.95c0,.24,.05,.42,.16,.52,.1,.1,.28,.15,.54,.15h.61v.7h-.75c-.46,0-.81-.11-1.04-.32s-.35-.56-.35-1.05v-2.95h-.65v-.69h.65v-1.26h.83v1.26h1.31v.69h-1.31Z"/><path class="cls-4" d="M115.36,298.98c-.38-.21-.68-.52-.9-.91s-.32-.85-.32-1.37,.11-.96,.33-1.36c.22-.39,.52-.69,.91-.9,.38-.21,.81-.32,1.29-.32s.9,.11,1.29,.32c.38,.21,.69,.51,.91,.9s.33,.84,.33,1.36-.11,.97-.34,1.37c-.23,.39-.54,.7-.93,.91s-.82,.32-1.3,.32-.89-.11-1.27-.32Zm2.11-.62c.26-.14,.47-.35,.63-.63,.16-.28,.24-.62,.24-1.02s-.08-.74-.24-1.02-.37-.49-.62-.63c-.26-.14-.53-.21-.83-.21s-.58,.07-.84,.21c-.25,.14-.46,.35-.61,.63s-.23,.62-.23,1.02,.07,.75,.22,1.03c.15,.28,.35,.49,.6,.63,.25,.14,.52,.21,.82,.21s.58-.07,.84-.21Z"/><path class="cls-4" d="M121.03,299.1c-.3-.13-.54-.31-.72-.55-.18-.23-.27-.5-.29-.81h.86c.02,.25,.14,.45,.35,.61s.49,.24,.83,.24c.32,0,.57-.07,.75-.21s.27-.32,.27-.53-.1-.38-.29-.49-.5-.21-.9-.31c-.37-.1-.67-.2-.91-.3-.23-.1-.44-.25-.6-.45-.17-.2-.25-.46-.25-.78,0-.26,.08-.49,.23-.7,.15-.21,.37-.38,.65-.51,.28-.12,.6-.19,.96-.19,.55,0,1,.14,1.34,.42,.34,.28,.52,.66,.55,1.15h-.83c-.02-.26-.12-.47-.31-.63-.19-.16-.45-.24-.77-.24-.3,0-.54,.06-.71,.19-.18,.13-.26,.29-.26,.5,0,.16,.05,.3,.16,.41s.24,.19,.4,.26c.16,.06,.39,.14,.67,.21,.36,.1,.65,.19,.88,.29,.23,.09,.42,.24,.58,.42,.16,.19,.25,.44,.25,.74,0,.27-.08,.52-.23,.74-.15,.22-.37,.39-.64,.52-.28,.12-.6,.19-.95,.19-.38,0-.73-.07-1.03-.2Z"/><path class="cls-4" d="M128.51,294.9v2.95c0,.24,.05,.42,.16,.52,.1,.1,.28,.15,.54,.15h.61v.7h-.75c-.46,0-.81-.11-1.04-.32s-.35-.56-.35-1.05v-2.95h-.65v-.69h.65v-1.26h.83v1.26h1.31v.69h-1.31Z"/><path class="cls-4" d="M135.36,297.03h-4c.03,.49,.2,.88,.51,1.16,.31,.28,.68,.42,1.12,.42,.36,0,.66-.08,.9-.25s.41-.39,.51-.67h.9c-.13,.48-.4,.87-.8,1.17-.4,.3-.9,.45-1.5,.45-.48,0-.9-.11-1.27-.32s-.67-.52-.88-.91c-.21-.39-.32-.85-.32-1.37s.1-.97,.31-1.36,.5-.69,.87-.9c.37-.21,.81-.32,1.29-.32s.9,.1,1.26,.31,.65,.49,.84,.85c.2,.36,.3,.77,.3,1.23,0,.16,0,.33-.03,.5Zm-1.04-1.49c-.14-.23-.33-.4-.57-.52-.24-.12-.51-.18-.8-.18-.42,0-.78,.13-1.07,.4-.3,.27-.46,.64-.51,1.11h3.16c0-.32-.07-.59-.21-.82Z"/><path class="cls-4" d="M137.39,298.98c-.38-.21-.68-.52-.9-.91s-.32-.85-.32-1.37,.11-.96,.33-1.36c.22-.39,.52-.69,.91-.9,.38-.21,.81-.32,1.29-.32s.9,.11,1.29,.32c.38,.21,.69,.51,.91,.9s.33,.84,.33,1.36-.11,.97-.34,1.37c-.23,.39-.54,.7-.93,.91s-.82,.32-1.3,.32-.89-.11-1.27-.32Zm2.11-.62c.26-.14,.47-.35,.63-.63,.16-.28,.24-.62,.24-1.02s-.08-.74-.24-1.02-.37-.49-.62-.63c-.26-.14-.53-.21-.83-.21s-.58,.07-.84,.21c-.25,.14-.46,.35-.61,.63s-.23,.62-.23,1.02,.07,.75,.22,1.03c.15,.28,.35,.49,.6,.63,.25,.14,.52,.21,.82,.21s.58-.07,.84-.21Zm.09-5.63l-1.95,1.04v-.62l1.95-1.14v.72Z"/><path class="cls-4" d="M143.78,294.36c.27-.16,.6-.24,.99-.24v.86h-.22c-.93,0-1.4,.5-1.4,1.52v2.72h-.83v-5h.83v.81c.15-.29,.35-.51,.63-.67Z"/><path class="cls-4" d="M145.76,293.24c-.11-.11-.16-.24-.16-.4s.05-.29,.16-.4c.11-.11,.24-.17,.4-.17s.28,.05,.39,.17c.11,.11,.16,.24,.16,.4s-.05,.29-.16,.4c-.11,.11-.24,.16-.39,.16s-.29-.05-.4-.16Zm.8,.98v5h-.83v-5h.83Z"/><path class="cls-4" d="M147.98,295.35c.21-.39,.49-.69,.86-.9,.37-.21,.79-.32,1.26-.32,.61,0,1.12,.15,1.52,.45,.4,.3,.66,.71,.79,1.24h-.9c-.09-.3-.25-.54-.5-.72-.25-.18-.55-.26-.92-.26-.48,0-.86,.16-1.15,.49-.29,.33-.44,.79-.44,1.38s.15,1.07,.44,1.4c.29,.33,.68,.49,1.15,.49,.37,0,.67-.08,.91-.26,.24-.17,.41-.41,.5-.73h.9c-.13,.51-.4,.92-.8,1.23s-.9,.46-1.51,.46c-.48,0-.9-.11-1.26-.32-.37-.21-.66-.51-.86-.9s-.31-.85-.31-1.37,.1-.97,.31-1.36Z"/><path class="cls-4" d="M154.43,298.98c-.38-.21-.68-.52-.9-.91s-.32-.85-.32-1.37,.11-.96,.33-1.36c.22-.39,.52-.69,.91-.9,.38-.21,.81-.32,1.29-.32s.9,.11,1.29,.32c.38,.21,.69,.51,.91,.9s.33,.84,.33,1.36-.11,.97-.34,1.37c-.23,.39-.54,.7-.93,.91s-.82,.32-1.3,.32-.89-.11-1.27-.32Zm2.11-.62c.26-.14,.47-.35,.63-.63,.16-.28,.24-.62,.24-1.02s-.08-.74-.24-1.02-.37-.49-.62-.63c-.26-.14-.53-.21-.83-.21s-.58,.07-.84,.21c-.25,.14-.46,.35-.61,.63s-.23,.62-.23,1.02,.07,.75,.22,1.03c.15,.28,.35,.49,.6,.63,.25,.14,.52,.21,.82,.21s.58-.07,.84-.21Z"/><path class="cls-4" d="M160.11,299.1c-.3-.13-.54-.31-.72-.55-.18-.23-.27-.5-.29-.81h.86c.02,.25,.14,.45,.35,.61s.49,.24,.83,.24c.32,0,.57-.07,.75-.21s.27-.32,.27-.53-.1-.38-.29-.49-.5-.21-.9-.31c-.37-.1-.67-.2-.91-.3-.23-.1-.44-.25-.6-.45-.17-.2-.25-.46-.25-.78,0-.26,.08-.49,.23-.7,.15-.21,.37-.38,.65-.51,.28-.12,.6-.19,.96-.19,.55,0,1,.14,1.34,.42,.34,.28,.52,.66,.55,1.15h-.83c-.02-.26-.12-.47-.31-.63-.19-.16-.45-.24-.77-.24-.3,0-.54,.06-.71,.19-.18,.13-.26,.29-.26,.5,0,.16,.05,.3,.16,.41s.24,.19,.4,.26c.16,.06,.39,.14,.67,.21,.36,.1,.65,.19,.88,.29,.23,.09,.42,.24,.58,.42,.16,.19,.25,.44,.25,.74,0,.27-.08,.52-.23,.74-.15,.22-.37,.39-.64,.52-.28,.12-.6,.19-.95,.19-.38,0-.73-.07-1.03-.2Z"/><path class="cls-4" d="M56.71,307.99h-4c.03,.49,.2,.88,.51,1.16,.31,.28,.68,.42,1.12,.42,.36,0,.66-.08,.9-.25s.41-.39,.51-.67h.9c-.13,.48-.4,.87-.8,1.17-.4,.3-.9,.45-1.5,.45-.48,0-.9-.11-1.27-.32s-.67-.52-.88-.91c-.21-.39-.32-.85-.32-1.37s.1-.97,.31-1.36,.5-.69,.87-.9c.37-.21,.81-.32,1.29-.32s.9,.1,1.26,.31,.65,.49,.84,.85c.2,.36,.3,.77,.3,1.23,0,.16,0,.33-.03,.5Zm-1.04-1.49c-.14-.23-.33-.4-.57-.52-.24-.12-.51-.18-.8-.18-.42,0-.78,.13-1.07,.4-.3,.27-.46,.64-.51,1.11h3.16c0-.32-.07-.59-.21-.82Z"/><path class="cls-4" d="M61.18,309.94c-.38-.21-.68-.52-.9-.91s-.32-.85-.32-1.37,.11-.96,.33-1.36c.22-.39,.52-.69,.91-.9,.38-.21,.81-.32,1.29-.32s.9,.11,1.29,.32c.38,.21,.69,.51,.91,.9s.33,.84,.33,1.36-.11,.97-.34,1.37c-.23,.39-.54,.7-.93,.91s-.82,.32-1.3,.32-.89-.11-1.27-.32Zm2.11-.62c.26-.14,.47-.35,.63-.63,.16-.28,.24-.62,.24-1.02s-.08-.74-.24-1.02-.37-.49-.62-.63c-.26-.14-.53-.21-.83-.21s-.58,.07-.84,.21c-.25,.14-.46,.35-.61,.63s-.23,.62-.23,1.02,.07,.75,.22,1.03c.15,.28,.35,.49,.6,.63,.25,.14,.52,.21,.82,.21s.58-.07,.84-.21Z"/><path class="cls-4" d="M66.86,310.06c-.3-.13-.54-.31-.72-.55-.18-.23-.27-.5-.29-.81h.86c.02,.25,.14,.45,.35,.61s.49,.24,.83,.24c.32,0,.57-.07,.75-.21s.27-.32,.27-.53-.1-.38-.29-.49-.5-.21-.9-.31c-.37-.1-.67-.2-.91-.3-.23-.1-.44-.25-.6-.45-.17-.2-.25-.46-.25-.78,0-.26,.08-.49,.23-.7,.15-.21,.37-.38,.65-.51,.28-.12,.6-.19,.96-.19,.55,0,1,.14,1.34,.42,.34,.28,.52,.66,.55,1.15h-.83c-.02-.26-.12-.47-.31-.63-.19-.16-.45-.24-.77-.24-.3,0-.54,.06-.71,.19-.18,.13-.26,.29-.26,.5,0,.16,.05,.3,.16,.41s.24,.19,.4,.26c.16,.06,.39,.14,.67,.21,.36,.1,.65,.19,.88,.29,.23,.09,.42,.24,.58,.42,.16,.19,.25,.44,.25,.74,0,.27-.08,.52-.23,.74-.15,.22-.37,.39-.64,.52-.28,.12-.6,.19-.95,.19-.38,0-.73-.07-1.03-.2Z"/><path class="cls-4" d="M73.32,306.31c.21-.39,.49-.69,.85-.9,.36-.21,.77-.32,1.21-.32s.82,.09,1.14,.28,.56,.43,.72,.71v-.91h.84v5h-.84v-.93c-.16,.29-.41,.53-.74,.73-.33,.19-.7,.29-1.14,.29s-.85-.11-1.21-.33c-.36-.22-.64-.53-.85-.92s-.31-.85-.31-1.35,.1-.96,.31-1.35Zm3.7,.37c-.15-.28-.36-.49-.62-.64-.26-.15-.54-.22-.85-.22s-.59,.07-.85,.22c-.26,.15-.46,.36-.61,.64s-.23,.61-.23,.99,.08,.72,.23,1,.36,.5,.61,.65c.26,.15,.54,.22,.85,.22s.59-.07,.85-.22c.26-.15,.46-.37,.62-.65s.23-.61,.23-.99-.08-.71-.23-.99Z"/><path class="cls-4" d="M79.5,306.31c.21-.39,.49-.69,.85-.9,.36-.21,.77-.32,1.22-.32,.39,0,.75,.09,1.09,.27,.33,.18,.59,.42,.77,.71v-2.65h.84v6.76h-.84v-.94c-.16,.3-.41,.54-.73,.74-.32,.19-.7,.29-1.13,.29s-.85-.11-1.21-.33c-.36-.22-.65-.53-.85-.92s-.31-.85-.31-1.35,.1-.96,.31-1.35Zm3.7,.37c-.15-.28-.36-.49-.62-.64-.26-.15-.54-.22-.85-.22s-.59,.07-.85,.22c-.26,.15-.46,.36-.61,.64s-.23,.61-.23,.99,.08,.72,.23,1,.36,.5,.61,.65c.26,.15,.54,.22,.85,.22s.59-.07,.85-.22c.26-.15,.46-.37,.62-.65s.23-.61,.23-.99-.08-.71-.23-.99Z"/><path class="cls-4" d="M85.67,306.31c.21-.39,.49-.69,.85-.9,.36-.21,.77-.32,1.22-.32s.81,.1,1.14,.29c.33,.19,.56,.43,.72,.71v-.91h.84v7.38h-.84v-3.3c-.16,.28-.4,.52-.73,.71-.33,.2-.71,.29-1.15,.29s-.84-.11-1.2-.33c-.36-.22-.64-.53-.85-.92s-.31-.85-.31-1.35,.1-.96,.31-1.35Zm3.7,.37c-.15-.28-.36-.49-.62-.64-.26-.15-.54-.22-.85-.22s-.59,.07-.85,.22c-.26,.15-.46,.36-.61,.64s-.23,.61-.23,.99,.08,.72,.23,1,.36,.5,.61,.65c.26,.15,.54,.22,.85,.22s.59-.07,.85-.22c.26-.15,.46-.37,.62-.65s.23-.61,.23-.99-.08-.71-.23-.99Z"/><path class="cls-4" d="M96.28,305.17v5h-.83v-.74c-.16,.25-.38,.46-.66,.6s-.6,.21-.94,.21c-.39,0-.74-.08-1.05-.24s-.56-.4-.74-.73c-.18-.32-.27-.72-.27-1.18v-2.93h.82v2.82c0,.49,.12,.87,.37,1.14,.25,.26,.59,.4,1.02,.4s.79-.14,1.05-.41c.26-.27,.38-.67,.38-1.2v-2.75h.83Z"/><path class="cls-4" d="M97.72,304.2c-.11-.11-.16-.24-.16-.4s.05-.29,.16-.4c.11-.11,.24-.17,.4-.17s.28,.05,.39,.17c.11,.11,.16,.24,.16,.4s-.05,.29-.16,.4c-.11,.11-.24,.16-.39,.16s-.29-.05-.4-.16Zm.8,.98v5h-.83v-5h.83Z"/><path class="cls-4" d="M101.39,305.32c.27-.16,.6-.24,.99-.24v.86h-.22c-.93,0-1.4,.5-1.4,1.52v2.72h-.83v-5h.83v.81c.15-.29,.35-.51,.63-.67Z"/><path class="cls-4" d="M103.37,304.2c-.11-.11-.16-.24-.16-.4s.05-.29,.16-.4c.11-.11,.24-.17,.4-.17s.28,.05,.39,.17c.11,.11,.16,.24,.16,.4s-.05,.29-.16,.4c-.11,.11-.24,.16-.39,.16s-.29-.05-.4-.16Zm.8,.98v5h-.83v-5h.83Z"/><path class="cls-4" d="M105.59,306.31c.21-.39,.49-.69,.85-.9,.36-.21,.77-.32,1.22-.32,.39,0,.75,.09,1.09,.27,.33,.18,.59,.42,.77,.71v-2.65h.84v6.76h-.84v-.94c-.16,.3-.41,.54-.73,.74-.32,.19-.7,.29-1.13,.29s-.85-.11-1.21-.33c-.36-.22-.65-.53-.85-.92s-.31-.85-.31-1.35,.1-.96,.31-1.35Zm3.7,.37c-.15-.28-.36-.49-.62-.64-.26-.15-.54-.22-.85-.22s-.59,.07-.85,.22c-.26,.15-.46,.36-.61,.64s-.23,.61-.23,.99,.08,.72,.23,1,.36,.5,.61,.65c.26,.15,.54,.22,.85,.22s.59-.07,.85-.22c.26-.15,.46-.37,.62-.65s.23-.61,.23-.99-.08-.71-.23-.99Z"/><path class="cls-4" d="M112.67,309.94c-.38-.21-.68-.52-.9-.91s-.32-.85-.32-1.37,.11-.96,.33-1.36c.22-.39,.52-.69,.91-.9,.38-.21,.81-.32,1.29-.32s.9,.11,1.29,.32c.38,.21,.69,.51,.91,.9s.33,.84,.33,1.36-.11,.97-.34,1.37c-.23,.39-.54,.7-.93,.91s-.82,.32-1.3,.32-.89-.11-1.27-.32Zm2.11-.62c.26-.14,.47-.35,.63-.63,.16-.28,.24-.62,.24-1.02s-.08-.74-.24-1.02-.37-.49-.62-.63c-.26-.14-.53-.21-.83-.21s-.58,.07-.84,.21c-.25,.14-.46,.35-.61,.63s-.23,.62-.23,1.02,.07,.75,.22,1.03c.15,.28,.35,.49,.6,.63,.25,.14,.52,.21,.82,.21s.58-.07,.84-.21Z"/><path class="cls-4" d="M118.35,310.06c-.3-.13-.54-.31-.72-.55-.18-.23-.27-.5-.29-.81h.86c.02,.25,.14,.45,.35,.61s.49,.24,.83,.24c.32,0,.57-.07,.75-.21s.27-.32,.27-.53-.1-.38-.29-.49-.5-.21-.9-.31c-.37-.1-.67-.2-.91-.3-.23-.1-.44-.25-.6-.45-.17-.2-.25-.46-.25-.78,0-.26,.08-.49,.23-.7,.15-.21,.37-.38,.65-.51,.28-.12,.6-.19,.96-.19,.55,0,1,.14,1.34,.42,.34,.28,.52,.66,.55,1.15h-.83c-.02-.26-.12-.47-.31-.63-.19-.16-.45-.24-.77-.24-.3,0-.54,.06-.71,.19-.18,.13-.26,.29-.26,.5,0,.16,.05,.3,.16,.41s.24,.19,.4,.26c.16,.06,.39,.14,.67,.21,.36,.1,.65,.19,.88,.29,.23,.09,.42,.24,.58,.42,.16,.19,.25,.44,.25,.74,0,.27-.08,.52-.23,.74-.15,.22-.37,.39-.64,.52-.28,.12-.6,.19-.95,.19-.38,0-.73-.07-1.03-.2Z"/><path class="cls-4" d="M124.81,306.31c.21-.39,.49-.69,.86-.9,.37-.21,.79-.32,1.26-.32,.61,0,1.12,.15,1.52,.45,.4,.3,.66,.71,.79,1.24h-.9c-.09-.3-.25-.54-.5-.72-.25-.18-.55-.26-.92-.26-.48,0-.86,.16-1.15,.49-.29,.33-.44,.79-.44,1.38s.15,1.07,.44,1.4c.29,.33,.68,.49,1.15,.49,.37,0,.67-.08,.91-.26,.24-.17,.41-.41,.5-.73h.9c-.13,.51-.4,.92-.8,1.23s-.9,.46-1.51,.46c-.48,0-.9-.11-1.26-.32-.37-.21-.66-.51-.86-.9s-.31-.85-.31-1.37,.1-.97,.31-1.36Z"/><path class="cls-4" d="M131.26,309.94c-.38-.21-.68-.52-.9-.91s-.32-.85-.32-1.37,.11-.96,.33-1.36c.22-.39,.52-.69,.91-.9,.38-.21,.81-.32,1.29-.32s.9,.11,1.29,.32c.38,.21,.69,.51,.91,.9s.33,.84,.33,1.36-.11,.97-.34,1.37c-.23,.39-.54,.7-.93,.91s-.82,.32-1.3,.32-.89-.11-1.27-.32Zm2.11-.62c.26-.14,.47-.35,.63-.63,.16-.28,.24-.62,.24-1.02s-.08-.74-.24-1.02-.37-.49-.62-.63c-.26-.14-.53-.21-.83-.21s-.58,.07-.84,.21c-.25,.14-.46,.35-.61,.63s-.23,.62-.23,1.02,.07,.75,.22,1.03c.15,.28,.35,.49,.6,.63,.25,.14,.52,.21,.82,.21s.58-.07,.84-.21Z"/><path class="cls-4" d="M143.26,305.32c.3,.16,.54,.4,.72,.73,.18,.32,.27,.72,.27,1.18v2.95h-.82v-2.83c0-.5-.12-.88-.37-1.15-.25-.26-.58-.4-1-.4s-.78,.14-1.03,.42c-.26,.28-.38,.68-.38,1.2v2.76h-.82v-2.83c0-.5-.12-.88-.37-1.15-.25-.26-.58-.4-1-.4s-.78,.14-1.03,.42c-.26,.28-.38,.68-.38,1.2v2.76h-.83v-5h.83v.72c.16-.26,.39-.46,.66-.6,.28-.14,.58-.21,.92-.21,.42,0,.79,.09,1.11,.28,.32,.19,.56,.47,.72,.83,.14-.35,.37-.63,.69-.82,.32-.19,.68-.29,1.08-.29s.74,.08,1.04,.24Z"/><path class="cls-4" d="M148.04,306.31c.21-.39,.49-.69,.85-.9,.36-.21,.77-.32,1.21-.32s.82,.09,1.14,.28,.56,.43,.72,.71v-.91h.84v5h-.84v-.93c-.16,.29-.41,.53-.74,.73-.33,.19-.7,.29-1.14,.29s-.85-.11-1.21-.33c-.36-.22-.64-.53-.85-.92s-.31-.85-.31-1.35,.1-.96,.31-1.35Zm3.7,.37c-.15-.28-.36-.49-.62-.64-.26-.15-.54-.22-.85-.22s-.59,.07-.85,.22c-.26,.15-.46,.36-.61,.64s-.23,.61-.23,.99,.08,.72,.23,1,.36,.5,.61,.65c.26,.15,.54,.22,.85,.22s.59-.07,.85-.22c.26-.15,.46-.37,.62-.65s.23-.61,.23-.99-.08-.71-.23-.99Z"/><path class="cls-4" d="M56.71,318.94h-4c.03,.49,.2,.88,.51,1.16,.31,.28,.68,.42,1.12,.42,.36,0,.66-.08,.9-.25s.41-.39,.51-.67h.9c-.13,.48-.4,.87-.8,1.17-.4,.3-.9,.45-1.5,.45-.48,0-.9-.11-1.27-.32s-.67-.52-.88-.91c-.21-.39-.32-.85-.32-1.37s.1-.97,.31-1.36,.5-.69,.87-.9c.37-.21,.81-.32,1.29-.32s.9,.1,1.26,.31,.65,.49,.84,.85c.2,.36,.3,.77,.3,1.23,0,.16,0,.33-.03,.5Zm-1.04-1.49c-.14-.23-.33-.4-.57-.52-.24-.12-.51-.18-.8-.18-.42,0-.78,.13-1.07,.4-.3,.27-.46,.64-.51,1.11h3.16c0-.32-.07-.59-.21-.82Z"/><path class="cls-4" d="M60.45,321.14l-1.19-1.86-1.14,1.86h-.87l1.62-2.48-1.62-2.52h.94l1.19,1.85,1.13-1.85h.87l-1.61,2.48,1.62,2.53h-.94Z"/><path class="cls-4" d="M63.78,316.34c.33-.19,.7-.29,1.14-.29s.85,.11,1.21,.32c.36,.21,.65,.51,.85,.9s.31,.83,.31,1.35-.1,.96-.31,1.35-.49,.7-.85,.92c-.36,.22-.77,.33-1.21,.33s-.8-.1-1.13-.29c-.33-.19-.57-.43-.74-.72v3.3h-.83v-7.38h.83v.92c.16-.29,.41-.53,.74-.72Zm2.43,1.29c-.15-.28-.36-.49-.62-.64-.26-.15-.54-.22-.85-.22s-.59,.07-.84,.22-.47,.37-.62,.65-.23,.61-.23,.98,.08,.71,.23,.99,.36,.5,.62,.65,.54,.22,.84,.22,.6-.07,.85-.22,.46-.37,.62-.65,.23-.62,.23-1-.08-.71-.23-.99Z"/><path class="cls-4" d="M72.92,318.94h-4c.03,.49,.2,.88,.51,1.16,.31,.28,.68,.42,1.12,.42,.36,0,.66-.08,.9-.25s.41-.39,.51-.67h.9c-.13,.48-.4,.87-.8,1.17-.4,.3-.9,.45-1.5,.45-.48,0-.9-.11-1.27-.32s-.67-.52-.88-.91c-.21-.39-.32-.85-.32-1.37s.1-.97,.31-1.36,.5-.69,.87-.9c.37-.21,.81-.32,1.29-.32s.9,.1,1.26,.31,.65,.49,.84,.85c.2,.36,.3,.77,.3,1.23,0,.16,0,.33-.03,.5Zm-1.04-1.49c-.14-.23-.33-.4-.57-.52-.24-.12-.51-.18-.8-.18-.42,0-.78,.13-1.07,.4-.3,.27-.46,.64-.51,1.11h3.16c0-.32-.07-.59-.21-.82Z"/><path class="cls-4" d="M75.5,316.28c.27-.16,.6-.24,.99-.24v.86h-.22c-.93,0-1.4,.5-1.4,1.52v2.72h-.83v-5h.83v.81c.15-.29,.35-.51,.63-.67Z"/><path class="cls-4" d="M77.48,315.15c-.11-.11-.16-.24-.16-.4s.05-.29,.16-.4c.11-.11,.24-.17,.4-.17s.28,.05,.39,.17c.11,.11,.16,.24,.16,.4s-.05,.29-.16,.4c-.11,.11-.24,.16-.39,.16s-.29-.05-.4-.16Zm.8,.98v5h-.83v-5h.83Z"/><path class="cls-4" d="M84.24,318.94h-4c.03,.49,.2,.88,.51,1.16,.31,.28,.68,.42,1.12,.42,.36,0,.66-.08,.9-.25s.41-.39,.51-.67h.9c-.13,.48-.4,.87-.8,1.17-.4,.3-.9,.45-1.5,.45-.48,0-.9-.11-1.27-.32s-.67-.52-.88-.91c-.21-.39-.32-.85-.32-1.37s.1-.97,.31-1.36,.5-.69,.87-.9c.37-.21,.81-.32,1.29-.32s.9,.1,1.26,.31,.65,.49,.84,.85c.2,.36,.3,.77,.3,1.23,0,.16,0,.33-.03,.5Zm-1.04-1.49c-.14-.23-.33-.4-.57-.52-.24-.12-.51-.18-.8-.18-.42,0-.78,.13-1.07,.4-.3,.27-.46,.64-.51,1.11h3.16c0-.32-.07-.59-.21-.82Zm-1.36-2.54l-1.27,.78v-.66l1.27-.76,1.26,.76v.66l-1.26-.78Z"/><path class="cls-4" d="M89.28,316.59c.38,.37,.57,.9,.57,1.59v2.95h-.82v-2.83c0-.5-.12-.88-.37-1.15-.25-.26-.59-.4-1.02-.4s-.79,.14-1.05,.41c-.26,.27-.39,.67-.39,1.2v2.77h-.83v-5h.83v.71c.16-.26,.39-.45,.67-.59,.28-.14,.6-.21,.94-.21,.61,0,1.1,.18,1.48,.55Z"/><path class="cls-4" d="M91.2,317.27c.21-.39,.49-.69,.86-.9,.37-.21,.79-.32,1.26-.32,.61,0,1.12,.15,1.52,.45,.4,.3,.66,.71,.79,1.24h-.9c-.09-.3-.25-.54-.5-.72-.25-.18-.55-.26-.92-.26-.48,0-.86,.16-1.15,.49-.29,.33-.44,.79-.44,1.38s.15,1.07,.44,1.4c.29,.33,.68,.49,1.15,.49,.37,0,.67-.08,.91-.26,.24-.17,.41-.41,.5-.73h.9c-.13,.51-.4,.92-.8,1.23s-.9,.46-1.51,.46c-.48,0-.9-.11-1.26-.32-.37-.21-.66-.51-.86-.9s-.31-.85-.31-1.37,.1-.97,.31-1.36Z"/><path class="cls-4" d="M96.78,315.15c-.11-.11-.16-.24-.16-.4s.05-.29,.16-.4c.11-.11,.24-.17,.4-.17s.28,.05,.39,.17c.11,.11,.16,.24,.16,.4s-.05,.29-.16,.4c-.11,.11-.24,.16-.39,.16s-.29-.05-.4-.16Zm.8,.98v5h-.83v-5h.83Z"/><path class="cls-4" d="M98.99,317.27c.21-.39,.49-.69,.85-.9,.36-.21,.77-.32,1.21-.32s.82,.09,1.14,.28,.56,.43,.72,.71v-.91h.84v5h-.84v-.93c-.16,.29-.41,.53-.74,.73-.33,.19-.7,.29-1.14,.29s-.85-.11-1.21-.33c-.36-.22-.64-.53-.85-.92s-.31-.85-.31-1.35,.1-.96,.31-1.35Zm3.7,.37c-.15-.28-.36-.49-.62-.64-.26-.15-.54-.22-.85-.22s-.59,.07-.85,.22c-.26,.15-.46,.36-.61,.64s-.23,.61-.23,.99,.08,.72,.23,1,.36,.5,.61,.65c.26,.15,.54,.22,.85,.22s.59-.07,.85-.22c.26-.15,.46-.37,.62-.65s.23-.61,.23-.99-.08-.71-.23-.99Z"/><path class="cls-4" d="M107.61,317.27c.21-.39,.49-.69,.85-.9,.36-.21,.77-.32,1.21-.32s.82,.09,1.14,.28,.56,.43,.72,.71v-.91h.84v5h-.84v-.93c-.16,.29-.41,.53-.74,.73-.33,.19-.7,.29-1.14,.29s-.85-.11-1.21-.33c-.36-.22-.64-.53-.85-.92s-.31-.85-.31-1.35,.1-.96,.31-1.35Zm3.7,.37c-.15-.28-.36-.49-.62-.64-.26-.15-.54-.22-.85-.22s-.59,.07-.85,.22c-.26,.15-.46,.36-.61,.64s-.23,.61-.23,.99,.08,.72,.23,1,.36,.5,.61,.65c.26,.15,.54,.22,.85,.22s.59-.07,.85-.22c.26-.15,.46-.37,.62-.65s.23-.61,.23-.99-.08-.71-.23-.99Z"/><path class="cls-4" d="M114.69,320.9c-.38-.21-.68-.52-.9-.91s-.32-.85-.32-1.37,.11-.96,.33-1.36c.22-.39,.52-.69,.91-.9,.38-.21,.81-.32,1.29-.32s.9,.11,1.29,.32c.38,.21,.69,.51,.91,.9s.33,.84,.33,1.36-.11,.97-.34,1.37c-.23,.39-.54,.7-.93,.91s-.82,.32-1.3,.32-.89-.11-1.27-.32Zm2.11-.62c.26-.14,.47-.35,.63-.63,.16-.28,.24-.62,.24-1.02s-.08-.74-.24-1.02-.37-.49-.62-.63c-.26-.14-.53-.21-.83-.21s-.58,.07-.84,.21c-.25,.14-.46,.35-.61,.63s-.23,.62-.23,1.02,.07,.75,.22,1.03c.15,.28,.35,.49,.6,.63,.25,.14,.52,.21,.82,.21s.58-.07,.84-.21Z"/><path class="cls-4" d="M122.89,314.38v6.76h-.83v-6.76h.83Z"/><path class="cls-4" d="M125.22,320.9c-.38-.21-.68-.52-.9-.91s-.32-.85-.32-1.37,.11-.96,.33-1.36c.22-.39,.52-.69,.91-.9,.38-.21,.81-.32,1.29-.32s.9,.11,1.29,.32c.38,.21,.69,.51,.91,.9s.33,.84,.33,1.36-.11,.97-.34,1.37c-.23,.39-.54,.7-.93,.91s-.82,.32-1.3,.32-.89-.11-1.27-.32Zm2.11-.62c.26-.14,.47-.35,.63-.63,.16-.28,.24-.62,.24-1.02s-.08-.74-.24-1.02-.37-.49-.62-.63c-.26-.14-.53-.21-.83-.21s-.58,.07-.84,.21c-.25,.14-.46,.35-.61,.63s-.23,.62-.23,1.02,.07,.75,.22,1.03c.15,.28,.35,.49,.6,.63,.25,.14,.52,.21,.82,.21s.58-.07,.84-.21Z"/><path class="cls-4" d="M134.07,316.59c.38,.37,.57,.9,.57,1.59v2.95h-.82v-2.83c0-.5-.12-.88-.37-1.15-.25-.26-.59-.4-1.02-.4s-.79,.14-1.05,.41c-.26,.27-.39,.67-.39,1.2v2.77h-.83v-5h.83v.71c.16-.26,.39-.45,.67-.59,.28-.14,.6-.21,.94-.21,.61,0,1.1,.18,1.48,.55Z"/><path class="cls-4" d="M139.2,316.33c.33,.19,.57,.43,.73,.71v-.91h.84v5.11c0,.46-.1,.86-.29,1.22-.19,.36-.47,.63-.84,.83-.36,.2-.78,.3-1.26,.3-.66,0-1.21-.16-1.64-.47-.44-.31-.7-.73-.78-1.27h.82c.09,.3,.28,.55,.57,.74,.29,.19,.63,.28,1.03,.28,.46,0,.83-.14,1.12-.43s.43-.69,.43-1.21v-1.05c-.16,.29-.41,.54-.73,.73s-.7,.29-1.13,.29-.85-.11-1.21-.33c-.36-.22-.65-.53-.85-.92s-.31-.85-.31-1.35,.1-.96,.31-1.35,.49-.69,.85-.9c.36-.21,.77-.32,1.21-.32s.81,.09,1.14,.28Zm.5,1.31c-.15-.28-.36-.49-.62-.64-.26-.15-.54-.22-.85-.22s-.59,.07-.85,.22c-.26,.15-.46,.36-.61,.64s-.23,.61-.23,.99,.08,.72,.23,1,.36,.5,.61,.65c.26,.15,.54,.22,.85,.22s.59-.07,.85-.22c.26-.15,.46-.37,.62-.65s.23-.61,.23-.99-.08-.71-.23-.99Z"/><path class="cls-4" d="M143.08,320.9c-.38-.21-.68-.52-.9-.91s-.32-.85-.32-1.37,.11-.96,.33-1.36c.22-.39,.52-.69,.91-.9,.38-.21,.81-.32,1.29-.32s.9,.11,1.29,.32c.38,.21,.69,.51,.91,.9s.33,.84,.33,1.36-.11,.97-.34,1.37c-.23,.39-.54,.7-.93,.91s-.82,.32-1.3,.32-.89-.11-1.27-.32Zm2.11-.62c.26-.14,.47-.35,.63-.63,.16-.28,.24-.62,.24-1.02s-.08-.74-.24-1.02-.37-.49-.62-.63c-.26-.14-.53-.21-.83-.21s-.58,.07-.84,.21c-.25,.14-.46,.35-.61,.63s-.23,.62-.23,1.02,.07,.75,.22,1.03c.15,.28,.35,.49,.6,.63,.25,.14,.52,.21,.82,.21s.58-.07,.84-.21Z"/><path class="cls-4" d="M150.46,317.27c.21-.39,.49-.69,.85-.9,.36-.21,.77-.32,1.22-.32,.39,0,.75,.09,1.09,.27,.33,.18,.59,.42,.77,.71v-2.65h.84v6.76h-.84v-.94c-.16,.3-.41,.54-.73,.74-.32,.19-.7,.29-1.13,.29s-.85-.11-1.21-.33c-.36-.22-.65-.53-.85-.92s-.31-.85-.31-1.35,.1-.96,.31-1.35Zm3.7,.37c-.15-.28-.36-.49-.62-.64-.26-.15-.54-.22-.85-.22s-.59,.07-.85,.22c-.26,.15-.46,.36-.61,.64s-.23,.61-.23,.99,.08,.72,.23,1,.36,.5,.61,.65c.26,.15,.54,.22,.85,.22s.59-.07,.85-.22c.26-.15,.46-.37,.62-.65s.23-.61,.23-.99-.08-.71-.23-.99Z"/><path class="cls-4" d="M156.63,317.27c.21-.39,.49-.69,.85-.9,.36-.21,.77-.32,1.21-.32s.82,.09,1.14,.28,.56,.43,.72,.71v-.91h.84v5h-.84v-.93c-.16,.29-.41,.53-.74,.73-.33,.19-.7,.29-1.14,.29s-.85-.11-1.21-.33c-.36-.22-.64-.53-.85-.92s-.31-.85-.31-1.35,.1-.96,.31-1.35Zm3.7,.37c-.15-.28-.36-.49-.62-.64-.26-.15-.54-.22-.85-.22s-.59,.07-.85,.22c-.26,.15-.46,.36-.61,.64s-.23,.61-.23,.99,.08,.72,.23,1,.36,.5,.61,.65c.26,.15,.54,.22,.85,.22s.59-.07,.85-.22c.26-.15,.46-.37,.62-.65s.23-.61,.23-.99-.08-.71-.23-.99Z"/><path class="cls-4" d="M54.04,331.33l1.55-4.24h.89l-1.96,5h-.97l-1.96-5h.9l1.56,4.24Z"/><path class="cls-4" d="M57.32,326.11c-.11-.11-.16-.24-.16-.4s.05-.29,.16-.4c.11-.11,.24-.17,.4-.17s.28,.05,.39,.17c.11,.11,.16,.24,.16,.4s-.05,.29-.16,.4c-.11,.11-.24,.16-.39,.16s-.29-.05-.4-.16Zm.8,.98v5h-.83v-5h.83Z"/><path class="cls-4" d="M59.54,328.23c.21-.39,.49-.69,.85-.9,.36-.21,.77-.32,1.22-.32,.39,0,.75,.09,1.09,.27,.33,.18,.59,.42,.77,.71v-2.65h.84v6.76h-.84v-.94c-.16,.3-.41,.54-.73,.74-.32,.19-.7,.29-1.13,.29s-.85-.11-1.21-.33c-.36-.22-.65-.53-.85-.92s-.31-.85-.31-1.35,.1-.96,.31-1.35Zm3.7,.37c-.15-.28-.36-.49-.62-.64-.26-.15-.54-.22-.85-.22s-.59,.07-.85,.22c-.26,.15-.46,.36-.61,.64s-.23,.61-.23,.99,.08,.72,.23,1,.36,.5,.61,.65c.26,.15,.54,.22,.85,.22s.59-.07,.85-.22c.26-.15,.46-.37,.62-.65s.23-.61,.23-.99-.08-.71-.23-.99Z"/><path class="cls-4" d="M65.72,328.23c.21-.39,.49-.69,.85-.9,.36-.21,.77-.32,1.21-.32s.82,.09,1.14,.28,.56,.43,.72,.71v-.91h.84v5h-.84v-.93c-.16,.29-.41,.53-.74,.73-.33,.19-.7,.29-1.14,.29s-.85-.11-1.21-.33c-.36-.22-.64-.53-.85-.92s-.31-.85-.31-1.35,.1-.96,.31-1.35Zm3.7,.37c-.15-.28-.36-.49-.62-.64-.26-.15-.54-.22-.85-.22s-.59,.07-.85,.22c-.26,.15-.46,.36-.61,.64s-.23,.61-.23,.99,.08,.72,.23,1,.36,.5,.61,.65c.26,.15,.54,.22,.85,.22s.59-.07,.85-.22c.26-.15,.46-.37,.62-.65s.23-.61,.23-.99-.08-.71-.23-.99Z"/><path class="cls-4" d="M71.75,331.99c-.11-.11-.16-.24-.16-.4s.05-.29,.16-.4c.11-.11,.24-.17,.4-.17s.28,.06,.39,.17,.16,.24,.16,.4-.05,.29-.16,.4-.24,.16-.39,.16-.29-.05-.4-.16Z"/></g><g class="cls-6"><rect class="cls-1" x="234.78" y="292.1" width="136.99" height="42.24" rx="21.12" ry="21.12"/></g><g><path class="cls-4" d="M249.3,301.99v.68h-1.74v5.69h-.83v-5.69h-1.74v-.68h4.31Z"/><path class="cls-4" d="M251.23,308.11c-.38-.21-.68-.52-.9-.91s-.32-.85-.32-1.37,.11-.96,.33-1.36c.22-.39,.53-.69,.91-.9s.81-.32,1.29-.32,.9,.11,1.29,.32,.69,.51,.91,.9c.22,.39,.33,.84,.33,1.36s-.11,.97-.34,1.37-.54,.7-.93,.91-.82,.32-1.3,.32-.89-.11-1.27-.32Zm2.11-.62c.26-.14,.47-.35,.63-.63,.16-.28,.24-.62,.24-1.02s-.08-.74-.24-1.02-.37-.49-.62-.63c-.26-.14-.53-.21-.83-.21s-.58,.07-.83,.21c-.25,.14-.46,.35-.61,.63-.15,.28-.23,.62-.23,1.02s.07,.75,.22,1.03,.35,.49,.6,.63c.25,.14,.52,.21,.82,.21s.58-.07,.84-.21Z"/><path class="cls-4" d="M263.23,303.5c.3,.16,.54,.4,.72,.73,.18,.32,.26,.72,.26,1.18v2.95h-.82v-2.83c0-.5-.12-.88-.37-1.15-.25-.26-.58-.4-1-.4s-.78,.14-1.03,.42-.38,.68-.38,1.2v2.76h-.82v-2.83c0-.5-.12-.88-.37-1.15-.25-.26-.58-.4-1-.4s-.78,.14-1.03,.42-.38,.68-.38,1.2v2.76h-.83v-5h.83v.72c.16-.26,.38-.46,.66-.6,.28-.14,.58-.21,.92-.21,.42,0,.79,.09,1.11,.28,.32,.19,.56,.47,.72,.83,.14-.35,.37-.63,.69-.82,.32-.19,.68-.29,1.08-.29s.74,.08,1.04,.24Z"/><path class="cls-4" d="M265.57,304.48c.21-.39,.49-.69,.85-.9,.36-.21,.77-.32,1.21-.32s.82,.09,1.14,.28c.32,.19,.56,.43,.72,.71v-.91h.84v5h-.84v-.93c-.16,.29-.41,.53-.73,.73-.33,.19-.71,.29-1.14,.29s-.85-.11-1.21-.33c-.36-.22-.64-.53-.85-.92s-.31-.85-.31-1.35,.1-.96,.31-1.35Zm3.7,.37c-.15-.28-.36-.49-.62-.64s-.54-.22-.85-.22-.59,.07-.85,.22c-.26,.15-.46,.36-.61,.64-.15,.28-.23,.61-.23,.99s.08,.72,.23,1c.15,.28,.36,.5,.61,.65s.54,.22,.85,.22,.59-.07,.85-.22,.46-.37,.62-.65c.15-.28,.23-.61,.23-.99s-.08-.71-.23-.99Z"/><path class="cls-4" d="M273.2,303.49c.27-.16,.6-.24,.99-.24v.86h-.22c-.93,0-1.4,.5-1.4,1.52v2.72h-.83v-5h.83v.81c.15-.29,.35-.51,.63-.67Z"/><path class="cls-4" d="M277.59,304.48c.21-.39,.49-.69,.85-.9,.36-.21,.77-.32,1.21-.32s.82,.09,1.14,.28c.32,.19,.56,.43,.72,.71v-.91h.84v5h-.84v-.93c-.16,.29-.41,.53-.73,.73-.33,.19-.71,.29-1.14,.29s-.85-.11-1.21-.33c-.36-.22-.64-.53-.85-.92s-.31-.85-.31-1.35,.1-.96,.31-1.35Zm3.7,.37c-.15-.28-.36-.49-.62-.64s-.54-.22-.85-.22-.59,.07-.85,.22c-.26,.15-.46,.36-.61,.64-.15,.28-.23,.61-.23,.99s.08,.72,.23,1c.15,.28,.36,.5,.61,.65s.54,.22,.85,.22,.59-.07,.85-.22,.46-.37,.62-.65c.15-.28,.23-.61,.23-.99s-.08-.71-.23-.99Z"/><path class="cls-4" d="M286.23,302.37c-.11-.11-.16-.24-.16-.4s.05-.29,.16-.4c.11-.11,.24-.17,.4-.17s.28,.05,.39,.17c.11,.11,.16,.24,.16,.4s-.05,.29-.16,.4c-.11,.11-.24,.16-.39,.16-.16,0-.29-.05-.4-.16Zm.8,.98v5h-.83v-5h.83Z"/><path class="cls-4" d="M292.37,303.81c.38,.37,.57,.9,.57,1.59v2.95h-.82v-2.83c0-.5-.12-.88-.37-1.15-.25-.26-.59-.4-1.02-.4s-.79,.14-1.04,.41c-.26,.27-.39,.67-.39,1.2v2.77h-.83v-5h.83v.71c.16-.26,.39-.45,.67-.59,.28-.14,.6-.21,.94-.21,.61,0,1.1,.18,1.48,.55Z"/><path class="cls-4" d="M294.32,302.37c-.11-.11-.16-.24-.16-.4s.05-.29,.16-.4c.11-.11,.24-.17,.4-.17s.28,.05,.39,.17c.11,.11,.16,.24,.16,.4s-.05,.29-.16,.4c-.11,.11-.24,.16-.39,.16-.16,0-.29-.05-.4-.16Zm.8,.98v5h-.83v-5h.83Z"/><path class="cls-4" d="M296.54,304.48c.21-.39,.5-.69,.86-.9,.37-.21,.79-.32,1.26-.32,.62,0,1.12,.15,1.52,.45,.4,.3,.66,.71,.79,1.24h-.89c-.09-.3-.25-.54-.5-.72-.25-.18-.55-.26-.92-.26-.47,0-.86,.16-1.15,.49-.29,.33-.44,.79-.44,1.38s.15,1.07,.44,1.4c.29,.33,.68,.49,1.15,.49,.37,0,.67-.08,.91-.26,.24-.17,.41-.41,.5-.73h.89c-.13,.51-.4,.92-.8,1.23-.4,.31-.9,.46-1.51,.46-.47,0-.9-.11-1.26-.32s-.66-.51-.86-.9-.31-.85-.31-1.37,.1-.97,.31-1.36Z"/><path class="cls-4" d="M302.11,302.37c-.11-.11-.16-.24-.16-.4s.05-.29,.16-.4c.11-.11,.24-.17,.4-.17s.28,.05,.39,.17c.11,.11,.16,.24,.16,.4s-.05,.29-.16,.4c-.11,.11-.24,.16-.39,.16-.16,0-.29-.05-.4-.16Zm.8,.98v5h-.83v-5h.83Z"/><path class="cls-4" d="M304.33,304.48c.21-.39,.49-.69,.85-.9,.36-.21,.77-.32,1.21-.32s.82,.09,1.14,.28c.32,.19,.56,.43,.72,.71v-.91h.84v5h-.84v-.93c-.16,.29-.41,.53-.73,.73-.33,.19-.71,.29-1.14,.29s-.85-.11-1.21-.33c-.36-.22-.64-.53-.85-.92s-.31-.85-.31-1.35,.1-.96,.31-1.35Zm3.7,.37c-.15-.28-.36-.49-.62-.64s-.54-.22-.85-.22-.59,.07-.85,.22c-.26,.15-.46,.36-.61,.64-.15,.28-.23,.61-.23,.99s.08,.72,.23,1c.15,.28,.36,.5,.61,.65s.54,.22,.85,.22,.59-.07,.85-.22,.46-.37,.62-.65c.15-.28,.23-.61,.23-.99s-.08-.71-.23-.99Z"/><path class="cls-4" d="M311.52,304.03v2.95c0,.24,.05,.42,.16,.52,.1,.1,.28,.15,.54,.15h.61v.7h-.75c-.46,0-.81-.11-1.04-.32s-.35-.56-.35-1.05v-2.95h-.65v-.69h.65v-1.26h.83v1.26h1.31v.69h-1.31Z"/><path class="cls-4" d="M313.86,302.37c-.11-.11-.16-.24-.16-.4s.05-.29,.16-.4c.11-.11,.24-.17,.4-.17s.28,.05,.39,.17c.11,.11,.16,.24,.16,.4s-.05,.29-.16,.4c-.11,.11-.24,.16-.39,.16-.16,0-.29-.05-.4-.16Zm.8,.98v5h-.83v-5h.83Z"/><path class="cls-4" d="M317.94,307.58l1.55-4.24h.89l-1.96,5h-.97l-1.96-5h.9l1.56,4.24Z"/><path class="cls-4" d="M321.2,304.48c.21-.39,.49-.69,.85-.9,.36-.21,.77-.32,1.21-.32s.82,.09,1.14,.28c.32,.19,.56,.43,.72,.71v-.91h.84v5h-.84v-.93c-.16,.29-.41,.53-.73,.73-.33,.19-.71,.29-1.14,.29s-.85-.11-1.21-.33c-.36-.22-.64-.53-.85-.92s-.31-.85-.31-1.35,.1-.96,.31-1.35Zm3.7,.37c-.15-.28-.36-.49-.62-.64s-.54-.22-.85-.22-.59,.07-.85,.22c-.26,.15-.46,.36-.61,.64-.15,.28-.23,.61-.23,.99s.08,.72,.23,1c.15,.28,.36,.5,.61,.65s.54,.22,.85,.22,.59-.07,.85-.22,.46-.37,.62-.65c.15-.28,.23-.61,.23-.99s-.08-.71-.23-.99Z"/><path class="cls-4" d="M331.85,304.03h-1.05v4.32h-.83v-4.32h-.65v-.69h.65v-.36c0-.56,.14-.97,.43-1.23s.75-.39,1.39-.39v.69c-.37,0-.62,.07-.77,.21-.15,.14-.22,.38-.22,.71v.36h1.05v.69Z"/><path class="cls-4" d="M334.27,303.49c.27-.16,.6-.24,.99-.24v.86h-.22c-.93,0-1.4,.5-1.4,1.52v2.72h-.83v-5h.83v.81c.15-.29,.35-.51,.63-.67Z"/><path class="cls-4" d="M340.76,306.16h-4c.03,.49,.2,.88,.51,1.16,.31,.28,.68,.42,1.12,.42,.36,0,.66-.08,.9-.25,.24-.17,.41-.39,.51-.67h.89c-.13,.48-.4,.87-.8,1.17-.4,.3-.9,.45-1.5,.45-.47,0-.9-.11-1.27-.32-.38-.21-.67-.52-.88-.91-.21-.39-.32-.85-.32-1.37s.1-.97,.31-1.36,.5-.69,.87-.9c.38-.21,.81-.32,1.29-.32s.9,.1,1.26,.31,.65,.49,.84,.85c.2,.36,.3,.77,.3,1.23,0,.16,0,.33-.03,.5Zm-1.04-1.49c-.14-.23-.33-.4-.57-.52-.24-.12-.51-.18-.8-.18-.42,0-.78,.13-1.07,.4-.29,.27-.46,.64-.51,1.11h3.16c0-.32-.07-.59-.21-.82Z"/><path class="cls-4" d="M345.8,303.81c.38,.37,.57,.9,.57,1.59v2.95h-.82v-2.83c0-.5-.12-.88-.37-1.15-.25-.26-.59-.4-1.02-.4s-.79,.14-1.04,.41c-.26,.27-.39,.67-.39,1.2v2.77h-.83v-5h.83v.71c.16-.26,.39-.45,.67-.59,.28-.14,.6-.21,.94-.21,.61,0,1.1,.18,1.48,.55Z"/><path class="cls-4" d="M348.74,304.03v2.95c0,.24,.05,.42,.16,.52,.1,.1,.28,.15,.54,.15h.61v.7h-.75c-.46,0-.81-.11-1.04-.32s-.35-.56-.35-1.05v-2.95h-.65v-.69h.65v-1.26h.83v1.26h1.31v.69h-1.31Z"/><path class="cls-4" d="M355.59,306.16h-4c.03,.49,.2,.88,.51,1.16,.31,.28,.68,.42,1.12,.42,.36,0,.66-.08,.9-.25,.24-.17,.41-.39,.51-.67h.89c-.13,.48-.4,.87-.8,1.17-.4,.3-.9,.45-1.5,.45-.47,0-.9-.11-1.27-.32-.38-.21-.67-.52-.88-.91-.21-.39-.32-.85-.32-1.37s.1-.97,.31-1.36,.5-.69,.87-.9c.38-.21,.81-.32,1.29-.32s.9,.1,1.26,.31,.65,.49,.84,.85c.2,.36,.3,.77,.3,1.23,0,.16,0,.33-.03,.5Zm-1.04-1.49c-.14-.23-.33-.4-.57-.52-.24-.12-.51-.18-.8-.18-.42,0-.78,.13-1.07,.4-.29,.27-.46,.64-.51,1.11h3.16c0-.32-.07-.59-.21-.82Z"/><path class="cls-4" d="M245.38,315.44c.21-.39,.49-.69,.85-.9,.36-.21,.77-.32,1.21-.32s.82,.09,1.14,.28c.32,.19,.56,.43,.72,.71v-.91h.84v5h-.84v-.93c-.16,.29-.41,.53-.73,.73-.33,.19-.71,.29-1.14,.29s-.85-.11-1.21-.33c-.36-.22-.64-.53-.85-.92s-.31-.85-.31-1.35,.1-.96,.31-1.35Zm3.7,.37c-.15-.28-.36-.49-.62-.64s-.54-.22-.85-.22-.59,.07-.85,.22c-.26,.15-.46,.36-.61,.64-.15,.28-.23,.61-.23,.99s.08,.72,.23,1c.15,.28,.36,.5,.61,.65s.54,.22,.85,.22,.59-.07,.85-.22,.46-.37,.62-.65c.15-.28,.23-.61,.23-.99s-.08-.71-.23-.99Zm-.42-2.5v.62l-1.95-1.04v-.72l1.95,1.14Z"/><path class="cls-4" d="M252.3,319.2c-.3-.13-.54-.31-.72-.55s-.27-.5-.29-.81h.86c.02,.25,.14,.45,.35,.61s.49,.24,.83,.24c.32,0,.57-.07,.75-.21s.27-.32,.27-.53-.1-.38-.29-.49c-.19-.11-.5-.21-.9-.31-.37-.1-.67-.2-.91-.3s-.44-.25-.6-.45c-.17-.2-.25-.46-.25-.78,0-.26,.08-.49,.23-.7s.37-.38,.65-.51,.6-.19,.96-.19c.55,0,1,.14,1.34,.42,.34,.28,.52,.66,.55,1.15h-.83c-.02-.26-.12-.47-.32-.63-.19-.16-.45-.24-.77-.24-.3,0-.54,.06-.71,.19-.18,.13-.27,.29-.27,.5,0,.16,.05,.3,.16,.41s.24,.19,.4,.26c.16,.06,.38,.14,.67,.21,.36,.1,.65,.19,.88,.29,.22,.09,.42,.24,.58,.42,.16,.19,.25,.44,.25,.74,0,.27-.08,.52-.23,.74-.15,.22-.37,.39-.64,.52-.28,.12-.6,.19-.96,.19-.38,0-.73-.07-1.03-.2Z"/><path class="cls-4" d="M259.5,319.2c-.3-.13-.54-.31-.72-.55s-.27-.5-.29-.81h.86c.02,.25,.14,.45,.35,.61s.49,.24,.83,.24c.32,0,.57-.07,.75-.21s.27-.32,.27-.53-.1-.38-.29-.49c-.19-.11-.5-.21-.9-.31-.37-.1-.67-.2-.91-.3s-.44-.25-.6-.45c-.17-.2-.25-.46-.25-.78,0-.26,.08-.49,.23-.7s.37-.38,.65-.51,.6-.19,.96-.19c.55,0,1,.14,1.34,.42,.34,.28,.52,.66,.55,1.15h-.83c-.02-.26-.12-.47-.32-.63-.19-.16-.45-.24-.77-.24-.3,0-.54,.06-.71,.19-.18,.13-.27,.29-.27,.5,0,.16,.05,.3,.16,.41s.24,.19,.4,.26c.16,.06,.38,.14,.67,.21,.36,.1,.65,.19,.88,.29,.22,.09,.42,.24,.58,.42,.16,.19,.25,.44,.25,.74,0,.27-.08,.52-.23,.74-.15,.22-.37,.39-.64,.52-.28,.12-.6,.19-.96,.19-.38,0-.73-.07-1.03-.2Z"/><path class="cls-4" d="M263.56,313.33c-.11-.11-.16-.24-.16-.4s.05-.29,.16-.4c.11-.11,.24-.17,.4-.17s.28,.05,.39,.17c.11,.11,.16,.24,.16,.4s-.05,.29-.16,.4c-.11,.11-.24,.16-.39,.16-.16,0-.29-.05-.4-.16Zm.8,.98v5h-.83v-5h.83Z"/><path class="cls-4" d="M266.79,314.99v2.95c0,.24,.05,.42,.16,.52,.1,.1,.28,.15,.54,.15h.61v.7h-.75c-.46,0-.81-.11-1.04-.32s-.35-.56-.35-1.05v-2.95h-.65v-.69h.65v-1.26h.83v1.26h1.31v.69h-1.31Z"/><path class="cls-4" d="M273.54,314.31v5h-.83v-.74c-.16,.25-.38,.46-.66,.6s-.59,.21-.94,.21c-.39,0-.74-.08-1.05-.24s-.56-.4-.74-.73c-.18-.32-.27-.72-.27-1.18v-2.93h.82v2.82c0,.49,.12,.87,.37,1.14,.25,.26,.59,.4,1.02,.4s.79-.14,1.05-.41c.26-.27,.38-.67,.38-1.2v-2.75h.83Z"/><path class="cls-4" d="M274.94,315.44c.21-.39,.49-.69,.85-.9,.36-.21,.77-.32,1.21-.32s.82,.09,1.14,.28c.32,.19,.56,.43,.72,.71v-.91h.84v5h-.84v-.93c-.16,.29-.41,.53-.73,.73-.33,.19-.71,.29-1.14,.29s-.85-.11-1.21-.33c-.36-.22-.64-.53-.85-.92s-.31-.85-.31-1.35,.1-.96,.31-1.35Zm3.7,.37c-.15-.28-.36-.49-.62-.64s-.54-.22-.85-.22-.59,.07-.85,.22c-.26,.15-.46,.36-.61,.64-.15,.28-.23,.61-.23,.99s.08,.72,.23,1c.15,.28,.36,.5,.61,.65s.54,.22,.85,.22,.59-.07,.85-.22,.46-.37,.62-.65c.15-.28,.23-.61,.23-.99s-.08-.71-.23-.99Z"/><path class="cls-4" d="M284.16,318.43c.24-.17,.41-.41,.5-.73h.89c-.12,.47-.36,.86-.72,1.16-.36,.3-.8,.47-1.34,.52v.46c.36,0,.65,.07,.86,.23s.32,.38,.32,.68-.1,.51-.31,.69c-.21,.17-.47,.25-.8,.25h-1.05v-.54h.89c.2,0,.35-.03,.44-.09,.09-.06,.14-.16,.14-.31s-.05-.24-.14-.3c-.09-.06-.24-.09-.44-.09h-.46v-.98c-.42-.04-.79-.17-1.11-.4-.32-.22-.57-.52-.75-.9-.18-.37-.27-.8-.27-1.28,0-.52,.1-.97,.31-1.36s.5-.69,.86-.9c.37-.21,.79-.32,1.26-.32,.62,0,1.12,.15,1.52,.45,.4,.3,.66,.71,.79,1.24h-.89c-.09-.3-.25-.54-.5-.72-.25-.18-.55-.26-.92-.26-.47,0-.86,.16-1.15,.49-.29,.33-.44,.79-.44,1.38s.15,1.07,.44,1.4c.29,.33,.68,.49,1.15,.49,.37,0,.67-.08,.91-.26Z"/><path class="cls-4" d="M287.57,319.07c-.38-.21-.68-.52-.9-.91s-.32-.85-.32-1.37,.11-.96,.33-1.36c.22-.39,.53-.69,.91-.9s.81-.32,1.29-.32,.9,.11,1.29,.32,.69,.51,.91,.9c.22,.39,.33,.84,.33,1.36s-.11,.97-.34,1.37-.54,.7-.93,.91-.82,.32-1.3,.32-.89-.11-1.27-.32Zm2.11-.62c.26-.14,.47-.35,.63-.63,.16-.28,.24-.62,.24-1.02s-.08-.74-.24-1.02-.37-.49-.62-.63c-.26-.14-.53-.21-.83-.21s-.58,.07-.83,.21c-.25,.14-.46,.35-.61,.63-.15,.28-.23,.62-.23,1.02s.07,.75,.22,1.03,.35,.49,.6,.63c.25,.14,.52,.21,.82,.21s.58-.07,.84-.21Zm-1.83-5.46c.16-.17,.36-.25,.61-.25,.12,0,.21,.02,.3,.06s.18,.1,.3,.17c.08,.06,.16,.11,.23,.14s.14,.05,.22,.05c.1,0,.19-.03,.27-.1,.07-.07,.12-.16,.14-.29h.47c-.04,.3-.14,.54-.3,.7s-.37,.25-.61,.25c-.12,0-.22-.02-.31-.06-.09-.04-.19-.1-.3-.18-.1-.06-.17-.11-.23-.14-.06-.03-.13-.04-.21-.04-.1,0-.19,.03-.26,.1-.07,.07-.11,.17-.13,.3h-.48c.04-.31,.14-.55,.31-.71Z"/><path class="cls-4" d="M297.04,317.12h-4c.03,.49,.2,.88,.51,1.16,.31,.28,.68,.42,1.12,.42,.36,0,.66-.08,.9-.25,.24-.17,.41-.39,.51-.67h.89c-.13,.48-.4,.87-.8,1.17-.4,.3-.9,.45-1.5,.45-.47,0-.9-.11-1.27-.32-.38-.21-.67-.52-.88-.91-.21-.39-.32-.85-.32-1.37s.1-.97,.31-1.36,.5-.69,.87-.9c.38-.21,.81-.32,1.29-.32s.9,.1,1.26,.31,.65,.49,.84,.85c.2,.36,.3,.77,.3,1.23,0,.16,0,.33-.03,.5Zm-1.04-1.49c-.14-.23-.33-.4-.57-.52-.24-.12-.51-.18-.8-.18-.42,0-.78,.13-1.07,.4-.29,.27-.46,.64-.51,1.11h3.16c0-.32-.07-.59-.21-.82Z"/><path class="cls-4" d="M298.91,319.2c-.3-.13-.54-.31-.72-.55s-.27-.5-.29-.81h.86c.02,.25,.14,.45,.35,.61s.49,.24,.83,.24c.32,0,.57-.07,.75-.21s.27-.32,.27-.53-.1-.38-.29-.49c-.19-.11-.5-.21-.9-.31-.37-.1-.67-.2-.91-.3s-.44-.25-.6-.45c-.17-.2-.25-.46-.25-.78,0-.26,.08-.49,.23-.7s.37-.38,.65-.51,.6-.19,.96-.19c.55,0,1,.14,1.34,.42,.34,.28,.52,.66,.55,1.15h-.83c-.02-.26-.12-.47-.32-.63-.19-.16-.45-.24-.77-.24-.3,0-.54,.06-.71,.19-.18,.13-.27,.29-.27,.5,0,.16,.05,.3,.16,.41s.24,.19,.4,.26c.16,.06,.38,.14,.67,.21,.36,.1,.65,.19,.88,.29,.22,.09,.42,.24,.58,.42,.16,.19,.25,.44,.25,.74,0,.27-.08,.52-.23,.74-.15,.22-.37,.39-.64,.52-.28,.12-.6,.19-.96,.19-.38,0-.73-.07-1.03-.2Z"/><path class="cls-4" d="M305.37,315.44c.21-.39,.49-.69,.85-.9,.36-.21,.77-.32,1.22-.32,.39,0,.75,.09,1.09,.27s.59,.42,.77,.71v-2.65h.84v6.76h-.84v-.94c-.16,.3-.41,.54-.73,.74-.32,.19-.7,.29-1.13,.29s-.85-.11-1.21-.33c-.36-.22-.65-.53-.85-.92s-.31-.85-.31-1.35,.1-.96,.31-1.35Zm3.7,.37c-.15-.28-.36-.49-.62-.64s-.54-.22-.85-.22-.59,.07-.85,.22c-.26,.15-.46,.36-.61,.64-.15,.28-.23,.61-.23,.99s.08,.72,.23,1c.15,.28,.36,.5,.61,.65s.54,.22,.85,.22,.59-.07,.85-.22,.46-.37,.62-.65c.15-.28,.23-.61,.23-.99s-.08-.71-.23-.99Z"/><path class="cls-4" d="M316.08,317.12h-4c.03,.49,.2,.88,.51,1.16,.31,.28,.68,.42,1.12,.42,.36,0,.66-.08,.9-.25,.24-.17,.41-.39,.51-.67h.89c-.13,.48-.4,.87-.8,1.17-.4,.3-.9,.45-1.5,.45-.47,0-.9-.11-1.27-.32-.38-.21-.67-.52-.88-.91-.21-.39-.32-.85-.32-1.37s.1-.97,.31-1.36,.5-.69,.87-.9c.38-.21,.81-.32,1.29-.32s.9,.1,1.26,.31,.65,.49,.84,.85c.2,.36,.3,.77,.3,1.23,0,.16,0,.33-.03,.5Zm-1.04-1.49c-.14-.23-.33-.4-.57-.52-.24-.12-.51-.18-.8-.18-.42,0-.78,.13-1.07,.4-.29,.27-.46,.64-.51,1.11h3.16c0-.32-.07-.59-.21-.82Z"/><path class="cls-4" d="M320.66,314.99v2.95c0,.24,.05,.42,.16,.52,.1,.1,.28,.15,.54,.15h.61v.7h-.75c-.46,0-.81-.11-1.04-.32s-.35-.56-.35-1.05v-2.95h-.65v-.69h.65v-1.26h.83v1.26h1.31v.69h-1.31Z"/><path class="cls-4" d="M324.43,314.45c.27-.16,.6-.24,.99-.24v.86h-.22c-.93,0-1.4,.5-1.4,1.52v2.72h-.83v-5h.83v.81c.15-.29,.35-.51,.63-.67Z"/><path class="cls-4" d="M326.38,315.44c.21-.39,.49-.69,.85-.9,.36-.21,.77-.32,1.21-.32s.82,.09,1.14,.28c.32,.19,.56,.43,.72,.71v-.91h.84v5h-.84v-.93c-.16,.29-.41,.53-.73,.73-.33,.19-.71,.29-1.14,.29s-.85-.11-1.21-.33c-.36-.22-.64-.53-.85-.92s-.31-.85-.31-1.35,.1-.96,.31-1.35Zm3.7,.37c-.15-.28-.36-.49-.62-.64s-.54-.22-.85-.22-.59,.07-.85,.22c-.26,.15-.46,.36-.61,.64-.15,.28-.23,.61-.23,.99s.08,.72,.23,1c.15,.28,.36,.5,.61,.65s.54,.22,.85,.22,.59-.07,.85-.22,.46-.37,.62-.65c.15-.28,.23-.61,.23-.99s-.08-.71-.23-.99Z"/><path class="cls-4" d="M334.13,314.51c.33-.19,.7-.28,1.12-.28,.45,0,.86,.11,1.21,.32,.36,.21,.64,.51,.85,.9s.31,.83,.31,1.35-.1,.96-.31,1.35-.49,.7-.85,.92c-.36,.22-.77,.33-1.21,.33s-.81-.09-1.14-.28c-.33-.19-.57-.43-.74-.72v.92h-.83v-6.76h.83v2.68c.17-.3,.42-.54,.75-.73Zm2.42,1.3c-.15-.28-.36-.49-.62-.64-.26-.15-.54-.22-.85-.22s-.59,.07-.85,.22-.46,.37-.62,.65-.23,.61-.23,.98,.08,.71,.23,.99,.36,.5,.62,.65,.54,.22,.85,.22,.59-.07,.85-.22,.46-.37,.62-.65,.23-.62,.23-1-.08-.71-.23-.99Z"/><path class="cls-4" d="M338.72,315.44c.21-.39,.49-.69,.85-.9,.36-.21,.77-.32,1.21-.32s.82,.09,1.14,.28c.32,.19,.56,.43,.72,.71v-.91h.84v5h-.84v-.93c-.16,.29-.41,.53-.73,.73-.33,.19-.71,.29-1.14,.29s-.85-.11-1.21-.33c-.36-.22-.64-.53-.85-.92s-.31-.85-.31-1.35,.1-.96,.31-1.35Zm3.7,.37c-.15-.28-.36-.49-.62-.64s-.54-.22-.85-.22-.59,.07-.85,.22c-.26,.15-.46,.36-.61,.64-.15,.28-.23,.61-.23,.99s.08,.72,.23,1c.15,.28,.36,.5,.61,.65s.54,.22,.85,.22,.59-.07,.85-.22,.46-.37,.62-.65c.15-.28,.23-.61,.23-.99s-.08-.71-.23-.99Z"/><path class="cls-4" d="M345.73,312.55v6.76h-.83v-6.76h.83Z"/><path class="cls-4" d="M350.65,314.46c.3,.16,.54,.4,.72,.73,.17,.32,.26,.72,.26,1.18v2.95h-.82v-2.83c0-.5-.12-.88-.37-1.15-.25-.26-.59-.4-1.02-.4s-.79,.14-1.04,.41c-.26,.27-.39,.67-.39,1.2v2.77h-.83v-6.76h.83v2.47c.16-.26,.39-.45,.68-.59,.29-.14,.61-.21,.97-.21,.38,0,.72,.08,1.02,.24Z"/><path class="cls-4" d="M353.9,319.07c-.38-.21-.68-.52-.9-.91s-.32-.85-.32-1.37,.11-.96,.33-1.36c.22-.39,.53-.69,.91-.9s.81-.32,1.29-.32,.9,.11,1.29,.32,.69,.51,.91,.9c.22,.39,.33,.84,.33,1.36s-.11,.97-.34,1.37-.54,.7-.93,.91-.82,.32-1.3,.32-.89-.11-1.27-.32Zm2.11-.62c.26-.14,.47-.35,.63-.63,.16-.28,.24-.62,.24-1.02s-.08-.74-.24-1.02-.37-.49-.62-.63c-.26-.14-.53-.21-.83-.21s-.58,.07-.83,.21c-.25,.14-.46,.35-.61,.63-.15,.28-.23,.62-.23,1.02s.07,.75,.22,1.03,.35,.49,.6,.63c.25,.14,.52,.21,.82,.21s.58-.07,.84-.21Z"/><path class="cls-4" d="M358.7,319.2c-.11-.11-.17-.24-.17-.4s.06-.29,.17-.4,.24-.17,.4-.17,.28,.06,.39,.17,.16,.24,.16,.4-.05,.29-.16,.4-.24,.16-.39,.16-.29-.05-.4-.16Z"/></g></svg>