<?xml version="1.0" encoding="UTF-8"?><svg id="Camada_1" xmlns="http://www.w3.org/2000/svg" viewBox="0 0 99.26 92.7"><defs><style>.cls-1{fill:#006837;}.cls-2{fill:#009245;}.cls-3{fill:#0071bc;}.cls-4{fill:#f7931e;}.cls-5{fill:#f5f5f5;}.cls-6{fill:#fff;}.cls-7{fill:#ff735d;}.cls-8{fill:#b8695e;}.cls-9{fill:#a67c52;}.cls-10{fill:#c9c9c9;}.cls-11{fill:#375a64;}.cls-12{fill:#1a2e35;}.cls-13{fill:#5ae4a7;}.cls-14{opacity:.2;}</style></defs><g><path class="cls-13" d="M90.75,16.13c-2.39-3.16-5.37-5.9-8.99-8.05-5.81-3.44-12.36-5.53-19-6.68-20.98-3.63-32.48,.2-41.16,6.46-5.75,4.14-7.55,12.96-9.25,19.37-.95,3.6-1.8,7.23-2.99,10.76-1.84,5.48-6.02,9.92-7.41,15.56-1.48,5.96-1.36,12.24,.68,18.07,4.04,11.5,10.9,18.16,26.63,20.38,8.43,1.19,15.21-2.29,22.2-6.49,4.31-2.59,8.78-4.91,13.73-5.97,5.23-1.11,10.6-1.27,15.85-2.3,11.73-2.31,15.49-13.41,17.01-23.92,1.84-12.73,.69-26.64-7.31-37.2Z"/><path class="cls-5" d="M90.75,16.13c-2.39-3.16-5.37-5.9-8.99-8.05-5.81-3.44-12.36-5.53-19-6.68-20.98-3.63-32.48,.2-41.16,6.46-5.75,4.14-7.55,12.96-9.25,19.37-.95,3.6-1.8,7.23-2.99,10.76-1.84,5.48-6.02,9.92-7.41,15.56-1.48,5.96-1.36,12.24,.68,18.07,4.04,11.5,10.9,18.16,26.63,20.38,8.43,1.19,15.21-2.29,22.2-6.49,4.31-2.59,8.78-4.91,13.73-5.97,5.23-1.11,10.6-1.27,15.85-2.3,11.73-2.31,15.49-13.41,17.01-23.92,1.84-12.73,.69-26.64-7.31-37.2Z"/></g><g class="cls-14"><path d="M98.3,10.08H56.67s-.07-.02-.09-.05-.02-.07,0-.1l1.43-3.42s.05-.06,.1-.06h40.21c.06,0,.11,.05,.11,.11v3.42c0,.06-.05,.11-.11,.11Zm-41.48-.21h41.37v-3.21H58.16l-1.34,3.21Z"/><path d="M98.3,13.5H56.67s-.07-.02-.09-.05-.02-.07,0-.1l1.43-3.42s.05-.06,.1-.06h40.21c.06,0,.11,.05,.11,.11v3.42c0,.06-.05,.11-.11,.11Zm-41.48-.21h41.37v-3.21H58.16l-1.34,3.21Z"/><path d="M98.3,16.92H56.67s-.07-.02-.09-.05-.02-.07,0-.1l1.43-3.42s.05-.06,.1-.06h40.21c.06,0,.11,.05,.11,.11v3.42c0,.06-.05,.11-.11,.11Zm-41.48-.21h41.37v-3.21H58.16l-1.34,3.21Z"/><path d="M98.3,20.35H56.67s-.07-.02-.09-.05-.02-.07,0-.1l1.43-3.42s.05-.06,.1-.06h40.21c.06,0,.11,.05,.11,.11v3.42c0,.06-.05,.11-.11,.11Zm-41.48-.21h41.37v-3.21H58.16l-1.34,3.21Z"/><path d="M98.3,23.77H56.67s-.07-.02-.09-.05-.02-.07,0-.1l1.43-3.42s.05-.06,.1-.06h40.21c.06,0,.11,.05,.11,.11v3.42c0,.06-.05,.11-.11,.11Zm-41.48-.21h41.37v-3.21H58.16l-1.34,3.21Z"/><path d="M98.3,27.19H56.67s-.07-.02-.09-.05-.02-.07,0-.1l1.43-3.42s.05-.06,.1-.06h40.21c.06,0,.11,.05,.11,.11v3.42c0,.06-.05,.11-.11,.11Zm-41.48-.21h41.37v-3.21H58.16l-1.34,3.21Z"/><path d="M98.3,30.61H56.67s-.07-.02-.09-.05-.02-.07,0-.1l1.43-3.42s.05-.06,.1-.06h40.21c.06,0,.11,.05,.11,.11v3.42c0,.06-.05,.11-.11,.11Zm-41.48-.21h41.37v-3.21H58.16l-1.34,3.21Z"/><path d="M98.3,34.03H56.67s-.07-.02-.09-.05-.02-.07,0-.1l1.43-3.42s.05-.06,.1-.06h40.21c.06,0,.11,.05,.11,.11v3.42c0,.06-.05,.11-.11,.11Zm-41.48-.21h41.37v-3.21H58.16l-1.34,3.21Z"/><path d="M98.3,37.46H56.67s-.07-.02-.09-.05-.02-.07,0-.1l1.43-3.42s.05-.06,.1-.06h40.21c.06,0,.11,.05,.11,.11v3.42c0,.06-.05,.11-.11,.11Zm-41.48-.21h41.37v-3.21H58.16l-1.34,3.21Z"/><path d="M98.3,40.88H56.67s-.07-.02-.09-.05-.02-.07,0-.1l1.43-3.42s.05-.06,.1-.06h40.21c.06,0,.11,.05,.11,.11v3.42c0,.06-.05,.11-.11,.11Zm-41.48-.21h41.37v-3.21H58.16l-1.34,3.21Z"/><path d="M98.3,44.3H56.67s-.07-.02-.09-.05-.02-.07,0-.1l1.43-3.42s.05-.06,.1-.06h40.21c.06,0,.11,.05,.11,.11v3.42c0,.06-.05,.11-.11,.11Zm-41.48-.21h41.37v-3.21H58.16l-1.34,3.21Z"/><path d="M98.3,47.72H56.67s-.07-.02-.09-.05-.02-.07,0-.1l1.43-3.42s.05-.06,.1-.06h40.21c.06,0,.11,.05,.11,.11v3.42c0,.06-.05,.11-.11,.11Zm-41.48-.21h41.37v-3.21H58.16l-1.34,3.21Z"/><path d="M98.3,51.14H56.67s-.07-.02-.09-.05-.02-.07,0-.1l1.43-3.42s.05-.06,.1-.06h40.21c.06,0,.11,.05,.11,.11v3.42c0,.06-.05,.11-.11,.11Zm-41.48-.21h41.37v-3.21H58.16l-1.34,3.21Z"/><path d="M98.3,54.57H56.67s-.07-.02-.09-.05-.02-.07,0-.1l1.43-3.42s.05-.06,.1-.06h40.21c.06,0,.11,.05,.11,.11v3.42c0,.06-.05,.11-.11,.11Zm-41.48-.21h41.37v-3.21H58.16l-1.34,3.21Z"/><path d="M98.3,57.99H56.67s-.07-.02-.09-.05-.02-.07,0-.1l1.43-3.42s.05-.06,.1-.06h40.21c.06,0,.11,.05,.11,.11v3.42c0,.06-.05,.11-.11,.11Zm-41.48-.21h41.37v-3.21H58.16l-1.34,3.21Z"/><path d="M98.3,61.41H56.67s-.07-.02-.09-.05-.02-.07,0-.1l1.43-3.42s.05-.06,.1-.06h40.21c.06,0,.11,.05,.11,.11v3.42c0,.06-.05,.11-.11,.11Zm-41.48-.21h41.37v-3.21H58.16l-1.34,3.21Z"/><path d="M99.16,62.55H56.24c-.06,0-.11-.05-.11-.11V5.41c0-.06,.05-.11,.11-.11h42.92c.06,0,.11,.05,.11,.11V62.44c0,.06-.05,.11-.11,.11Zm-42.81-.21h42.71V5.52H56.34V62.34Z"/></g><g class="cls-14"><g><path d="M19.93,90.73H5.51c-.06,0-.11-.05-.11-.11v-7.61c0-.06,.05-.11,.11-.11h14.42c.06,0,.11,.05,.11,.11v7.61c0,.06-.05,.11-.11,.11Zm-14.32-.21h14.21v-7.4H5.61v7.4Z"/><path d="M13.89,87.17h-2.34c-.06,0-.11-.05-.11-.11v-1.13c0-.06,.05-.11,.11-.11h2.34c.06,0,.11,.05,.11,.11v1.13c0,.06-.05,.11-.11,.11Zm-2.24-.21h2.13v-.92h-2.13v.92Z"/></g><g><path d="M20.67,92.7H4.77c-.06,0-.11-.05-.11-.11v-19.47c0-.06,.05-.11,.11-.11h15.9c.06,0,.11,.05,.11,.11v19.47c0,.06-.05,.11-.11,.11Zm-15.79-.21h15.69v-19.26H4.87v19.26Z"/><g><path d="M19.93,81.82H5.51c-.06,0-.11-.05-.11-.11v-7.61c0-.06,.05-.11,.11-.11h14.42c.06,0,.11,.05,.11,.11v7.61c0,.06-.05,.11-.11,.11Zm-14.32-.21h14.21v-7.4H5.61v7.4Z"/><path d="M13.89,78.26h-2.34c-.06,0-.11-.05-.11-.11v-1.13c0-.06,.05-.11,.11-.11h2.34c.06,0,.11,.05,.11,.11v1.13c0,.06-.05,.11-.11,.11Zm-2.24-.21h2.13v-.92h-2.13v.92Z"/></g><g><path d="M14.3,73.23h-5.67c-.06,0-.11-.05-.11-.11v-1.23c0-.06,.05-.11,.11-.11h5.67c.06,0,.11,.05,.11,.11v1.23c0,.06-.05,.11-.11,.11Zm-5.56-.21h5.46v-1.02h-5.46v1.02Z"/><path d="M11.71,72h-.99c-.06,0-.11-.05-.11-.11v-3.82c0-.06,.05-.11,.11-.11h.99c.06,0,.11,.05,.11,.11v3.82c0,.06-.05,.11-.11,.11Zm-.88-.21h.78v-3.61h-.78v3.61Z"/><path d="M16.39,68.18H5.79c-.06,0-.11-.05-.11-.11v-8.87c0-.06,.05-.11,.11-.11h10.6c.06,0,.11,.05,.11,.11v8.87c0,.06-.05,.11-.11,.11Zm-10.49-.21h10.39v-8.66H5.9v8.66Z"/></g></g></g><g class="cls-14"><path d="M56.01,83.54h-.21v-18.77c0-.06,.05-.11,.11-.11h21.38c1.35,0,2.44,1.1,2.44,2.44v16.27h-.21v-16.27c0-1.23-1-2.23-2.23-2.23h-21.27v18.67Z"/><path d="M32.07,83.38h-.21v-16.27c0-1.35,1.1-2.44,2.44-2.44h21.78v.21h-21.78c-1.23,0-2.23,1-2.23,2.23v16.27Z"/><path d="M81.73,90.51h-25.82c-.06,0-.11-.05-.11-.11v-7.03c0-.06,.05-.11,.11-.11h24.26c.92,0,1.66,.74,1.66,1.66v5.47c0,.06-.05,.11-.11,.11Zm-25.71-.21h25.61v-5.37c0-.8-.65-1.45-1.45-1.45h-24.16v6.82Z"/><path d="M56.11,90.51H29.85c-.06,0-.11-.05-.11-.11v-5.47c0-.92,.74-1.66,1.66-1.66h24.7v.21H31.41c-.8,0-1.45,.65-1.45,1.45v5.37h26.15v.21Z"/><path d="M81.88,92.7h-.21v-2.19H29.96v2.19h-.21v-2.3c0-.06,.05-.11,.11-.11h51.92c.06,0,.11,.05,.11,.11v2.3Z"/><path d="M24.67,92.59h-.21v-17.47c0-.92,.75-1.67,1.67-1.67h4.7c.45,0,.89,.19,1.21,.52l-.15,.15c-.28-.29-.65-.45-1.06-.45h-4.7c-.81,0-1.46,.66-1.46,1.46v17.47Z"/><path d="M86.58,92.48h-.21v-17.35c0-.81-.66-1.46-1.46-1.46h-4.7c-.19,0-.37,.04-.55,.11l-.08-.2c.2-.08,.41-.12,.63-.12h4.7c.92,0,1.67,.75,1.67,1.67v17.35Z"/></g><g><g><g><path class="cls-3" d="M90.06,5.07V55.87c0,1.28-1.04,2.32-2.32,2.32H14.39c-1.28,0-2.32-1.04-2.32-2.32V5.07c0-1.16,.94-2.11,2.11-2.11H87.96c1.16,0,2.11,.94,2.11,2.11Z"/><path class="cls-12" d="M87.75,58.29H14.39c-1.34,0-2.42-1.09-2.42-2.42V5.07c0-1.22,.99-2.21,2.21-2.21H87.96c1.22,0,2.21,.99,2.21,2.21V55.87c0,1.34-1.09,2.42-2.42,2.42ZM14.18,3.06c-1.1,0-2,.9-2,2V55.87c0,1.22,.99,2.21,2.21,2.21H87.75c1.22,0,2.21-.99,2.21-2.21V5.07c0-1.1-.9-2-2-2H14.18Z"/></g><g><g><path class="cls-10" d="M90.06,5.07v4.38H12.08V5.07c0-1.16,.94-2.11,2.11-2.11H87.96c1.16,0,2.11,.94,2.11,2.11Z"/><path class="cls-12" d="M90.17,9.56H11.97V5.07c0-1.22,.99-2.21,2.21-2.21H87.96c1.22,0,2.21,.99,2.21,2.21v4.49Zm-77.99-.21H89.96V5.07c0-1.1-.9-2-2-2H14.18c-1.1,0-2,.9-2,2v4.28Z"/></g><g><path class="cls-6" d="M62.34,8.6H20.74c-.39,0-.71-.32-.71-.71h0c0-.39,.32-.71,.71-.71H62.34c.39,0,.71,.32,.71,.71h0c0,.39-.32,.71-.71,.71Z"/><path class="cls-12" d="M62.34,8.71H20.74c-.45,0-.81-.36-.81-.81s.36-.81,.81-.81H62.34c.45,0,.81,.36,.81,.81s-.36,.81-.81,.81Zm-41.6-1.42c-.33,0-.6,.27-.6,.6s.27,.6,.6,.6H62.34c.33,0,.6-.27,.6-.6s-.27-.6-.6-.6H20.74Z"/></g><rect class="cls-12" x="86.11" y="7.22" width="2.69" height=".21"/><rect class="cls-12" x="86.11" y="7.79" width="2.69" height=".21"/><rect class="cls-12" x="86.11" y="8.35" width="2.69" height=".21"/></g><g><path class="cls-12" d="M90.06,5.07v1.26H12.08v-1.26c0-1.16,.94-2.11,2.11-2.11H87.96c1.16,0,2.11,.94,2.11,2.11Z"/><path class="cls-12" d="M90.17,6.44H11.97v-1.37c0-1.22,.99-2.21,2.21-2.21H87.96c1.22,0,2.21,.99,2.21,2.21v1.37Zm-77.99-.21H89.96v-1.16c0-1.1-.9-2-2-2H14.18c-1.1,0-2,.9-2,2v1.16Z"/></g><g><path class="cls-6" d="M82.29,4.72c0-.36-.29-.64-.64-.64s-.64,.29-.64,.64,.29,.64,.64,.64,.64-.29,.64-.64Z"/><path class="cls-12" d="M81.65,5.46c-.41,0-.75-.34-.75-.75s.34-.75,.75-.75,.75,.34,.75,.75-.34,.75-.75,.75Zm0-1.29c-.3,0-.54,.24-.54,.54s.24,.54,.54,.54,.54-.24,.54-.54-.24-.54-.54-.54Z"/></g><g><path class="cls-6" d="M84.96,4.72c0-.36-.29-.64-.64-.64s-.64,.29-.64,.64,.29,.64,.64,.64,.64-.29,.64-.64Z"/><path class="cls-12" d="M84.32,5.46c-.41,0-.75-.34-.75-.75s.34-.75,.75-.75,.75,.34,.75,.75-.34,.75-.75,.75Zm0-1.29c-.3,0-.54,.24-.54,.54s.24,.54,.54,.54,.54-.24,.54-.54-.24-.54-.54-.54Z"/></g><g><path class="cls-6" d="M87.62,4.72c0-.36-.29-.64-.64-.64s-.64,.29-.64,.64,.29,.64,.64,.64,.64-.29,.64-.64Z"/><path class="cls-12" d="M86.98,5.46c-.41,0-.75-.34-.75-.75s.34-.75,.75-.75,.75,.34,.75,.75-.34,.75-.75,.75Zm0-1.29c-.3,0-.54,.24-.54,.54s.24,.54,.54,.54,.54-.24,.54-.54-.24-.54-.54-.54Z"/></g></g><g><g><rect class="cls-6" x="16.49" y="11.62" width="69.37" height="43.41"/><path class="cls-12" d="M85.97,55.13H16.39V11.51H85.97V55.13Zm-69.37-.21H85.75V11.72H16.6V54.92Z"/></g><path class="cls-3" d="M84.62,53.75H17.73V12.89H84.62V53.75Zm-65.83-1.05H83.56V13.94H18.79V52.7Z"/><path class="cls-3" d="M82.51,51.34H19.84V15.3h62.68V51.34Zm-62.47-.21h62.26V15.51H20.05V51.13Z"/><rect class="cls-12" x="35.85" y="24.87" width="31.38" height=".21"/><g><rect class="cls-12" x="78.18" y="28.88" width="2.17" height=".21"/><rect class="cls-12" x="59.61" y="28.88" width="17.43" height=".21"/><rect class="cls-12" x="49.52" y="28.88" width="9.1" height=".21"/><rect class="cls-12" x="35.99" y="28.88" width="12.61" height=".21"/><rect class="cls-12" x="27.81" y="28.88" width="6.88" height=".21"/><rect class="cls-12" x="22.72" y="28.88" width="4.09" height=".21"/><rect class="cls-12" x="48.83" y="30.8" width="31.53" height=".21"/><rect class="cls-12" x="24.37" y="30.8" width="23.47" height=".21"/><rect class="cls-12" x="22.72" y="30.8" width=".73" height=".21"/><rect class="cls-12" x="77.96" y="32.72" width="2.4" height=".21"/><rect class="cls-12" x="65.04" y="32.72" width="11.77" height=".21"/><rect class="cls-12" x="47.22" y="32.72" width="16.89" height=".21"/><rect class="cls-12" x="44.62" y="32.72" width="1.61" height=".21"/><rect class="cls-12" x="22.72" y="32.72" width="20.53" height=".21"/><rect class="cls-12" x="70.77" y="34.64" width="9.59" height=".21"/><rect class="cls-12" x="36.52" y="34.64" width="33.33" height=".21"/><rect class="cls-12" x="33.46" y="34.64" width="1.83" height=".21"/><rect class="cls-12" x="22.72" y="34.64" width="9.75" height=".21"/><rect class="cls-12" x="74.36" y="36.56" width="5.99" height=".21"/><rect class="cls-12" x="48.75" y="36.56" width="24.39" height=".21"/><rect class="cls-12" x="38.97" y="36.56" width="8.64" height=".21"/><rect class="cls-12" x="25.28" y="36.56" width="12.54" height=".21"/><rect class="cls-12" x="22.72" y="36.56" width="1.8" height=".21"/></g><g><g><polygon class="cls-12" points="25.05 45.13 27.03 50.26 27.99 47.94 30.31 48.89 28.04 44.06 25.05 45.13"/><path class="cls-12" d="M27.03,50.37h0s-.08-.03-.1-.07l-1.98-5.13s0-.06,0-.08c.01-.03,.03-.05,.06-.06l2.99-1.06c.05-.02,.11,0,.13,.05l2.27,4.82s.01,.09-.02,.12c-.03,.03-.08,.04-.12,.03l-2.23-.91-.92,2.22s-.05,.07-.1,.07Zm-1.84-5.18l1.84,4.79,.86-2.08c.02-.05,.08-.08,.14-.06l2.07,.84-2.12-4.49-2.8,.99Z"/></g><g><polygon class="cls-12" points="24.35 44.01 21.95 48.96 24.3 48.08 25.2 50.42 27.17 45.46 24.35 44.01"/><path class="cls-12" d="M25.2,50.52s-.08-.03-.1-.07l-.86-2.24-2.25,.85s-.09,0-.12-.03c-.03-.03-.04-.08-.02-.12l2.39-4.96s.03-.05,.06-.05c.03,0,.06,0,.08,0l2.82,1.45s.07,.08,.05,.13l-1.97,4.96s-.05,.07-.1,.07Zm-.9-2.55s.08,.03,.1,.07l.8,2.09,1.83-4.62-2.64-1.36-2.23,4.62,2.1-.8s.02,0,.04,0Z"/></g><g><path class="cls-4" d="M30.3,42.76c0-.19,.41-.4,.38-.58-.03-.18-.48-.28-.53-.45-.05-.18,.28-.5,.2-.67-.08-.17-.54-.13-.63-.28-.1-.16,.13-.56,0-.7-.12-.14-.55,.03-.69-.09-.14-.12-.04-.57-.19-.67-.15-.1-.52,.18-.69,.1-.17-.08-.19-.54-.37-.59-.18-.05-.45,.32-.63,.29-.18-.03-.34-.46-.52-.46s-.34,.43-.52,.46c-.18,.03-.45-.35-.63-.29-.18,.05-.2,.51-.37,.59-.17,.08-.53-.2-.69-.1-.16,.1-.05,.55-.19,.67-.14,.12-.57-.05-.69,.09-.12,.14,.1,.54,0,.7-.1,.15-.56,.12-.63,.28-.08,.17,.25,.49,.2,.67-.05,.18-.5,.27-.53,.45-.03,.18,.38,.39,.38,.58s-.41,.4-.38,.58c.03,.18,.48,.28,.53,.45,.05,.18-.28,.5-.2,.67,.08,.17,.54,.13,.63,.28,.1,.16-.13,.56,0,.7,.12,.14,.55-.03,.69,.09,.14,.12,.04,.57,.19,.67,.15,.1,.52-.18,.69-.1,.17,.08,.19,.54,.37,.59,.18,.05,.45-.32,.63-.29,.18,.03,.34,.46,.52,.46s.34-.43,.52-.46c.18-.03,.45,.35,.63,.29,.18-.05,.2-.51,.37-.59,.17-.08,.53,.2,.69,.1,.16-.1,.05-.55,.19-.67,.14-.12,.57,.05,.69-.09,.12-.14-.1-.54,0-.7,.1-.15,.56-.12,.63-.28,.08-.17-.25-.49-.2-.67,.05-.18,.5-.27,.53-.45,.03-.18-.38-.39-.38-.58Z"/><path class="cls-12" d="M26.63,46.96c-.15,0-.26-.14-.36-.27-.05-.07-.14-.18-.18-.19-.05,0-.16,.08-.23,.13-.13,.1-.27,.2-.41,.16-.14-.04-.2-.2-.26-.36-.03-.08-.08-.21-.12-.23-.04-.02-.17,.03-.26,.06-.16,.06-.32,.12-.44,.04-.12-.08-.14-.25-.15-.42,0-.09-.02-.23-.05-.26-.03-.03-.17-.02-.26-.02-.17,.01-.34,.02-.44-.09-.1-.11-.06-.28-.03-.44,.02-.09,.05-.22,.02-.26-.02-.04-.16-.07-.25-.09-.16-.04-.33-.07-.4-.21-.06-.13,.02-.29,.1-.43,.04-.08,.11-.2,.1-.25-.01-.04-.13-.11-.21-.15-.15-.08-.3-.17-.32-.31-.02-.14,.1-.27,.22-.38,.06-.07,.16-.16,.16-.21s-.1-.15-.16-.21c-.12-.12-.24-.24-.22-.38,.02-.15,.17-.23,.32-.31,.08-.04,.2-.11,.21-.15,.01-.05-.05-.17-.1-.25-.08-.15-.16-.3-.1-.43,.06-.13,.23-.17,.4-.21,.09-.02,.22-.05,.25-.09,.03-.04,0-.17-.02-.26-.03-.16-.07-.33,.03-.44,.1-.11,.27-.1,.44-.09,.09,0,.23,.01,.26-.02,.03-.03,.05-.17,.05-.26,.01-.17,.03-.34,.15-.42,.12-.08,.29-.02,.44,.04,.09,.03,.21,.08,.26,.06,.04-.02,.09-.15,.12-.23,.06-.16,.12-.32,.26-.36,.14-.04,.28,.06,.41,.16,.07,.05,.18,.14,.23,.13,.04,0,.13-.11,.18-.19,.1-.13,.21-.27,.36-.27s.26,.14,.36,.27c.05,.07,.14,.18,.18,.19,.05,0,.16-.08,.23-.13,.13-.1,.27-.2,.41-.16,.14,.04,.2,.2,.26,.36,.03,.08,.08,.21,.12,.23,.04,.02,.17-.03,.26-.06,.16-.06,.32-.12,.44-.04,.12,.08,.14,.25,.15,.42,0,.09,.02,.23,.05,.26,.03,.03,.17,.02,.26,.02,.17-.01,.34-.02,.44,.09,.1,.11,.06,.28,.03,.44-.02,.09-.05,.22-.02,.26,.02,.04,.16,.07,.25,.09,.16,.04,.33,.07,.4,.21,.06,.13-.02,.29-.1,.43-.04,.08-.11,.2-.1,.25,.01,.04,.13,.11,.21,.15,.15,.08,.3,.17,.32,.31,.02,.14-.1,.27-.22,.38-.06,.07-.16,.16-.16,.21s.1,.15,.16,.21c.12,.12,.24,.24,.22,.38-.02,.15-.17,.23-.32,.31-.08,.04-.2,.11-.21,.15-.01,.05,.05,.17,.1,.25,.08,.15,.16,.3,.1,.43-.06,.13-.23,.17-.4,.21-.09,.02-.22,.05-.25,.09-.03,.04,0,.17,.02,.26,.03,.16,.07,.33-.03,.44s-.27,.1-.44,.09c-.09,0-.23-.01-.26,.02-.03,.03-.05,.17-.05,.26-.01,.17-.03,.34-.15,.42-.12,.08-.29,.02-.44-.04-.09-.03-.21-.08-.26-.06-.04,.02-.09,.15-.12,.23-.06,.16-.12,.32-.26,.36-.14,.04-.28-.06-.41-.16-.07-.05-.19-.14-.23-.13-.04,0-.13,.11-.18,.19-.1,.13-.21,.27-.36,.27Zm-.54-.67s.02,0,.03,0c.13,.02,.23,.14,.32,.27,.05,.07,.14,.19,.19,.19s.14-.12,.19-.19c.09-.12,.19-.25,.32-.27,.13-.02,.26,.08,.39,.17,.07,.05,.19,.14,.23,.13,.04-.01,.1-.15,.13-.23,.05-.14,.11-.29,.23-.35,.12-.06,.27,0,.42,.05,.08,.03,.22,.08,.26,.06,.04-.02,.05-.17,.05-.26,.01-.15,.02-.31,.12-.4,.1-.09,.26-.08,.41-.07,.09,0,.24,.02,.26-.02,.03-.03,0-.18-.02-.26-.03-.15-.06-.31,0-.42,.07-.11,.23-.15,.38-.18,.09-.02,.23-.05,.25-.09,.02-.04-.05-.17-.09-.25-.07-.14-.15-.28-.11-.41,.04-.13,.18-.2,.31-.28,.08-.04,.21-.12,.21-.16,0-.04-.1-.15-.16-.21-.11-.11-.22-.23-.22-.36s.11-.25,.22-.36c.06-.06,.16-.17,.16-.21,0-.04-.14-.12-.21-.16-.13-.07-.27-.15-.31-.28-.04-.13,.04-.27,.11-.41,.04-.08,.11-.21,.09-.25-.02-.04-.16-.07-.25-.09-.15-.03-.31-.07-.38-.18-.07-.11-.04-.27,0-.42,.02-.09,.05-.23,.02-.26-.03-.03-.18-.02-.26-.02-.15,0-.31,.02-.41-.07-.1-.09-.11-.25-.12-.4,0-.09-.02-.24-.05-.26-.04-.02-.17,.03-.26,.06-.15,.05-.3,.11-.42,.05-.12-.05-.18-.2-.23-.35-.03-.08-.08-.22-.13-.23-.04-.01-.16,.08-.23,.13-.13,.09-.26,.19-.39,.17-.13-.02-.23-.14-.32-.27-.05-.07-.14-.19-.19-.19s-.14,.12-.19,.19c-.09,.12-.19,.25-.32,.27-.14,.02-.26-.08-.39-.17-.07-.05-.19-.14-.23-.13-.04,.01-.1,.15-.13,.23-.05,.14-.11,.29-.23,.35-.12,.06-.27,0-.42-.05-.08-.03-.22-.08-.26-.06-.04,.02-.05,.17-.05,.26-.01,.15-.02,.31-.12,.4-.1,.09-.26,.08-.41,.07-.09,0-.24-.02-.26,.02-.03,.03,0,.18,.02,.26,.03,.15,.06,.31,0,.42-.07,.11-.23,.15-.38,.18-.09,.02-.23,.05-.25,.09-.02,.04,.05,.17,.09,.25,.07,.14,.15,.28,.11,.41-.04,.13-.18,.2-.31,.28-.08,.04-.21,.12-.22,.16,0,.04,.1,.15,.16,.21,.11,.11,.22,.23,.22,.36s-.11,.25-.22,.36c-.06,.06-.16,.17-.16,.21,0,.04,.14,.12,.21,.16,.13,.07,.27,.15,.31,.28,.04,.13-.04,.27-.11,.41-.04,.08-.11,.21-.09,.25,.02,.04,.16,.07,.25,.09,.15,.03,.31,.07,.38,.18,.07,.11,.04,.27,0,.42-.02,.09-.05,.23-.02,.26,.03,.03,.18,.02,.26,.02,.15,0,.31-.02,.41,.07,.1,.09,.11,.25,.12,.4,0,.09,.02,.24,.05,.26,.04,.02,.17-.03,.26-.06,.15-.05,.3-.11,.42-.05,.12,.05,.18,.2,.23,.35,.03,.08,.08,.22,.13,.23,.04,.01,.16-.08,.23-.13,.11-.08,.23-.17,.35-.17Z"/></g><g><circle class="cls-12" cx="26.63" cy="42.76" r="2.54"/><path class="cls-12" d="M26.63,45.41c-1.46,0-2.65-1.19-2.65-2.65s1.19-2.65,2.65-2.65,2.65,1.19,2.65,2.65-1.19,2.65-2.65,2.65Zm0-5.09c-1.34,0-2.44,1.09-2.44,2.44s1.09,2.44,2.44,2.44,2.44-1.09,2.44-2.44-1.09-2.44-2.44-2.44Z"/></g><polygon class="cls-4" points="26.63 41.01 27.03 42.22 28.29 42.22 27.27 42.97 27.66 44.17 26.63 43.43 25.61 44.17 26 42.97 24.97 42.22 26.24 42.22 26.63 41.01"/></g><rect class="cls-12" x="33.29" y="41.44" width="9.7" height=".21"/><rect class="cls-12" x="33.29" y="43.75" width="9.7" height=".21"/><path class="cls-7" d="M74.94,47.15c-2.05,0-3.71-1.66-3.71-3.71s1.66-3.71,3.71-3.71,3.71,1.66,3.71,3.71-1.66,3.71-3.71,3.71Zm0-7.21c-1.93,0-3.5,1.57-3.5,3.5s1.57,3.5,3.5,3.5,3.5-1.57,3.5-3.5-1.57-3.5-3.5-3.5Z"/><circle class="cls-7" cx="74.94" cy="43.44" r="2.45" transform="translate(-7.56 17.04) rotate(-12.35)"/><g><path class="cls-12" d="M36.6,20.23c.13-.22,.3-.38,.52-.51,.22-.12,.46-.18,.71-.18,.3,0,.56,.07,.79,.22,.23,.15,.4,.35,.5,.62h-.55c-.07-.15-.17-.26-.3-.33-.13-.07-.28-.11-.44-.11-.18,0-.35,.04-.49,.12-.14,.08-.26,.2-.34,.36-.08,.15-.12,.33-.12,.54s.04,.39,.12,.54c.08,.15,.19,.27,.34,.36,.14,.08,.31,.13,.49,.13,.17,0,.32-.04,.44-.11s.23-.18,.3-.33h.55c-.1,.27-.27,.47-.5,.62-.23,.14-.49,.22-.79,.22-.26,0-.5-.06-.72-.18-.22-.12-.39-.29-.51-.51s-.19-.46-.19-.73,.06-.52,.19-.73Z"/><path class="cls-12" d="M40.11,19.94v.82h.96v.37h-.96v.85h1.08v.37h-1.54v-2.78h1.54v.37h-1.08Z"/><path class="cls-12" d="M43.2,22.35l-.64-1.11h-.35v1.11h-.46v-2.78h.96c.21,0,.39,.04,.54,.11,.15,.07,.26,.17,.33,.3,.07,.13,.11,.27,.11,.42,0,.18-.05,.35-.16,.49s-.27,.25-.49,.3l.69,1.15h-.54Zm-.99-1.48h.5c.17,0,.3-.04,.39-.13,.09-.09,.13-.2,.13-.34s-.04-.26-.13-.34c-.09-.08-.21-.12-.39-.12h-.5v.93Z"/><path class="cls-12" d="M46.08,19.57v.37h-.74v2.41h-.46v-2.41h-.74v-.37h1.94Z"/><path class="cls-12" d="M46.99,19.57v2.78h-.46v-2.78h.46Z"/><path class="cls-12" d="M49.23,19.57v.37h-1.18v.82h.92v.37h-.92v1.22h-.46v-2.78h1.64Z"/><path class="cls-12" d="M50.11,19.57v2.78h-.46v-2.78h.46Z"/><path class="cls-12" d="M50.75,20.23c.13-.22,.3-.38,.52-.51,.22-.12,.46-.18,.71-.18,.3,0,.56,.07,.79,.22,.23,.15,.4,.35,.5,.62h-.55c-.07-.15-.17-.26-.3-.33-.13-.07-.28-.11-.44-.11-.18,0-.35,.04-.49,.12-.14,.08-.26,.2-.34,.36-.08,.15-.12,.33-.12,.54s.04,.39,.12,.54c.08,.15,.19,.27,.34,.36,.14,.08,.31,.13,.49,.13,.17,0,.32-.04,.44-.11s.23-.18,.3-.33h.55c-.1,.27-.27,.47-.5,.62-.23,.14-.49,.22-.79,.22-.26,0-.5-.06-.72-.18-.22-.12-.39-.29-.51-.51s-.19-.46-.19-.73,.06-.52,.19-.73Z"/><path class="cls-12" d="M55.47,21.79h-1.16l-.2,.57h-.48l1-2.78h.53l1,2.78h-.48l-.2-.57Zm-.13-.37l-.45-1.29-.46,1.29h.91Z"/><path class="cls-12" d="M58.3,21.87c.13-.07,.23-.18,.3-.33h.55c-.1,.25-.25,.44-.45,.58-.2,.14-.44,.22-.7,.25v.17c.15,0,.28,.04,.38,.11,.1,.07,.14,.18,.14,.31s-.05,.24-.14,.32c-.1,.08-.22,.12-.36,.12h-.53v-.29h.44c.07,0,.13-.01,.17-.03s.06-.06,.06-.12-.02-.09-.06-.12c-.04-.02-.09-.03-.17-.03h-.22v-.45c-.24-.02-.45-.1-.64-.22-.19-.13-.34-.29-.45-.5-.11-.21-.17-.44-.17-.69,0-.27,.06-.52,.19-.73,.13-.22,.3-.38,.52-.51,.22-.12,.46-.18,.71-.18,.3,0,.56,.07,.79,.22,.23,.15,.4,.35,.5,.62h-.55c-.07-.15-.17-.26-.3-.33-.13-.07-.28-.11-.44-.11-.18,0-.35,.04-.49,.12-.14,.08-.26,.2-.34,.36-.08,.15-.12,.33-.12,.54s.04,.39,.12,.54c.08,.15,.19,.27,.34,.36,.14,.08,.31,.13,.49,.13,.17,0,.32-.04,.44-.11Z"/><path class="cls-12" d="M61.35,21.79h-1.16l-.2,.57h-.48l1-2.78h.53l1,2.78h-.48l-.2-.57Zm-1.08-2.79c.08-.08,.18-.12,.3-.12,.05,0,.09,0,.13,.02s.08,.04,.14,.07c.04,.03,.07,.05,.1,.06,.03,.01,.06,.02,.09,.02,.04,0,.08-.01,.11-.04,.03-.03,.05-.07,.06-.13h.26c-.02,.15-.07,.27-.15,.35-.08,.08-.18,.12-.3,.12-.05,0-.1,0-.14-.03-.04-.02-.08-.04-.13-.07-.05-.03-.08-.05-.11-.06s-.05-.02-.09-.02c-.04,0-.08,.01-.11,.04-.03,.03-.05,.07-.06,.13h-.26c.02-.15,.07-.27,.15-.35Zm.95,2.42l-.45-1.29-.46,1.29h.91Z"/><path class="cls-12" d="M63.02,22.2c-.22-.12-.39-.29-.52-.51s-.19-.46-.19-.73,.06-.52,.19-.73c.13-.22,.3-.38,.52-.51,.22-.12,.46-.18,.71-.18s.5,.06,.72,.18c.22,.12,.39,.29,.51,.51,.13,.22,.19,.46,.19,.73s-.06,.52-.19,.73c-.12,.22-.3,.39-.51,.51-.22,.12-.46,.18-.72,.18s-.5-.06-.71-.18Zm1.21-.34c.14-.08,.26-.2,.34-.36,.08-.16,.12-.34,.12-.54s-.04-.39-.12-.54c-.08-.15-.19-.27-.34-.36-.14-.08-.31-.12-.49-.12s-.35,.04-.49,.12c-.14,.08-.26,.2-.34,.36-.08,.15-.12,.33-.12,.54s.04,.39,.12,.54c.08,.16,.19,.28,.34,.36,.14,.08,.31,.13,.49,.13s.35-.04,.49-.13Z"/></g></g></g><g><g><g><path class="cls-1" d="M86.81,83.99s-.74-1.26-1.11-1.95-.69-1.53-.69-1.53c0,0,.9,.53,1.16,.74s1.37,1.53,1.37,1.53l.32-.37-.37-1.21,1.21,1.37,.58-2.48,.9,2.37,1.69-2.11,.11,2.11,2.06-1.63-.74,2.58-.79,1.11h-5.64l-.05-.53Z"/><path class="cls-12" d="M92.55,84.62h-5.79l-.06-.6c-.1-.16-.76-1.3-1.1-1.93-.37-.68-.69-1.53-.69-1.54l-.1-.28,.26,.15s.91,.53,1.17,.75c.23,.18,1.04,1.14,1.3,1.45l.2-.23-.49-1.62,1.4,1.58,.61-2.62,.95,2.52,1.74-2.18,.11,2.18,2.15-1.71-.84,2.93-.82,1.15Zm-5.6-.21h5.49l.75-1.05,.64-2.25-1.96,1.56-.1-2.04-1.63,2.04-.84-2.22-.55,2.34-1.03-1.16,.24,.8-.43,.51-.08-.1c-.38-.45-1.15-1.35-1.36-1.51-.17-.13-.6-.4-.88-.57,.12,.3,.34,.8,.57,1.23,.36,.68,1.1,1.93,1.1,1.95v.04s.06,.43,.06,.43Z"/></g><g><path class="cls-2" d="M86.49,83.99s-.47-.21-1.26-1.16-1.37-1.95-1.37-1.95c0,0,1.79,1,2.42,1.48s1.48,1.53,1.48,1.53c0,0-.53-1.32-.58-1.95s-.11-2-.11-2c0,0,1.53,1.53,1.63,1.95s.69,1.84,.69,1.84c0,0,.32-1.16,.42-1.95s.95-2.06,.95-2.06c0,0,.11,.9,.16,1.79s-.47,2.58-.47,2.58c0,0,.69-1.63,1.37-2.42s1.74-1.63,1.74-1.63c0,0-.53,1.63-.74,2.37s-.79,1.63-.79,1.63c0,0,1.05-1.32,1.58-1.79s1.63-1.11,1.63-1.11c0,0-.58,1.11-1,1.74s-1.26,1.58-1.26,1.58h-6.48v-.47Z"/><path class="cls-12" d="M93.02,84.57h-6.63v-.52c-.16-.09-.6-.38-1.24-1.16-.79-.94-1.37-1.95-1.38-1.96l-.19-.33,.33,.19c.07,.04,1.8,1.01,2.44,1.48,.37,.28,.8,.73,1.1,1.08-.15-.44-.34-1.03-.37-1.41-.05-.63-.11-1.99-.11-2.01v-.27s.18,.19,.18,.19c.16,.16,1.55,1.56,1.66,2,.07,.29,.39,1.1,.56,1.53,.1-.4,.27-1.1,.34-1.63,.11-.81,.93-2.05,.97-2.1l.16-.24,.03,.28s.11,.91,.16,1.8c.02,.42-.07,1-.18,1.5,.25-.48,.57-1.04,.9-1.41,.68-.79,1.74-1.64,1.75-1.65l.27-.22-.11,.33s-.53,1.64-.74,2.37c-.06,.22-.16,.46-.26,.68,.3-.36,.64-.73,.88-.95,.53-.48,1.61-1.09,1.65-1.12l.31-.18-.17,.32s-.59,1.12-1.01,1.75c-.42,.63-1.24,1.55-1.27,1.59l-.03,.04Zm-4.96-.21h4.87c.16-.18,.86-.98,1.22-1.53,.27-.41,.61-1.02,.82-1.4-.37,.22-.95,.6-1.29,.9-.51,.46-1.56,1.77-1.57,1.78l-.17-.12s.57-.89,.78-1.61c.15-.52,.46-1.51,.63-2.03-.36,.3-.99,.86-1.45,1.39-.67,.77-1.35,2.38-1.35,2.4l-.2-.07s.52-1.68,.47-2.54c-.03-.57-.09-1.15-.12-1.49-.25,.4-.7,1.21-.77,1.76-.11,.79-.42,1.95-.42,1.96l-.08,.3-.12-.29c-.02-.06-.58-1.43-.69-1.86-.06-.26-.82-1.1-1.41-1.71,.02,.43,.06,1.27,.09,1.73,.05,.61,.57,1.91,.57,1.92l.21,.51Zm-1.46,0h1.4l-.33-.41s-.84-1.05-1.46-1.51c-.45-.34-1.5-.95-2.06-1.27,.24,.37,.65,.99,1.15,1.59,.76,.91,1.22,1.13,1.23,1.13l.06,.03v.44Z"/></g></g><g><polygon class="cls-6" points="93.91 83.89 93.54 87.1 92.92 92.6 86.31 92.6 85.69 87.1 85.32 83.89 93.91 83.89"/><path class="cls-12" d="M93.01,92.7h-6.79l-1.01-8.92h8.82l-1.01,8.92Zm-6.6-.21h6.42l.97-8.5h-8.35l.97,8.5Z"/></g><g><polygon class="cls-9" points="93.54 87.1 92.92 92.6 86.31 92.6 85.69 87.1 93.54 87.1"/><path class="cls-12" d="M93.01,92.7h-6.79l-.65-5.71h8.09l-.65,5.71Zm-6.6-.21h6.42l.6-5.29h-7.62l.6,5.29Z"/></g><circle class="cls-12" cx="86.91" cy="88.31" r=".32"/><circle class="cls-12" cx="89.23" cy="88.31" r=".32"/><circle class="cls-12" cx="87.81" cy="89.94" r=".32"/><circle class="cls-12" cx="90.6" cy="89.94" r=".32"/><circle class="cls-12" cx="92.44" cy="89.94" r=".32"/><circle class="cls-12" cx="91.55" cy="88.31" r=".32"/><circle class="cls-12" cx="86.91" cy="91.26" r=".32"/><circle class="cls-12" cx="89.23" cy="91.26" r=".32"/><circle class="cls-12" cx="91.55" cy="91.26" r=".32"/></g><g><g><path class="cls-6" d="M54.8,56.98c0,1.61-.86,2.91-1.91,2.9-1.05,0-1.9-1.31-1.9-2.91s.86-2.91,1.91-2.9c1.05,0,1.9,1.31,1.9,2.91Z"/><path class="cls-12" d="M52.89,59.99h0c-.55,0-1.05-.32-1.43-.9-.37-.57-.57-1.32-.57-2.12,0-.8,.21-1.55,.58-2.11,.38-.58,.89-.9,1.43-.9h0c1.11,0,2.01,1.36,2,3.02h0c0,1.66-.91,3.01-2.01,3.01Zm0-5.82c-.47,0-.92,.28-1.26,.8-.35,.53-.54,1.24-.55,2,0,.76,.19,1.47,.54,2,.34,.52,.78,.81,1.26,.81h0c.99,0,1.8-1.25,1.8-2.8,0-1.55-.8-2.81-1.79-2.81h0Zm1.9,2.81h0Z"/></g><g><path class="cls-12" d="M55.29,49.7s-1.03,.59-2-.05c-.98-.64-.29-.93-.1-1.32,.2-.39-.29-.49-.39-1.03s.24-.98,.44-1.03c.2-.05,.15-.59,.15-1.12s.64-1.03,.93-1.03,.49-.39,.68-.88c.2-.49,.59-.93,1.27-.64,.68,.29,1.03,.29,1.37-.2,.34-.49,1.17-.59,1.47-.34,.29,.24,.44,.73,1.03,.24,.59-.49,1.32-.39,1.66-.05,.34,.34,.29,.73,.83,.54s1.42,.1,1.61,.68,1.27,1.22,1.66,1.08c.39-.15,1.08,0,.73,.73-.34,.73,.05,1.22,.34,1.22s.93,.2,.59,.83c-.34,.64-.59,1.12-.2,1.32,.39,.2,1.03,.24,.54,1.08-.49,.83-.88,.78-.73,1.27,.15,.49,.44,.64,0,.98-.44,.34-.98,.49-.98,.78s.59,.44-.1,.68c-.68,.24-1.22,.29-1.22,.29,0,0-.98-2.64-3.76-3.52-2.79-.88-4.4-.78-5.04-.44s-.78-.1-.78-.1Z"/><path class="cls-12" d="M64.87,53.86s-.08-.03-.1-.07c0-.03-.99-2.6-3.7-3.46-2.69-.85-4.32-.79-4.95-.45-.26,.14-.49,.18-.67,.11-.1-.04-.16-.1-.2-.16-.29,.13-1.16,.46-2.02-.1-.35-.23-.52-.43-.56-.64-.04-.23,.12-.42,.25-.58,.07-.08,.13-.16,.17-.24,.07-.15,.02-.22-.11-.39-.11-.14-.24-.3-.29-.57-.11-.6,.27-1.09,.52-1.15,.08-.02,.07-.51,.07-.75,0-.09,0-.18,0-.28,0-.61,.69-1.13,1.03-1.13,.22,0,.39-.33,.59-.81,.15-.37,.37-.62,.63-.73,.23-.1,.49-.08,.78,.04,.68,.29,.95,.26,1.24-.16,.18-.26,.52-.45,.9-.5,.3-.04,.56,.01,.72,.14,.07,.06,.13,.13,.19,.19,.2,.23,.32,.37,.7,.05,.62-.52,1.42-.43,1.8-.04,.11,.11,.19,.23,.25,.33,.13,.21,.18,.29,.47,.18,.32-.12,.75-.08,1.12,.1,.31,.15,.54,.38,.62,.65,.11,.34,.57,.7,.95,.89,.24,.12,.46,.16,.57,.12,.26-.1,.64-.08,.84,.13,.11,.12,.21,.35,.02,.74-.22,.48-.09,.78-.02,.89,.07,.11,.18,.19,.27,.19,.18,0,.56,.07,.72,.34,.07,.12,.13,.33-.04,.64-.21,.38-.44,.82-.37,1.04,.02,.06,.06,.1,.13,.14,.06,.03,.13,.06,.2,.09,.22,.09,.47,.19,.55,.42,.06,.18,0,.42-.17,.72-.21,.36-.4,.56-.54,.7-.19,.2-.25,.26-.18,.49,.04,.13,.09,.23,.13,.32,.12,.25,.22,.47-.17,.77-.16,.13-.34,.23-.49,.31-.24,.14-.45,.26-.45,.38,0,.06,.05,.13,.11,.19,.07,.09,.15,.18,.12,.3-.03,.11-.15,.2-.39,.29-.69,.25-1.23,.3-1.25,.3,0,0,0,0,0,0Zm-7.42-4.42c.81,0,1.99,.16,3.68,.69,2.53,.8,3.61,3.06,3.8,3.51,.17-.02,.6-.09,1.12-.28,.25-.09,.26-.14,.26-.14,0-.02-.05-.08-.08-.11-.07-.08-.16-.19-.16-.33,0-.25,.26-.4,.55-.57,.15-.08,.32-.18,.47-.3,.25-.2,.22-.27,.1-.52-.04-.09-.1-.21-.14-.35-.1-.34,.03-.48,.23-.69,.13-.14,.32-.33,.51-.66,.14-.24,.19-.42,.15-.54-.05-.14-.23-.22-.43-.29-.07-.03-.15-.06-.22-.09-.12-.06-.2-.15-.24-.26-.09-.28,.09-.66,.39-1.2,.1-.18,.11-.33,.05-.44-.1-.17-.39-.24-.54-.24-.16,0-.33-.11-.45-.28-.09-.14-.26-.52,0-1.09,.07-.16,.14-.38,.01-.51-.13-.14-.42-.15-.61-.08-.23,.09-.56-.04-.74-.13-.42-.2-.92-.6-1.06-1.01-.07-.21-.25-.4-.52-.53-.32-.15-.69-.19-.96-.09-.45,.16-.58-.05-.72-.27-.06-.09-.12-.2-.22-.29-.32-.32-.99-.39-1.52,.06-.54,.45-.79,.16-1-.07-.05-.06-.11-.12-.17-.17-.11-.09-.32-.12-.55-.09-.32,.04-.61,.2-.76,.42-.4,.57-.82,.52-1.5,.23-.23-.1-.44-.11-.62-.04-.27,.11-.43,.4-.52,.62-.19,.48-.41,.95-.78,.95-.23,0-.82,.44-.82,.92,0,.09,0,.18,0,.27,0,.52,.01,.89-.23,.95-.13,.03-.45,.4-.36,.91,.04,.21,.15,.35,.25,.48,.13,.17,.27,.34,.13,.62-.05,.1-.12,.19-.2,.28-.12,.14-.23,.27-.21,.41,.02,.14,.18,.31,.46,.5,.91,.59,1.89,.05,1.89,.05,.03-.02,.06-.02,.09,0,.03,.01,.05,.03,.06,.06,0,0,.04,.1,.14,.14,.12,.05,.29,.01,.49-.1,.17-.09,.59-.26,1.43-.26Z"/></g><g><path class="cls-6" d="M56.28,67.62l-3.57,1.65s-1.85,10.26-1.72,13.1c.13,2.85,1.72,9.93,1.72,9.93h8.6s-1.32-8.67-.66-11.78c.66-3.11,2.25-11.65,2.25-11.65,0,0-2.65-.73-3.44-.86-.79-.13-3.18-.4-3.18-.4Z"/><path class="cls-12" d="M61.43,92.4h-8.81l-.02-.08c-.02-.07-1.59-7.12-1.72-9.94-.13-2.82,1.7-13.02,1.72-13.12v-.05s3.66-1.69,3.66-1.69h.03s2.39,.27,3.18,.4c.79,.13,3.34,.83,3.45,.86l.09,.03-.02,.1c-.02,.09-1.6,8.57-2.25,11.65-.65,3.06,.65,11.65,.66,11.74l.02,.12Zm-8.64-.21h8.39c-.16-1.1-1.27-8.76-.64-11.69,.62-2.9,2.05-10.6,2.23-11.55-.48-.13-2.64-.72-3.34-.83-.73-.12-2.87-.36-3.14-.39l-3.5,1.62c-.14,.81-1.83,10.33-1.71,13.02,.12,2.64,1.52,9.02,1.7,9.82Z"/></g><path class="cls-12" d="M52.17,72.41l9.9,.86c-.08,.41-.16,.84-.24,1.27l-9.86-.85c.07-.44,.14-.87,.21-1.27Zm8.48,8.11c.08-.36,.16-.79,.26-1.27l-9.62-.83c-.05,.44-.1,.87-.15,1.28l9.51,.82s0,0,0,0Zm.85-4.26l-9.8-.85c-.06,.42-.13,.85-.18,1.28l9.74,.84c.08-.41,.16-.84,.25-1.27Zm-10.51,5.32c-.01,.3-.01,.57,0,.8,0,.15,.02,.32,.03,.5l9.45,.6c0-.45,0-.88,0-1.29l-9.48-.6Zm1.78-12.33l-.06,.03s-.09,.47-.22,1.24l9.94,.86c.09-.48,.17-.91,.24-1.27l-9.9-.86Zm8.02,18.85l-8.96-.1c.09,.45,.17,.88,.25,1.29l8.85,.1c-.05-.41-.1-.84-.14-1.29Zm-9.33-2.12l9.18,.54c-.04-.43-.07-.86-.09-1.29l-9.3-.55c.06,.42,.13,.86,.21,1.3Z"/><g><g><path class="cls-8" d="M55.75,65.77s-.73,2.78-.79,4.23c-.07,1.46,1.46,2.65,3.64,2.45,2.18-.2,2.58-2.58,2.58-3.18s.13-5.62,.13-5.62c0,0-1.06,.93-2.32,1.72-1.26,.79-3.24,.4-3.24,.4Z"/><path class="cls-12" d="M58.12,72.58c-1.04,0-1.96-.32-2.57-.91-.48-.46-.73-1.05-.7-1.67,.07-1.45,.77-4.14,.8-4.26l.03-.1,.1,.02s1.96,.38,3.17-.38c1.24-.78,2.29-1.7,2.3-1.71l.18-.16v.24c0,.05-.14,5.03-.14,5.62,0,.79-.49,3.08-2.68,3.28-.16,.01-.32,.02-.48,.02Zm-2.3-6.69c-.13,.5-.71,2.84-.77,4.12-.03,.56,.2,1.1,.64,1.51,.66,.63,1.71,.93,2.89,.83,2.38-.22,2.48-3.04,2.48-3.07,0-.52,.1-4.39,.13-5.39-.36,.3-1.2,.98-2.15,1.58-1.13,.72-2.8,.5-3.22,.43Z"/></g><g><path class="cls-12" d="M57.73,68.15c2.07-.99,3.1-2.93,3.56-4.17,0-.21,0-.33,0-.33,0,0-1.06,.93-2.32,1.72-1.26,.79-3.24,.4-3.24,.4,0,0-.45,1.74-.68,3.18,.75-.09,1.65-.32,2.66-.8Z"/><path class="cls-12" d="M54.94,69.07l.02-.14c.22-1.44,.68-3.18,.68-3.19l.03-.1,.1,.02s1.96,.38,3.17-.38c1.24-.78,2.29-1.7,2.3-1.71l.18-.16-.02,.6c-.43,1.14-1.47,3.2-3.62,4.23h0c-.91,.44-1.82,.71-2.7,.81l-.14,.02Zm.88-3.18c-.09,.37-.43,1.74-.63,2.94,.81-.11,1.65-.37,2.49-.77,1.97-.94,2.99-2.74,3.5-4.1v-.07c-.36,.3-1.2,.98-2.15,1.58-1.13,.72-2.8,.5-3.22,.43Z"/></g></g><g><g><path class="cls-8" d="M64.82,55.14s-.08-2.93-1.17-4.61c-1.09-1.68-3.39-2.71-5.95-2.26-3.18,.55-4.61,2.93-5.11,4.95-.5,2.01,.08,4.95,.08,6.96s2.35,5.62,3.02,6.2,1.71,.78,2.89,.18c1.09-.55,2.87-2.43,3.96-3.52s1.74-4.33,1.91-5.08c.17-.75,.38-2.81,.38-2.81Z"/><path class="cls-12" d="M57.16,67.03c-.58,0-1.12-.19-1.55-.57-.64-.56-3.05-4.21-3.05-6.28,0-.67-.07-1.44-.13-2.25-.13-1.58-.29-3.38,.05-4.73,.32-1.3,1.48-4.39,5.2-5.03,2.45-.42,4.89,.51,6.06,2.31,1.09,1.68,1.19,4.55,1.19,4.67,0,0,0,0,0,.01,0,.08-.22,2.07-.39,2.83l-.04,.16c-.21,.97-.85,3.93-1.9,4.97-.14,.14-.28,.28-.44,.44-1.09,1.1-2.59,2.61-3.55,3.1-.49,.25-.99,.37-1.45,.37Zm1.69-18.75c-.38,0-.76,.03-1.14,.1-3.6,.62-4.72,3.61-5.03,4.87-.33,1.32-.18,3.1-.05,4.66,.07,.82,.13,1.59,.13,2.27,0,2.02,2.36,5.58,2.98,6.13,.72,.63,1.73,.69,2.77,.17,.94-.47,2.42-1.97,3.5-3.06,.15-.16,.3-.3,.44-.44,1-1,1.63-3.91,1.84-4.87l.04-.17c.16-.72,.37-2.66,.38-2.8,0-.16-.12-2.96-1.16-4.55-.95-1.45-2.75-2.32-4.71-2.32Z"/></g><path class="cls-12" d="M57.01,61.5c-.51,0-.86-.1-1.05-.31-.16-.17-.13-.34-.13-.36,0-.06,.06-.1,.12-.09,.06,0,.1,.06,.09,.12,0,0,0,.1,.08,.2,.12,.13,.43,.27,1.17,.22,.06,0,.11,.04,.11,.1,0,.06-.04,.11-.1,.11-.1,0-.2,.01-.3,.01Z"/><path class="cls-12" d="M57.31,63.14c-1.06,0-1.87-.54-1.88-.55-.05-.03-.06-.1-.03-.15,.03-.05,.1-.06,.15-.03,.02,.01,1.67,1.12,3.3,.05,.05-.03,.11-.02,.15,.03,.03,.05,.02,.11-.03,.15-.57,.37-1.14,.5-1.66,.5Z"/><path class="cls-12" d="M58.91,58.8s-.08-.01-.11-.03c-.1-.06-.13-.19-.07-.29,.02-.04,.56-.89,1.99-.18,.1,.05,.15,.18,.09,.28-.05,.1-.18,.15-.28,.09-1.06-.53-1.42,0-1.44,.02-.04,.06-.11,.1-.18,.1Z"/><path class="cls-12" d="M55.49,58.15c0,.35-.16,.64-.37,.64s-.37-.28-.37-.64,.16-.64,.37-.64,.37,.28,.37,.64Z"/><path class="cls-12" d="M53.92,56.25s-.03,0-.04,0c-.05-.02-.08-.09-.05-.14,0-.01,.5-1.06,2.04-.55,.06,.02,.09,.08,.07,.13-.02,.06-.08,.09-.13,.07-1.36-.45-1.77,.42-1.78,.43-.02,.04-.06,.06-.1,.06Z"/><path class="cls-12" d="M61.16,56.55s-.04,0-.06-.02c-1.44-1.07-2.72-.41-2.77-.38-.05,.03-.12,0-.14-.04-.03-.05,0-.12,.04-.14,.01,0,1.45-.75,3,.4,.05,.03,.06,.1,.02,.15-.02,.03-.05,.04-.08,.04Z"/><g><path class="cls-12" d="M57.69,48.27c-3.18,.55-4.61,2.93-5.11,4.95-.1,.42-.16,.88-.19,1.36,.17-.51,1.02-2.76,3.44-3.37,2.74-.68,5.13,.2,5.96,1.37,.83,1.17,.64,2.69,.93,3.42,.19,.46,1.12,1.17,1.78,1.62,.15-.9,.32-2.47,.32-2.47,0,0-.08-2.93-1.17-4.61-1.09-1.68-3.39-2.71-5.95-2.26Z"/><path class="cls-12" d="M64.5,57.72s-.04,0-.06-.02c-.72-.49-1.62-1.18-1.81-1.66-.11-.27-.15-.63-.2-1.05-.09-.72-.19-1.62-.72-2.35-.81-1.15-3.14-2-5.85-1.33-2.38,.6-3.22,2.85-3.36,3.3-.02,.05-.07,.08-.12,.07-.05,0-.09-.06-.09-.11,.03-.53,.09-.99,.19-1.38,.32-1.3,1.48-4.39,5.2-5.03h0c2.45-.42,4.89,.51,6.06,2.31,1.09,1.68,1.19,4.55,1.19,4.67,0,.03-.17,1.6-.32,2.5,0,.04-.03,.07-.06,.08-.01,0-.03,0-.04,0Zm-6.74-6.86c1.93,0,3.48,.74,4.13,1.66,.55,.78,.66,1.71,.75,2.45,.05,.4,.09,.75,.19,.99,.13,.32,.69,.84,1.6,1.47,.14-.9,.29-2.29,.29-2.3,0-.02-.1-2.91-1.16-4.54-1.13-1.73-3.48-2.63-5.85-2.22h0c-3.6,.62-4.72,3.61-5.03,4.87-.05,.2-.09,.41-.12,.65,.43-.89,1.39-2.31,3.25-2.78,.68-.17,1.33-.25,1.95-.25Z"/></g></g><g><path class="cls-13" d="M63.99,55.66s.24-2.59-.49-4.3c-.73-1.71-1.61-2.44-1.61-2.44,0,0,2.05,1.08,2.79,2.1,.73,1.03,.83,3.52,.64,5.23l-1.52-.24,.2-.34Z"/><path class="cls-12" d="M65.41,56.37l-1.77-.29,.26-.45c.02-.26,.2-2.65-.48-4.23-.71-1.66-1.58-2.4-1.58-2.4l-.75-.63,.87,.45c.08,.04,2.08,1.1,2.82,2.13,.8,1.12,.83,3.78,.65,5.3v.11Zm-1.45-.45l1.26,.2c.19-1.82,.04-4.11-.63-5.05-.46-.65-1.49-1.33-2.15-1.73,.32,.4,.76,1.04,1.16,1.97,.74,1.72,.51,4.25,.5,4.35v.04s-.13,.21-.13,.21Z"/></g><g><path class="cls-6" d="M65.97,58.2c-.3,1.58-1.37,2.7-2.41,2.51-1.03-.19-1.63-1.63-1.34-3.21s1.37-2.7,2.41-2.51c1.03,.19,1.63,1.63,1.34,3.21Z"/><path class="cls-12" d="M63.79,60.84c-.09,0-.17,0-.26-.02-1.09-.2-1.73-1.7-1.42-3.33,.31-1.63,1.44-2.8,2.53-2.59,.54,.1,.98,.51,1.24,1.15,.26,.62,.32,1.4,.18,2.18h0c-.15,.78-.48,1.48-.95,1.97-.4,.42-.86,.64-1.32,.64Zm.6-5.76c-.91,0-1.8,1.04-2.07,2.45-.28,1.52,.28,2.9,1.25,3.09,.46,.09,.96-.11,1.38-.56,.44-.46,.76-1.12,.9-1.87h0c.14-.74,.08-1.48-.16-2.06-.24-.57-.63-.94-1.09-1.02-.07-.01-.14-.02-.22-.02Z"/></g><g><path class="cls-13" d="M65.78,58.41c-.22,1.2-1.04,2.05-1.82,1.9-.78-.15-1.24-1.24-1.01-2.43,.22-1.2,1.04-2.05,1.82-1.9,.78,.15,1.24,1.24,1.01,2.43Z"/><path class="cls-12" d="M64.13,60.43c-.07,0-.13,0-.2-.02-.84-.16-1.33-1.3-1.1-2.56,.11-.6,.37-1.14,.73-1.51,.37-.39,.8-.56,1.22-.48,.42,.08,.76,.39,.96,.89,.2,.48,.25,1.07,.14,1.67-.11,.6-.37,1.14-.73,1.51-.31,.33-.67,.5-1.02,.5Zm.45-4.37c-.29,0-.6,.15-.87,.43-.33,.34-.57,.84-.67,1.4-.21,1.14,.2,2.18,.93,2.31,.34,.06,.71-.08,1.03-.42,.33-.34,.57-.84,.67-1.4h0c.1-.56,.06-1.11-.12-1.55-.18-.43-.46-.7-.81-.76-.05,0-.11-.01-.16-.01Z"/></g><g><g><path class="cls-11" d="M53.83,85.85c.49,3.5,1.1,6.64,1.1,6.64h-3.61s-.92-4.76-2.05-7.41c-.64-1.5-.79-2.11-.8-2.36-.49,1.17-3.55,8.4-4.1,8.64-.6,.26-2.78-.2-3.57-.46-.79-.26-.86-1.39-.73-1.85,.13-.46,5.69-13.9,6.22-14.76,.53-.86,1.06-2.38,1.13-2.78,.07-.4-.07-1.32,.53-1.65,.36-.2,2.89-.79,4.84-1.22,1.28-.28,2.3-.5,2.3-.5,0,0-1.59,5.89-1.85,10.06-.12,1.85,.2,4.87,.6,7.65t0,0Z"/><path class="cls-12" d="M55.06,92.59h-3.83l-.02-.09s-.94-4.78-2.04-7.39c-.38-.9-.63-1.58-.74-2.02-1.13,2.68-3.49,8.13-4.01,8.36-.64,.29-2.85-.19-3.65-.46-.88-.3-.93-1.52-.79-1.98,.17-.58,5.73-13.97,6.23-14.78,.52-.84,1.05-2.36,1.11-2.74,.01-.08,.02-.2,.02-.33,.02-.47,.05-1.12,.56-1.4,.29-.16,1.93-.58,4.87-1.23,1.28-.28,2.3-.5,2.3-.5l.17-.04-.04,.17c-.02,.06-1.59,5.93-1.85,10.04-.1,1.56,.1,4.12,.59,7.61l.02,.06h-.01c.49,3.45,1.09,6.56,1.09,6.59l.02,.13Zm-3.66-.21h3.4c-.12-.62-.64-3.44-1.08-6.52v-.05s0,0,0,0c-.49-3.49-.69-6.05-.59-7.63,.24-3.74,1.55-8.92,1.81-9.91-.34,.07-1.17,.25-2.14,.46-3.64,.81-4.63,1.11-4.81,1.21-.41,.23-.43,.8-.45,1.23,0,.14-.01,.25-.03,.35-.07,.44-.62,1.97-1.14,2.82-.5,.81-6.04,14.15-6.21,14.73-.11,.39-.08,1.48,.66,1.72,.79,.26,2.94,.72,3.5,.47,.37-.17,2.36-4.57,4.05-8.58l.18-.44,.02,.48c0,.19,.12,.75,.79,2.32,1.03,2.43,1.91,6.69,2.04,7.35Z"/></g><g><path class="cls-11" d="M53.83,85.85c-.46-.75-2.3-3.96-2.55-7.31-.22-3,.98-7.93,1.5-9.9,1.28-.28,2.3-.5,2.3-.5,0,0-1.59,5.89-1.85,10.06-.12,1.85,.2,4.87,.6,7.65Z"/><path class="cls-11" d="M54,86.34l-.27-.44c-.54-.89-2.32-4.04-2.56-7.35-.22-3.02,.98-7.96,1.51-9.94l.02-.06h.06c1.28-.3,2.3-.51,2.3-.51l.17-.04-.04,.17c-.02,.06-1.59,5.93-1.85,10.04-.1,1.56,.1,4.13,.59,7.63l.07,.51Zm-1.14-17.61c-.53,2.01-1.7,6.85-1.48,9.81,.21,2.84,1.56,5.56,2.27,6.8-.44-3.25-.62-5.65-.52-7.15,.24-3.74,1.55-8.92,1.81-9.91-.33,.07-1.13,.24-2.07,.45Z"/></g><path class="cls-12" d="M49.08,75.81l-.21-.05c.16-.71,.28-1.09,.29-1.11l.2,.06s-.12,.39-.28,1.09Z"/><path class="cls-12" d="M48.43,82.59c-.02-.06-.4-1.44-.07-3.95,.08-.61,.17-1.2,.28-1.77l.21,.04c-.1,.56-.2,1.15-.28,1.76-.32,2.46,.06,3.85,.06,3.86l-.2,.06Z"/></g><g><g><path class="cls-11" d="M77.65,83.14c-1.52-.07-9.13-4.81-9.13-4.81,0,0-2.38,4.67-2.45,5.62-.07,.95,1.85,8.53,1.85,8.53h-8.14s-.25-2.66-.3-5.58c-.02-1.35,0-2.75,.1-3.97,.33-3.86,1.65-14.76,1.65-14.76l1.32,.14s.38,.13,.96,.33c1.57,.55,4.64,1.66,5.98,2.45,1.85,1.08,4.43,2.85,5.69,3.66,1.26,.81,4.23,2.64,4.83,5.08,.6,2.44-.86,3.39-2.38,3.32Z"/><path class="cls-11" d="M68.06,92.59h-8.37v-.1s-.26-2.7-.31-5.59c-.03-1.55,0-2.89,.1-3.98,.33-3.82,1.64-14.66,1.65-14.77v-.1s1.46,.15,1.46,.15c0,0,.38,.13,.96,.33,1.67,.58,4.66,1.67,6,2.46,1.35,.79,3.13,1.97,4.42,2.82,.5,.33,.93,.62,1.27,.84l.16,.1c1.34,.86,4.13,2.66,4.72,5.04,.27,1.1,.14,2.01-.36,2.63-.46,.56-1.24,.86-2.13,.82-1.46-.06-8.15-4.19-9.08-4.76-.35,.69-2.33,4.64-2.39,5.48-.06,.92,1.83,8.42,1.85,8.5l.03,.13Zm-8.18-.21h7.91c-.26-1.04-1.89-7.54-1.82-8.43,.07-.96,2.36-5.47,2.46-5.66l.05-.1,.1,.06c.08,.05,7.6,4.73,9.08,4.79,.82,.03,1.54-.24,1.96-.75,.46-.56,.57-1.41,.32-2.44-.56-2.3-3.31-4.06-4.62-4.91l-.16-.1c-.34-.22-.78-.51-1.28-.84-1.29-.86-3.06-2.03-4.41-2.82-1.33-.77-4.31-1.86-5.97-2.44-.53-.18-.89-.3-.95-.33l-1.21-.12c-.14,1.12-1.33,11.04-1.64,14.66-.09,1.08-.13,2.42-.1,3.96,.04,2.57,.24,4.97,.29,5.48Z"/></g><path class="cls-12" d="M59.39,87.46v-.56c-.04-1.55,0-2.89,.09-3.98,.33-3.82,1.64-14.66,1.65-14.77v-.1s1.46,.15,1.46,.15c0,0,.38,.13,.96,.33l.08,.03v.08c-.18,2.66-.71,9.18-1.85,12.32-.77,2.12-1.53,4.19-2.2,5.98l-.19,.52Zm1.94-19.18c-.14,1.12-1.33,11.04-1.64,14.66-.08,.95-.12,2.09-.11,3.39,.62-1.66,1.3-3.53,2-5.45,1.12-3.09,1.65-9.48,1.83-12.18-.49-.17-.81-.28-.88-.3l-1.21-.12Z"/><rect class="cls-12" x="66.89" y="76.26" width=".21" height="3.19" transform="translate(-27.26 118.67) rotate(-72.7)"/><path class="cls-12" d="M65.21,78.14c-.63-.53-1.01-1.47-1.12-2.8l.21-.02c.11,1.25,.48,2.17,1.05,2.66l-.14,.16Z"/><path class="cls-12" d="M64.26,74.4h-.21c0-.67,.06-1.14,.07-1.16l.21,.03s-.06,.48-.07,1.13Z"/><path class="cls-12" d="M65.36,78.7c-.88-.48-1.6-1.81-1.63-1.87l.19-.1s.72,1.33,1.55,1.79l-.1,.18Z"/></g><g><path class="cls-8" d="M68.39,67.07s-.19-.71-.19-1.52,.19-1.28-.11-1.25-.81,.41-.98,1.06,.19,1.25,.24,1.47c.05,.22,.05,.41,.05,.41,0,0-2.36,.08-2.79,.08s-.87,.24-.87,.65,.46,.62,.46,.62l.22,.11s-.27,.52-.08,.79c.19,.27,.38,.41,.38,.41,0,0-.19,.24-.05,.57s.35,.46,.35,.46c0,0-.35,.33,.11,.76,.46,.43,1.47,.46,2.17,.46s1.3,.03,1.3,.03l.3,.03,2.5,3.72,2.36-2.63s-3.47-3.36-3.93-3.96c-.46-.6-1.44-2.25-1.44-2.25Z"/><path class="cls-12" d="M71.39,76.09l-2.54-3.79-.25-.02h0s-.6-.03-1.29-.03c-.89,0-1.79-.06-2.24-.49-.18-.17-.27-.35-.27-.53,0-.12,.04-.22,.09-.29-.08-.08-.21-.22-.3-.44-.11-.26-.04-.47,.01-.59-.08-.07-.2-.19-.33-.37-.17-.25-.05-.62,.03-.8l-.12-.06s-.52-.25-.52-.72,.5-.76,.97-.76c.37,0,2.22-.06,2.68-.08,0-.07-.02-.17-.05-.28-.01-.04-.04-.1-.06-.18-.12-.3-.32-.8-.18-1.34,.17-.69,.73-1.11,1.07-1.14,.08,0,.15,.01,.2,.06,.11,.11,.09,.29,.06,.61-.02,.19-.04,.42-.04,.68,0,.73,.16,1.38,.18,1.48,.09,.15,.99,1.67,1.42,2.23,.45,.58,3.89,3.92,3.92,3.95l.07,.07-2.52,2.81Zm-3.27-11.68s0,0-.01,0c-.27,.02-.74,.39-.88,.98-.12,.48,.06,.94,.17,1.21,.03,.08,.06,.15,.07,.2,.06,.23,.06,.42,.06,.43v.1h-.1c-.1,0-2.37,.08-2.8,.08-.38,0-.76,.2-.76,.55s.4,.53,.4,.53l.32,.16-.05,.1c-.07,.13-.21,.5-.09,.68,.18,.25,.35,.38,.36,.38l.09,.06-.07,.09s-.15,.2-.04,.46c.12,.29,.31,.41,.31,.41l.12,.07-.1,.09s-.1,.09-.09,.23c0,.12,.07,.25,.2,.37,.46,.43,1.57,.43,2.1,.43,.7,0,1.3,.03,1.31,.03l.35,.03,2.45,3.65,2.2-2.46c-.52-.5-3.44-3.35-3.87-3.9-.46-.6-1.41-2.19-1.45-2.26v-.03s-.2-.73-.2-1.55c0-.28,.02-.51,.04-.7,.02-.18,.04-.41,0-.44h0s0,0-.02,0Z"/></g><g><path class="cls-11" d="M73.68,72.98l-3.24,3.04s2.98,3.97,4.57,5.96,4.5,2.32,5.76,1.32,1.39-3.24,.26-4.63c-1.12-1.39-7.34-5.69-7.34-5.69Z"/><path class="cls-12" d="M78.92,83.95c-1.37,0-2.97-.62-4-1.9-1.57-1.96-4.54-5.92-4.57-5.96l-.06-.08,.07-.06,3.3-3.1,.07,.05c.25,.18,6.25,4.33,7.37,5.71,.59,.73,.88,1.75,.77,2.74-.1,.86-.47,1.58-1.05,2.04-.47,.37-1.15,.56-1.91,.56Zm-8.34-7.91c.42,.56,3.06,4.07,4.51,5.88,1.63,2.04,4.48,2.2,5.61,1.31,.54-.42,.88-1.1,.97-1.9,.1-.93-.17-1.9-.72-2.58-1.04-1.28-6.56-5.14-7.25-5.62l-3.11,2.92Z"/></g><g><g><path class="cls-8" d="M51.98,88.96s4.76,.83,5.2,.83,5.14-1.21,5.46-.95c.32,.25,2.41,2.03,2.92,2.54,.51,.51,.76,1.02,.76,1.02h-4.38l-1.33-.32s-1.13,.52-1.76,.52-2.76-.12-2.76-.12l-3.74-.06s-1.26-2.12-.37-3.45Z"/><path class="cls-12" d="M58.85,92.7c-.63,0-2.68-.12-2.76-.12l-3.79-.06-.03-.05c-.05-.09-1.28-2.19-.37-3.56l.04-.06h.07c1.64,.3,4.84,.84,5.19,.84,.15,0,.88-.16,1.67-.33,2.5-.55,3.65-.76,3.86-.6,.33,.26,2.42,2.03,2.93,2.55,.51,.51,.77,1.02,.78,1.04l.08,.15h-4.57s-1.3-.31-1.3-.31c-.2,.09-1.18,.52-1.77,.52Zm-6.43-.39l3.68,.06s2.13,.12,2.76,.12,1.71-.51,1.72-.51l.03-.02,1.36,.32h4.19c-.11-.18-.33-.51-.66-.84-.49-.49-2.59-2.27-2.91-2.53-.23-.12-2.47,.37-3.68,.64-.99,.22-1.55,.34-1.71,.34-.42,0-4.54-.71-5.15-.81-.7,1.15,.21,2.91,.38,3.23Z"/></g><path class="cls-12" d="M63.2,92.46s-1.08-1.2-1.51-1.51c-.42-.3-.85-.43-.86-.43l.06-.2s.47,.14,.92,.46c.45,.32,1.5,1.49,1.54,1.54l-.16,.14Z"/><path class="cls-12" d="M64.66,92.53c-.58-.63-2.13-2.31-2.33-2.46-.24-.18-.85-.36-.86-.36l.06-.2s.66,.2,.92,.4c.26,.19,2.28,2.39,2.36,2.49l-.16,.14Z"/><g><path class="cls-11" d="M41.58,86.81s-1.9,1.52-2.22,2.54c-.32,1.02,.13,2.22,1.14,2.6,1.02,.38,12.35,.59,12.35,.59-.18,.09-1.02-.69-.54-1.73,.32-.7,1.21-1.71,1.21-1.71l-9.46-2.41"/><path class="cls-12" d="M52.81,92.65s-.04,0-.06,0c-1.17-.02-11.31-.23-12.29-.59-1.02-.38-1.56-1.61-1.21-2.73,.32-1.03,2.18-2.53,2.26-2.59l.13,.16s-1.88,1.51-2.19,2.49c-.32,1.02,.16,2.13,1.08,2.47,.88,.33,9.85,.53,11.9,.57-.31-.33-.55-.96-.23-1.66,.26-.57,.86-1.31,1.11-1.61l-9.29-2.37,.05-.2,9.62,2.45-.11,.13s-.88,1.01-1.19,1.69c-.27,.6-.07,1.06,.07,1.28,.12,.18,.25,.28,.31,.3,.04,0,.06,0,.06,0h.46s-.42,.2-.42,.2c-.02,.01-.05,.02-.08,.02Z"/></g></g></g><g><g><rect class="cls-12" x="18.67" y="92.1" width="38.89" height=".5"/><path class="cls-12" d="M57.67,92.7H18.57v-.71H57.67v.71Zm-38.89-.21H57.46v-.29H18.78v.29Z"/></g><g><g><polygon class="cls-6" points="43.45 92.6 19.2 92.6 16.96 75.73 41.21 75.73 43.45 92.6"/><path class="cls-12" d="M43.57,92.7H19.11v-.09s-2.27-16.99-2.27-16.99h24.47v.09s2.27,16.99,2.27,16.99Zm-24.28-.21h24.04l-2.21-16.66H17.08l2.21,16.66Z"/></g><g><polygon class="cls-6" points="42.96 92.6 18.71 92.6 16.47 75.73 40.72 75.73 42.96 92.6"/><path class="cls-12" d="M43.08,92.7H18.62v-.09s-2.27-16.99-2.27-16.99h24.47v.09s2.27,16.99,2.27,16.99Zm-24.28-.21h24.04l-2.21-16.66H16.59l2.21,16.66Z"/></g><g><path class="cls-12" d="M20.58,92.6h22.3l-1.69-12.73c-2.99,1.89-6.62,4.35-10.58,7.38-3.57,2.73-7.04,4.37-10.03,5.35Z"/><path class="cls-12" d="M43.01,92.7H19.93l.62-.21c3.51-1.15,6.87-2.95,9.99-5.34,3.46-2.64,7.02-5.13,10.59-7.38l.14-.09,1.73,13.01Zm-21.79-.21h21.55l-1.66-12.45c-3.52,2.23-7.03,4.68-10.44,7.29-2.96,2.26-6.14,4-9.45,5.16Z"/></g><g><ellipse class="cls-6" cx="28.94" cy="84.01" rx="1.59" ry="1.47"/><path class="cls-12" d="M28.94,85.58c-.94,0-1.7-.71-1.7-1.58s.76-1.58,1.7-1.58,1.7,.71,1.7,1.58-.76,1.58-1.7,1.58Zm0-2.94c-.82,0-1.49,.61-1.49,1.37s.67,1.37,1.49,1.37,1.49-.61,1.49-1.37-.67-1.37-1.49-1.37Z"/></g></g></g><rect class="cls-12" y="92.49" width="97.34" height=".21"/></svg>