<?xml version="1.0" encoding="UTF-8"?><svg id="Camada_1" xmlns="http://www.w3.org/2000/svg" viewBox="0 0 141.56 90.26"><defs><style>.cls-1{fill:#00a99d;}.cls-2{fill:#f7931e;}.cls-3{fill:#f5f5f5;}.cls-4{fill:#fff;}.cls-5{fill:#ececec;}.cls-6{fill:#ffbf9d;}.cls-7{fill:#ff9a6c;}.cls-8{fill:#ff735d;}.cls-9{fill:#c1272d;}.cls-10{fill:#ab6e65;}.cls-11{fill:#db8a76;}.cls-12{fill:#e1e1e1;}.cls-13{fill:#375a64;}.cls-14{fill:#1a2e35;}.cls-15{fill:#a45b4a;}.cls-16{fill:#7c4b43;}.cls-17{opacity:.2;}.cls-18{opacity:.3;}</style></defs><path class="cls-5" d="M70.49,4.16c.38-.16,.64-.55,.65-1,0-.6-.45-1.09-1.01-1.09-.56,0-1.02,.48-1.02,1.08,0,.46,.27,.85,.65,1.01-1.56,.24-1.49,1.94-1.49,1.94l3.7,.02s.08-1.72-1.47-1.95Z"/><g><g><g><path class="cls-5" d="M128.42,25.26c.83-.35,1.42-1.21,1.43-2.22,0-1.32-1-2.4-2.24-2.41-1.24,0-2.25,1.06-2.26,2.38,0,1.02,.59,1.89,1.43,2.24-3.46,.52-3.3,4.28-3.3,4.28l8.17,.04s.19-3.8-3.24-4.31Z"/><path class="cls-5" d="M127.57,34.39c-4.96,0-9-4.04-9-9s4.04-9,9-9,9,4.04,9,9-4.04,9-9,9Zm0-17.73c-4.82,0-8.74,3.92-8.74,8.74s3.92,8.74,8.74,8.74,8.74-3.92,8.74-8.74-3.92-8.74-8.74-8.74Z"/><path class="cls-5" d="M30.39,13.71c.76-.32,1.3-1.1,1.3-2.02,0-1.21-.91-2.19-2.04-2.19-1.13,0-2.05,.97-2.06,2.18,0,.93,.54,1.72,1.31,2.04-3.15,.48-3.01,3.9-3.01,3.9l7.46,.03s.17-3.46-2.96-3.94Z"/><path class="cls-5" d="M29.62,22.05c-4.53,0-8.22-3.69-8.22-8.22s3.69-8.22,8.22-8.22,8.22,3.69,8.22,8.22-3.69,8.22-8.22,8.22Zm0-16.18c-4.39,0-7.96,3.57-7.96,7.96s3.57,7.96,7.96,7.96,7.96-3.57,7.96-7.96-3.57-7.96-7.96-7.96Z"/><g><path class="cls-5" d="M102.76,11.73c.59-.25,1.02-.86,1.02-1.58,0-.94-.71-1.71-1.6-1.72-.89,0-1.61,.76-1.61,1.7,0,.73,.42,1.35,1.02,1.6-2.47,.37-2.36,3.05-2.36,3.05l5.84,.03s.13-2.71-2.31-3.08Z"/><path class="cls-5" d="M102.15,18.27c-3.56,0-6.46-2.9-6.46-6.46s2.9-6.46,6.46-6.46,6.46,2.9,6.46,6.46-2.9,6.46-6.46,6.46Zm0-12.66c-3.42,0-6.2,2.78-6.2,6.2s2.78,6.2,6.2,6.2,6.2-2.78,6.2-6.2-2.78-6.2-6.2-6.2Z"/></g><path class="cls-5" d="M79.32,25.5c.42-.18,.72-.61,.72-1.12,0-.67-.5-1.21-1.13-1.21-.63,0-1.13,.54-1.14,1.2,0,.51,.3,.95,.72,1.13-1.74,.26-1.66,2.16-1.66,2.16l4.12,.02s.09-1.91-1.63-2.18Z"/><path class="cls-5" d="M78.89,30.13c-2.52,0-4.57-2.05-4.57-4.57s2.05-4.57,4.57-4.57,4.57,2.05,4.57,4.57-2.05,4.57-4.57,4.57Zm0-8.94c-2.41,0-4.37,1.96-4.37,4.37s1.96,4.37,4.37,4.37,4.37-1.96,4.37-4.37-1.96-4.37-4.37-4.37Z"/><g><path class="cls-5" d="M9.08,45.38c.38-.16,.65-.55,.65-1.02,0-.61-.46-1.1-1.03-1.1-.57,0-1.03,.49-1.04,1.09,0,.47,.27,.87,.66,1.03-1.59,.24-1.51,1.96-1.51,1.96l3.75,.02s.09-1.74-1.49-1.98Z"/><path class="cls-5" d="M8.69,49.64c-2.31,0-4.2-1.88-4.2-4.2s1.88-4.2,4.2-4.2,4.2,1.88,4.2,4.2-1.88,4.2-4.2,4.2Zm0-8.14c-2.17,0-3.94,1.77-3.94,3.94s1.77,3.94,3.94,3.94,3.94-1.77,3.94-3.94-1.77-3.94-3.94-3.94Z"/></g><path class="cls-5" d="M11.51,42.25s3.2-4.95,7.22-11c4.02-6.06,7.3-10.95,7.33-10.93,.03,.02-3.2,4.95-7.22,11.01-4.02,6.06-7.3,10.95-7.33,10.93Z"/><path class="cls-5" d="M83.13,24.52s3.12-2.03,7.01-4.48c3.89-2.45,7.05-4.42,7.06-4.39,.02,.02-3.12,2.03-7.01,4.48-3.88,2.45-7.05,4.42-7.06,4.39Z"/><path class="cls-5" d="M74.53,25.56s-8.51-1.42-19-3.23c-10.49-1.82-18.99-3.31-18.99-3.34,0-.03,8.51,1.42,19,3.24,10.49,1.82,18.99,3.31,18.98,3.34Z"/></g><path class="cls-5" d="M119.71,21.47s-2.64-1.54-5.87-3.5c-3.23-1.96-5.83-3.56-5.81-3.59,.02-.02,2.64,1.54,5.87,3.5,3.22,1.96,5.83,3.56,5.81,3.59Z"/><path class="cls-5" d="M21.38,15.14s-2.45,.08-5.46,.12c-3.02,.04-5.46,.04-5.46,.01s2.45-.08,5.46-.12c3.02-.04,5.46-.04,5.46-.01Z"/><path class="cls-5" d="M7.68,15.12c.24-.1,.41-.35,.41-.64,0-.38-.29-.69-.64-.69-.36,0-.65,.31-.65,.69,0,.29,.17,.54,.41,.64-1,.15-.95,1.23-.95,1.23h2.36s.05-1.08-.93-1.23Z"/><path class="cls-5" d="M7.44,17.84c-1.48,0-2.68-1.2-2.68-2.68s1.2-2.68,2.68-2.68,2.68,1.2,2.68,2.68-1.2,2.68-2.68,2.68Zm0-5.11c-1.34,0-2.43,1.09-2.43,2.43s1.09,2.43,2.43,2.43,2.43-1.09,2.43-2.43-1.09-2.43-2.43-2.43Z"/></g><path class="cls-5" d="M70.11,8.43c-2.32,0-4.22-1.89-4.22-4.22s1.89-4.22,4.22-4.22,4.22,1.89,4.22,4.22-1.89,4.22-4.22,4.22Zm0-8.03c-2.1,0-3.81,1.71-3.81,3.81s1.71,3.81,3.81,3.81,3.81-1.71,3.81-3.81-1.71-3.81-3.81-3.81Z"/><path class="cls-5" d="M76.54,21.85s-.02-.05-.05-.14c-.03-.1-.08-.23-.14-.4-.12-.36-.29-.85-.5-1.46-.42-1.23-1.03-2.93-1.76-4.78-.73-1.85-1.44-3.51-1.97-4.7-.26-.59-.48-1.07-.63-1.41-.07-.16-.13-.29-.17-.38-.04-.09-.06-.14-.05-.14,0,0,.03,.04,.07,.13,.05,.1,.11,.22,.19,.38,.16,.33,.39,.8,.66,1.4,.55,1.18,1.27,2.84,2,4.69,.73,1.85,1.33,3.56,1.73,4.8,.2,.62,.36,1.12,.47,1.47,.05,.17,.09,.3,.12,.4,.03,.09,.04,.14,.03,.14Z"/></g><g><path class="cls-3" d="M1.22,74.51v7.11H.03v.77H1.22v4.76H23.41v-4.33h-1.64v-.94h1.64v-1.42h.73v-.64h-.87v-5.31H1.22Z"/><polygon class="cls-12" points="17.52 74.53 17.52 87.08 23.41 87.08 23.41 82.74 21.77 82.74 21.77 81.88 23.41 81.91 23.41 80.49 24.16 80.5 24.14 79.76 23.28 79.74 23.28 74.51 17.52 74.53"/><path class="cls-12" d="M17.94,82.29s-4.02,.08-8.97,.08-8.97-.04-8.97-.08,4.02-.08,8.97-.08,8.97,.04,8.97,.08Z"/><path class="cls-12" d="M17.94,81.57s-4.02,.08-8.97,.08-8.97-.04-8.97-.08,4.02-.08,8.97-.08,8.97,.04,8.97,.08Z"/><path class="cls-12" d="M19.09,79.63s-4.02,.08-8.97,.08-8.97-.04-8.97-.08,4.02-.08,8.97-.08,8.97,.04,8.97,.08Z"/><path class="cls-12" d="M19.2,84.92s-4.02,.08-8.97,.08-8.97-.04-8.97-.08,4.02-.08,8.97-.08,8.97,.04,8.97,.08Z"/></g><g><path class="cls-3" d="M3.69,61.99v7.11h-1.19v.77h1.19v4.76H25.89v-4.33h-1.64v-.94h1.64v-1.42h.73v-.64h-.87v-5.31H3.69Z"/><polygon class="cls-12" points="19.99 62.01 19.99 74.56 25.89 74.56 25.89 70.23 24.24 70.23 24.24 69.36 25.89 69.39 25.89 67.98 26.63 67.98 26.62 67.25 25.75 67.22 25.75 61.99 19.99 62.01"/><path class="cls-12" d="M20.41,69.77s-4.02,.08-8.97,.08-8.97-.04-8.97-.08,4.02-.08,8.97-.08,8.97,.04,8.97,.08Z"/><path class="cls-12" d="M20.41,69.05s-4.02,.08-8.97,.08-8.97-.04-8.97-.08,4.02-.08,8.97-.08,8.97,.04,8.97,.08Z"/><path class="cls-12" d="M21.56,67.11s-4.02,.08-8.97,.08-8.97-.04-8.97-.08,4.02-.08,8.97-.08,8.97,.04,8.97,.08Z"/><path class="cls-12" d="M21.67,72.41s-4.02,.08-8.97,.08-8.97-.04-8.97-.08,4.02-.08,8.97-.08,8.97,.04,8.97,.08Z"/></g><g><g><path class="cls-5" d="M134.73,62.13c1.3-.67,2.84-.76,4.28-.52,.78,.13,1.59,.36,2.12,.94,.53,.58,.63,1.61,.02,2.11-.36,.3-.87,.34-1.33,.34-1.13-.01-2.39-.21-3.29,.47-.52,.39-.86,1.03-1.48,1.23-.6,.19-1.28-.17-1.6-.71-.32-.54-.33-1.23-.18-1.84,0,0,.16-1.34,1.47-2.02Z"/><path class="cls-5" d="M131.74,56.36c.8,1.14,2.34,.76,3.06,.07,.72-.69,1.02-1.7,1.3-2.66,.63-2.19,1.27-4.49,.8-6.73-.14-.67-.39-1.33-.86-1.83-.47-.5-1.19-.79-1.85-.62-.78,.21-1.27,.97-1.62,1.7-1.03,2.14-1.58,4.51-1.58,6.88,0,1.11,.13,2.27,.75,3.19"/><path class="cls-5" d="M129.55,58c.86-1.03,1.03-2.52,.64-3.81-.38-1.29-1.25-2.38-2.26-3.27-1.17-1.05-2.56-1.86-4.04-2.38-.58-.21-1.2-.37-1.82-.31-.62,.06-1.24,.37-1.53,.92-.43,.81-.02,1.79,.42,2.6,.78,1.41,1.67,2.77,2.65,4.04,.8,1.03,1.71,2.04,2.92,2.5,1.21,.46,2.47,.41,3.11-.43"/><path class="cls-12" d="M131.69,73.53s.04-.18,.07-.52c.04-.38,.08-.85,.14-1.41,.07-.59,.15-1.3,.32-2.07,.16-.77,.42-1.6,.75-2.44,.34-.84,.76-1.6,1.25-2.21,.48-.61,1.05-1.06,1.58-1.31,.53-.26,1-.37,1.33-.41,.33-.03,.51-.06,.51-.07,0-.01-.18-.02-.52,0-.34,.02-.83,.11-1.38,.36-.56,.25-1.16,.7-1.66,1.32-.51,.62-.94,1.4-1.29,2.25-.34,.86-.59,1.7-.75,2.48-.16,.78-.23,1.5-.28,2.1-.04,.6-.06,1.08-.07,1.42,0,.34,0,.52,.01,.52Z"/><path class="cls-12" d="M131.79,72.44s.01-.08,.01-.24c0-.18,0-.41,0-.69,0-.6,0-1.46,.03-2.52,.05-2.13,.24-4.42,.59-7.65,.34-3.04,.78-6.57,1.26-8.87,.1-.52,.2-.99,.3-1.4,.09-.41,.17-.77,.25-1.06,.07-.27,.12-.49,.16-.67,.03-.15,.05-.23,.04-.24,0,0-.04,.08-.08,.22-.05,.17-.12,.39-.2,.66-.09,.29-.18,.64-.28,1.05-.11,.41-.22,.88-.33,1.4-.47,2.08-.97,4.99-1.32,8.23-.35,3.24-.51,6.18-.53,8.31-.01,1.07,0,1.93,.04,2.53,.02,.28,.03,.51,.04,.69,.01,.16,.02,.24,.03,.24Z"/><path class="cls-12" d="M131.8,66.76s.01-.26,0-.72c-.03-.46-.09-1.13-.22-1.94-.14-.81-.33-1.78-.63-2.83-.13-.48-.44-1.63-1.18-3.35-.98-2.33-2.31-4.23-3.47-5.41-.27-.31-.57-.54-.82-.76-.13-.11-.24-.21-.35-.3-.11-.08-.22-.15-.32-.22-.38-.26-.6-.4-.6-.39-.03,.05,.85,.57,1.98,1.76,1.12,1.19,2.41,3.08,3.39,5.39,.54,1.25,.92,2.37,1.19,3.32,.31,1.04,.52,2,.67,2.8,.15,.81,.23,1.47,.29,1.92,.04,.46,.07,.71,.09,.71Z"/></g><polygon class="cls-12" points="126.31 76.78 126.88 84.58 136.9 84.58 137.47 76.78 126.31 76.78"/><rect class="cls-12" x="125.34" y="73.71" width="13.32" height="3.07"/><polygon class="cls-5" points="125.34 84.28 125.34 85.13 125.97 85.13 138.44 85.13 138.44 84.28 125.34 84.28"/><polygon class="cls-12" points="126.58 86.63 125.97 85.13 137.96 85.13 137.25 86.63 126.58 86.63"/><path class="cls-3" d="M137.28,79.33s-.01,.03-.05,.07c-.04,.05-.09,.12-.15,.2-.14,.18-.34,.43-.58,.75l-.03,.03-.03-.03c-.37-.51-.86-1.19-1.43-1.98h.08c-.43,.6-.9,1.28-1.41,2l-.04,.06-.05-.06c-.52-.62-1.09-1.29-1.67-1.99h.1s-.06,.07-.09,.11c-.52,.65-1.02,1.28-1.5,1.88l-.05,.06-.05-.07c-.51-.72-.98-1.39-1.41-2h.08c-.7,.8-1.29,1.47-1.74,1.99l-.03,.04-.02-.04c-.23-.39-.41-.69-.54-.92-.06-.1-.1-.18-.14-.24-.03-.06-.05-.09-.04-.09,0,0,.02,.02,.06,.08,.04,.06,.09,.14,.15,.23,.14,.22,.33,.52,.57,.9h-.05c.45-.53,1.03-1.21,1.71-2.01l.04-.05,.04,.05c.43,.6,.91,1.27,1.43,1.99h-.1c.47-.6,.98-1.23,1.49-1.88,.03-.04,.06-.08,.09-.12l.05-.06,.05,.06c.59,.7,1.15,1.37,1.67,2h-.09c.52-.71,1-1.38,1.43-1.99l.04-.06,.04,.06c.56,.81,1.04,1.49,1.4,2h-.05c.26-.31,.46-.55,.61-.73,.07-.08,.12-.14,.16-.19,.04-.04,.06-.06,.06-.06Z"/><path class="cls-3" d="M137.61,76.73s-2.51,.06-5.61,.06-5.61-.03-5.61-.06,2.51-.06,5.61-.06,5.61,.03,5.61,.06Z"/><path class="cls-3" d="M138.11,85.22s-2.73,.06-6.09,.06-6.09-.03-6.09-.06,2.73-.06,6.09-.06,6.09,.03,6.09,.06Z"/></g><g><path class="cls-6" d="M82.36,67.11s2.14-1.34,2.95-1.25l4.64,1.08s.4,.43-.41,.83c-.79,.39-1.83-.17-1.83-.17l-1.13,.16,.78,.65,3.08,.95s2.23,.63,1.96,.96c-.27,.33-.94,.37-1.9,.1-.96-.27-2.18-.62-2.18-.62,0,0-.38-.08,.23,.34,.61,.43,3.32,1.09,3.67,1.27,.36,.18,1.33,.32,1.22,.88-.11,.55-1.32,.11-1.32,.11l-4-.93s1.58,.68,1.85,.81c.27,.13,1.14,.37,1.61,.6,.47,.23,.69,.54,.64,.79-.1,.44-.51,.39-.51,.39l-3.38-1.16s-1.53-.61-1.64-.59c-.1,.02,.6,.68,.6,.68l1.08,.55s1.56,.52,1.56,.95c0,.43-.32,.42-.32,.42l-2.84-.98-3.17-1.61-2.38-1.46s.43-1.68,.35-1.75c-.08-.07,.79-2,.79-2Z"/><path class="cls-7" d="M83.48,70.26s.3-.11,.76-.28c.45-.17,1.12-.47,1.46-1.13,.15-.29,.21-.61,.15-.89l-.02-.1h.11c.49-.08,.95-.18,1.26-.23,.31-.05,.51-.05,.51-.03,0,.02-.18,.06-.49,.14-.31,.08-.73,.2-1.28,.29l.09-.12c.07,.32,.01,.7-.16,1.02-.19,.36-.48,.64-.77,.82-.29,.18-.59,.29-.83,.36-.49,.14-.81,.17-.81,.14Z"/></g><g><polyline class="cls-14" points="39.87 87.57 39.49 73.57 64.05 74.04 67.39 87.04 39.87 87.57"/><path class="cls-13" d="M52.09,34.43l-1.85,1.75s-6.9,1.72-8.11,2.92c-1.21,1.21-1.84,19.81-1.76,21.09,.08,1.29,0,12.47,0,12.47,0,0-.41,4.26,0,4.5,.41,.24,8.15,.34,12.01,.43,3.86,.08,12.05,.31,12.53-.09s-1.2-8.74-1.2-8.74l-.67-3.85,.21-6.72,1.41-9.25,1.05-9.57s-2.81-1.69-4.18-2.01c-1.37-.32-9.44-2.92-9.44-2.92Z"/><path class="cls-13" d="M72.45,61.29l-3.75-15.75c-.3-1.25-.73-2.47-1.29-3.62-.58-1.2-1.3-2.5-1.7-2.54-2.33-.27-3.54,6.84-3.54,6.84v9.01l2.2,9.76c.34,1.5,1.44,2.7,2.9,3.17l14.89,4.74,1.73-7.39-11.44-4.19Z"/><path class="cls-13" d="M45.85,37.7s-5.66,.8-7.49,5.12c0,0-5.66,22.01-4.71,24.91s8.26,14.09,8.26,14.09l6.41-3.38s-6.26-13-6.26-14.43,3.79-26.3,3.79-26.3Z"/><path class="cls-14" d="M48.32,78.43s-.01-.02-.04-.07c-.02-.05-.06-.12-.1-.21-.08-.19-.2-.46-.36-.81-.31-.71-.75-1.74-1.29-3-1.09-2.54-2.58-6.04-4.23-9.9-.08-.18-.15-.36-.22-.52h0s0-.02,0-.02c.02-.27,.07-.51,.12-.76,.05-.25,.11-.49,.17-.73,.11-.48,.24-.96,.35-1.42,.24-.93,.48-1.82,.7-2.67,.45-1.7,.85-3.23,1.17-4.51,.33-1.28,.57-2.32,.74-3.04,.08-.35,.15-.63,.19-.83,.02-.09,.04-.16,.05-.21,.01-.05,.02-.07,.02-.07s0,.03-.01,.07c-.01,.05-.02,.13-.04,.22-.04,.2-.1,.47-.17,.83-.16,.72-.39,1.76-.71,3.05-.32,1.29-.71,2.81-1.15,4.51-.22,.85-.45,1.74-.69,2.67-.12,.46-.24,.94-.35,1.42-.11,.48-.24,.98-.28,1.47v-.02c.07,.16,.14,.34,.22,.52,1.64,3.87,3.13,7.37,4.2,9.91,.53,1.27,.96,2.29,1.26,3.01,.15,.35,.26,.63,.34,.82,.04,.09,.06,.16,.09,.21,.02,.05,.03,.07,.03,.07Z"/><path class="cls-14" d="M64.64,47.28s0,.04,0,.13c0,.09-.01,.22-.02,.37-.02,.33-.05,.79-.09,1.34-.08,1.13-.18,2.7-.36,4.43-.18,1.73-.44,3.28-.63,4.4-.1,.56-.18,1.01-.24,1.32-.03,.15-.05,.27-.07,.36-.02,.08-.03,.12-.03,.12,0,0,0-.04,.01-.13,.01-.09,.03-.21,.05-.36,.05-.33,.12-.78,.21-1.33,.17-1.12,.42-2.67,.6-4.4,.18-1.72,.29-3.29,.39-4.42,.05-.56,.09-1.01,.12-1.34,.02-.15,.03-.27,.04-.36,0-.08,.02-.13,.02-.13Z"/><path class="cls-6" d="M42.76,81.36l.63,1.17s3.15-1.2,4.64-3.22l-.41-.4-4.87,2.45Z"/><path class="cls-13" d="M48.96,78.17s-.06,.11-.18,.3c-.06,.09-.14,.21-.23,.34-.1,.13-.2,.28-.33,.43-.13,.15-.27,.32-.43,.49-.16,.18-.34,.35-.54,.53-.39,.36-.85,.73-1.36,1.07-.51,.34-1.03,.62-1.51,.85-.48,.22-.93,.4-1.31,.53-.19,.07-.36,.12-.52,.16-.15,.05-.29,.08-.39,.11-.22,.05-.34,.08-.34,.07,0,0,.12-.05,.33-.11,.11-.03,.24-.07,.39-.12,.15-.05,.32-.1,.51-.18,.38-.13,.81-.32,1.29-.55,.47-.23,.98-.51,1.49-.85,.51-.34,.96-.7,1.35-1.05,.19-.18,.38-.35,.54-.52,.17-.16,.31-.33,.44-.48,.14-.15,.24-.29,.34-.42,.1-.12,.18-.23,.25-.32,.13-.18,.21-.28,.21-.27Z"/><path class="cls-14" d="M45.77,45.55s.06-.37,.04-.97c0-.15-.01-.31-.04-.49-.02-.18-.06-.36-.1-.55-.1-.38-.25-.79-.46-1.2-.22-.4-.47-.76-.73-1.05-.14-.14-.26-.28-.4-.4-.13-.12-.26-.22-.38-.31-.48-.35-.84-.49-.83-.51,0,0,.09,.03,.25,.1,.08,.03,.17,.08,.28,.14,.1,.06,.23,.12,.35,.22,.13,.09,.26,.18,.39,.3,.14,.11,.27,.25,.41,.4,.27,.3,.53,.66,.75,1.07,.21,.41,.36,.83,.46,1.23,.04,.2,.08,.38,.1,.56,.03,.18,.03,.34,.03,.5,0,.15-.01,.29-.02,.41,0,.12-.02,.22-.04,.31-.03,.17-.05,.26-.06,.26Z"/><path class="cls-4" d="M44.91,51.62s-1.87-.4-4.17-.95c-2.3-.55-4.15-1.02-4.15-1.05,0-.03,1.87,.4,4.17,.95,2.3,.55,4.15,1.02,4.15,1.05Z"/><path class="cls-4" d="M64.23,50.45s-4.2,.12-9.39,.21c-5.19,.09-9.39,.14-9.39,.11,0-.03,4.2-.12,9.39-.21,5.19-.09,9.39-.14,9.39-.11Z"/><path class="cls-4" d="M70.25,51.51s-.08,.02-.23,.05c-.15,.02-.36,.06-.63,.09-.53,.07-1.27,.16-2.08,.24-.81,.08-1.55,.14-2.09,.17-.27,.02-.48,.03-.63,.03-.15,0-.23,0-.23,0,0,0,.08-.02,.23-.04,.17-.02,.38-.04,.63-.06,.56-.05,1.28-.12,2.08-.2,.8-.08,1.52-.15,2.08-.21,.25-.02,.46-.04,.63-.06,.15-.01,.23-.02,.23,0Z"/><path class="cls-4" d="M42.23,63.07s-1.81-.21-4.03-.52c-2.22-.32-4.02-.6-4.01-.63,0-.03,1.81,.21,4.03,.52,2.22,.32,4.01,.6,4.01,.63Z"/><path class="cls-4" d="M62.72,64.71s-4.36,.35-9.73,.72c-5.38,.37-9.74,.65-9.74,.62,0-.03,4.36-.35,9.73-.72,5.38-.37,9.74-.65,9.74-.62Z"/><path class="cls-4" d="M72.05,61.54s-.08,.08-.25,.22c-.18,.15-.41,.34-.7,.58-.59,.49-1.4,1.16-2.28,1.92-.88,.76-1.67,1.46-2.24,1.97-.27,.24-.5,.45-.68,.6-.16,.14-.25,.22-.26,.21,0,0,.08-.09,.23-.24,.15-.15,.37-.36,.65-.63,.56-.52,1.34-1.23,2.22-1.99,.88-.76,1.7-1.42,2.31-1.89,.3-.24,.55-.42,.72-.55,.17-.13,.27-.19,.27-.19Z"/><path class="cls-4" d="M46.6,75.82s-.09,.05-.26,.12c-.19,.08-.43,.18-.72,.3-.62,.26-1.45,.59-2.36,.97-.91,.38-1.73,.73-2.36,.99-.29,.12-.53,.22-.71,.3-.17,.07-.26,.1-.27,.1,0,0,.09-.05,.25-.13,.16-.08,.4-.19,.7-.33,.59-.27,1.42-.63,2.34-1.02,.92-.38,1.76-.71,2.38-.94,.31-.11,.55-.2,.73-.26,.17-.06,.27-.09,.27-.08Z"/><path class="cls-4" d="M80.56,64.6s0,.11-.04,.29c-.03,.19-.09,.45-.16,.79-.15,.66-.38,1.57-.69,2.55-.32,.98-.65,1.86-.92,2.48-.13,.31-.24,.56-.33,.73-.08,.17-.13,.26-.14,.26,0,0,.03-.1,.1-.28,.08-.19,.18-.44,.3-.74,.25-.63,.57-1.5,.89-2.48,.31-.98,.56-1.88,.72-2.54,.08-.31,.14-.57,.19-.78,.04-.18,.07-.28,.08-.28Z"/><path class="cls-4" d="M52,38.26s-.11,.03-.33,.07c-.23,.04-.53,.09-.89,.15-.75,.13-1.78,.33-2.91,.6-1.13,.27-2.14,.57-2.87,.79-.35,.11-.64,.2-.86,.27-.2,.06-.32,.1-.32,.09,0,0,.11-.05,.31-.13,.2-.08,.49-.18,.85-.3,.72-.24,1.73-.55,2.87-.83,1.13-.27,2.17-.46,2.93-.58,.38-.06,.68-.1,.9-.12,.21-.02,.33-.03,.33-.03Z"/></g><g><path class="cls-14" d="M67.37,19.02c1.5,1.3,.66,3.33,.36,5.29-.3,1.96,.05,4.12,.13,6.1,.04,1.05,.3,2.13-.04,3.13-.36,1.04-1.29,1.75-2.01,2.58s-1.27,2.06-.7,2.99c-.31,.12-.68,.07-.95-.13-.24,.44-.84,.57-1.32,.43-.48-.14-.87-.49-1.24-.82-.06,.36-.49,.55-.85,.48-.36-.07-.64-.33-.9-.59-.26-.26-.52-.53-.86-.66-.76-.27-1.65,.31-2.39-.02-1.01-.45-.92-2.2-1.96-2.56-.49-.17-1.02,.06-1.54,.12-.52,.06-1.07-.4-1-.92-.89,.37-2.04,.55-2.94,.22,.29-.23,.44-.64,.37-1-.66,.12-1.35,.03-1.96-.24,.55-.13,1.04-.52,1.3-1.03-.56,.09-1.16-.12-1.53-.54,1.13,.01,1.92-1.16,2.15-2.26,.24-1.1,.15-2.28,.6-3.32,.49-1.13,1.54-1.91,2.17-2.96,.89-1.46,.91-3.33,1.83-4.78,.6-.95,1.17-1.75,2.08-2.41,1.15-.83,1.81-1.26,3.22-1.24,1.19,.02,3.22,.35,4.24,.97,1.8,1.1,3.72,2.34,4.52,4.29"/><g><g><path class="cls-14" d="M54.03,27.71c-.08-1.57-.16-3.14,.02-4.7,.19-1.56,.65-3.11,1.56-4.39,.14-.19,1.21-1.46,1.43-1.38,.16,.06-.62,1.3-.58,1.46,.43,1.57,.21,3.25-.33,4.78-.54,1.53-1.24,2.85-2.1,4.23"/><path class="cls-6" d="M57.78,43.65c-2.34-.68-6.74-5.26-6.12-7.61l3.76-14.16c.89-3.84,3.86-6.52,7.67-5.52l.35,.11c3.49,1.13,5.53,4.75,4.68,8.32-.79,3.32-1.7,6.98-2.29,8.71-1.21,3.58-4.99,2.97-4.99,2.97,0,0-.25,.84-.54,1.91-.67,2.4-2.07,4.75-2.52,5.27h0Z"/><path class="cls-7" d="M60.84,36.48s-2.31-.6-4.23-2.9c0,0,.25,3.07,3.94,3.91l.29-1.01Z"/><path class="cls-14" d="M65.9,27.74c-.08,.27-.38,.43-.66,.36-.29-.08-.46-.36-.38-.63,.08-.27,.38-.43,.66-.36,.29,.08,.46,.36,.38,.63Z"/><path class="cls-14" d="M66.84,26.13c-.09,.05-.38-.37-.93-.55-.55-.19-1.05-.03-1.08-.12-.02-.04,.08-.14,.3-.21,.22-.07,.55-.1,.9,.01,.34,.11,.59,.33,.72,.52,.13,.19,.15,.33,.1,.34Z"/><path class="cls-14" d="M60.85,26.28c-.08,.27-.38,.43-.66,.36-.29-.08-.46-.36-.38-.63,.08-.27,.38-.43,.66-.36,.29,.08,.46,.36,.38,.63Z"/><path class="cls-14" d="M61.38,24.51c-.09,.05-.38-.37-.93-.55-.55-.19-1.05-.03-1.08-.12-.02-.04,.08-.14,.3-.21,.22-.07,.55-.1,.9,.01,.34,.11,.59,.33,.72,.52,.13,.19,.15,.33,.1,.34Z"/><path class="cls-14" d="M61.99,29.39s.37,.02,.95,.13c.15,.03,.29,.05,.34-.04,.07-.09,.06-.26,.04-.45-.02-.38-.04-.79-.07-1.21-.08-1.72-.09-3.11-.03-3.11,.07,0,.19,1.39,.28,3.1,.02,.42,.03,.82,.05,1.21,0,.18,.03,.39-.11,.58-.07,.09-.2,.14-.3,.13-.1,0-.18-.03-.25-.04-.57-.15-.92-.26-.91-.29Z"/><path class="cls-14" d="M62,22.43c-.12,.12-.61-.21-1.26-.43-.64-.24-1.22-.3-1.24-.47,0-.08,.14-.17,.41-.21,.26-.04,.64-.02,1.03,.12,.39,.14,.69,.36,.87,.56,.18,.2,.24,.37,.18,.42Z"/><path class="cls-14" d="M67.13,24.8c-.15,.09-.57-.18-1.11-.35-.54-.19-1.03-.22-1.09-.39-.03-.08,.08-.18,.32-.24,.23-.06,.6-.05,.97,.07,.37,.12,.66,.34,.81,.53,.15,.19,.18,.34,.11,.38Z"/><path class="cls-6" d="M54.85,24.64c-.05-.05-2.23-1.53-2.95,.95-.72,2.48,1.92,2.69,1.95,2.62,.02-.07,1-3.57,1-3.57Z"/><path class="cls-7" d="M53.36,27.05s-.05,.02-.13,.03c-.08,.01-.21,0-.33-.09-.23-.17-.33-.65-.22-1.1,.06-.23,.17-.43,.3-.58,.13-.16,.28-.25,.42-.24,.14,0,.21,.11,.22,.19,.01,.08-.02,.12,0,.13,0,0,.07-.03,.07-.13,0-.05,0-.12-.05-.18-.05-.07-.13-.12-.22-.13-.2-.04-.42,.08-.56,.25-.16,.17-.28,.39-.35,.65-.13,.5,0,1.05,.32,1.25,.16,.1,.32,.09,.41,.05,.09-.04,.12-.09,.12-.1Z"/><path class="cls-14" d="M67.66,20.22c.47-.11-.38-1.75-1.24-2.48-1.31-1.1-3.47-2.15-4.96-2.15-1.79,0-3.4,.45-4.66,1.72-1.26,1.28-2.06,2.95-2.5,4.69-.13,.53-.23,1.09-.07,1.62,.19,.65,.76,1.18,.52,1.93-.09,.27-.09,.58,.05,.83,.32,.61,1,.31,1.39-.07,.82-.82,1.21-1.97,1.57-3.07,.26-.78,.52-1.59,.51-2.41,0-.45-.09-.9-.07-1.34,.02-.45,.17-.92,.52-1.19,.06-.04,.15-.09,.26-.15,.88-.42,1.92-.33,2.71,.23,1.26,.89,3.45,2.3,4.21,2,1.09-.43,1.43-.82,1.43-.82l.35,.66Z"/></g><path class="cls-14" d="M60.37,29.26s-.09,.13-.11,.35c-.02,.22,.05,.56,.25,.86,.19,.3,.43,.5,.61,.62,.18,.13,.3,.19,.33,.16,.03-.03-.06-.14-.2-.3-.14-.16-.34-.37-.51-.63-.35-.51-.28-1.06-.37-1.06Z"/></g><g><path class="cls-9" d="M54.8,24.98s0,.1,0,.16c0,0,0-.06,0-.16Z"/><path class="cls-9" d="M54.14,24.28s.62-.36,.66,.7c-.01-1.37,.23-11.24,9.7-8.61,0,0-3.06-1.82-5.69-1.02,0,0-4.98,.73-4.68,8.93Z"/></g><path class="cls-14" d="M60.33,34.68s.29-.08,.53-.32c.25-.25,.36-.51,.32-.53-.04-.02-.2,.19-.44,.42-.23,.23-.44,.4-.42,.44Z"/><path class="cls-14" d="M59.82,34.43s.25-.16,.49-.43c.23-.27,.4-.5,.36-.53-.03-.03-.25,.16-.49,.43-.23,.27-.4,.5-.36,.53Z"/><path class="cls-14" d="M59.51,34.11s.16-.22,.27-.52c.1-.3,.15-.56,.11-.57-.04-.01-.16,.22-.27,.52-.1,.3-.15,.56-.11,.57Z"/><path class="cls-14" d="M59.04,34.01s0-.31,.06-.66c.06-.36,.19-.62,.15-.65-.03-.03-.25,.23-.31,.62-.07,.39,.06,.7,.1,.69Z"/><path class="cls-14" d="M58.37,33.62s.03-.3,.07-.65c.04-.35,.13-.63,.08-.65-.04-.02-.2,.25-.24,.63-.05,.38,.05,.68,.09,.67Z"/></g><path class="cls-14" d="M61.54,65.86s-.02,.02-.08,.06c-.06,.04-.14,.1-.23,.16-.2,.14-.5,.34-.87,.58-.74,.48-1.77,1.13-2.94,1.81-1.17,.68-2.24,1.25-3.03,1.65-.39,.2-.71,.36-.94,.46-.1,.05-.19,.09-.26,.12-.06,.03-.09,.04-.09,.04,0,0,.03-.02,.08-.05,.07-.04,.15-.08,.25-.14,.23-.12,.54-.29,.92-.49,.78-.42,1.85-1,3.01-1.68,1.16-.68,2.2-1.31,2.95-1.78,.36-.23,.66-.42,.89-.55,.1-.06,.18-.11,.24-.15,.06-.03,.09-.05,.09-.05Z"/><path class="cls-14" d="M72.44,61.27s-.7,.37-1.4,1.04c-.71,.66-1.1,1.36-1.12,1.34-.01,0,.07-.19,.25-.46,.17-.27,.45-.62,.81-.96,.36-.34,.73-.59,1-.75,.28-.16,.46-.23,.47-.22Z"/><g><path class="cls-14" d="M72.24,58.63s-7.21,.85-9.87,2.98c-.42,.33-.81,.72-1.17,1.14-1.68,1.93-2.67,4.38-2.9,6.93l-.97,10.6,.08,1.75c.12,2.73,2.37,4.89,5.11,4.9l29.79,.21s3.91-4.37,2.89-11.14c-.24-1.59-.63-7.06-2.14-10.42-.8-1.78-2.02-3.97-5.24-4.83l-7.52-2.13h-8.04Z"/><path class="cls-13" d="M65.48,67.25s-.03-.08-.06-.24c-.03-.15-.08-.37-.15-.65-.13-.54-.36-1.28-.7-2.07-.34-.78-.72-1.46-1.03-1.93-.15-.24-.28-.42-.37-.55-.09-.13-.14-.2-.13-.21,0,0,.06,.06,.16,.18,.1,.12,.24,.3,.4,.54,.32,.46,.72,1.14,1.06,1.93,.34,.79,.56,1.54,.67,2.09,.06,.28,.1,.5,.12,.66,.02,.16,.03,.24,.02,.24Z"/><path class="cls-13" d="M66.73,79.35s-.35-2.31-.71-5.18c-.36-2.86-.64-5.19-.61-5.19,.03,0,.35,2.31,.71,5.18,.36,2.86,.64,5.19,.61,5.19Z"/><path class="cls-13" d="M65.41,68.16s-.2-.06-.51-.21c-.3-.15-.71-.39-1.14-.68-.43-.3-.78-.61-1.03-.84-.25-.24-.38-.4-.37-.41,.01-.01,.17,.13,.42,.35,.26,.22,.62,.51,1.04,.81,.42,.3,.82,.54,1.11,.71,.29,.17,.48,.27,.47,.28Z"/><path class="cls-13" d="M84.72,70.13s0-.13,0-.36c0-.12,0-.26,.03-.42,.02-.16,.03-.35,.07-.56,.03-.21,.07-.43,.14-.67,.05-.24,.13-.49,.21-.75,.18-.52,.42-1.08,.73-1.64,.32-.55,.67-1.05,1.03-1.47,.18-.21,.35-.41,.53-.57,.17-.18,.34-.33,.5-.46,.15-.14,.31-.25,.44-.35,.13-.1,.25-.18,.35-.24,.2-.13,.31-.19,.31-.19,0,0-.1,.08-.29,.22-.1,.07-.21,.15-.34,.26-.13,.11-.28,.22-.43,.36-.15,.14-.32,.29-.49,.47-.18,.17-.34,.37-.52,.58-.35,.42-.7,.91-1.01,1.46-.31,.55-.54,1.11-.73,1.62-.08,.26-.17,.51-.22,.74-.07,.23-.11,.46-.15,.66-.05,.2-.06,.39-.09,.55-.03,.16-.04,.3-.05,.42-.02,.23-.03,.36-.04,.36Z"/><path class="cls-13" d="M81.75,82.3s-.04-.13-.02-.37c.02-.24,.14-.62,.53-.87h0c.63-.66,1.66-1.53,3.05-2.12l-.03,.04c.04-.38,.08-.78,.11-1.18,.14-1.74,.12-3.32,.06-4.47-.03-.57-.07-1.03-.09-1.35-.01-.15-.02-.27-.03-.37,0-.08,0-.13,0-.13,0,0,.01,.04,.02,.13,.01,.09,.03,.22,.05,.37,.04,.32,.09,.78,.12,1.35,.08,1.14,.11,2.73-.03,4.48-.03,.41-.07,.81-.12,1.19v.03s-.03,.01-.03,.01c-1.38,.58-2.41,1.43-3.05,2.08h0s0,0,0,0c-.18,.1-.31,.26-.4,.41-.08,.15-.12,.29-.13,.41-.03,.24,0,.37-.01,.37Z"/><path class="cls-13" d="M90.25,81.44s-.17-.28-.51-.69c-.34-.4-.88-.91-1.59-1.28-.36-.18-.71-.33-1.05-.41-.34-.09-.65-.12-.91-.12-.53,0-.85,.06-.86,.04,0,0,.08-.03,.23-.05,.15-.03,.36-.05,.63-.06,.27,0,.59,.02,.94,.1,.35,.08,.71,.22,1.08,.41,.73,.38,1.27,.91,1.6,1.33,.16,.21,.28,.39,.35,.53,.07,.13,.11,.21,.1,.21Z"/><path class="cls-13" d="M90.1,78.67s-.25-.09-.66-.2c-.2-.06-.45-.09-.73-.13-.28-.02-.59-.04-.91-.02-.65,.03-1.22,.14-1.64,.25-.41,.11-.66,.2-.67,.18,0,0,.06-.04,.17-.08,.11-.05,.27-.11,.48-.17,.41-.13,.99-.25,1.65-.28,.33-.01,.64,0,.92,.03,.28,.04,.54,.08,.74,.15,.1,.03,.2,.06,.28,.09,.08,.03,.15,.06,.2,.09,.11,.05,.17,.08,.16,.09Z"/><g><g><path class="cls-8" d="M84.46,46.61c-.59-2.52-1.66-5.1-3.75-6.64-1.86-1.37-4.58-1.89-6.89-1.71-1.13,.08-2.4,.65-3.37,1.24-1.33,.81-1.86,2.39-2.46,3.83-1.22,2.88-.93,6.71,0,7.75l12.05,5.87c2.06-1.16,4.3-2.72,4.78-5.04,.33-1.58,.02-3.73-.35-5.3Z"/><g><path class="cls-6" d="M79.89,42.13l-7.53-1.96c-2.41-.27-4.04,2.69-4.21,5.11-.19,2.69-.31,5.99,0,8,.61,4.04,3.71,5,3.71,5,0-.01,0,3.51,.02,4.71l3.51,10.7,4.99-10.7,.77-19.42c.02-.74-.53-1.37-1.26-1.45Z"/><path class="cls-14" d="M69.5,48.55c-.01,.27,.21,.51,.5,.53,.28,.02,.53-.19,.54-.46,.01-.27-.21-.51-.5-.53-.29-.02-.53,.19-.54,.46Z"/><path class="cls-14" d="M68.86,47.01c.06,.07,.46-.22,1.02-.21,.56,0,.96,.29,1.03,.22,.03-.03-.03-.15-.21-.28-.17-.13-.47-.26-.82-.26-.35,0-.64,.13-.81,.26-.17,.13-.23,.25-.2,.28Z"/><path class="cls-14" d="M74.56,48.55c-.01,.27,.21,.51,.5,.53,.28,.02,.53-.19,.54-.46,.01-.27-.21-.51-.5-.53-.29-.02-.53,.19-.54,.46Z"/><path class="cls-14" d="M74.34,47.15c.06,.07,.46-.22,1.02-.21,.56,0,.96,.29,1.03,.22,.03-.03-.03-.15-.21-.28-.17-.13-.47-.26-.82-.26-.35,0-.64,.13-.81,.26-.17,.13-.23,.25-.2,.28Z"/><path class="cls-14" d="M72.29,51.27s-.34-.09-.9-.17c-.14-.02-.28-.04-.3-.14-.03-.1,.03-.26,.1-.42,.14-.34,.28-.7,.43-1.08,.6-1.54,1.03-2.81,.96-2.83-.06-.02-.6,1.21-1.19,2.75-.14,.38-.28,.74-.41,1.09-.06,.16-.15,.34-.08,.56,.04,.11,.14,.18,.23,.21,.09,.03,.17,.03,.24,.04,.56,.03,.92,.04,.92,0Z"/><path class="cls-7" d="M71.85,58.32l.02,1.01c4.04,.41,5.4-2.41,5.4-2.41-2.7,1.6-5.42,1.41-5.42,1.41Z"/><path class="cls-7" d="M74.12,52.32c-.16-.26-.45-.4-.74-.41-.43-.02-.79,.13-1.07,.52-.1,.11-.09,.43-.05,.52,.04,.09,0,.05,.08,.11,.25,.22,.51,.44,.83,.52,.32,.08,.71-.02,.93-.33,.19-.28,.18-.67,.03-.93Z"/><path class="cls-14" d="M73.92,51.67c-.09,0-.1,.6-.62,1.03-.52,.43-1.16,.36-1.17,.44,0,.04,.14,.12,.42,.13,.27,.01,.66-.07,.98-.33,.32-.26,.46-.61,.48-.86,.02-.25-.04-.4-.08-.4Z"/><path class="cls-8" d="M74.09,45.36c.05,.15,.61,.08,1.26,.17,.66,.07,1.18,.27,1.27,.13,.04-.06-.05-.21-.26-.36-.21-.15-.55-.29-.94-.34-.39-.05-.75,.01-.99,.11-.24,.1-.36,.21-.34,.29Z"/><path class="cls-8" d="M69.07,45.08c.1,.13,.48,0,.94,0,.46-.02,.85,.09,.94-.04,.04-.06-.02-.19-.19-.31-.17-.12-.45-.22-.77-.21-.32,0-.59,.12-.75,.25-.16,.13-.22,.26-.18,.32Z"/><path class="cls-6" d="M80.07,48.5c.06-.03,2.25-.72,2.23,1.53-.02,2.26-2.28,1.77-2.28,1.71,0-.06,.05-3.24,.05-3.24Z"/><path class="cls-7" d="M80.71,50.89s.04,.03,.11,.06c.06,.03,.18,.05,.29,0,.24-.09,.44-.46,.46-.87,0-.21-.03-.4-.11-.56-.07-.17-.17-.28-.29-.3-.12-.03-.2,.04-.23,.11-.03,.06-.02,.11-.03,.11,0,0-.05-.04-.03-.13,0-.04,.04-.1,.09-.14,.05-.04,.13-.07,.22-.06,.17,.01,.33,.17,.41,.35,.09,.18,.14,.4,.13,.63-.02,.45-.25,.88-.58,.97-.16,.04-.29,0-.36-.06-.07-.06-.08-.11-.07-.11Z"/></g><path class="cls-14" d="M81.45,51.64s.1,.1,.08,.3c0,.1-.04,.23-.16,.32-.12,.09-.29,.09-.43,.03-.14-.05-.27-.17-.3-.31-.03-.14,0-.26,.06-.35,.11-.17,.25-.19,.25-.18,0,.02-.11,.06-.18,.22-.04,.08-.06,.18-.03,.28,.02,.1,.12,.19,.24,.23,.12,.05,.25,.04,.33-.01,.09-.05,.12-.16,.14-.24,.03-.17-.02-.28,0-.29Z"/><path class="cls-8" d="M67.97,45.93c.3-.65,.9-1.13,1.52-1.49,.63-.36,1.3-.62,1.93-.98,1.43-.83,2.53-2.21,3.03-3.79-1.11-.57-2.49-.51-3.61,.05-1.12,.55-1.98,1.56-2.5,2.7-.51,1.14-.7,2.4-.69,3.65"/><path class="cls-8" d="M80.58,41.53c-1.67-1.58-4.82-2.46-6.99-1.72,.32,1.9,1.76,4.03,3.02,5.49,1.27,1.47,2.03,4.03,4.79,3.16,.19-.06,.41,.11,.58,.01,.15-.09,.21-.26,.27-.42,.73-2.25,.05-4.89-1.66-6.52Z"/><path class="cls-8" d="M68.1,48.67s-.14,.04-.4-.02c-.25-.06-.6-.25-.87-.64-.27-.38-.39-.95-.34-1.56,.02-.3,.08-.62,.16-.94,.07-.32,.17-.65,.28-.98,.46-1.32,1.17-2.39,1.76-3.09,.29-.35,.56-.61,.74-.78,.09-.08,.16-.14,.22-.19,.05-.04,.08-.06,.08-.06,0,0-.09,.11-.27,.29-.17,.19-.43,.45-.71,.8-.57,.7-1.26,1.77-1.71,3.07-.11,.33-.21,.65-.28,.97-.08,.32-.14,.62-.16,.92-.06,.59,.05,1.14,.3,1.5,.25,.37,.57,.57,.81,.64,.24,.07,.38,.05,.38,.07Z"/></g><path class="cls-8" d="M87.22,41.78c0-1.06-.3-2.15-1.02-2.93-1-1.08-2.75-1.32-4.05-.63-1.3,.68-2.09,2.19-2,3.66,.09,1.47,1,2.83,2.27,3.57l.93-.11c.93,.49,2.16,.14,2.88-.63s.99-1.87,.99-2.93Z"/><path class="cls-4" d="M81.53,41.16s-.01,.03-.05,.08c-.04,.05-.08,.12-.16,.2-.14,.17-.37,.4-.68,.65-.32,.24-.73,.48-1.23,.66-.5,.18-1.08,.28-1.69,.25-.61-.04-1.18-.2-1.66-.43-.48-.23-.86-.51-1.15-.79-.29-.27-.49-.53-.61-.72-.06-.09-.1-.17-.13-.22-.03-.05-.04-.08-.04-.08,.02-.02,.25,.43,.83,.96,.29,.26,.67,.54,1.14,.76,.47,.22,1.02,.38,1.62,.41,.6,.03,1.17-.07,1.66-.23,.49-.17,.9-.4,1.22-.63,.64-.46,.91-.88,.93-.86Z"/><path class="cls-4" d="M82.61,44.23s-.02,.03-.08,.08c-.05,.04-.12,.12-.24,.2-.21,.17-.55,.37-1.01,.53-.45,.16-1.03,.25-1.67,.23-.64-.03-1.33-.19-2-.51-.66-.33-1.22-.76-1.67-1.21-.45-.45-.8-.9-1.07-1.3-.27-.4-.46-.73-.59-.97-.06-.12-.11-.21-.14-.28-.03-.06-.04-.1-.04-.1,0,0,.02,.03,.06,.09,.04,.07,.09,.16,.16,.27,.13,.23,.34,.56,.61,.95,.27,.39,.63,.83,1.08,1.27,.45,.44,1,.86,1.65,1.18,.65,.32,1.33,.48,1.95,.51,.62,.03,1.19-.05,1.64-.2,.45-.15,.79-.34,1.01-.49,.22-.15,.33-.25,.34-.24Z"/><path class="cls-4" d="M86.31,40.79s-.03,.05-.1,.14c-.07,.09-.17,.2-.32,.33-.14,.13-.33,.27-.55,.41-.22,.13-.48,.26-.76,.36-.28,.1-.56,.16-.81,.19-.26,.03-.49,.03-.68,.02-.19-.01-.35-.04-.45-.06-.11-.02-.16-.04-.16-.05,0-.02,.24,.03,.62,.04,.38,0,.91-.04,1.46-.23,.55-.19,1-.48,1.29-.72,.29-.24,.45-.42,.46-.41Z"/><path class="cls-4" d="M87.15,42.2s.03,.06,.03,.18c0,.12-.05,.3-.17,.47-.13,.18-.34,.33-.59,.45-.26,.12-.55,.21-.86,.29-.63,.14-1.22,.13-1.64,.07-.21-.03-.37-.07-.49-.1-.11-.03-.17-.06-.17-.06,0-.02,.25,.05,.67,.09,.41,.04,.99,.04,1.61-.1,.61-.14,1.17-.35,1.42-.68,.13-.16,.18-.32,.19-.43,.02-.11,0-.18,.01-.18Z"/></g><path class="cls-13" d="M82.05,83.43s-.04,0-.11,.01c-.07,0-.18,.01-.32,0-.28,0-.68-.03-1.18-.11-.98-.16-2.33-.62-3.54-1.57-1.21-.95-1.98-2.15-2.37-3.06-.2-.46-.32-.84-.39-1.12-.04-.13-.06-.24-.07-.31-.01-.07-.02-.11-.02-.11,0,0,.05,.15,.13,.41,.08,.27,.21,.65,.42,1.1,.41,.9,1.17,2.08,2.37,3.01,1.19,.94,2.52,1.4,3.49,1.58,.49,.09,.89,.13,1.16,.15,.28,.01,.43,.02,.43,.03Z"/><path class="cls-13" d="M72.55,82.78s-.03-.01-.09-.05c-.07-.04-.15-.09-.24-.16-.22-.15-.53-.35-.89-.59-.75-.5-1.8-1.18-3.04-1.78-1.24-.6-2.45-.94-3.34-1.07-.45-.07-.81-.09-1.06-.1-.25,0-.39,0-.39-.02,0,0,.03,0,.1-.01,.07,0,.16-.01,.29-.01,.25,0,.62,0,1.07,.06,.9,.11,2.12,.44,3.37,1.04,1.25,.6,2.29,1.3,3.03,1.81,.37,.26,.67,.47,.87,.62,.09,.07,.17,.13,.23,.17,.05,.04,.08,.06,.08,.07Z"/><polygon class="cls-6" points="82.76 82.25 68.91 82.95 69.98 87.03 88.44 87.12 82.76 82.25"/><g><g><path class="cls-6" d="M69.55,82.92s-4.48-2.24-5.03-2.26c-.42-.01-2.88,.4-4.01,.6-.43,.08-.77,.48-.69,.91,0,.03,.01,.05,.02,.08,.16,.45,.62,.48,.62,.48,0,0-.56,.26-.47,.9,.09,.64,.88,.66,.88,.66,0,0-.04,.04-.1,.12-.36,.49-.03,1.18,.57,1.22l.36,.03s-.44,.27-.37,.71c.14,.84,2.06,.71,2.06,.71l6.59-.05-.43-4.11Z"/><path class="cls-6" d="M60.79,80.2c.06,.27,.22,.86,.73,1.05l2.59-.5s-2.05-.37-2.37-.66c-.11-.1-.27-.23-.43-.31-.28-.14-.59,.12-.53,.42Z"/></g><path class="cls-7" d="M62.88,80.91s-.52,.18-1.18,.27c-.66,.09-1.19,.14-1.2,.1,0-.05,.52-.18,1.18-.27,.66-.09,1.19-.14,1.2-.1Z"/><path class="cls-7" d="M62.52,82.46s-.44,.2-1.01,.26c-.58,.07-1.05,.02-1.05-.02,0-.05,.46-.08,1.03-.15,.56-.06,1.02-.14,1.03-.09Z"/><path class="cls-7" d="M63.82,82.07s.01,.17-.12,.29c-.13,.12-.28,.13-.3,.08-.02-.05,.08-.12,.18-.21,.1-.09,.19-.18,.23-.16Z"/><path class="cls-7" d="M63.06,84.07s-.5,.14-1.12,.22c-.62,.07-1.13,.1-1.14,.05s.49-.14,1.12-.22c.62-.07,1.13-.1,1.14-.05Z"/><path class="cls-7" d="M64.44,83.15s.07,.04,.1,.14c.03,.1,.03,.25-.05,.4-.08,.14-.21,.23-.31,.25-.1,.03-.17,0-.17-.01,0-.05,.21-.11,.33-.32,.12-.21,.06-.44,.11-.45Z"/><path class="cls-7" d="M63.7,85.63s-.46,.1-1.02,.11c-.57,.02-1.02,0-1.03-.06,0-.05,.46-.1,1.02-.11,.57-.02,1.02,0,1.03,.06Z"/><path class="cls-7" d="M65.03,84.58s.06,.05,.07,.15c.01,.1-.01,.24-.09,.38-.16,.26-.36,.38-.39,.35-.04-.04,.11-.21,.24-.43,.13-.22,.12-.43,.16-.44Z"/></g></g><g><g><path class="cls-10" d="M51.87,84.81c-.91-.43-3.94-1.61-3.94-1.61l-1.48-10.15-6.04,.91s3.52,12.93,4.45,13.02c.94,.09,6.34,0,6.34,0l1.76-.03s-.45-1.84-1.08-2.15Z"/><path class="cls-16" d="M47.67,86.66s-.11,.07-.3,.11c-.2,.04-.48,.05-.78-.03-.3-.08-.54-.23-.69-.36-.15-.13-.22-.24-.21-.25,.01-.01,.1,.08,.25,.19,.15,.11,.39,.24,.67,.32,.28,.07,.55,.08,.74,.06,.19-.02,.31-.05,.31-.04Z"/><path class="cls-16" d="M51.15,86.94s-.14-.2-.37-.51c-.12-.15-.27-.33-.47-.48-.2-.15-.46-.26-.74-.36-.57-.19-1.05-.45-1.38-.65-.34-.2-.54-.34-.53-.35,0-.01,.22,.1,.56,.28,.34,.18,.82,.43,1.38,.62,.28,.1,.55,.21,.76,.38,.21,.17,.36,.35,.47,.52,.11,.16,.19,.3,.24,.4,.05,.1,.08,.15,.07,.16Z"/></g><g><path class="cls-1" d="M33.48,39.55l-2.24,1.54s-2.78-.17-4.8,.52c-1.12,.38-2.47,.84-3.94,2.33-1.34,1.36-2.31,3.04-2.81,4.88l-2.69,22.49-4.1,15.87h27.28v-20.08l2.61-9.21s-.68-1.06-.66-1.49c.02-.42,1.54-10.24,1.54-10.24l-3.11-3.72-7.1-2.89Z"/><path class="cls-1" d="M43.33,45.69s1.54,.72,1.92,3.42c.38,2.7,3.11,23.51,3.11,23.51,0,0-3.02,.7-5.78,1.02l-3.47,.59-.09-13.91,4.3-14.62Z"/><g class="cls-17"><path d="M22.58,86.55c4.64-5.56,5.37-13.62,10.06-19.13-.96,.54-1.92,1.08-2.87,1.61,.51-4.79,1-9.77-.6-14.31-.85,10.84-3.12,21.56-6.72,31.81"/></g><g><path class="cls-1" d="M30.01,46.12c-.1,8.58-.5,17.16-1.18,25.71-.03,.42-.21,1.24-.44,1.96-.21,.67-.88,1.08-1.57,.98l-5.6-.84c-.97-.16-1.34-.29-1.63-.92-.2-.43-.28-.91-.27-1.39,.22-7.66-.45-11.72,0-18.96"/><path class="cls-14" d="M19.33,52.66s0,.05,0,.15c0,.1-.01,.25-.02,.44-.02,.38-.05,.95-.07,1.68-.02,.73-.04,1.62-.04,2.66,0,1.04,.02,2.22,.05,3.53,.07,2.61,.21,5.73,.15,9.19,0,.43-.02,.87-.03,1.31-.01,.44,.06,.88,.23,1.29,.09,.2,.2,.4,.36,.54,.16,.15,.38,.23,.59,.29,.44,.12,.91,.17,1.37,.24,.93,.14,1.88,.28,2.84,.43,.48,.07,.96,.15,1.45,.22,.24,.03,.49,.08,.73,.1,.24,.01,.48-.03,.7-.14,.22-.11,.4-.27,.53-.47,.14-.2,.19-.43,.26-.67,.13-.47,.25-.95,.32-1.42,.09-.96,.15-1.92,.23-2.86,.14-1.88,.26-3.69,.36-5.41,.2-3.45,.34-6.56,.44-9.17,.1-2.61,.15-4.73,.18-6.19,.02-.73,.03-1.3,.04-1.68,0-.19,0-.34,.01-.44,0-.1,0-.15,0-.15,0,0,0,.05,0,.15,0,.1,0,.25,0,.44,0,.39,0,.95-.02,1.68-.02,1.46-.06,3.58-.15,6.19-.08,2.61-.22,5.73-.41,9.18-.1,1.73-.22,3.54-.35,5.41-.07,.94-.13,1.89-.22,2.86-.07,.49-.19,.96-.32,1.44-.07,.23-.13,.49-.28,.7-.14,.21-.34,.39-.57,.51-.23,.11-.49,.17-.75,.15-.26-.03-.49-.07-.74-.11-.49-.07-.97-.15-1.45-.22-.96-.15-1.91-.29-2.84-.43-.46-.07-.93-.13-1.38-.25-.22-.06-.45-.15-.63-.31-.18-.16-.3-.37-.39-.58-.18-.42-.25-.88-.24-1.33,.01-.44,.02-.88,.03-1.31,.06-3.46-.07-6.57-.13-9.18-.03-1.31-.04-2.49-.04-3.53,.01-1.04,.03-1.93,.06-2.66,.03-.73,.06-1.3,.09-1.68,.01-.19,.02-.34,.03-.44,0-.1,.01-.15,.01-.15Z"/></g><path class="cls-14" d="M40.19,74.72s0-.02,0-.06c0-.05,0-.11,0-.19,0-.17,.01-.42,.03-.73,.01-.63,.09-1.55,.22-2.68,.08-.56,.15-1.18,.28-1.83,.06-.33,.12-.67,.19-1.02,.07-.35,.15-.7,.23-1.07,.33-1.46,.75-3.06,1.14-4.74,.82-3.36,1.1-6.5,1.04-8.76-.02-.56-.04-1.08-.06-1.53-.02-.45-.07-.83-.09-1.15-.03-.31-.05-.55-.06-.73,0-.08,0-.14-.01-.19,0-.04,0-.06,0-.07,0,0,0,.02,.01,.06,0,.05,.01,.11,.02,.19,.02,.17,.05,.42,.08,.73,.03,.32,.08,.7,.11,1.15,.02,.45,.05,.96,.07,1.53,.08,2.27-.19,5.42-1.01,8.79-.39,1.69-.82,3.28-1.15,4.74-.08,.37-.16,.72-.23,1.07-.08,.35-.13,.69-.2,1.01-.13,.65-.21,1.27-.3,1.83-.14,1.12-.23,2.04-.26,2.67-.02,.31-.03,.55-.04,.73,0,.08-.01,.14-.01,.19,0,.04,0,.06,0,.06Z"/><path class="cls-14" d="M40,61.06s-.02,.03-.08,.09c-.06,.07-.14,.15-.24,.25-.21,.22-.52,.53-.91,.9-.78,.75-1.9,1.74-3.2,2.76-1.3,1.02-2.53,1.87-3.44,2.45-.46,.29-.83,.52-1.09,.67-.12,.07-.22,.13-.3,.17-.07,.04-.11,.06-.11,.05,0,0,.03-.03,.1-.07,.08-.05,.17-.11,.29-.19,.25-.16,.62-.4,1.07-.7,.9-.6,2.12-1.46,3.42-2.47,1.3-1.02,2.42-2,3.21-2.74,.4-.37,.72-.66,.93-.87,.1-.1,.19-.18,.25-.24,.06-.05,.09-.08,.09-.08Z"/><g class="cls-17"><path d="M43.25,56.7c-.67,6.18-2.87,12.93-3.06,16.83,.87-2.78,1.98-5.43,2.79-8.23s1.18-5.83,.27-8.6Z"/></g></g><g><path class="cls-14" d="M47.27,20.77c.46-.16,.83-.54,.98-1s.08-.99-.19-1.39c-.21-.31-.53-.54-.72-.87-.16-.27-.22-.59-.32-.88-.34-.95-1.19-1.67-2.16-1.93-.97-.27-2.03-.11-2.93,.34-.36,.18-.71,.41-1.1,.44-.39,.03-.76-.12-1.14-.19-.9-.17-1.88,.18-2.48,.88-.6,.7-.79,1.72-.48,2.58-1.04,.17-1.88,1.16-1.89,2.22,0,1.06,.82,2.05,1.86,2.24,.64,.12,1.3-.05,1.93-.2,2.57-.59,5.21-.89,7.85-.88"/><path class="cls-2" d="M33.95,34.68c-.97-1.61-1.35-3.57-1.05-5.42,.3-1.86,1.06-4.1,2.49-5.32-.62-1.02-.1-1.91,.67-2.82,.78-.91,1.93-1.41,3.08-1.72,1.72-.46,3.54-.56,5.29-.28,1.43,.23,3.28,.84,3.27,1.91-.01,1.11-.8,1.45-.8,1.45,0,0,1.33,.68,2.33,2.11,1.44,2.06,1.79,3.92,1.16,5.79-.62,1.87-1.33,3.28-2.73,4.27"/><g><path class="cls-13" d="M46.09,36.68c.22-.15,.52-.27,.81-.29l-.05-.02c.05,0,.1,0,.16,0,.2,0,.39,.05,.53,.2h0c.27,.18,.48,.46,.56,.78,.13,.56-.11,1.17-.55,1.53-.38,.32-.95,.45-1.39,.22-.41-.21-.63-.67-.66-1.13-.02-.5,.19-1.02,.61-1.3Z"/><g><path class="cls-10" d="M33.38,41.04l2.26-14.88c.14-.75,.83-1.26,1.58-1.19l8-.35c2.49,.25,3.49,3.58,3.13,6.05-.39,2.75-.97,6.09-1.71,8.05-1.49,3.94-4.72,3.81-4.72,3.81,0-.01-.6,2.82-.93,4.3l-1.65,5.84-5.96-11.62Z"/><g><g><g><path class="cls-14" d="M46.78,33.89c-.05,.28-.32,.47-.61,.42-.29-.04-.49-.3-.44-.58,.05-.28,.32-.47,.61-.42,.29,.04,.49,.3,.44,.58Z"/><path class="cls-14" d="M47.27,32.25c-.08,.05-.41-.32-.98-.43-.56-.12-1.03,.08-1.08,0-.02-.04,.07-.15,.27-.24,.2-.09,.53-.16,.88-.08,.35,.07,.62,.26,.76,.43,.15,.17,.18,.3,.14,.33Z"/></g><g><path class="cls-14" d="M41.49,32.92c-.05,.28-.32,.47-.61,.42-.29-.04-.49-.3-.44-.58,.05-.28,.32-.47,.61-.42,.29,.04,.49,.3,.44,.58Z"/><path class="cls-14" d="M41.73,31.21c-.08,.05-.41-.32-.98-.43-.56-.12-1.03,.08-1.08,0-.02-.04,.07-.15,.27-.24,.2-.09,.53-.16,.88-.08,.35,.07,.62,.26,.76,.43,.14,.17,.18,.3,.14,.33Z"/></g><path class="cls-14" d="M42.91,35.8s.37-.02,.95,.02c.15,.01,.29,.01,.33-.08,.06-.1,.03-.26,0-.45-.06-.38-.13-.77-.2-1.18-.27-1.68-.43-3.04-.36-3.05,.07-.01,.34,1.34,.61,3.02,.06,.41,.12,.81,.18,1.18,.02,.17,.08,.38-.04,.58-.06,.1-.18,.16-.28,.16-.1,0-.18,0-.25-.02-.58-.09-.93-.16-.93-.19Z"/><path class="cls-16" d="M41.92,42.53s-2.78-.39-5.15-2.58c0,0,.74,3.07,4.9,3.53l.25-.95Z"/><path class="cls-16" d="M42.55,37.12c-.19-.44-.59-.77-1.01-.84-.3-.05-.61,.03-.82,.25-.21,.22-.3,.6-.17,.91,.14,.35,.51,.53,.84,.52,.33-.01,.64-.17,.93-.34,.08-.05,.16-.09,.22-.17,.06-.08,.08-.2,.04-.29"/><path class="cls-14" d="M41.17,35.85c.09,.01-.03,.62,.4,1.16,.43,.54,1.1,.61,1.08,.69,0,.04-.17,.09-.45,.04-.27-.05-.65-.21-.91-.54-.26-.33-.33-.71-.3-.97,.03-.26,.13-.4,.17-.38Z"/></g><path class="cls-14" d="M42.27,29.73c-.09,.14-.63-.05-1.31-.1-.67-.07-1.25,.01-1.31-.14-.03-.07,.1-.2,.34-.3,.24-.1,.61-.17,1.02-.14,.4,.04,.75,.18,.97,.32,.22,.15,.32,.29,.28,.36Z"/><path class="cls-14" d="M47.4,30.58c-.13,.11-.48-.11-.95-.21-.46-.12-.88-.09-.94-.24-.03-.07,.06-.19,.26-.27,.19-.09,.5-.12,.82-.05,.32,.08,.57,.25,.71,.41,.14,.17,.16,.31,.11,.36Z"/></g></g><path class="cls-2" d="M45.52,25.89s-3.8-.87-7.61,2.82c-2.51,2.43-3.67,5.91-3.67,5.91l-.02-7.1,1.77-2.86,2.95-.93,5.06,.79,1.69,1.34"/><path class="cls-2" d="M37.97,24.65c6.39-.16,10.82,2.89,10.69,7.84l1.91-2.87-2.35-4.48-3.27-1.64-7.19-.43,.21,1.58Z"/><path class="cls-13" d="M33.4,33.98c.24-.16,.56-.29,.87-.32l-.06-.02c.06,0,.11,0,.17,.01,.22,0,.42,.06,.57,.21h0c.29,.19,.52,.49,.6,.84,.14,.6-.12,1.26-.59,1.65-.41,.34-1.02,.48-1.5,.24-.44-.22-.68-.73-.71-1.22-.03-.54,.2-1.1,.65-1.4Z"/></g><path class="cls-4" d="M35.3,32.12s-.1-.03-.25-.16c-.14-.13-.33-.35-.44-.68-.11-.32-.14-.77,.07-1.19,.1-.21,.22-.4,.31-.61,.09-.21,.09-.44-.03-.64-.12-.2-.33-.34-.51-.5-.19-.15-.36-.35-.46-.55-.22-.41-.25-.84-.21-1.18,.04-.34,.18-.6,.28-.75,.11-.16,.2-.22,.2-.22,.03,.02-.3,.32-.37,.98-.03,.32,.02,.72,.22,1.09,.1,.19,.25,.35,.43,.5,.18,.15,.4,.3,.55,.53,.16,.24,.14,.56,.04,.79-.09,.24-.23,.43-.32,.62-.19,.38-.18,.78-.09,1.09,.09,.31,.25,.53,.37,.66,.13,.13,.21,.19,.2,.2Z"/><path class="cls-4" d="M36.01,23.62s-.28,.3-.38,.91c-.05,.3-.04,.67,.1,1.04,.13,.38,.47,.68,.79,1.05,.16,.19,.3,.39,.37,.63,.07,.23,.05,.48-.01,.69-.12,.41-.33,.73-.36,1.03-.05,.3,.01,.55,.11,.68,.09,.14,.19,.17,.18,.19,0,0-.03,0-.07-.02-.04-.02-.11-.06-.17-.13-.12-.14-.21-.41-.17-.74,.03-.33,.23-.67,.33-1.06,.05-.19,.07-.4,0-.6-.06-.2-.19-.39-.34-.57-.3-.35-.66-.69-.8-1.11-.15-.41-.14-.81-.07-1.12,.07-.32,.2-.55,.31-.69,.11-.14,.19-.2,.19-.2Z"/><path class="cls-4" d="M39.67,27.42s-.06,.05-.17,0c-.05-.03-.11-.07-.15-.15-.04-.08-.05-.18-.04-.28,.03-.21,.19-.4,.25-.61,.06-.21-.09-.44-.3-.61-.22-.17-.45-.38-.56-.62-.11-.24-.15-.48-.14-.67,.02-.4,.18-.6,.19-.59,.03,.01-.08,.23-.07,.59,0,.18,.05,.39,.16,.6,.11,.22,.29,.38,.53,.56,.11,.09,.22,.21,.29,.34,.07,.13,.09,.3,.05,.44-.09,.27-.25,.43-.28,.6-.05,.17,.03,.29,.1,.35,.08,.05,.14,.04,.14,.05Z"/><path class="cls-4" d="M41.53,24.37s.04,0,.08,.05c.04,.05,.06,.15,.02,.25-.03,.11-.11,.2-.17,.29-.05,.09-.08,.21-.08,.34,0,.26,.13,.49,.22,.65,.09,.16,.15,.27,.13,.28-.02,.01-.11-.06-.23-.21-.11-.15-.28-.39-.29-.71,0-.16,.03-.31,.11-.43,.08-.11,.15-.19,.19-.26,.08-.15,0-.24,0-.26Z"/><path class="cls-4" d="M48.09,23.45s-.02,.06-.1,.15c-.07,.09-.2,.2-.32,.35-.13,.15-.2,.36-.18,.62,0,.25,.08,.56,.01,.89-.06,.32-.23,.6-.43,.8-.2,.2-.44,.31-.64,.37-.41,.11-.68,.02-.67,0,0-.03,.26,.02,.63-.12,.18-.07,.39-.18,.57-.37,.18-.18,.32-.44,.38-.72,.06-.29,0-.57,0-.85-.01-.28,.1-.55,.25-.7,.15-.16,.28-.25,.37-.32,.09-.07,.14-.11,.15-.1Z"/><path class="cls-4" d="M50.37,26.91s-.21,.08-.35,.37c-.07,.15-.19,.32-.28,.5-.1,.19-.2,.41-.37,.62-.35,.43-.89,.52-1.22,.46-.34-.05-.51-.21-.5-.22,.01-.03,.19,.08,.51,.1,.31,.02,.77-.08,1.07-.45,.15-.18,.25-.4,.36-.59,.11-.2,.23-.34,.32-.49,.09-.15,.22-.24,.3-.27,.09-.04,.14-.04,.15-.03Z"/><path class="cls-4" d="M50.05,31.09s-.02,.11-.13,.21c-.11,.11-.31,.22-.56,.23-.25,.01-.46-.08-.58-.18-.12-.1-.17-.19-.15-.2,.03-.04,.3,.23,.72,.21,.42-.02,.66-.31,.7-.28Z"/><path class="cls-4" d="M44.6,22.07s-.2,.09-.42,.32c-.22,.22-.45,.65-.35,1.13,.05,.23,.15,.49,.08,.74-.06,.24-.21,.41-.35,.52-.27,.22-.48,.27-.49,.26-.01-.02,.18-.12,.41-.35,.11-.11,.23-.27,.27-.46,.05-.19-.04-.41-.1-.67-.06-.27-.02-.54,.07-.75,.09-.22,.23-.38,.36-.5,.27-.23,.5-.25,.5-.23Z"/><path class="cls-4" d="M40.15,24.18s.16-.36,.26-.82c.11-.46,.07-.85,.12-.86,.04-.01,.16,.4,.05,.89-.11,.5-.39,.82-.43,.79Z"/><path class="cls-4" d="M37.41,23.19s.04-.04,.1-.11c.05-.07,.11-.2,.11-.36,0-.33-.23-.75-.4-1.26-.08-.26-.12-.52-.1-.77,.02-.24,.11-.45,.23-.6,.11-.15,.25-.22,.35-.25,.1-.02,.16,0,.16,.01,0,.01-.06,.02-.14,.05-.08,.04-.19,.12-.28,.26-.19,.27-.23,.75-.06,1.24,.16,.49,.4,.94,.36,1.32-.02,.19-.1,.33-.18,.4-.08,.07-.14,.07-.15,.06Z"/><path class="cls-4" d="M41.67,22.18s.04-.05,.11-.11c.07-.06,.21-.14,.24-.28,.03-.13-.06-.34-.17-.52-.12-.19-.28-.38-.45-.6-.15-.22-.31-.46-.29-.74,.03-.26,.17-.45,.28-.58,.24-.27,.42-.39,.43-.38,.02,.02-.13,.18-.34,.45-.1,.14-.21,.32-.22,.52-.01,.2,.13,.42,.28,.63,.31,.41,.68,.82,.59,1.26-.08,.2-.24,.25-.33,.3-.09,.04-.14,.06-.15,.05Z"/><path class="cls-4" d="M45.58,22.32s.19-.06,.3-.32c.06-.12,.08-.28,.04-.46-.03-.18-.11-.37-.19-.58-.08-.21-.14-.43-.13-.64,.01-.22,.13-.39,.23-.5,.21-.24,.44-.25,.43-.22,0,.02-.18,.06-.34,.29-.08,.11-.17,.26-.16,.43,0,.18,.05,.37,.13,.58,.08,.21,.16,.41,.18,.62,.03,.2,0,.4-.09,.54-.08,.14-.19,.22-.27,.25-.08,.03-.13,.02-.13,.01Z"/><path class="cls-14" d="M46.91,22.47s-.17-.02-.47-.08c-.3-.07-.73-.14-1.27-.22-1.08-.15-2.59-.22-4.23,.06-1.64,.28-3.06,.79-4.07,1.18-.48,.19-.89,.35-1.2,.48-.28,.11-.44,.17-.45,.16,0-.01,.14-.09,.42-.22,.27-.13,.68-.32,1.18-.53,1.01-.42,2.44-.96,4.09-1.24,1.66-.29,3.19-.19,4.27-.01,.54,.1,.97,.19,1.27,.28,.3,.08,.46,.13,.45,.14Z"/><path class="cls-14" d="M36.52,24.17s.02,0,.04,0c.03,0,.07-.01,.12-.02,.06-.01,.12-.03,.2-.04,.08-.01,.17-.03,.28-.04,.41-.06,1.02-.11,1.77-.05,.75,.06,1.63,.24,2.57,.56,.47,.16,.95,.36,1.45,.57,.49,.22,1,.46,1.5,.74,2.02,1.09,3.4,2.8,3.88,4.21,.25,.71,.31,1.32,.33,1.74,.01,.21,0,.37,0,.48,0,.05,0,.09,0,.13,0,.03,0,.04,0,.04,0,0,0-.01,0-.04,0-.03,0-.08,0-.13,0-.11,.02-.27,.01-.49-.01-.42-.06-1.04-.3-1.76-.47-1.44-1.85-3.18-3.89-4.28-.5-.28-1.01-.52-1.51-.74-.5-.22-.98-.41-1.46-.57-.95-.32-1.84-.49-2.59-.54-.75-.06-1.37,0-1.78,.08-.1,.02-.19,.04-.28,.05-.08,.02-.14,.04-.2,.05-.05,.01-.09,.02-.12,.03-.03,0-.04,.01-.04,.01Z"/><path class="cls-14" d="M44.46,25.88s-.05-.01-.13-.02c-.09-.01-.22-.02-.39-.03-.34,0-.83,.02-1.42,.16-1.17,.28-2.72,1.01-4.09,2.25-.69,.61-1.25,1.29-1.75,1.91-.5,.62-.91,1.21-1.23,1.72-.32,.51-.54,.95-.67,1.26-.07,.15-.11,.28-.14,.36-.03,.08-.04,.13-.04,.13,0,0,.02-.04,.06-.12,.03-.08,.09-.2,.16-.35,.14-.3,.37-.73,.7-1.23,.32-.5,.74-1.08,1.24-1.7,.5-.61,1.06-1.29,1.75-1.89,1.36-1.22,2.89-1.96,4.05-2.25,.58-.15,1.07-.19,1.4-.19,.17,0,.3,0,.39,.01,.09,0,.13,0,.14,0Z"/></g><g><path class="cls-10" d="M9.96,86.48s1.24-.41,2.04-.64c.44-.13,2.26-.93,3.37-1.14,.93-.17,3.49-1.48,3.89-1.75,.4-.27,1.97-9.02,1.97-9.02l5.92,.89s-3.16,8.44-3.36,9.25c-.2,.81-.95,2.89-.95,2.89H9.96v-.48Z"/><path class="cls-16" d="M20.34,86.76s.19-.03,.48-.16c.28-.12,.66-.36,.91-.76,.25-.4,.31-.84,.29-1.15-.02-.31-.09-.49-.07-.5,0,0,.03,.04,.06,.12,.03,.08,.07,.21,.08,.37,.04,.32,0,.79-.27,1.21-.27,.42-.67,.67-.97,.78-.15,.05-.28,.08-.37,.09-.09,0-.14,0-.14,0Z"/><path class="cls-16" d="M19.56,86.33s-.04,.02-.12,.05c-.08,.03-.2,.07-.37,.1-.33,.06-.8,.04-1.39,.03-.29,0-.61,.01-.93,.11-.33,.1-.65,.28-1.02,.4-.75,.25-1.67,.21-2.5-.19l-.13-.06,.14-.04s.08-.02,.12-.03c.43-.13,.84-.31,1.19-.54,.36-.23,.66-.51,.96-.77,.6-.54,1.27-.83,1.84-1.01,.57-.18,1.05-.27,1.38-.33,.16-.03,.28-.05,.38-.06,.09-.01,.13-.02,.13-.01,0,0-.04,.02-.13,.04-.1,.02-.22,.05-.38,.08-.33,.07-.8,.17-1.36,.36-.56,.19-1.22,.48-1.8,1.01-.29,.26-.6,.55-.97,.78-.36,.24-.78,.43-1.22,.56-.04,.01-.08,.02-.12,.03v-.1c.81,.39,1.71,.43,2.43,.19,.36-.12,.69-.3,1.03-.39,.34-.1,.67-.11,.96-.1,.59,.02,1.06,.05,1.38,0,.32-.04,.49-.12,.49-.11Z"/></g></g><polygon class="cls-14" points="107.03 71.47 103.59 79.44 100.4 89.7 131.34 89.85 130.82 70.41 115.61 68.86 107.03 71.47"/><g><path class="cls-11" d="M90.49,72.7s-2.49,.95-4.44,1.52c-1.95,.57-5.43,2.72-5.43,2.72,0,0-3.54,3.19-3.41,3.61s.55,.63,1.09,.19c.54-.43,3.19-2,3.19-2,0,0,.17,.89,.75,.99,.58,.1,.88-.04,.88-.04,0,0,.24,.83,.65,1.1,.41,.27,.8,.34,.8,.34,0,0-.02,.46,.55,.63,.56,.17,1.1,.13,1.1,.13,0,0,1.85-1.12,2.14-1.66,.29-.54,.65-1.27,.65-1.27l.76-.38,2.34-.4-1.61-5.49Z"/><path class="cls-15" d="M87.92,76.91s-.06,.11-.23,.28c-.16,.17-.44,.39-.82,.58-.39,.19-.89,.36-1.47,.42-.29,.03-.61,.03-.93-.04-.32-.06-.65-.18-.94-.39l.06-.08c.22,.17,.44,.35,.65,.55,.1,.1,.21,.22,.29,.34,.09,.13,.15,.28,.18,.44,.07,.38-.03,.78-.25,1.06l-.02,.03h-.04c-.37-.16-.7-.36-1-.57-.3-.21-.58-.42-.83-.63-.26-.21-.5-.4-.73-.59-.22-.21-.31-.51-.27-.76,.02-.13,.06-.24,.1-.34,.04-.1,.09-.2,.13-.28,.09-.17,.17-.32,.25-.43,.07-.11,.14-.2,.18-.26,.04-.06,.07-.08,.07-.08,0,0-.02,.03-.06,.09-.04,.06-.1,.15-.16,.26-.07,.12-.15,.26-.23,.44-.04,.09-.08,.18-.12,.28-.04,.1-.08,.21-.09,.33-.03,.23,.05,.51,.26,.7,.22,.18,.47,.37,.73,.58,.26,.2,.54,.41,.83,.62,.3,.2,.62,.4,.98,.54l-.06,.02c.2-.26,.3-.63,.23-.98-.03-.14-.08-.28-.16-.4-.08-.12-.18-.23-.28-.33-.2-.2-.42-.38-.64-.55l.06-.08c.28,.2,.59,.31,.9,.38,.31,.07,.62,.07,.9,.05,.57-.05,1.07-.2,1.45-.39,.38-.18,.66-.39,.83-.55,.17-.16,.24-.26,.25-.26Z"/><path class="cls-15" d="M84.59,79.52s.12-.05,.3-.12c.18-.08,.44-.19,.66-.39,.11-.1,.18-.22,.21-.34,.02-.12,0-.23-.05-.31-.09-.17-.23-.18-.23-.2,0,0,.03-.01,.09,0,.06,.02,.14,.07,.2,.16,.06,.09,.1,.22,.08,.37-.03,.15-.11,.29-.23,.4-.24,.22-.51,.32-.71,.38-.2,.06-.33,.06-.33,.05Z"/><path class="cls-15" d="M85.11,80.94s.17-.11,.45-.29c.14-.09,.3-.2,.47-.33,.17-.13,.37-.27,.53-.46,.08-.09,.14-.19,.16-.3,.02-.11,0-.21-.04-.3-.09-.18-.26-.29-.41-.34-.15-.05-.29-.05-.38-.05-.09,0-.14,0-.14,0,0,0,.05-.03,.14-.04,.09-.01,.23-.03,.4,.01,.17,.04,.37,.15,.47,.37,.05,.1,.08,.24,.05,.37-.03,.13-.1,.25-.18,.35-.17,.2-.38,.34-.55,.47-.18,.13-.35,.23-.49,.32-.29,.16-.48,.24-.49,.23Z"/><path class="cls-15" d="M87.57,80.78s.06-.1,.09-.27c.03-.17-.02-.43-.22-.6-.21-.16-.48-.13-.63-.06-.16,.07-.23,.17-.24,.16,0,0,.04-.12,.21-.22,.16-.1,.47-.15,.73,.04,.25,.2,.28,.51,.23,.69-.05,.19-.16,.27-.16,.26Z"/></g><path class="cls-11" d="M102.92,83.45l-.65,.96h-4.86s-6.18,2.48-6.18,2.48h15.97c.13-.17,.55-.81,.55-.81-1.12-.61-4.83-2.64-4.83-2.64Z"/><g><path class="cls-13" d="M125.05,53.9c-3.49-5.64-10.98-12.54-11.62-12.86-.64-.32-10.88-.96-10.88-.96l-8.09,5.74-2.69,4.02c-.37,1.14-1.01,2.9-.72,4.07l.25,1.98,8.44,5.45,4.2,2.45,2.34,3.32-.19,5.54,3.31-.63s5.09,.5,9.97,.62c4.88,.12,11.6-1.43,11.6-1.43,0,0-2.03-11-5.92-17.3Z"/><path class="cls-13" d="M105.58,49.8l2.87,15.89-5.94,17.53,5.94,3.24s4.24-7.47,6.15-11.99c1.91-4.52,2.61-7.04,2.61-7.04,0,0,0-17.18-.62-19.16-.61-1.98-2.63-5.91-4.75-5.69-2.12,.21-7.13,2.39-6.26,7.21Z"/><path class="cls-13" d="M91.3,55.88l5.12,12.54s-.43,.66-.62,1.47l-6.38,3.16,1.87,6.04s7.97-2.65,9.09-3.26c1.13-.61,4.38-2.93,4.95-4.81s-2.56-8.54-2.56-8.54l-11.48-6.6Z"/><path class="cls-14" d="M103.94,63.78s-.04-.02-.11-.05c-.08-.04-.18-.1-.3-.17-.26-.15-.64-.37-1.1-.65-.46-.28-1.01-.62-1.6-1.02-.29-.2-.6-.42-.9-.67-.3-.25-.61-.5-.92-.77-1.26-1.05-2.39-2.01-3.23-2.71-.4-.34-.73-.62-.97-.83-.11-.09-.19-.17-.26-.23-.06-.05-.09-.08-.09-.09,0,0,.04,.02,.1,.07,.07,.06,.16,.13,.27,.21,.25,.2,.58,.47,.99,.8,.84,.69,1.99,1.64,3.25,2.68,.32,.26,.62,.52,.92,.77,.3,.24,.6,.46,.89,.67,.58,.41,1.12,.75,1.58,1.04,.45,.28,.81,.51,1.08,.68,.12,.08,.22,.14,.29,.19,.07,.04,.1,.07,.1,.07Z"/><path class="cls-14" d="M104.54,40.81s.18,.18,.39,.59c.21,.4,.44,1.05,.46,1.87,0,.41-.04,.86-.16,1.33-.13,.47-.32,.95-.6,1.41-.55,.93-1.42,1.8-2.47,2.47-1.05,.67-2.22,1.07-3.3,1.1-1.09,.04-2.05-.34-2.71-.82-.67-.48-1.04-1.07-1.22-1.48-.05-.1-.08-.2-.11-.28-.03-.08-.05-.16-.06-.21-.01-.05-.02-.1-.03-.13,0-.03,0-.05,0-.05,.02,0,.05,.25,.24,.66,.19,.41,.56,.97,1.22,1.44,.65,.47,1.59,.83,2.66,.78,1.07-.03,2.21-.42,3.25-1.09,1.04-.67,1.89-1.52,2.44-2.43,.28-.46,.48-.93,.6-1.38,.12-.46,.17-.9,.17-1.3,0-.81-.22-1.45-.42-1.85-.05-.1-.09-.19-.14-.27-.04-.08-.08-.14-.12-.19-.03-.05-.05-.08-.07-.11-.02-.03-.02-.04-.02-.04Z"/><path class="cls-14" d="M102.33,48.14s-.18-.32-.43-.68c-.25-.36-.5-.62-.48-.64,.02-.02,.31,.21,.57,.58,.26,.37,.36,.73,.34,.74Z"/><path class="cls-14" d="M104.26,46.33s-.27-.28-.68-.5c-.41-.22-.8-.24-.8-.28,0-.03,.41-.05,.84,.18,.44,.23,.66,.58,.63,.59Z"/><path class="cls-14" d="M105.32,44.18s-.31-.06-.68-.11c-.38-.05-.69-.05-.69-.08,0-.03,.31-.08,.7-.03,.39,.05,.68,.19,.67,.22Z"/><path class="cls-14" d="M105.14,41.67s-.28,.07-.61,.17c-.34,.09-.6,.21-.61,.18-.01-.02,.24-.18,.58-.28,.35-.1,.64-.1,.64-.07Z"/><path class="cls-14" d="M99.06,49.36s-.16-.27-.16-.65c0-.38,.14-.66,.16-.65,.03,.01-.06,.29-.06,.65,0,.36,.08,.64,.05,.65Z"/><path class="cls-14" d="M95.79,48.72s.11-.21,.29-.42c.18-.21,.35-.37,.37-.35,.02,.02-.11,.21-.29,.42-.18,.21-.35,.37-.37,.35Z"/><path class="cls-14" d="M116.59,48.28s0,.03,.02,.09c.01,.06,.04,.14,.06,.26,.05,.23,.09,.57,.13,1.01,.08,.89,.16,2.21,.22,3.88,.13,3.35,.21,8.15,.23,13.92h0s0,.01,0,.01c-.43,1.45-.97,2.95-1.56,4.48-.6,1.53-1.25,3.12-2.01,4.71-1.52,3.18-3.29,6.48-5.18,9.85l-.03,.05-.05-.03c-.17-.09-.36-.2-.55-.3-1.84-1-3.64-1.99-5.39-2.94l-.04-.02v-.04c2.24-6.56,4.28-12.56,5.97-17.53v.02c-.87-4.85-1.58-8.82-2.07-11.59-.24-1.38-.43-2.46-.56-3.19-.06-.36-.11-.64-.14-.84-.03-.19-.05-.29-.05-.29,0,0,.02,.1,.06,.28,.04,.19,.09,.47,.16,.83,.13,.73,.33,1.81,.59,3.19,.5,2.76,1.22,6.73,2.11,11.58h0s0,.02,0,.02c-1.68,4.97-3.71,10.97-5.93,17.54l-.02-.06c1.75,.96,3.56,1.94,5.39,2.94,.19,.1,.38,.21,.55,.3l-.07,.02c1.89-3.37,3.66-6.66,5.18-9.84,.77-1.59,1.41-3.17,2.01-4.7,.6-1.53,1.14-3.02,1.57-4.47h0c0-5.76-.08-10.56-.19-13.91-.06-1.67-.12-2.99-.2-3.88-.04-.45-.08-.79-.12-1.01-.02-.11-.04-.2-.05-.26-.01-.06-.02-.09-.02-.09Z"/><path class="cls-14" d="M112.73,43.96s-.35-.21-.96-.41c-.61-.2-1.51-.35-2.48-.15-.97,.2-1.74,.69-2.22,1.11-.49,.43-.71,.77-.72,.75,0,0,.05-.09,.15-.24,.11-.15,.28-.35,.52-.57,.47-.45,1.26-.96,2.25-1.16,.99-.2,1.91-.04,2.52,.18,.31,.11,.55,.23,.7,.32,.16,.09,.24,.15,.24,.16Z"/><g class="cls-18"><path d="M115.14,73.22c.03-.08,.06-.17,.1-.25-.02,.01-.03,.02-.05,.04l-.04,.22Z"/><path d="M118.34,62.05c-.26-2.6-.59-5.21-1.27-7.74-.57,4.39,.55,8.89-.2,13.25-.32,1.86-.97,3.64-1.64,5.41,1.66-1.08,2.66-2.98,3.06-4.93,.4-1.97,.25-4,.06-6Z"/></g><g class="cls-18"><path d="M103.26,63.37l-7.05-5.32c.08,1.98,1.59,3.61,3.15,4.83,1.57,1.22,3.7,2.62,5.19,3.93-.49-1.1-.8-2.35-1.29-3.44Z"/></g><path class="cls-4" d="M106.36,53.64s-.04,.05-.11,.13c-.08,.09-.19,.21-.35,.37-.31,.31-.76,.77-1.42,1.2-.33,.21-.72,.41-1.17,.53-.45,.11-.97,.13-1.48,0-.51-.13-1-.39-1.48-.69-.48-.29-.96-.64-1.48-.91-.52-.27-1.08-.47-1.63-.49-.56-.02-1.07,.19-1.49,.49-.42,.29-.77,.65-1.11,.95-.34,.31-.69,.58-1.04,.75-.35,.18-.72,.25-1.04,.22-.32-.03-.58-.13-.76-.25-.19-.12-.29-.27-.35-.37-.06-.1-.07-.16-.07-.16,0,0,.03,.05,.09,.15,.06,.1,.17,.23,.35,.34,.18,.12,.44,.21,.74,.23,.31,.02,.66-.05,1-.22,.35-.17,.68-.44,1.02-.75,.34-.31,.68-.67,1.11-.97,.21-.15,.45-.29,.71-.38,.26-.09,.55-.14,.83-.13,.58,.01,1.15,.22,1.68,.5,.53,.28,1.01,.62,1.49,.92,.48,.3,.96,.55,1.45,.68,.25,.06,.49,.1,.74,.1,.24,0,.47-.03,.7-.08,.44-.11,.83-.3,1.15-.51,.66-.42,1.11-.87,1.43-1.17,.15-.15,.27-.27,.36-.35,.08-.08,.13-.12,.13-.12Z"/><path class="cls-4" d="M116.66,52.41s-.03,.03-.08,.08c-.06,.05-.15,.11-.29,.17-.27,.12-.71,.18-1.22,.04-1.06-.24-1.99-1.54-3.57-1.83-.38-.1-.76-.13-1.13-.14-.37,0-.73,.02-1.06,.08-.67,.11-1.25,.33-1.7,.57-.92,.48-1.32,1.01-1.34,.99,0,0,.02-.03,.07-.09,.06-.06,.14-.14,.23-.24,.11-.09,.24-.22,.41-.34,.09-.06,.18-.12,.27-.19,.1-.07,.21-.12,.32-.19,.46-.25,1.04-.48,1.72-.6,.34-.07,.7-.09,1.08-.09,.38,.02,.77,.05,1.15,.14,.39,.08,.76,.23,1.1,.38,.16,.09,.33,.18,.48,.27,.15,.1,.3,.2,.44,.3,.55,.4,1.06,.77,1.55,.9,.49,.14,.92,.1,1.19,0,.27-.1,.38-.22,.39-.21Z"/><path class="cls-4" d="M121.93,49.57s-.09,.05-.24,.17c-.15,.12-.34,.32-.5,.61-.16,.3-.29,.68-.38,1.12-.1,.44-.18,.94-.39,1.43-.21,.49-.58,.88-.98,1.12-.39,.25-.81,.35-1.15,.39-.35,.03-.63-.01-.82-.06-.09-.02-.16-.05-.21-.07-.05-.02-.07-.03-.07-.03,0,0,.1,.03,.29,.06,.19,.04,.46,.07,.8,.03,.33-.05,.73-.16,1.11-.4,.38-.23,.73-.6,.93-1.07,.21-.47,.28-.97,.39-1.41,.1-.44,.24-.84,.41-1.14,.17-.3,.38-.5,.54-.61,.08-.05,.15-.09,.19-.11,.05-.02,.07-.03,.07-.03Z"/><path class="cls-4" d="M98.18,59.61s0,.08-.04,.22c-.02,.07-.04,.15-.07,.25-.04,.09-.07,.21-.12,.32-.05,.12-.11,.24-.19,.37-.07,.13-.16,.26-.26,.4-.2,.27-.45,.55-.75,.8-.3,.25-.62,.44-.92,.59-.31,.14-.59,.24-.84,.29-.12,.03-.24,.04-.34,.06-.1,.02-.19,.02-.26,.02-.14,0-.22,0-.22,0,0-.02,.31-.02,.8-.15,.24-.06,.52-.16,.82-.3,.29-.15,.6-.34,.89-.58,.29-.24,.53-.51,.73-.77,.1-.13,.19-.26,.26-.39,.08-.12,.14-.25,.19-.36,.22-.45,.28-.76,.3-.75Z"/></g><path class="cls-13" d="M130.05,76.4s-.12,.03-.33,.06c-.11,.02-.24,.03-.39,.04-.15,0-.33,.03-.53,.02-.19,0-.41,0-.64-.03-.23-.01-.47-.06-.73-.1-.51-.1-1.05-.25-1.61-.48-.55-.23-1.05-.51-1.47-.8-.21-.15-.41-.29-.58-.44-.18-.14-.33-.29-.47-.43-.14-.13-.26-.27-.36-.38-.11-.11-.19-.22-.25-.31-.13-.17-.2-.27-.19-.28s.09,.09,.23,.25c.07,.08,.15,.18,.26,.29,.11,.11,.22,.24,.37,.37,.14,.13,.3,.28,.48,.41,.17,.15,.37,.28,.58,.43,.43,.28,.92,.55,1.46,.78,.55,.22,1.09,.38,1.58,.48,.25,.04,.49,.09,.72,.11,.23,.03,.44,.04,.63,.04,.19,.01,.37,0,.52,0,.15,0,.29-.01,.39-.02,.22-.02,.34-.03,.34-.02Z"/><path class="cls-13" d="M113.78,86.65s.41-2.02,.97-4.49c.56-2.48,1.05-4.48,1.07-4.47,.03,0-.41,2.02-.97,4.49-.56,2.47-1.05,4.48-1.07,4.47Z"/><g><g><g><path class="cls-11" d="M104.09,43.17h0c.03-.39-.04-.78-.21-1.14l-6.16-13.48c-1.44-3.87-4.88-6.26-8.71-4.72l-.35,.16c-3.48,1.64-5.11,5.68-3.75,9.28,1.26,3.35,2.7,7.03,3.54,8.75,1.74,3.56,5.58,2.43,5.58,2.43l.72,1.37s.75,2.58,3.96,2.22c2.47-.28,4.3-2.68,5.01-3.77,.22-.33,.34-.71,.37-1.1Z"/><path class="cls-15" d="M94,44.46s2.35-.94,4.04-3.59c0,0,.11,3.1-3.61,4.46l-.43-.87Z"/><path class="cls-14" d="M87.21,35.97c.12,.27,.45,.4,.74,.28,.29-.12,.43-.44,.31-.71-.12-.27-.45-.4-.74-.28-.29,.12-.43,.44-.31,.71Z"/><path class="cls-14" d="M86.51,34.66c.09,.04,.35-.43,.9-.69,.55-.27,1.08-.17,1.11-.27,.02-.04-.11-.13-.34-.18-.23-.05-.59-.03-.93,.13-.34,.16-.57,.43-.68,.63-.11,.21-.11,.36-.06,.37Z"/><path class="cls-14" d="M92.27,33.63c.12,.27,.45,.4,.74,.28,.29-.12,.43-.44,.31-.71-.12-.27-.45-.4-.74-.28-.29,.12-.43,.44-.31,.71Z"/><path class="cls-14" d="M91.97,32.21c.1,.04,.35-.43,.9-.69,.55-.27,1.08-.17,1.11-.27,.02-.04-.11-.13-.34-.18-.23-.05-.59-.03-.93,.13-.34,.16-.57,.43-.68,.63-.11,.21-.11,.36-.06,.37Z"/><path class="cls-14" d="M91.9,37.24s-.38,.07-.97,.26c-.15,.05-.29,.09-.36,0-.08-.09-.09-.27-.1-.46-.03-.4-.06-.82-.09-1.27-.14-1.8-.32-3.25-.39-3.24-.07,0-.02,1.47,.13,3.26,.04,.44,.07,.86,.11,1.26,.02,.18,.02,.41,.19,.59,.09,.09,.23,.11,.33,.1,.1-.02,.18-.05,.25-.08,.57-.23,.92-.39,.91-.43Z"/><path class="cls-14" d="M93.7,36.85c-.09,.04,.19,.64-.12,1.3-.31,.67-.98,.9-.94,.99,0,.04,.2,.05,.47-.07,.27-.12,.61-.38,.8-.79,.19-.41,.16-.82,.06-1.07-.1-.26-.23-.38-.27-.35Z"/><path class="cls-14" d="M90.81,30.12c.12,.12,.64-.21,1.32-.43,.68-.24,1.29-.3,1.31-.47,0-.08-.15-.18-.43-.23-.28-.05-.67-.03-1.08,.11-.41,.14-.73,.37-.92,.58-.19,.21-.26,.38-.2,.44Z"/><path class="cls-14" d="M85.96,32.97c.16,.08,.47-.23,.93-.45,.45-.24,.88-.31,.91-.49,0-.08-.11-.18-.34-.22-.22-.04-.55,0-.85,.15-.31,.16-.53,.4-.62,.6-.1,.2-.09,.36-.02,.4Z"/><path class="cls-14" d="M84.49,31.47s-.11-2.69,.72-3.72c1.01-1.25,2.25-.08,3.34-1.02,1.08-.94,2.05-2.14,3.78-1.77,1.89,.4,1.59,1.45,2.43,2.99,3.39,6.28,5.43,7.54,4.33,4.35-.12-.35,.68-1.05,.15-2.52-.68-1.91-1.66-4.15-2.67-5.25-.86-.93-1.83-1.39-3.34-1.69-2.38-.48-4.81,.63-6.37,1.57-1.56,.94-3.83,4.32-2.36,7.06Z"/><path class="cls-11" d="M98.8,32.31c-.24-.56,.03-1.22,.61-1.43,.7-.25,1.62-.22,2.23,1.18,1.08,2.49-1.64,3.06-1.68,2.99-.02-.05-.72-1.69-1.16-2.73Z"/><path class="cls-15" d="M100.1,33.87s.06,.01,.14,.01c.09,0,.22-.03,.33-.13,.22-.21,.26-.72,.08-1.18-.09-.23-.23-.42-.39-.57-.15-.15-.33-.22-.47-.19-.14,.03-.2,.15-.2,.23,0,.08,.03,.13,.02,.14,0,0-.07-.02-.1-.13-.01-.05,0-.13,.03-.2,.04-.07,.12-.14,.21-.17,.2-.07,.45,.03,.62,.19,.18,.15,.35,.37,.45,.63,.2,.51,.15,1.09-.17,1.35-.16,.12-.32,.13-.42,.11-.1-.03-.14-.08-.13-.09Z"/></g><path class="cls-14" d="M96.51,27.59c-.22,.37-.45,.75-.81,.97-.37,.22-.91,.21-1.15-.14-.11-.16-.16-.37-.34-.45-.21-.09-.43,.07-.63,.19-.68,.41-1.64,.25-2.15-.35-.05,.36-.48,.55-.84,.5-.36-.05-.67-.25-1-.4-.33-.14-.74-.22-1.04-.02-.17,.11-.29,.3-.48,.37-.34,.12-.67-.18-.87-.48-.2-.3-.41-.65-.77-.7-.33-.04-.61,.21-.89,.39-.28,.18-.69,.29-.9,.04-.11-.13-.12-.32-.1-.5,.1-.78,.8-1.44,1.59-1.48-.14-.92,.32-1.91,1.11-2.39,.8-.48,1.89-.44,2.64,.11,.3-.71,.95-1.27,1.71-1.43,.75-.17,1.58,.06,2.15,.58,.52-.44,1.31-.53,1.92-.22,.61,.31,1,1,.95,1.68,.56,.04,1.14,.3,1.39,.81,.25,.5,0,1.24-.56,1.34,.38,.3,.48,.91,.2,1.31-.28,.4-.88,.53-1.3,.27"/><path class="cls-13" d="M86.3,26.33s0,.02,.02,.04c.02,.03,.04,.07,.08,.12,.08,.1,.2,.25,.4,.39,.2,.14,.47,.27,.82,.32,.34,.05,.75,.02,1.14-.19l-.07-.03c.02,.25,.16,.49,.37,.65,.2,.17,.45,.29,.7,.4,.13,.05,.25,.12,.41,.15,.15,.03,.31,0,.46-.04,.29-.1,.56-.33,.65-.65l-.1,.02c.29,.46,.8,.81,1.38,.9,.31,.06,.65,.03,.93-.12,.28-.14,.51-.34,.71-.55h-.08c.28,.24,.6,.41,.94,.48,.33,.08,.71,.04,.96-.17,.52-.4,.68-1.06,.54-1.55l-.04,.05c.36,.02,.68-.11,.9-.27,.23-.16,.37-.37,.46-.54,.09-.18,.12-.33,.13-.43,0-.1,0-.16,0-.16-.02,0,0,.22-.17,.56-.09,.16-.24,.35-.46,.51-.22,.15-.52,.27-.86,.24h-.06s.01,.05,.01,.05c.12,.46-.04,1.08-.52,1.44-.23,.19-.56,.22-.88,.15-.31-.07-.63-.23-.88-.46l-.04-.04-.04,.04c-.2,.2-.42,.4-.68,.52-.26,.13-.56,.16-.86,.11-.55-.08-1.02-.42-1.3-.85l-.07-.11-.03,.13c-.08,.28-.32,.49-.58,.58-.13,.04-.27,.06-.4,.04-.13-.02-.25-.09-.38-.14-.25-.11-.49-.22-.68-.38-.19-.15-.32-.37-.34-.59v-.07s-.07,.03-.07,.03c-.36,.2-.76,.24-1.08,.19-.33-.04-.6-.17-.8-.29-.4-.26-.51-.53-.53-.51Z"/></g><path class="cls-14" d="M89.75,35.4s-.02-.24-.15-.64c-.13-.39-.44-.96-1.08-1.38-.31-.2-.7-.36-1.14-.41-.44-.04-.92,0-1.37,.22-.23,.1-.44,.24-.64,.4-.2,.17-.37,.37-.51,.6-.29,.45-.43,1.01-.4,1.58,.05,.57,.27,1.1,.62,1.51,.17,.21,.37,.38,.59,.52,.22,.14,.45,.25,.69,.31,.47,.14,.96,.12,1.39,.02,.43-.11,.79-.32,1.07-.57,.57-.5,.8-1.11,.87-1.51,.07-.42,.04-.65,.06-.65,0,0,0,.06,.01,.17,0,.06,0,.13,0,.21,0,.08,0,.18-.03,.28-.06,.42-.28,1.04-.86,1.56-.29,.25-.66,.48-1.1,.59-.44,.11-.94,.14-1.43-.01-.25-.07-.49-.17-.72-.32-.23-.14-.44-.32-.62-.54-.37-.42-.6-.98-.65-1.57-.04-.59,.11-1.18,.42-1.65,.15-.24,.33-.45,.53-.62,.2-.17,.43-.32,.66-.42,.47-.21,.97-.26,1.42-.21,.45,.05,.85,.22,1.17,.43,.65,.43,.95,1.02,1.07,1.42,.04,.1,.05,.19,.07,.28,.02,.08,.03,.15,.03,.21,.01,.11,.01,.17,.01,.17Z"/><path class="cls-14" d="M96.06,32.4s-.02-.24-.15-.64c-.13-.39-.44-.96-1.08-1.38-.31-.2-.7-.36-1.14-.41-.44-.04-.92,0-1.37,.22-.23,.1-.44,.24-.64,.4-.2,.17-.37,.37-.51,.6-.29,.45-.43,1.01-.4,1.58,.05,.57,.27,1.1,.62,1.51,.17,.21,.37,.38,.59,.52,.22,.14,.45,.25,.69,.31,.47,.14,.96,.12,1.39,.02,.43-.11,.79-.32,1.07-.57,.57-.5,.8-1.11,.87-1.51,.07-.42,.04-.65,.06-.65,0,0,0,.06,.01,.17,0,.06,0,.13,0,.21,0,.08,0,.18-.03,.28-.06,.42-.28,1.04-.86,1.56-.29,.25-.66,.48-1.1,.59-.44,.11-.94,.14-1.43-.01-.25-.07-.49-.17-.72-.32-.23-.14-.44-.32-.62-.54-.37-.42-.6-.98-.65-1.57-.04-.59,.11-1.18,.42-1.65,.15-.24,.33-.45,.53-.62,.2-.17,.43-.32,.66-.42,.47-.21,.97-.26,1.42-.21,.45,.05,.85,.22,1.17,.43,.65,.43,.95,1.02,1.07,1.42,.04,.1,.05,.19,.07,.28,.02,.08,.03,.15,.03,.21,.01,.11,.01,.17,.01,.17Z"/><path class="cls-14" d="M90.77,33.37s-.4-.03-.83,.18c-.43,.2-.63,.56-.66,.54-.01,0,.02-.1,.12-.23,.1-.13,.27-.29,.49-.4,.23-.11,.46-.14,.62-.14,.16,0,.26,.04,.26,.05Z"/><path class="cls-14" d="M98.67,31.57s-.62,.07-1.39,.09c-.77,.02-1.39,.01-1.39-.02,0-.03,.62-.07,1.39-.09,.77-.02,1.39-.01,1.39,.02Z"/></g><g><path class="cls-12" d="M77.38,85.67h12.26c.34,0,.61,.27,.61,.61h0c0,.34-.27,.61-.61,.61h-12.26c-.34,0-.61-.27-.61-.61h0c0-.34,.27-.61,.61-.61Z"/><path class="cls-12" d="M79.34,86.89h-23.2l-2.29-15.67c-.12-.81,.5-1.54,1.32-1.54l20.37,.17c.66,0,1.29,.32,1.39,.97l2.41,16.07Z"/><path class="cls-4" d="M67.49,78.1c0,.7-.57,1.28-1.28,1.28s-1.28-.57-1.28-1.28,.57-1.28,1.28-1.28,1.28,.57,1.28,1.28Z"/><path class="cls-14" d="M78.33,86.76s-.68-3.77-1.45-8.44c-.77-4.67-1.37-8.45-1.34-8.46,.03,0,.68,3.77,1.45,8.44,.77,4.67,1.37,8.45,1.34,8.46Z"/></g><g><rect class="cls-13" x="1.65" y="86.89" width="136.65" height="3.36"/><path class="cls-14" d="M30.6,86.94s-.01,.01-.04,.04c-.03,.02-.08,.06-.14,.1-.14,.08-.35,.2-.69,.31-.33,.11-.78,.2-1.32,.25-.54,.05-1.16,.06-1.84,.05-.68-.01-1.43-.07-2.22-.14-.79-.07-1.63-.15-2.52-.17-1.79-.04-3.74,.23-5.68,.62-1.95,.39-3.77,.84-5.51,1.11-.87,.14-1.71,.23-2.51,.28-.8,.05-1.55,.04-2.23,0-1.37-.08-2.41-.33-3.06-.55-.66-.22-.95-.4-.95-.4,0,0,.02,0,.07,.02,.05,.02,.11,.05,.18,.08,.16,.07,.4,.16,.73,.27,.66,.21,1.69,.44,3.04,.52,.67,.04,1.42,.04,2.21,0,.79-.05,1.63-.15,2.49-.29,1.73-.27,3.54-.72,5.5-1.11,1.95-.39,3.92-.66,5.74-.62,.91,.02,1.75,.11,2.54,.18,.79,.08,1.52,.14,2.2,.15,.68,.02,1.29,.01,1.82-.03,.53-.04,.97-.13,1.3-.23,.66-.21,.89-.43,.9-.41Z"/><path class="cls-14" d="M15.65,87s-.14,.08-.41,.2c-.28,.12-.7,.28-1.25,.45-.56,.16-1.24,.34-2.04,.47-.8,.13-1.7,.22-2.66,.23-1.93,.04-3.64-.24-4.76-.55-.56-.16-.96-.36-1.15-.53-.1-.08-.15-.15-.19-.2-.03-.05-.04-.08-.03-.08,.02,0,.07,.1,.28,.26,.2,.16,.59,.34,1.15,.49,1.12,.29,2.81,.56,4.7,.52,.94-.02,1.84-.1,2.63-.22,.79-.12,1.47-.29,2.03-.44,.55-.16,.98-.31,1.26-.42,.28-.11,.44-.17,.45-.17Z"/><path class="cls-14" d="M47.72,89.12s.07,.01,.21,.04c.14,.03,.35,.07,.63,.09,.55,.05,1.45,.07,2.39-.21v.04c-.73-.31-1.74-.59-2.97-.65-1.21-.06-2.65,.08-3.86,.56-.14,.06-.28,.13-.3,.22-.02,.09,.1,.17,.26,.22,.16,.05,.34,.08,.53,.1,.19,.02,.39,.05,.58,.07,.78,.1,1.59,.2,2.43,.26,.84,.07,1.7,.12,2.58,.1,.44,0,.88-.03,1.32-.07,.22-.02,.44-.05,.66-.08,.22-.03,.43-.07,.64-.12,.32-.08,.62-.19,.83-.34,.21-.15,.28-.34,.16-.52-.11-.17-.37-.31-.65-.41-.28-.1-.59-.18-.91-.25-1.26-.28-2.56-.4-3.8-.44-2.49-.08-4.73,.19-6.48,.56-1.76,.38-3.06,.84-3.9,1.2-.42,.18-.74,.32-.94,.43-.1,.05-.18,.09-.24,.12-.05,.03-.08,.04-.09,.04,0,0,.02-.02,.07-.04,.06-.03,.13-.07,.23-.12,.2-.11,.51-.26,.93-.44,.83-.37,2.13-.84,3.9-1.23,1.76-.39,4.02-.67,6.53-.59,1.25,.04,2.57,.16,3.85,.44,.32,.07,.64,.15,.94,.26,.29,.11,.58,.25,.72,.45,.14,.2,.06,.44-.18,.61-.23,.17-.56,.28-.89,.37-.21,.05-.44,.09-.67,.12-.22,.03-.45,.06-.67,.08-.45,.04-.9,.07-1.35,.07-.89,.02-1.77-.03-2.61-.1-.84-.07-1.65-.17-2.44-.27-.2-.03-.39-.05-.58-.08-.19-.02-.39-.06-.57-.12-.09-.03-.18-.07-.24-.12-.07-.05-.1-.12-.09-.18,.03-.13,.21-.21,.36-.28,1.25-.5,2.72-.64,3.96-.57,1.25,.07,2.29,.35,3.01,.68l.06,.02-.06,.02c-.98,.28-1.89,.25-2.44,.19-.57-.07-.83-.16-.83-.16Z"/><path class="cls-14" d="M65.3,87.03s.07,.05,.13,.17c.07,.11,.12,.29,.09,.5-.05,.43-.52,1-1.33,1.47-.39,.24-.82,.44-1.24,.59-.42,.15-.84,.26-1.2,.33-.36,.07-.66,.1-.87,.12-.21,.02-.33,.02-.33,.02,0-.02,.46-.05,1.16-.2,.35-.07,.75-.18,1.15-.34,.41-.15,.82-.35,1.21-.59,.8-.46,1.26-.99,1.34-1.41,.09-.42-.15-.66-.11-.67Z"/><path class="cls-14" d="M89.84,90.08s-.19-.14-.63-.34c-.43-.2-1.14-.45-2.14-.54-.49-.05-1.04-.03-1.63,.03-.58,.05-1.22,.14-1.91,.1-.7-.04-1.33-.27-1.9-.52-.57-.26-1.18-.5-1.91-.64-1.44-.29-2.97-.24-4.24-.04-1.28,.2-2.32,.56-3.14,.89-.81,.33-1.41,.65-1.82,.87-.19,.11-.35,.19-.46,.26-.11,.06-.16,.09-.17,.09,0,0,.05-.04,.14-.1,.1-.06,.25-.15,.44-.27,.39-.23,.98-.56,1.79-.9,.81-.34,1.86-.71,3.16-.92,1.29-.21,2.85-.27,4.34,.03,.74,.14,1.39,.4,1.95,.65,.57,.25,1.16,.47,1.82,.51,.65,.04,1.28-.04,1.87-.09,.59-.06,1.16-.07,1.67-.01,1.02,.1,1.74,.37,2.16,.58,.43,.21,.58,.37,.58,.37Z"/><path class="cls-14" d="M111.75,86.93s-.05,.04-.15,.11c-.11,.07-.25,.19-.47,.31-.42,.27-1.09,.62-1.99,1-.91,.38-2.08,.76-3.46,1.08-.69,.16-1.44,.3-2.23,.4-.79,.1-1.63,.18-2.5,.18-1.74,0-3.36-.24-4.74-.55-1.38-.32-2.54-.72-3.44-1.1-.9-.38-1.57-.74-1.98-1.01-.22-.13-.36-.24-.47-.31-.1-.07-.15-.11-.15-.11,0,0,.07,.03,.18,.1,.11,.07,.26,.18,.49,.3,.43,.26,1.1,.6,2,.98,.9,.37,2.06,.76,3.43,1.07,1.37,.31,2.97,.55,4.68,.54,.85,0,1.68-.08,2.46-.18,.79-.1,1.52-.24,2.21-.39,1.38-.31,2.54-.69,3.45-1.05,.91-.37,1.59-.71,2.02-.97,.23-.12,.37-.23,.49-.3,.11-.07,.17-.1,.18-.1Z"/><path class="cls-14" d="M108.62,86.89s-.04,.02-.12,.05c-.08,.03-.2,.08-.35,.13-.31,.11-.77,.27-1.37,.44-.59,.17-1.32,.35-2.16,.49-.84,.15-1.8,.27-2.82,.27-2.05,0-3.83-.38-5.01-.71-.59-.17-1.05-.33-1.36-.45-.16-.06-.27-.11-.35-.14-.08-.03-.12-.05-.11-.06,0,0,.18,.06,.49,.17,.31,.11,.78,.26,1.37,.42,1.19,.31,2.94,.67,4.96,.68,1,0,1.94-.12,2.78-.26,.83-.14,1.56-.31,2.16-.47,.6-.16,1.07-.3,1.39-.41,.32-.1,.5-.16,.5-.16Z"/><path class="cls-14" d="M132.52,87.24s-.1,0-.27,0c-.21,0-.46,0-.77-.02-.17,0-.36,0-.56-.01-.21,0-.43,0-.66,0-.48,0-1.02,0-1.61,0-.3,0-.61,.01-.94,.02-.33,.01-.66,.03-1.01,.04-.7,.02-1.44,.07-2.21,.12-1.54,.11-3.22,.26-4.92,.48-1.7,.22-3.25,.48-4.61,.74-.66,.14-1.31,.26-1.87,.4-.28,.07-.56,.13-.83,.19-.25,.07-.5,.13-.73,.19-.48,.12-.87,.24-1.22,.35-.17,.05-.34,.1-.49,.15-.14,.05-.27,.09-.39,.13-.22,.07-.4,.13-.54,.18-.13,.04-.2,.06-.21,.06,0,0,.05-.03,.16-.07,.14-.05,.31-.12,.51-.19,.11-.04,.24-.09,.37-.14,.15-.05,.31-.1,.48-.15,.34-.11,.73-.24,1.2-.36,.23-.06,.47-.13,.72-.2,.26-.06,.54-.13,.82-.2,.56-.14,1.21-.27,1.88-.41,1.37-.27,2.93-.53,4.64-.75,1.72-.22,3.41-.37,4.97-.48,.79-.04,1.53-.09,2.24-.11,.35-.01,.69-.02,1.02-.03,.33,0,.64,0,.95-.01,.6-.01,1.15,0,1.63,0,.24,0,.46,0,.67,0,.2,0,.39,.02,.56,.02,.31,.01,.56,.02,.77,.03,.18,0,.27,.01,.26,.02Z"/><path class="cls-14" d="M92.3,90.01s-.21-.21-.75-.5c-.54-.29-1.47-.64-2.75-.87-.64-.11-1.37-.2-2.15-.27-.78-.07-1.63-.12-2.51-.21-.89-.08-1.8-.22-2.73-.38-.93-.16-1.89-.32-2.91-.4-2.04-.15-4.01,.1-5.67,.44-.84,.17-1.6,.38-2.31,.58-.71,.2-1.35,.4-1.94,.59-1.18,.37-2.11,.69-2.76,.91-.31,.11-.56,.19-.74,.26-.08,.03-.14,.05-.19,.07-.04,.01-.07,.02-.07,.02,0,0,.02-.01,.06-.03,.05-.02,.11-.04,.19-.07,.16-.06,.41-.16,.73-.27,.64-.23,1.56-.56,2.73-.94,.59-.19,1.23-.4,1.94-.6,.71-.21,1.47-.42,2.32-.59,1.67-.35,3.67-.6,5.75-.45,1.04,.07,2.01,.24,2.94,.4,.93,.16,1.83,.3,2.71,.39,.88,.09,1.72,.15,2.51,.22,.79,.07,1.52,.16,2.16,.28,1.3,.24,2.23,.6,2.76,.9,.54,.31,.71,.53,.71,.53Z"/><path class="cls-14" d="M61.52,86.94s.01,.08-.02,.21c-.03,.14-.11,.33-.27,.57-.31,.46-.96,1.08-2.1,1.51-1.14,.41-2.29,.65-3.11,.81-.42,.08-.76,.13-.99,.17-.24,.03-.37,.05-.37,.04,0,0,.12-.03,.35-.08,.26-.05,.59-.12,.97-.2,.81-.17,1.95-.42,3.06-.82,1.09-.41,1.75-1.01,2.08-1.46,.34-.45,.36-.76,.4-.76Z"/><path class="cls-14" d="M29.79,90.25s.11-.07,.33-.18c.22-.11,.55-.27,.97-.45,.84-.36,2.07-.82,3.49-1.26,1.42-.44,2.75-.79,3.71-1.04,.48-.12,.87-.22,1.15-.29,.27-.07,.43-.1,.43-.09,0,0-.14,.05-.4,.13-.29,.08-.67,.19-1.12,.32-.95,.26-2.27,.62-3.68,1.06-1.41,.44-2.64,.88-3.5,1.23-.43,.17-.77,.32-1,.42-.23,.1-.37,.16-.37,.15Z"/><path class="cls-14" d="M36.23,87.08s-.32-.02-.88,0c-.56,.03-1.38,.13-2.28,.39-.91,.25-1.88,.67-2.96,1.12-.55,.22-1.13,.45-1.78,.65-.65,.2-1.38,.35-2.13,.46-1.52,.22-3.02,.27-4.37,.29-1.35,.02-2.56,0-3.58,.03-1.02,.02-1.84,.08-2.4,.13-.28,.03-.5,.05-.64,.07-.15,.02-.22,.03-.23,.02,0,0,.07-.02,.22-.04,.14-.03,.36-.06,.64-.09,.56-.07,1.38-.13,2.4-.16,1.02-.03,2.24-.02,3.58-.05,1.34-.03,2.83-.08,4.33-.3,.75-.11,1.46-.26,2.1-.45,.64-.19,1.22-.42,1.77-.64,1.08-.45,2.07-.86,3-1.11,.92-.26,1.76-.35,2.33-.37,.29,0,.51,0,.66,.01,.15,.01,.23,.02,.23,.02Z"/></g></svg>