<?xml version="1.0" encoding="UTF-8"?><svg id="Camada_1" xmlns="http://www.w3.org/2000/svg" viewBox="0 0 128.34 82.49"><defs><style>.cls-1{fill:#f5f5f5;}.cls-2{fill:#fff;}.cls-3{fill:#ececec;}.cls-4{fill:#ffd6bd;}.cls-5{fill:#fafafa;}.cls-6{fill:#ffb394;}.cls-7{fill:#ff735d;}.cls-8{fill:#90453a;}.cls-9{fill:#cc9087;}.cls-10{fill:#e1e1e1;}.cls-11{fill:#375a64;}.cls-12{fill:#1a2e35;}.cls-13{opacity:.3;}</style></defs><g><path class="cls-3" d="M117.47,62.34c-.02-2.8-1.85-4.6-1.85-4.6-.56,2.31,1.85,4.6,1.85,4.6Z"/><path class="cls-3" d="M114.78,61.04c-2.58-1.1-4.95-.14-4.95-.14,1.89,1.43,4.95,.14,4.95,.14Z"/><path class="cls-3" d="M114.47,59.55c.45-2.17-.67-3.85-.67-3.85-.81,1.69,.67,3.85,.67,3.85Z"/><path class="cls-3" d="M124.87,54.15c-3.93,1.05-6.04,4.46-6.04,4.46,3.36,0,6.04-4.46,6.04-4.46Z"/><path class="cls-3" d="M118.59,55.76c.2-4.23-3.93-9.03-3.93-9.03,.62,5.26,3.93,9.03,3.93,9.03"/><path class="cls-3" d="M118.61,43.7c-.18,3.43,1.49,6.06,1.49,6.06,.58-2.72-1.49-6.06-1.49-6.06Z"/><path class="cls-3" d="M120.21,52.31c3.1-.33,4.78-3.41,4.78-3.41-3.74,1.05-4.78,3.41-4.78,3.41Z"/><path class="cls-3" d="M126.89,65.25c-2.37-1.51-4.87-.94-4.87-.94,1.63,1.72,4.87,.94,4.87,.94Z"/><path class="cls-3" d="M118.86,66.64c.59,1.62,2.08,2.34,2.08,2.34-.13-1.43-2.08-2.34-2.08-2.34Z"/><path class="cls-3" d="M119.26,66.18c1.76,1.08,3.7,.66,3.7,.66-1.19-1.24-3.7-.66-3.7-.66Z"/><path class="cls-10" d="M117.68,71.88s0-.02,0-.06c0-.05,0-.11,0-.18,0-.17,0-.41,0-.71,0-.31,0-.68,0-1.12,0-.44,0-.94,.03-1.49,.03-1.1,.1-2.41,.22-3.86,.13-1.45,.3-3.04,.54-4.7,.49-3.33,1.16-6.3,1.7-8.43,.27-1.07,.5-1.93,.67-2.52,.08-.29,.14-.52,.18-.69,.02-.07,.03-.13,.04-.18,0-.04,.01-.06,.01-.06,0,0-.01,.02-.02,.06-.02,.05-.03,.1-.06,.18-.05,.17-.12,.39-.21,.68-.18,.59-.43,1.45-.71,2.51-.56,2.13-1.25,5.11-1.74,8.44-.24,1.67-.42,3.26-.53,4.71-.11,1.45-.17,2.77-.19,3.87-.02,.55-.01,1.05-.01,1.49,0,.44,0,.82,.02,1.12,.01,.3,.02,.54,.02,.71,0,.07,0,.13,0,.18,0,.04,0,.06,0,.06Z"/><path class="cls-10" d="M123.36,62.92s-1.27,.79-2.79,1.83c-1.52,1.04-2.74,1.91-2.72,1.95s1.27-.79,2.79-1.83c1.52-1.04,2.74-1.91,2.72-1.95Z"/><path class="cls-10" d="M117.85,63.37s-.06-.08-.19-.21c-.15-.15-.34-.33-.56-.54-.5-.47-1.15-1.08-1.86-1.75-.71-.67-1.36-1.27-1.86-1.74-.22-.21-.41-.38-.56-.53-.13-.12-.21-.19-.22-.18,0,0,.06,.08,.18,.22,.12,.14,.31,.33,.53,.56,.46,.47,1.11,1.1,1.83,1.78,.73,.68,1.4,1.29,1.89,1.72,.25,.22,.45,.39,.59,.5,.14,.12,.22,.18,.23,.17Z"/><path class="cls-3" d="M127.33,60.91s-3.2-.06-4.55,2.46c0,0,2.73,.09,4.55-2.46Z"/><path class="cls-3" d="M122.97,59.63s-2.61,1.86-2.19,4.69c0,0,2.24-1.55,2.19-4.69Z"/><path class="cls-3" d="M109.24,55.05s1.03,3.58,4.29,4.22c0,0-.83-3.07-4.29-4.22Z"/><path class="cls-3" d="M124.39,41.74s-4.08,2.66-3.63,6.99c0,0,3.51-2.22,3.63-6.99Z"/></g><path class="cls-10" d="M110.8,65.42s.09,.08,.26,.21c.18,.13,.43,.32,.73,.56,.61,.48,1.42,1.2,2.21,2.08,.79,.88,1.41,1.76,1.83,2.42,.21,.33,.37,.6,.48,.79,.11,.19,.17,.29,.18,.29,0,0-.04-.12-.14-.31-.09-.2-.24-.48-.44-.81-.4-.67-1.01-1.57-1.81-2.46-.8-.89-1.63-1.6-2.25-2.06-.31-.23-.58-.41-.76-.53-.19-.12-.29-.18-.3-.17Z"/><path class="cls-3" d="M114.35,68.08c.52-2.76-.94-4.87-.94-4.87-.44,3.04,.94,4.87,.94,4.87Z"/><path class="cls-3" d="M111.61,66.58c-1.76-1.03-3.56-.55-3.56-.55,1.97,1.05,3.56,.55,3.56,.55Z"/><polygon class="cls-3" points="123.63 72.22 122.1 82.28 113.2 82.28 111.14 72.36 123.63 72.22"/><g><path class="cls-5" d="M112.38,78.67s2.28,.05,5.09,.05,5.09-.02,5.09-.05-2.28-.05-5.09-.05-5.09,.02-5.09,.05Z"/><path class="cls-5" d="M112.35,78.17s2.3,.05,5.13,.05,5.13-.02,5.13-.05-2.29-.05-5.13-.05-5.13,.02-5.13,.05Z"/><path class="cls-5" d="M112.36,77.61s2.3,.05,5.13,.05,5.13-.02,5.13-.05-2.29-.05-5.13-.05-5.13,.02-5.13,.05Z"/><path class="cls-5" d="M121.08,81.71s.15-.56,.27-1.27c.12-.7,.2-1.28,.17-1.29-.03,0-.15,.56-.27,1.27-.12,.7-.2,1.28-.17,1.28Z"/><path class="cls-5" d="M120.47,81.6s.06-.55,.11-1.24c.05-.68,.09-1.24,.06-1.24-.03,0-.12,.55-.16,1.23-.05,.69-.03,1.24,0,1.24Z"/><path class="cls-5" d="M119.37,81.6s.15-.56,.23-1.27c.08-.71,.1-1.29,.07-1.29-.03,0-.09,.57-.17,1.27-.08,.7-.16,1.27-.13,1.28Z"/><path class="cls-5" d="M118.59,81.65s.1-.57,.12-1.29c.02-.71-.01-1.29-.04-1.29-.03,0-.04,.58-.06,1.29-.02,.71-.05,1.29-.02,1.29Z"/><path class="cls-5" d="M117.22,81.6s.07-.55,.09-1.22c.02-.68,.02-1.23-.01-1.23-.03,0-.07,.55-.09,1.22-.02,.68-.02,1.22,.01,1.23Z"/><path class="cls-5" d="M116.22,81.65s.05-.57,.04-1.26c0-.7-.03-1.26-.06-1.26-.03,0-.05,.57-.04,1.26,0,.7,.03,1.26,.06,1.26Z"/><path class="cls-5" d="M115.28,81.52s0-.59-.08-1.32c-.07-.73-.15-1.31-.18-1.31-.03,0,0,.59,.08,1.32,.07,.73,.15,1.31,.18,1.31Z"/><path class="cls-5" d="M114.07,81.39s-.02-.51-.15-1.12c-.13-.61-.3-1.09-.33-1.08-.03,0,.1,.5,.23,1.11,.13,.61,.22,1.11,.25,1.1Z"/></g><path class="cls-3" d="M124.65,70.22v1.88c0,.41-.33,.74-.74,.74h-12.88c-.41,0-.74-.33-.74-.74v-1.88h14.37Z"/><polygon class="cls-10" points="123.53 72.85 123.43 73.45 111.54 74.3 111.24 72.85 123.53 72.85"/><rect class="cls-10" x="37.11" y="3.1" width="17.65" height="25.58"/><rect class="cls-1" x="36.23" y="3.1" width="17.65" height="25.58"/><rect class="cls-2" x="38.42" y="5.87" width="13.26" height="20.04"/><path class="cls-10" d="M51.68,25.91s0-.03,0-.1c0-.07,0-.16,0-.28,0-.25,0-.62,0-1.1,0-.96,0-2.36-.01-4.13,0-3.53-.01-8.54-.02-14.43l.04,.04c-4.05,0-8.54,0-13.26,0h0l.05-.05c0,7.56,0,14.53,0,20.04l-.04-.04c4.04,0,7.35,.02,9.65,.02,1.15,0,2.05,0,2.67,0,.31,0,.54,0,.7,0,.16,0,.24,0,.24,0,0,0-.08,0-.23,0-.16,0-.39,0-.69,0-.61,0-1.51,0-2.66,0-2.31,0-5.63,.01-9.68,.02h-.04s0-.04,0-.04c0-5.51,0-12.48,0-20.04v-.05s.05,0,.05,0h0c4.72,0,9.21,0,13.26,0h.04v.04c0,5.9-.02,10.92-.02,14.46,0,1.76,0,3.16-.01,4.12,0,.47,0,.84,0,1.09,0,.12,0,.21,0,.28,0,.06,0,.09,0,.09Z"/><path class="cls-10" d="M53.93,3.1s-.11,.18-.31,.46c-.21,.27-.5,.65-.83,1.05-.33,.4-.64,.76-.87,1.01-.23,.25-.38,.4-.39,.4-.01,0,.12-.18,.34-.44,.24-.29,.53-.64,.85-1.03,.32-.39,.61-.74,.85-1.03,.22-.26,.36-.42,.37-.41Z"/><path class="cls-2" d="M51.75,25.84c.66,1.05,1.44,2.02,2.31,2.89"/><path class="cls-10" d="M54.06,28.74s-.17-.13-.4-.37c-.24-.24-.55-.58-.87-.98-.32-.4-.59-.78-.77-1.07-.18-.28-.28-.47-.27-.47,.01,0,.13,.16,.33,.44,.19,.27,.47,.65,.79,1.05,.32,.4,.62,.75,.85,1,.22,.25,.36,.4,.35,.41Z"/><path class="cls-2" d="M36.23,28.66c.77-.95,1.54-1.9,2.31-2.85"/><path class="cls-10" d="M38.54,25.81s-.48,.67-1.12,1.46c-.64,.79-1.17,1.41-1.19,1.4-.02-.02,.48-.67,1.12-1.46,.64-.79,1.17-1.41,1.19-1.4Z"/><path class="cls-10" d="M36.23,3.1s.52,.58,1.12,1.34c.6,.76,1.07,1.38,1.05,1.4-.02,.02-.52-.58-1.12-1.34-.6-.76-1.07-1.38-1.05-1.4Z"/><rect class="cls-10" x="43.11" y="9.94" width="4.44" height="12.61"/><rect class="cls-3" x="68.58" width="16.81" height="16.81"/><rect class="cls-2" x="69.08" y=".49" width="15.82" height="15.82"/><rect class="cls-10" x="74.72" y="6.13" width="4.54" height="4.54"/><rect class="cls-10" x="85.39" y="0" width=".71" height="16.81"/><rect class="cls-10" x="105.48" y="2.2" width="19.25" height="26.5"/><rect class="cls-3" x="103.65" y="2.2" width="19.88" height="26.5"/><rect class="cls-5" x="105.55" y="4.05" width="16.09" height="22.6"/><path class="cls-1" d="M105.55,26.65h16.09v-5.93h-16.09v5.93Z"/><path class="cls-10" d="M115.37,14.2l.52,1.21s-1.19,.87-1.02,2.2c.17,1.34,1.16,4.04,1.16,4.04h2.08s1.04-3.76,1.02-4.38c-.02-.62-.92-1.83-.92-1.83l.47-1.24s-1.86-1.14-3.32,0Z"/><path class="cls-10" d="M115.26,18.19c-.4-.36-.9-.81-1.07-1.43-.08-.29-.05-.54,.09-.72,.13-.17,.36-.26,.61-.26,.21,0,.42,.08,.58,.14l-.1,.26c-.15-.06-.32-.12-.49-.13-.16,0-.31,.05-.38,.15-.11,.15-.08,.36-.04,.48,.14,.54,.61,.96,.99,1.3l-.18,.2Z"/><path class="cls-10" d="M118.92,18.36l-.2-.18c.25-.28,.45-.6,.59-.95,.08-.19,.12-.34,.12-.47,0-.16-.04-.31-.12-.41-.1-.12-.27-.18-.44-.16-.16,.02-.33,.1-.46,.23l-.19-.19c.18-.18,.4-.29,.63-.31,.26-.03,.52,.07,.68,.25,.13,.15,.2,.36,.19,.59,0,.22-.08,.42-.14,.57-.15,.38-.37,.72-.64,1.02Z"/><path class="cls-3" d="M118.69,14.21s-.18,.07-.48,.12c-.3,.05-.72,.1-1.18,.11-.47,0-.89-.04-1.19-.09-.3-.05-.48-.1-.48-.11,0-.02,.19,.01,.49,.04,.3,.03,.72,.06,1.18,.06,.46,0,.88-.04,1.17-.08,.3-.04,.49-.06,.49-.05Z"/><path class="cls-3" d="M121.64,7.11c-.2-.27-1.16-.62-1.5-.68-1.5-.25-3.06-.27-4.5,.21s-2.75,1.51-3.31,2.91c-.29,.73-.38,1.53-.76,2.22-.48,.87-1.36,1.43-2.03,2.17-.85,.93-1.35,2.16-1.41,3.42-.05,1.26,.35,2.53,1.12,3.52l4.04,.05c-.1-1.59-.09-3.21,.38-4.73,.47-1.52,1.48-2.94,2.92-3.6,1.52-.69,3.45-.52,5.11-.29l-.07-5.2Z"/><path class="cls-3" d="M111.4,4.05c.45,.69-.13,1.82-.71,2.39s-1.33,1.06-1.61,1.84c-.27,.78,0,1.64-.13,2.45-.12,.73-.6,1.4-1.25,1.75s-1.47,.38-2.15,.07V4.05h5.85Z"/><path class="cls-10" d="M109.8,18.76s.22,.31,.13,.5c-.09,.2-1.14,1.6-.75,2.57,.39,.97,1.18,2.02,1.18,2.02h2.46s1.21-1.91,1.18-2.54c-.04-1.05-.81-2.15-.81-2.15l.2-.39s-2.28-.66-3.6,0Z"/><path class="cls-10" d="M121.64,26.65s0-.04,0-.11c0-.07,0-.18,0-.32,0-.28,0-.7,0-1.23,0-1.08,0-2.65-.01-4.64,0-3.98-.01-9.62-.02-16.3l.05,.05c-4.86,0-10.33,0-16.09,0h0l.05-.05c0,8.47,0,16.29,0,22.6l-.04-.04c4.88,0,8.9,.02,11.7,.02,1.4,0,2.5,0,3.25,.01,.37,0,.66,0,.85,0,.19,0,.29,0,.29,0,0,0-.1,0-.29,0-.19,0-.48,0-.85,0-.75,0-1.84,0-3.24,.01-2.81,0-6.83,.01-11.72,.02h-.04s0-.04,0-.04c0-6.31,0-14.14,0-22.6v-.05s.05,0,.05,0h0c5.76,0,11.23,0,16.09,0h.05s0,.05,0,.05c0,6.68-.02,12.34-.02,16.33,0,1.99,0,3.56-.01,4.63,0,.53,0,.94,0,1.23,0,.14,0,.24,0,.31,0,.07,0,.1,0,.1Z"/><path class="cls-10" d="M123.53,2.2s-.38,.46-.91,.96c-.53,.5-.96,.91-.98,.89-.02-.02,.38-.46,.91-.96,.53-.5,.96-.91,.98-.89Z"/><path class="cls-10" d="M103.6,2.19s.48,.38,1.02,.89c.54,.51,.97,.95,.95,.97-.02,.02-.47-.38-1.02-.89-.54-.51-.97-.95-.95-.97Z"/><path class="cls-10" d="M103.65,28.69s.38-.47,.9-1c.52-.53,.96-.95,.98-.93,.02,.02-.38,.47-.9,1-.52,.53-.96,.95-.98,.93Z"/><path class="cls-10" d="M123.47,28.73s-.36-.52-.86-1.1c-.51-.58-.99-.98-.98-1,0-.01,.14,.08,.34,.24,.2,.16,.46,.4,.71,.7,.26,.29,.46,.58,.6,.8,.13,.22,.2,.36,.19,.37Z"/><g><polygon class="cls-1" points="7.8 64.06 7.8 69.84 16.25 69.84 25.57 69.84 25.57 64.06 7.8 64.06"/><polygon class="cls-10" points="7.06 62.45 7.06 64.06 26.2 64.06 26.2 62.45 16.25 62.45 7.06 62.45"/><polygon class="cls-10" points="16.63 69.84 25.57 69.84 25.57 64.06 26.2 64.06 26.2 62.45 16.25 62.45 16.25 63.91 16.63 69.84"/><rect class="cls-10" x="10.29" y="65" width="3.6" height=".87"/><rect class="cls-2" x="9.83" y="66.95" width="4.63" height="1.84"/></g><g><path class="cls-10" d="M28.24,82.26l-.37-79.14h-1.53v15.59h-3.96l-.07-15.59h-1.53v15.59H7.16l-.07-15.59h-1.53v15.59H1.61l-.07-15.59H0V82.26H1.91l-.05-10.62h3.7v10.62h1.91l-.05-10.62h13.37v10.62h1.91l-.05-10.62h3.71v10.62h1.91ZM3.6,61.16l-1.37-5.87h2.81l-1.44,5.87Zm1.95-5.51v13.86l-1.66-7.11,1.66-6.75Zm0-20.14l-1.66-7.11,1.66-6.75v13.86Zm-.3,1.27H1.83l1.75-7.14,1.67,7.14Zm-1.65-9.62l-1.57-6.72h3.22l-1.65,6.72Zm-.3,1.24l-1.62,6.58-.06-13.78,1.68,7.21Zm-1.52,27.5l1.52,6.5-1.46,5.94-.06-12.44Zm1.81,7.75l1.46,6.27H2.05l1.54-6.27Zm-1.76-10.08v-.05s-.06,.01-.06,.01l-.07-15.01h3.85v15.05H1.83Zm5.42-15.05h13.52v15.05H7.32l-.07-15.05Zm17.02-8.87l1.67,7.14h-3.42l1.75-7.14Zm-1.81,4.95l-.06-12.98,1.58,6.79-1.52,6.2Zm3.88,1.37l-1.77-7.57,1.77-7.19v14.75Zm0,.79v.02h-.11l.11-.02Zm0,19.31v13.01l-1.56-6.67,1.56-6.34Zm-1.85,5.1l-1.37-5.87h2.81l-1.44,5.87Zm-.21-34l-1.57-6.72h3.22l-1.65,6.72Zm2.06,11.35v15.05h-3.62v-.05s-.17,.04-.17,.04l-.07-15.04h3.86Zm-2.15,23.89l-1.57,6.39-.06-13.38,1.63,7Zm.29,1.24l1.46,6.27h-3.01l1.54-6.27Zm-3.7-43.2v16.34H7.24l-.08-16.34h13.61ZM7.64,69.91h-.24l-.07-14.62h13.44v14.62H7.64Z"/><g><rect class="cls-10" x="17.06" y="25.05" width="2.53" height="11.8"/><path class="cls-5" d="M18.87,34.02c0,.28-.22,.5-.5,.5s-.5-.22-.5-.5,.22-.5,.5-.5,.5,.22,.5,.5Z"/><rect class="cls-5" x="17.96" y="28.18" width=".77" height="4.82"/></g><g><rect class="cls-3" x="14.49" y="25.05" width="2.53" height="11.8"/><path class="cls-5" d="M16.3,34.02c0,.28-.22,.5-.5,.5s-.5-.22-.5-.5,.22-.5,.5-.5,.5,.22,.5,.5Z"/><rect class="cls-5" x="15.39" y="28.18" width=".77" height="4.82"/></g><g><rect class="cls-1" x="12.04" y="25.05" width="2.53" height="11.8"/><path class="cls-10" d="M13.85,34.02c0,.28-.22,.5-.5,.5s-.5-.22-.5-.5,.22-.5,.5-.5,.5,.22,.5,.5Z"/><rect class="cls-10" x="12.94" y="28.18" width=".77" height="4.82"/></g><polygon class="cls-1" points="8.91 36.67 11.95 26.29 10.9 25.83 7.78 36.29 8.91 36.67"/><g><polygon class="cls-1" points="4.4 53.56 4.4 51.77 17.02 51.77 17.06 53.56 4.4 53.56"/><path class="cls-2" d="M17.02,52.07s-11.19,.08-11.91,.25c-.16,.04-.31,.72,0,.79,.31,.06,11.91,.16,11.91,.16v-1.2Z"/></g><g><polygon class="cls-3" points="5.87 51.7 5.87 49.92 15.86 49.92 15.89 51.7 5.87 51.7"/><path class="cls-5" d="M15.87,50.21s-8.86,.08-9.44,.25c-.12,.04-.25,.72,0,.79,.25,.06,9.44,.16,9.44,.16v-1.2Z"/></g><g><polygon class="cls-10" points="5.82 49.94 5.82 48.15 15.82 48.15 15.85 49.94 5.82 49.94"/><path class="cls-5" d="M15.82,48.44s-8.86,.08-9.44,.25c-.12,.04-.25,.72,0,.79,.25,.06,9.44,.16,9.44,.16v-1.2Z"/></g></g><g><rect class="cls-1" x="18.19" y="7.14" width="2.53" height="11.8"/><path class="cls-10" d="M20.01,16.11c0,.28-.22,.5-.5,.5s-.5-.22-.5-.5,.22-.5,.5-.5,.5,.22,.5,.5Z"/><rect class="cls-10" x="19.1" y="10.26" width=".77" height="4.82"/></g><g><rect class="cls-3" x="15.62" y="7.14" width="2.53" height="11.8"/><path class="cls-5" d="M17.44,16.11c0,.28-.22,.5-.5,.5s-.5-.22-.5-.5,.22-.5,.5-.5,.5,.22,.5,.5Z"/><rect class="cls-5" x="16.53" y="10.26" width=".77" height="4.82"/></g><g><rect class="cls-10" x="13.17" y="7.14" width="2.53" height="11.8"/><path class="cls-5" d="M14.99,16.11c0,.28-.22,.5-.5,.5s-.5-.22-.5-.5,.22-.5,.5-.5,.5,.22,.5,.5Z"/><rect class="cls-5" x="14.08" y="10.26" width=".77" height="4.82"/></g><path class="cls-12" d="M128.34,82.28s-28.64,.05-63.95,.05-63.96-.02-63.96-.05,28.63-.05,63.96-.05,63.95,.02,63.95,.05Z"/><polygon class="cls-11" points="29.45 49.11 38.14 82.28 40.95 82.28 32.43 48.91 29.45 49.11"/><polygon class="cls-11" points="18.1 82.28 22.7 51.04 25.34 51.12 21.39 82.28 18.1 82.28"/><polygon class="cls-11" points="17.25 53.5 7.37 82.28 10.55 82.28 19.15 56.18 17.25 53.5"/><g><path class="cls-7" d="M36.27,43.69c3.38,9.97,1.92,19.42-4.61,21.64-6.53,2.22-15.66-3.65-19.04-13.61-3.38-9.97-.83-19.84,5.7-22.06,6.53-2.22,14.57,4.07,17.95,14.03Z"/><g class="cls-13"><path d="M36.27,43.69c3.38,9.97,1.92,19.42-4.61,21.64-6.53,2.22-15.66-3.65-19.04-13.61-3.38-9.97-.83-19.84,5.7-22.06,6.53-2.22,14.57,4.07,17.95,14.03Z"/></g><ellipse class="cls-7" cx="27.16" cy="46.72" rx="12.49" ry="18.87" transform="translate(-13.57 11.21) rotate(-18.75)"/><ellipse class="cls-5" cx="27.54" cy="46.46" rx="10.08" ry="15.91" transform="translate(-13.47 11.32) rotate(-18.75)"/><ellipse class="cls-7" cx="27.83" cy="46.43" rx="7.83" ry="12.86" transform="translate(-13.45 11.41) rotate(-18.75)"/><ellipse class="cls-5" cx="28.06" cy="45.82" rx="5.29" ry="8.55" transform="translate(-13.24 11.45) rotate(-18.75)"/><path class="cls-7" d="M30.87,44.99c.89,2.62,.41,5.15-1.07,5.65-1.48,.5-3.4-1.21-4.29-3.83-.89-2.62-.41-5.15,1.07-5.65,1.48-.5,3.4,1.21,4.29,3.83Z"/><path class="cls-12" d="M38.99,42.7s-.03-.08-.09-.24c-.06-.16-.15-.4-.26-.71-.25-.62-.61-1.53-1.17-2.65-.57-1.12-1.34-2.46-2.41-3.89-1.07-1.42-2.46-2.95-4.28-4.27-.91-.66-1.93-1.26-3.07-1.72-.28-.12-.58-.21-.87-.32-.15-.04-.3-.08-.45-.13-.15-.05-.31-.08-.46-.11-.62-.14-1.27-.22-1.93-.23-.16,0-.33-.01-.5,0-.17,.01-.33,.02-.5,.03-.33,.04-.67,.08-1,.16-.66,.15-1.33,.37-1.95,.69-1.25,.63-2.38,1.6-3.26,2.79-.89,1.19-1.55,2.58-2.02,4.06-.23,.74-.41,1.51-.55,2.29-.13,.78-.22,1.58-.27,2.39-.18,3.23,.34,6.6,1.43,9.85,1.11,3.24,2.75,6.23,4.86,8.69,.53,.61,1.09,1.19,1.67,1.73,.59,.53,1.2,1.03,1.83,1.48,1.27,.89,2.64,1.6,4.07,1.99,1.42,.41,2.9,.49,4.28,.23,.69-.12,1.35-.35,1.97-.64,.31-.14,.6-.31,.89-.48,.14-.09,.28-.19,.42-.28,.14-.09,.26-.2,.4-.3,.52-.41,.98-.86,1.39-1.35,.11-.12,.21-.24,.3-.37,.09-.13,.19-.25,.28-.38,.17-.26,.35-.51,.5-.78,.63-1.05,1.07-2.15,1.39-3.23,.64-2.16,.81-4.21,.79-5.99-.02-1.79-.23-3.32-.46-4.56-.23-1.24-.5-2.18-.68-2.82-.1-.32-.17-.56-.22-.72-.05-.16-.07-.25-.07-.25,0,0,.03,.08,.08,.24,.05,.16,.13,.4,.23,.72,.19,.64,.46,1.58,.7,2.81,.24,1.24,.45,2.77,.47,4.56,.02,1.79-.15,3.84-.78,6.01-.32,1.08-.76,2.19-1.39,3.25-.15,.27-.33,.52-.5,.79-.09,.13-.19,.25-.28,.38-.09,.13-.19,.25-.3,.37-.41,.5-.88,.95-1.4,1.37-.13,.1-.26,.21-.4,.3-.14,.09-.28,.19-.42,.28-.29,.17-.59,.35-.9,.48-.62,.29-1.29,.52-1.99,.65-1.39,.26-2.89,.19-4.33-.23-1.44-.4-2.82-1.11-4.1-2-.64-.45-1.25-.95-1.84-1.49-.58-.54-1.14-1.13-1.67-1.74-2.12-2.47-3.77-5.46-4.88-8.72-1.1-3.26-1.61-6.64-1.43-9.89,.05-.81,.14-1.61,.27-2.4,.14-.78,.32-1.55,.55-2.3,.47-1.49,1.13-2.89,2.04-4.09,.89-1.2,2.02-2.18,3.29-2.82,.63-.33,1.3-.54,1.97-.7,.33-.08,.67-.12,1.01-.16,.17-.01,.34-.02,.5-.03,.17-.01,.33,0,.5,0,.66,.01,1.32,.09,1.94,.23,.16,.03,.31,.07,.46,.11,.15,.04,.3,.09,.46,.13,.3,.11,.6,.19,.88,.32,1.14,.46,2.17,1.06,3.08,1.73,1.82,1.33,3.21,2.86,4.28,4.29,1.07,1.44,1.84,2.78,2.4,3.91,.56,1.13,.92,2.04,1.16,2.66,.11,.31,.19,.55,.25,.71,.06,.16,.08,.24,.08,.24Z"/></g><g class="cls-13"><path d="M38.47,43.72l-6.84,1.79,8.82,6.07s-.15-4.47-.83-7.06l-1.16-.79Z"/></g><polygon points="15.19 59.5 17.21 62.09 17.78 60.35 15.75 57.87 15.19 59.5"/><path d="M20.77,64.27s1.1,1.33,2.73,1.33l.13-.99c-1.09-.51-1.97-1.02-2.7-1.54l-.16,1.2Z"/><path d="M33.82,65.79l-.34-1.29s1.83-.68,2.54-1.5l.36,1.4s-1.23,1.28-2.56,1.4Z"/><g><polygon class="cls-9" points="98.21 70.06 104.11 74.03 105.97 71.56 100.43 66.67 98.21 70.06"/><path class="cls-7" d="M103.32,73.53l.16,.13s-1.02,3.61-.52,4.04l4.19-5.49-1.88-1.32c-.24,1.11-.85,1.99-1.95,2.65Z"/><path class="cls-2" d="M105.43,71.88c.11-.08,.29-.07,.37,.04,.09,.11,.07,.29-.04,.37-.11,.09-.32,.07-.4-.04s-.05-.32,.08-.38"/><path class="cls-12" d="M107.15,72.2l-.45-.32-3.85,5.38s-.08,.33,.11,.43l4.19-5.49Z"/><path class="cls-12" d="M103.48,73.68s.14-.11,.33-.17c.19-.07,.35-.05,.36-.08,.01-.03-.18-.11-.4-.03-.23,.08-.32,.27-.29,.28Z"/><path class="cls-12" d="M103.28,74.44s.16-.06,.34-.06c.18,0,.32,.06,.34,.03,.02-.02-.12-.16-.35-.15-.23,0-.36,.16-.33,.18Z"/><path class="cls-12" d="M103.72,75.29s-.08-.16-.28-.2c-.2-.04-.35,.04-.34,.07,.01,.03,.15,.01,.31,.05,.16,.03,.28,.11,.31,.09Z"/></g><polygon class="cls-9" points="80.66 73.3 80.18 80.4 83.24 80.77 84.71 73.52 80.66 73.3"/><path class="cls-7" d="M80.21,79.46l-.03,.2s-3.63,.92-3.76,1.57l6.85,.88,.2-2.29c-1.08,.34-2.15,.26-3.27-.37Z"/><path class="cls-2" d="M82.69,80.46c.13,.05,.2,.21,.15,.34-.05,.13-.21,.21-.34,.15-.13-.05-.22-.24-.16-.37,.06-.12,.26-.2,.37-.12"/><path class="cls-12" d="M83.28,82.12l.05-.55-6.59-.64s-.32,.09-.32,.31l6.85,.88Z"/><path class="cls-12" d="M80.16,79.68s.16,.07,.31,.2c.15,.12,.22,.28,.25,.27,.03,0,0-.21-.18-.36-.18-.15-.39-.14-.39-.11Z"/><path class="cls-12" d="M79.4,79.88s.13,.11,.22,.26c.1,.15,.11,.31,.14,.31,.03,0,.08-.18-.04-.38-.12-.19-.32-.23-.32-.2Z"/><path class="cls-12" d="M78.88,80.69s.1-.15,.04-.34c-.06-.19-.21-.29-.23-.26-.02,.03,.07,.14,.12,.3,.05,.16,.04,.3,.08,.31Z"/><g><path class="cls-12" d="M94.09,14.7c.08-.53,.56-.93,1.07-1.06,.52-.13,1.07-.02,1.57,.16,.56,.2,1.1,.5,1.51,.94,.41,.44,.67,1.03,.64,1.63-.03,.56-.31,1.12-.15,1.66,.12,.41,.46,.71,.81,.95,.35,.25,.72,.48,.96,.83,.23,.36,.27,.89-.04,1.17-.28,.25-.78,.28-.9,.64-.07,.22,.05,.46,.12,.68,.14,.48,.03,1.01-.23,1.43-.26,.42-.66,.75-1.09,.99-.76,.43-1.7,.63-2.51,.29-.4-.17-.73-.46-.99-.81-.42-.58-.61-1.3-.65-2.02-.04-.72,.05-1.43,.14-2.14"/><path class="cls-12" d="M93.81,23.22c.66,.18,1.4,.03,1.94-.39,.54-.42,.86-1.11,.85-1.79-.01-.64-.3-1.29-.1-1.9,.14-.42,.49-.74,.6-1.17,.18-.63-.21-1.27-.57-1.81-.23-.35-.47-.7-.8-.97-.33-.27-.76-.43-1.17-.35"/><path class="cls-12" d="M87.91,14.91c.04,.48-.28,.91-.6,1.28-.32,.36-.68,.74-.75,1.22-.12,.85,.71,1.64,.54,2.48-.09,.45-.46,.81-.53,1.27-.06,.44,.17,.87,.46,1.21,.29,.34,.65,.61,.91,.98,0,0,.54,.88,2.2,.32"/><path class="cls-12" d="M95.33,15.64c.01-.44-.39-.78-.8-.94-.41-.16-.86-.22-1.22-.47-.32-.22-.54-.55-.81-.83-.67-.68-1.71-.96-2.63-.71-.92,.25-1.67,1.02-1.9,1.94-.16,.62-.05,1.36,.44,1.77,.57,.48,1.42,.37,2.15,.22,.73-.15,1.56-.3,2.17,.13,.37,.26,.58,.68,.8,1.07,.22,.39,.51,.79,.93,.93,.43,.15,1-.11,1.02-.56"/><g><g><path class="cls-9" d="M93.6,15.73c.38,.04,.66,.36,.65,.74h0l-.44,9.89c-.02,1.17-1.73,1.82-2.98,1.8h0c-1.26-.03-1.3-.65-1.32-1.76-.03-1.86-.02-2.55-.02-2.54,0,0-1.6-.27-1.92-2.35-.16-1.04-.11-2.73-.02-4.12,.08-1.25,.91-2.78,2.16-2.65l3.88,.99Z"/><g><path class="cls-12" d="M87.93,18.76c0,.14,.11,.26,.26,.27,.15,0,.27-.1,.28-.24,0-.14-.11-.26-.26-.27-.15,0-.27,.1-.28,.24Z"/><path class="cls-12" d="M87.86,18.05s.24-.11,.52-.11c.29,0,.5,.15,.53,.11,.02-.02-.02-.08-.11-.15-.09-.07-.24-.13-.42-.13-.18,0-.33,.07-.42,.13-.09,.07-.12,.13-.1,.15Z"/></g><g><path class="cls-12" d="M90.6,18.81c0,.14,.11,.26,.26,.27,.15,0,.27-.1,.28-.24,0-.14-.11-.26-.26-.27-.15,0-.27,.1-.28,.24Z"/><path class="cls-12" d="M90.75,18.19s.24-.11,.52-.11c.29,0,.5,.15,.53,.11,.02-.02-.02-.08-.11-.15-.09-.07-.24-.13-.42-.13-.18,0-.33,.07-.42,.13-.09,.07-.12,.13-.1,.15Z"/></g><path class="cls-12" d="M89.71,20.46s-.18-.05-.47-.09c-.07,0-.14-.02-.16-.07-.02-.05,.01-.13,.05-.22,.07-.18,.14-.36,.22-.56,.3-.79,.52-1.45,.49-1.46-.03-.01-.3,.62-.61,1.42-.07,.2-.14,.38-.21,.56-.03,.08-.08,.18-.04,.29,.02,.05,.07,.09,.12,.11,.05,.01,.09,.02,.12,.02,.29,.02,.47,.02,.47,0Z"/><path class="cls-8" d="M89.5,23.86s1.4,.09,2.79-.74c0,0-.71,1.43-2.79,1.23v-.49Z"/></g><path class="cls-12" d="M90.63,17.49c.03,.08,.32,.04,.65,.08,.34,.03,.61,.13,.65,.06,.02-.03-.03-.11-.14-.18-.11-.08-.28-.15-.48-.17-.2-.02-.39,0-.51,.06-.12,.05-.19,.11-.17,.15Z"/><path class="cls-12" d="M87.9,17.41c.06,.07,.28,0,.55,0,.27-.01,.5,.04,.55-.02,.02-.03-.01-.1-.11-.16-.1-.06-.26-.11-.45-.11-.19,0-.35,.06-.44,.13-.1,.07-.13,.13-.1,.17Z"/></g><path class="cls-12" d="M95.06,22.59c-.57,.12-1.2-.06-1.62-.46-.43-.4-.65-1.01-.58-1.59,.06-.51,.34-1.03,.16-1.52-.23-.64-1.13-.84-1.37-1.48-.14-.37-.01-.81-.17-1.17-.15-.34-.51-.54-.86-.67-.35-.13-.73-.21-1.02-.44-.29-.23-.48-.66-.29-.98,1.55,.19,3.08,.56,4.55,1.11,.34,.13,.7,.28,.9,.58,.21,.32,.2,.73,.18,1.12-.09,1.87-.17,3.74-.26,5.61"/><path class="cls-11" d="M96.16,15.82s.02,.02,.03,.09c.01,.06,0,.16-.08,.25-.07,.09-.2,.18-.37,.19-.17,0-.35-.07-.53-.16-.18-.09-.38-.17-.61-.18-.23-.01-.48,.02-.74,.07-.26,.05-.53,.1-.83,.11-.29,0-.62-.08-.85-.31-.23-.22-.37-.5-.49-.76-.12-.26-.24-.51-.4-.71-.31-.42-.83-.54-1.2-.44-.38,.1-.61,.36-.72,.54-.12,.19-.14,.31-.15,.31,0,0,0-.03,.02-.09,.02-.06,.05-.14,.1-.24,.11-.19,.34-.48,.74-.59,.2-.05,.44-.06,.67,.01,.23,.07,.46,.22,.63,.44,.17,.21,.29,.47,.41,.73,.12,.26,.26,.53,.47,.73,.21,.21,.5,.29,.78,.28,.28,0,.55-.06,.81-.1,.26-.04,.52-.08,.76-.06,.24,.01,.46,.11,.63,.2,.18,.09,.34,.16,.49,.17,.15,0,.27-.08,.34-.16,.07-.08,.09-.16,.09-.22,0-.06-.02-.09-.01-.09Z"/><path class="cls-11" d="M96.39,16.02s-.35-.51-.99-.87c-.64-.37-1.25-.38-1.25-.41,0-.01,.15-.03,.4,0,.24,.03,.58,.13,.91,.32,.33,.19,.58,.43,.73,.62,.15,.19,.21,.33,.2,.34Z"/><path class="cls-11" d="M94.06,14.63s0,.02-.03,.06c-.03,.04-.07,.09-.13,.14-.13,.1-.38,.2-.69,.15-.31-.05-.62-.26-.9-.54-.28-.27-.54-.63-.93-.85-.38-.22-.83-.25-1.2-.15-.37,.09-.65,.32-.83,.54-.18,.23-.27,.45-.32,.61-.05,.16-.05,.25-.06,.25,0,0,0-.02,0-.07,0-.04,0-.11,.03-.19,.03-.16,.12-.4,.3-.64,.18-.24,.48-.48,.87-.59,.39-.11,.86-.08,1.27,.15,.41,.23,.67,.6,.94,.87,.27,.28,.56,.48,.85,.53,.28,.05,.52-.02,.65-.11,.13-.09,.18-.18,.19-.17Z"/><path class="cls-11" d="M93.96,23.48s.03,.01,.09,.03c.06,.01,.15,.02,.27,.03,.24,0,.6-.03,.98-.22,.39-.18,.8-.54,1.05-1.06,.25-.51,.35-1.18,.18-1.81-.07-.32-.17-.62-.18-.91-.02-.3,.07-.57,.21-.81,.13-.24,.27-.48,.32-.74,.06-.25,.06-.49,.02-.71-.08-.43-.27-.74-.43-.91-.08-.09-.15-.15-.2-.19-.05-.04-.08-.06-.08-.05,0,0,.1,.09,.24,.27,.14,.18,.32,.48,.38,.9,.03,.2,.03,.43-.03,.67-.06,.24-.19,.46-.32,.71-.07,.12-.13,.26-.18,.4-.04,.15-.06,.31-.05,.46,.01,.32,.11,.62,.18,.93,.16,.62,.08,1.24-.16,1.74-.23,.5-.62,.85-.99,1.03-.37,.19-.71,.24-.95,.25-.23,0-.36-.02-.37,0Z"/><path class="cls-11" d="M97.65,14.26s-.11-.11-.36-.18c-.24-.07-.61-.09-.96,.07-.36,.16-.58,.46-.68,.68-.1,.23-.11,.39-.09,.39,.02,0,.05-.14,.17-.35,.11-.2,.33-.46,.66-.61,.32-.15,.66-.15,.89-.1,.23,.04,.37,.12,.38,.1Z"/><path class="cls-11" d="M96.11,15.57s0-.05,0-.14c0-.09,.01-.22,.09-.37,.08-.14,.22-.3,.43-.41,.21-.11,.49-.14,.76-.02,.27,.11,.52,.35,.68,.65,.17,.31,.23,.68,.21,1.08-.01,.4-.1,.81-.2,1.23-.09,.43-.18,.88-.16,1.36,.03,.48,.19,.92,.35,1.32,.17,.41,.34,.79,.45,1.17,.11,.38,.15,.76,.09,1.11-.05,.35-.16,.66-.29,.93-.26,.54-.56,.94-.76,1.21-.1,.13-.17,.23-.23,.31-.05,.07-.08,.11-.08,.11s.04-.03,.1-.1c.06-.07,.15-.17,.25-.3,.21-.27,.53-.65,.8-1.2,.14-.27,.26-.59,.31-.96,.06-.36,.03-.76-.09-1.15-.11-.39-.29-.78-.45-1.18-.16-.4-.32-.83-.34-1.28-.04-.91,.33-1.76,.35-2.58,.01-.41-.06-.81-.24-1.13-.18-.32-.44-.57-.74-.68-.29-.12-.61-.08-.83,.04-.22,.12-.37,.29-.44,.44-.08,.16-.09,.3-.07,.39,.01,.09,.03,.13,.03,.13Z"/><path class="cls-8" d="M89.81,21.16c.05,.12,.1,.25,.18,.35,.08,.1,.2,.19,.33,.19,.14,0,.28-.08,.35-.19,.08-.12,.1-.26,.1-.4,0-.13-.06-.28-.19-.29-.05,0-.1,.01-.15,.03-.22,.09-.44,.18-.66,.27"/><path class="cls-12" d="M90.08,21.71s.15,.04,.35-.04c.1-.04,.21-.12,.27-.24,.06-.12,.07-.29,0-.43-.01-.04-.04-.07-.06-.1-.03-.03-.02-.03-.05-.02-.03,0-.07,.03-.11,.04-.04,.02-.07,.03-.11,.04-.14,.06-.27,.11-.38,.15-.22,.08-.35,.12-.36,.11,0-.02,.12-.08,.33-.19,.1-.05,.23-.11,.37-.17,.04-.02,.07-.03,.11-.05,.04-.02,.07-.03,.12-.05,.03,0,.06-.01,.1,0,.03,.01,.06,.04,.07,.06,.03,.04,.06,.08,.07,.13,.08,.18,.06,.38-.02,.53-.08,.15-.22,.24-.34,.27-.12,.04-.22,.03-.29,.01-.07-.02-.1-.04-.09-.05Z"/></g><g><path class="cls-12" d="M96.55,61.29l-1.24-9.94c.81-1.88,1.1-3.77,.86-4.93,.01,.12,.02,.27-.01-.07-.2-2.07-1.99-3.59-1.99-3.59l-.6-2.51-7.65,1.08,.29,4.2-4.81,15.61-1.12,16.88,4.08,.46s1.56-7.66,1.98-10.74c.39-2.83,.4-5.04,.4-5.04l3.76-5.62c.44,2.32,.95,5.19,1.21,6.68,.12,.67,.4,1.29,.83,1.82l9.83,7.74,2.35-3.05c-.94-2.23-8.18-8.96-8.18-8.96Z"/><path class="cls-11" d="M86.9,44.43s-.08-.15-.16-.42c-.08-.26-.17-.63-.24-1.05-.06-.42-.08-.8-.08-1.07,0-.28,.02-.45,.03-.45,.01,0,.02,.17,.04,.44,.02,.27,.05,.65,.11,1.06,.06,.41,.14,.78,.21,1.05,.06,.27,.11,.43,.1,.43Z"/><path class="cls-11" d="M87.26,41.57s.03-.03,.1-.04c.07-.01,.18-.02,.29,.04,.11,.05,.24,.18,.26,.36,.02,.17-.07,.38-.24,.48-.18,.11-.41,.06-.54-.05-.14-.11-.2-.28-.18-.4,.01-.13,.05-.22,.09-.28,.03-.06,.06-.09,.06-.09,0,0,0,.04-.03,.1-.02,.06-.05,.16-.05,.27,0,.11,.05,.24,.17,.33,.11,.09,.29,.12,.43,.04,.14-.08,.22-.25,.21-.39-.01-.14-.11-.25-.2-.31-.2-.12-.36-.04-.36-.06Z"/><path class="cls-11" d="M92.29,43.6s-.05,.03-.13,.06c-.09,.03-.22,.06-.39,.09-.17,.03-.37,.03-.59,.02-.22-.02-.46-.06-.71-.14-.24-.08-.47-.19-.66-.3-.19-.12-.35-.24-.47-.36-.12-.12-.21-.22-.27-.29-.06-.08-.08-.12-.08-.12,.01-.01,.14,.15,.39,.37,.12,.11,.28,.22,.47,.33,.19,.11,.4,.21,.64,.28,.24,.07,.47,.12,.69,.14,.22,.02,.41,.02,.57,0,.33-.03,.52-.09,.53-.08Z"/><path class="cls-11" d="M94.75,51.1s-.03,.04-.08,.12c-.06,.08-.15,.19-.25,.32-.21,.29-.52,.7-.89,1.22-.74,1.04-1.74,2.49-2.83,4.09-1.09,1.61-2.07,3.06-2.79,4.12-.35,.52-.64,.95-.85,1.25-.1,.14-.17,.25-.23,.34-.05,.08-.08,.12-.09,.11,0,0,.02-.04,.07-.12,.05-.09,.13-.2,.22-.35,.2-.31,.48-.74,.82-1.27,.7-1.07,1.67-2.53,2.76-4.14,1.09-1.61,2.1-3.05,2.85-4.08,.38-.51,.69-.92,.91-1.2,.11-.13,.2-.23,.27-.31,.06-.07,.1-.11,.1-.1Z"/></g><g><g><path class="cls-12" d="M93.95,28.2s.02-.2,.07-.52c.05-.32,.18-.75,.42-1.17,.24-.43,.56-.75,.85-.87,.29-.13,.5-.06,.5-.08,0,0-.05-.03-.14-.04-.09-.01-.23,0-.39,.05-.32,.11-.67,.45-.91,.88-.25,.44-.37,.88-.4,1.21-.04,.33-.01,.53,0,.53Z"/><path class="cls-7" d="M93.29,25.1l-3.88,.6-2.41,3.18s-1.52,1.82-1.4,4.45c.05,1.15,.6,2.39,.6,2.39l-.61,4.55c-.09,.52,.25,1.02,.48,1.02l7.26-.97c.95-.19,1.34-.68,1.28-1.23l-.11-1.01,2.4-10.24c.18,.61,.08-1.98-1.31-2.49-.59-.22-1.42-.44-2.31-.25Z"/><path class="cls-12" d="M88.23,27.21s-.02,.02-.06,.07c-.04,.06-.1,.12-.16,.21-.14,.18-.33,.44-.56,.77-.46,.66-1.09,1.59-1.52,2.75-.43,1.15-.49,2.29-.34,3.08,.07,.4,.18,.71,.27,.91,.04,.1,.09,.18,.11,.23,.03,.05,.04,.08,.05,.08,0,0-.04-.12-.12-.33-.08-.21-.17-.52-.24-.91-.13-.78-.06-1.9,.37-3.04,.43-1.14,1.04-2.07,1.49-2.74,.22-.32,.4-.59,.54-.79,.06-.09,.11-.16,.14-.22,.03-.05,.05-.08,.04-.08Z"/><path class="cls-12" d="M94.06,29.68s0,.03,0,.09c0,.07,.02,.16,.03,.26,.03,.23,.08,.56,.16,.96,.14,.81,.38,1.92,.65,3.14,.28,1.22,.55,2.32,.75,3.12,.1,.4,.19,.72,.25,.94,.03,.1,.05,.18,.08,.25,.02,.06,.03,.09,.03,.09,0,0,0-.03-.01-.09-.02-.07-.03-.15-.06-.26-.06-.24-.13-.56-.22-.95-.19-.81-.44-1.91-.72-3.12-.28-1.22-.52-2.33-.68-3.13-.08-.39-.14-.71-.19-.95-.02-.1-.04-.19-.05-.26-.01-.06-.02-.09-.02-.09Z"/><g class="cls-13"><path d="M93.87,40.18c-.42-.42-.5-1.05-.57-1.64-.21-1.87-.42-3.73-.62-5.6-.13-1.16-.25-2.38,.19-3.47,.07-.16,.16-.34,.33-.39,.16-.05,.34,.05,.44,.18,.1,.13,.38,.33,.43,.49,.42,1.66,.61,3.3,1.03,4.97,.11,.44,.26,.42,.16,.87-.14,.64-.74,2.49-.74,2.49,0,0,.09,.67,.11,1.06,.03,.39-.2,.88-.75,1.04"/></g></g><polygon class="cls-7" points="89.24 26.06 89.12 25.03 94.26 24.37 94.26 25.52 89.24 26.06"/></g><g><path class="cls-11" d="M67.75,74.16l2.23,3.75s-3.06,3.53-2.72,4.26l7.43-4.06-3.24-5.99-3.71,2.04Z"/><path class="cls-10" d="M72.11,76.34c.17-.04,.35,.07,.4,.23,.05,.16-.06,.36-.23,.4-.16,.04-.39-.08-.42-.25-.03-.17,.11-.39,.28-.39"/><path class="cls-12" d="M74.69,78.11l-.35-.59-6.99,4.12s-.25,.32-.09,.54l7.43-4.06Z"/><path class="cls-12" d="M69.84,77.94s.21-.05,.45-.03c.24,.01,.42,.12,.45,.09,.03-.03-.14-.21-.44-.23-.29-.02-.49,.14-.46,.17Z"/><path class="cls-12" d="M69.24,78.69s.2,.02,.41,.1c.21,.08,.33,.23,.37,.21,.04-.01-.05-.24-.31-.34-.26-.1-.48,0-.46,.03Z"/><path class="cls-12" d="M69.31,79.87s-.01-.22-.21-.37c-.2-.15-.41-.13-.41-.1,0,.04,.16,.09,.33,.21,.17,.12,.26,.27,.3,.25Z"/><path class="cls-12" d="M69.43,77.03s.17-.12,.39-.21c.21-.1,.41-.12,.41-.16,0-.04-.22-.09-.47,.03-.25,.12-.36,.33-.32,.34Z"/><g><path class="cls-11" d="M68.04,75.69l.16,4.36s-4.38,1.63-4.43,2.44h8.47s.02-6.82,.02-6.82l-4.23,.02Z"/><path class="cls-10" d="M70.82,79.68c.16,.04,.28,.23,.24,.39-.04,.17-.22,.28-.39,.24-.16-.04-.31-.26-.25-.42,.06-.16,.28-.29,.43-.21"/><path class="cls-12" d="M72.25,82.48l-.02-.69-8.11,.27s-.38,.16-.33,.43h8.47Z"/><path class="cls-12" d="M68.07,80.01s.21,.06,.41,.19c.21,.13,.31,.31,.35,.29,.04,0-.02-.26-.27-.41-.25-.16-.5-.11-.49-.07Z"/><path class="cls-12" d="M67.18,80.38s.17,.11,.31,.28c.15,.17,.18,.36,.22,.36,.04,0,.07-.24-.11-.45-.18-.22-.42-.23-.42-.19Z"/><path class="cls-12" d="M66.68,81.44s.09-.2-.01-.42c-.1-.23-.3-.32-.32-.28-.02,.03,.1,.16,.19,.34,.09,.19,.1,.36,.14,.36Z"/></g><path class="cls-12" d="M68.14,79.01s.21-.02,.44,0c.23,.01,.42,.09,.44,.05,.02-.03-.15-.18-.43-.2-.28-.02-.47,.12-.45,.15Z"/><g><path class="cls-12" d="M72.31,48.92s.48,2.4,.24,2.75c-.24,.35-.67,1.45-.67,1.45l.14,10.8,.74,15.89-5.04-.1-1.89-14.04s-.73-1.3-1-2.41c-.27-1.11-1.78-12.17-1.78-12.17l.08-4.25,9.18,2.09Z"/><path class="cls-12" d="M60.84,47.07s.77,14.48,1.1,15.77c.32,1.29,7.24,14.56,7.24,14.56l4.37-2.04-5.46-13.97,.26-13.37-7.49-.94Z"/><path class="cls-11" d="M62.55,48.35s0,.03,0,.08c0,.06,.02,.14,.03,.24,.03,.22,.07,.53,.12,.92,.11,.8,.27,1.96,.46,3.38,.2,1.43,.44,3.13,.7,5.01,.13,.94,.27,1.93,.42,2.96,.16,1.02,.36,2.09,.72,3.13,.36,1.04,.88,2,1.05,3.02,.2,1.02,.33,2.01,.46,2.95,.25,1.89,.44,3.59,.61,5.02,.17,1.43,.3,2.59,.41,3.39,.05,.4,.09,.71,.13,.92,.02,.1,.03,.18,.04,.24,0,.05,.02,.08,.02,.08,0,0,0-.03,0-.08,0-.06-.02-.14-.03-.24-.03-.22-.06-.53-.11-.92-.09-.81-.22-1.96-.37-3.39-.16-1.43-.35-3.14-.59-5.03-.13-.94-.26-1.94-.45-2.96-.16-1.04-.69-2-1.05-3.04-.36-1.04-.56-2.09-.72-3.11-.16-1.02-.29-2.02-.43-2.96-.27-1.88-.52-3.58-.72-5.01-.21-1.42-.38-2.57-.5-3.38-.06-.39-.11-.7-.14-.92-.02-.1-.03-.18-.04-.24,0-.05-.02-.08-.02-.08Z"/></g><path class="cls-11" d="M72.36,71.27s0,.12,0,.33c0,.21,.01,.53,.03,.91,.03,.77,.08,1.83,.15,3,.07,1.17,.12,2.23,.16,3,.02,.37,.03,.68,.04,.91,.01,.21,.02,.33,.03,.33,0,0,.01-.12,.01-.33,0-.21,0-.53,0-.91-.02-.77-.06-1.83-.13-3-.07-1.16-.13-2.21-.18-2.99-.02-.37-.04-.68-.06-.91-.02-.21-.03-.33-.03-.33Z"/></g><g><g><g><g><path class="cls-4" d="M67.05,16.47l1.04,7.99c.18,1.36,.16,3.39-2,3.57h0c-1.89,.02-2.59-1.69-2.75-2.96-.08-.6-.14-1.1-.16-1.16,0,0-2.06,.07-2.47-1.92-.2-.96-.44-2.98-.65-4.81-.22-1.96,1.11-3.76,3.05-4.14l.19-.04c2.1-.28,3.51,1.35,3.73,3.46Z"/><path class="cls-6" d="M63.17,23.88s1.28-.14,2.46-1.24c0,0-.34,1.56-2.37,1.76l-.1-.52Z"/></g><g><g><g><path class="cls-12" d="M60.56,18.12s.31-.08,.69-.06c.38,.02,.65,.18,.69,.15,.02-.01-.02-.07-.14-.14-.12-.07-.32-.14-.55-.16-.23-.02-.43,.03-.55,.08-.12,.05-.16,.11-.14,.12Z"/><path class="cls-12" d="M63.7,17.86c.05,.01,.24-.21,.59-.35,.35-.15,.65-.13,.68-.17,.01-.02-.05-.05-.19-.06-.13,0-.34,.01-.56,.1-.22,.09-.37,.22-.45,.32-.08,.1-.09,.17-.07,.17Z"/></g><path class="cls-12" d="M63.64,18.5c.02,.12,.13,.2,.26,.18,.12-.02,.21-.13,.19-.24-.02-.12-.13-.2-.26-.18-.12,.02-.21,.13-.19,.24Z"/><path class="cls-12" d="M60.77,18.84c.02,.12,.13,.2,.26,.18,.12-.02,.21-.13,.19-.24-.02-.12-.13-.2-.26-.18-.12,.02-.21,.13-.19,.24Z"/><path class="cls-12" d="M63.04,20.05s-.2-.01-.52,0c-.08,0-.16,0-.18-.05-.03-.05-.01-.14,0-.24,.04-.2,.08-.42,.12-.64,.16-.91,.26-1.66,.22-1.66-.04,0-.2,.73-.35,1.64-.04,.22-.07,.44-.11,.64-.01,.09-.04,.21,.02,.32,.03,.05,.1,.09,.15,.09,.05,0,.1,0,.14,0,.31-.04,.51-.08,.51-.1Z"/></g><path class="cls-12" d="M63.6,16.31c.04,.07,.3-.02,.63-.04,.32-.03,.6,.02,.63-.06,.01-.04-.05-.1-.16-.15-.12-.05-.29-.09-.49-.08-.19,.02-.36,.08-.47,.15-.11,.07-.15,.14-.14,.18Z"/><path class="cls-12" d="M60.47,17.32c.04,.06,.3-.04,.62-.09,.32-.05,.59-.04,.61-.11,.01-.03-.05-.08-.16-.12-.12-.04-.29-.05-.48-.02-.19,.03-.35,.1-.46,.17-.1,.07-.15,.14-.13,.16Z"/></g></g><g><path class="cls-4" d="M67.17,17.98s1.29-.67,1.51,.7c.22,1.37-1.21,1.31-1.21,1.27,0-.04-.3-1.98-.3-1.98Z"/><path class="cls-6" d="M67.81,19.37s.03,.01,.07,.03c.04,.01,.11,.01,.18-.02,.14-.08,.22-.33,.19-.58-.02-.13-.06-.24-.12-.33-.06-.09-.13-.15-.21-.16-.08,0-.12,.05-.13,.09-.01,.04,0,.07,0,.07,0,0-.03-.02-.03-.08,0-.03,.01-.06,.04-.09,.03-.03,.08-.05,.13-.06,.11,0,.22,.07,.28,.17,.07,.1,.13,.23,.14,.37,.04,.28-.07,.56-.25,.65-.09,.04-.18,.02-.22,0-.05-.03-.06-.06-.06-.06Z"/></g></g><path class="cls-12" d="M63.48,20.96s.24-.15,.4-.42c.08-.14,.12-.28,.15-.38,.03-.11,.05-.17,.07-.17,.01,0,.02,.07,0,.18-.01,.11-.04,.27-.13,.42-.09,.16-.22,.26-.32,.31-.1,.06-.17,.07-.18,.05Z"/><path class="cls-12" d="M57.18,15.69c.01-.08,.06-.16,.13-.21,.15-.11,.33-.12,.51-.14,.53-.07,1.04-.3,1.46-.64,.17-.33,.38-.64,.6-.94,.54-.7,.99-1.19,1.48-1.46,.64-.35,1.75-.59,2.47-.49,.72,.1,1.42,.6,1.6,1.3,.35-.38,.94-.45,1.45-.31h.01c.56,.12,.92,.65,1.15,1.17,.22,.53,.36,1.1,.7,1.55,.07,.09,.16,.21,.12,.32-.03,.09-.13,.13-.22,.13-.09,0-.18-.04-.26-.08,.08,.14,.15,.27,.23,.41-.19,.06-.39,.06-.58,.03-.05,.52-.12,1.12-.21,1.48-.22,.03-.42,.07-.55,.21-.17,.19-.21,.52-.54,.43-.17-.04-.35-.36-.42-.51-.48-1.03-.73-2.16-.73-3.29-.25-.21-.54-.37-.85-.47l.03,.02c-.59-.13-1.25-.25-1.75,.08-.39,.25-.58,.71-.85,1.09-.51,.72-1.26,1.17-2.13,1.31,.04,.57,.18,1.37,.22,1.94l-.58-.85h0c-.05-.06-.09-.12-.13-.18v-.02s-.01,0-.01,0c-.06-.1-.12-.2-.2-.3,0,0,0,0,0,0-.28,.31-.78-.05-.57-.41,.04-.07,.09-.14,.15-.19-.12,.15-.33,.24-.52,.2-.19-.03-.36-.2-.36-.4,0-.13,.08-.26,.19-.33-.25,.05-.51,.02-.74-.07-.15-.06-.31-.18-.28-.36Z"/><path class="cls-11" d="M64.83,13.42s.09,.04,.22,.16c.13,.12,.29,.33,.39,.63,.05,.15,.09,.32,.11,.51,.02,.19,.03,.39,.04,.6,.01,.21,.02,.43,.06,.66,.02,.11,.05,.23,.09,.34,.04,.11,.08,.23,.18,.32,.08,.07,.2,.09,.3,.06,.1-.03,.18-.09,.24-.17,.11-.17,.12-.36,.13-.54h-.04c.09,.15,.18,.3,.29,.4,.12,.11,.27,.17,.42,.17,.07,0,.14-.02,.2-.06,.06-.04,.1-.1,.12-.16,.02-.06,.03-.12,.02-.18-.01-.06-.04-.11-.08-.15l-.02,.02c.18,.16,.35,.23,.47,.27,.06,.02,.11,.03,.14,.04,.03,0,.05,0,.05,0,0,0-.02,0-.05-.01-.03,0-.08-.02-.14-.04-.12-.04-.29-.12-.46-.28l-.02,.02c.08,.06,.1,.19,.05,.3-.02,.05-.06,.11-.11,.14-.05,.03-.12,.05-.18,.05-.14,0-.28-.06-.39-.16-.11-.1-.2-.24-.28-.39l-.04-.06v.07c-.02,.17-.03,.36-.13,.51-.05,.07-.13,.13-.21,.16-.09,.03-.18,0-.25-.05-.09-.08-.13-.19-.17-.3-.04-.11-.07-.22-.09-.34-.04-.22-.05-.45-.06-.66-.01-.21-.02-.41-.05-.6-.02-.19-.07-.36-.12-.51-.1-.31-.27-.52-.41-.64-.14-.12-.24-.15-.24-.15Z"/><path class="cls-11" d="M58.83,16.11s0,0,.02,.01c.01,0,.03,.02,.05,.03,.02,.01,.05,.03,.09,.04,.04,.02,.08,.04,.13,.05,.2,.07,.51,.12,.88,.05,.37-.06,.8-.25,1.16-.59,.37-.34,.67-.8,.9-1.33,.12-.26,.21-.53,.31-.77,.1-.25,.22-.48,.38-.67,.15-.19,.34-.34,.54-.42,.1-.04,.2-.06,.3-.07,.1,0,.2,0,.29,.02,.18,.04,.33,.12,.45,.2,.12,.09,.2,.18,.26,.27,.11,.17,.13,.29,.14,.29,0,0,0,0,0-.02,0-.02-.01-.04-.02-.06-.02-.05-.05-.13-.1-.22-.06-.09-.14-.19-.26-.28-.12-.09-.27-.17-.46-.21-.09-.02-.19-.03-.3-.02-.1,0-.21,.03-.31,.07-.21,.08-.4,.24-.56,.43-.16,.19-.28,.43-.39,.68-.11,.25-.2,.51-.31,.77-.23,.52-.53,.98-.89,1.31-.36,.34-.78,.52-1.14,.59-.37,.07-.67,.02-.87-.04-.2-.06-.3-.13-.3-.12Z"/><path class="cls-11" d="M58.54,15.25s.03,.02,.08,.04c.05,.03,.13,.05,.23,.08,.1,.03,.22,.05,.35,.07,.13,.01,.28,.02,.44,0,.16-.01,.3-.04,.43-.08,.13-.04,.24-.08,.33-.13,.09-.05,.16-.09,.21-.12,.05-.03,.07-.05,.07-.05,0,0-.11,.06-.29,.14-.09,.04-.2,.08-.33,.12-.13,.03-.27,.06-.42,.08-.15,.01-.3,0-.43,0-.13-.01-.25-.03-.35-.06-.2-.05-.31-.1-.31-.09Z"/></g><g><path class="cls-11" d="M61.24,37.42c0-.25,2.03-11.52,2.03-11.52,.38-.36,4.67-3.5,4.67-3.5l3.7,4.45s.93,3.48,1.22,6c.19,1.66,1.05,9.6,1.3,12.94,.07,.9-.35,1.77-1.1,2.29l-.39,.04-.1,1c-3.42,.08-11.69-1.44-11.79-1.38-.13,.08,.46-9.4,.46-10.32Z"/><path class="cls-12" d="M60.79,46.5s.04,.01,.12,.03c.09,.02,.2,.04,.34,.08,.3,.07,.73,.15,1.26,.25,1.07,.19,2.55,.42,4.19,.62,1.64,.2,3.13,.37,4.21,.49,.53,.06,.96,.11,1.28,.14,.14,.01,.26,.03,.35,.04,.08,0,.12,0,.12,0s-.04-.01-.12-.02c-.09-.01-.2-.03-.35-.05-.3-.04-.73-.1-1.27-.17-1.08-.13-2.57-.31-4.2-.51-1.64-.2-3.12-.42-4.19-.6-.53-.09-.97-.16-1.26-.22-.14-.03-.26-.05-.34-.06-.08-.01-.12-.02-.12-.02Z"/><path class="cls-11" d="M69.68,22.12c.59,.17,1.09,.58,1.57,.97,.69,.57,1.37,1.14,2.06,1.7,.4,.33,.81,.68,.99,1.17,.25,.7-.08,1.52-.67,1.97-.59,.45-1.39,.56-2.12,.45s-1.42-.41-2.09-.73l-1.61-5.14c.36-.51,1.29-.55,1.88-.38Z"/><path class="cls-12" d="M63.22,25.94s.08-.03,.22-.09c.14-.06,.34-.16,.58-.29,.48-.26,1.13-.64,1.81-1.12,.68-.48,1.28-.94,1.71-1.28,.21-.16,.38-.29,.51-.4,.12-.09,.18-.15,.18-.15,0,0-.07,.04-.2,.13-.13,.09-.31,.21-.53,.38-.44,.32-1.04,.77-1.72,1.25-.68,.48-1.32,.87-1.79,1.14-.24,.13-.43,.24-.57,.31-.13,.07-.21,.12-.2,.12Z"/><path class="cls-12" d="M69.02,24.34s.07,.06,.19,.16c.06,.05,.14,.11,.23,.18,.09,.07,.19,.15,.29,.25,.43,.38,.99,.95,1.45,1.69,.47,.74,.74,1.49,.89,2.04,.07,.28,.13,.5,.16,.66,.03,.16,.06,.24,.06,.24s0-.09-.03-.25c-.02-.16-.07-.39-.14-.67-.14-.56-.41-1.32-.88-2.07-.47-.75-1.04-1.32-1.48-1.69-.11-.09-.21-.17-.3-.24-.09-.07-.17-.13-.24-.17-.13-.09-.21-.14-.21-.13Z"/><g class="cls-13"><path d="M69.15,22.22c1.47,.18,3.04,1.82,4.24,2.8-.49,.1-1.26-.4-1.71-.63-1.13-.57-1.95-1.5-3.44-1.78l-.44-.1c.26-.23,1.03-.31,1.35-.29Z"/></g><path class="cls-12" d="M68.29,22.61s.08,.01,.22,.05c.14,.03,.34,.1,.57,.22,.46,.24,1.06,.66,1.73,1.1,.67,.44,1.32,.78,1.82,.97,.25,.09,.45,.15,.6,.18,.14,.03,.22,.04,.23,.04,0,0-.08-.03-.22-.07-.14-.04-.34-.11-.58-.21-.49-.19-1.12-.54-1.79-.98-.67-.43-1.27-.85-1.75-1.08-.24-.11-.45-.18-.59-.2-.07-.01-.13-.02-.17-.02-.04,0-.06,0-.06,0Z"/><g class="cls-13"><path d="M68,30.34c-.59,3.9-1.25,7.98-3.62,11.13-.63,.83-1.52,1.64-2.55,1.54-.41-.04-.89-.41-.72-.79,0,.04,.45-.18,.77-.39,.7-.45,1.32-.64,1.77-1.34,.45-.7,.84-1.66,1.17-2.43,1.06-2.4,2.32-5.3,3.18-7.74"/></g><path class="cls-12" d="M69.84,49.1s.14-.25,.19-.59c.05-.34,0-.62-.02-.62-.03,0-.02,.28-.07,.61-.05,.33-.13,.6-.1,.61Z"/><path class="cls-12" d="M68.28,48.8s.07-.24,.11-.55c.03-.31,.04-.56,.02-.56s-.07,.24-.11,.55c-.03,.31-.04,.56-.02,.56Z"/><path class="cls-12" d="M66.46,48.48s.09-.24,.14-.55c.06-.31,.08-.56,.06-.56-.02,0-.09,.24-.14,.55-.06,.31-.08,.56-.06,.56Z"/><path class="cls-12" d="M64.87,48.35s.05-.25,.12-.54c.07-.29,.16-.53,.14-.54-.02-.01-.15,.21-.23,.52-.08,.3-.06,.56-.04,.56Z"/><path class="cls-12" d="M63.26,48.03s.08-.2,.14-.46c.05-.26,.08-.47,.05-.48-.02,0-.08,.2-.14,.46-.05,.26-.08,.47-.05,.48Z"/><path class="cls-12" d="M61.81,47.94s.04-.27,.1-.59c.06-.32,.16-.58,.13-.59-.02,0-.15,.24-.22,.57-.07,.33-.04,.61-.02,.61Z"/><path class="cls-12" d="M64.18,40.92s-.02,.07-.03,.19c0,.06-.01,.14-.01,.23,0,.09,0,.19,0,.3,.01,.23,.05,.49,.12,.78,.08,.29,.18,.6,.33,.91,.15,.31,.33,.58,.52,.82,.19,.23,.37,.43,.54,.57,.08,.08,.17,.14,.24,.19,.07,.06,.13,.1,.19,.13,.11,.07,.17,.1,.17,.1,0-.01-.23-.16-.55-.46-.16-.15-.34-.35-.52-.58-.18-.23-.35-.51-.5-.81-.15-.3-.26-.61-.33-.89-.07-.28-.12-.55-.14-.77-.04-.44-.01-.72-.03-.72Z"/><g class="cls-13"><path d="M65.64,44.61l-.05-.04c-.72-.66-1.21-1.56-1.36-2.53,.71,.63,1.21,1.64,1.41,2.57Z"/></g><path class="cls-12" d="M65.99,47.32s.26-.36,.35-.9c.1-.53,.01-.97,0-.96-.03,0,.02,.43-.08,.95-.09,.52-.29,.9-.27,.91Z"/><path class="cls-12" d="M63.49,40.61s.12,.1,.3,.19c.18,.08,.33,.13,.34,.11,0-.02-.12-.1-.3-.19-.18-.08-.33-.13-.34-.11Z"/></g><path class="cls-12" d="M71.28,49.14s.18-.22,.22-.56c.05-.34-.05-.6-.07-.59-.03,0,.03,.27-.02,.58-.04,.32-.16,.56-.14,.57Z"/><polygon class="cls-10" points="109.97 42.33 109.37 32.98 49.22 36.88 48.86 31.39 36.57 42.4 50.19 51.93 49.83 46.23 109.97 42.33"/><path class="cls-12" d="M109.97,42.33c-.45,.03-25.17,1.65-60.14,3.95l.04-.05c.12,1.79,.24,3.73,.37,5.69v.1s-.08-.06-.08-.06c-4.39-3.07-8.95-6.26-13.62-9.53l-.05-.04,.05-.04c1.07-.96,2.21-1.98,3.37-3.01,3.04-2.72,6.02-5.39,8.93-7.99l.08-.07v.1c.13,1.86,.25,3.69,.36,5.49l-.05-.05c26.59-1.71,48.67-3.14,60.15-3.87h.02s0,.02,0,.02c.38,6.08,.57,9.2,.58,9.36-.01-.16-.22-3.27-.63-9.35l.02,.02c-11.48,.75-33.56,2.19-60.15,3.93h-.05s0-.05,0-.05c-.12-1.8-.24-3.63-.36-5.49l.08,.03c-2.9,2.6-5.89,5.28-8.93,7.99-1.15,1.03-2.3,2.06-3.37,3.01v-.08c4.67,3.27,9.23,6.46,13.62,9.53l-.08,.04c-.13-1.97-.25-3.91-.37-5.69v-.05s.04,0,.04,0c34.98-2.24,59.7-3.83,60.15-3.85Z"/><path d="M96.42,35.6c-.14-.59-.37-1.18-.37-1.78l-1.87,.15c.18,.84,.35,1.74,.02,2.53-.3,.71-.96,1.21-1.62,1.61-1.25,.76-2.66,1.41-3.44,2.64,.6,.29,1.3-.03,1.88-.35,1.44-.79,2.88-1.59,4.31-2.38,.32-.18,.66-.37,.88-.66,.36-.49,.34-1.16,.2-1.76Z"/><g><path class="cls-4" d="M58.29,42.66l-2.78,.39-2.1,2.47s.32,.28,.88-.05c.25-.15-.3,.51-.3,.51l-1.5,.11s-.14,.37,.21,.49c.35,.12,1.59,.17,1.59,.17l.13-.19s.22,.23,.59,.17c0,0,.46,.2,1.06,.1,.61-.1,.92-.26,.92-.26l2.63-2.49-1.34-1.41Z"/><path class="cls-6" d="M55.89,43.89s-.41,.27-.83,.71c-.42,.43-.71,.84-.68,.85,.02,.02,.34-.35,.75-.78,.42-.43,.78-.75,.76-.78Z"/><path class="cls-6" d="M55.47,45.53s-.3,.24-.62,.57c-.32,.33-.57,.62-.55,.64,.02,.02,.3-.24,.62-.57,.32-.33,.57-.62,.55-.64Z"/><path class="cls-6" d="M56.06,45.83s-.23,.21-.51,.45c-.28,.24-.54,.41-.52,.44,.01,.02,.3-.11,.59-.36,.29-.25,.47-.51,.45-.53Z"/><path class="cls-6" d="M56.66,46.08s-.19,.16-.41,.36c-.22,.2-.41,.35-.39,.38,.01,.02,.23-.1,.46-.3,.23-.21,.36-.41,.34-.43Z"/></g><g class="cls-13"><path d="M68.21,35.81c-.95-.35-2.04,.15-2.73,.89-.69,.75-1.08,1.71-1.55,2.61-1.01,1.94-2.41,3.68-4.09,5.07l1.1,.6c1.5-.62,2.96-1.36,4.34-2.22,.98-.61,1.96-1.32,2.52-2.33,.75-1.38,.6-3.06,.42-4.62Z"/></g><g><path class="cls-11" d="M67.95,28.48s.41,9.85-1,11.51c-1.41,1.66-6.28,5.06-6.28,5.06l-.61-.06-1.03,.23-1.66-2.48,5.07-5.43s.19-10.24,.36-10.5c.17-.26,.41-1.53,2.14-1.37,1.73,.16,3.05,1.69,3,3.03Z"/><path class="cls-12" d="M66.89,25.95s.07,.03,.18,.14c.11,.1,.24,.29,.38,.54,.13,.26,.28,.58,.39,.98,.1,.4,.1,.87,.09,1.39-.01,2.07-.1,4.93-.31,8.07-.02,.39-.05,.78-.1,1.16-.05,.38-.12,.75-.25,1.09-.14,.33-.37,.61-.59,.88-.23,.26-.47,.5-.71,.73-.97,.9-1.92,1.62-2.71,2.23-.8,.6-1.45,1.08-1.91,1.41-.22,.16-.4,.29-.52,.38-.06,.04-.1,.08-.13,.1-.03,.02-.05,.04-.04,.04,0,0,.02,0,.05-.03,.03-.02,.08-.05,.14-.09,.12-.09,.3-.21,.53-.37,.46-.32,1.12-.79,1.92-1.39,.8-.6,1.75-1.32,2.73-2.22,.25-.22,.48-.47,.72-.73,.23-.27,.46-.55,.6-.9,.13-.35,.2-.73,.25-1.11,.05-.38,.08-.77,.1-1.16,.21-3.15,.29-6.01,.28-8.08,0-.52,0-.99-.11-1.4-.11-.4-.27-.72-.41-.98-.14-.26-.28-.44-.39-.54-.11-.1-.19-.12-.19-.12Z"/><path class="cls-12" d="M62.44,37.33s.35,.09,.74,.29c.39,.2,.67,.43,.68,.41,.01-.01-.25-.28-.65-.48-.4-.21-.77-.24-.77-.22Z"/><path class="cls-12" d="M62.81,27.98s0-.17,.02-.45c.03-.27,.11-.65,.33-1,.21-.35,.5-.6,.72-.74,.22-.14,.38-.2,.38-.21,0,0-.04,0-.11,.03-.07,.02-.17,.07-.29,.13-.24,.13-.54,.38-.76,.74-.22,.36-.3,.76-.31,1.04,0,.14,0,.25,0,.33,0,.08,.02,.12,.03,.12Z"/></g><path class="cls-12" d="M57.38,42.76s.03-.04,.09-.11c.07-.08,.17-.18,.28-.32,.26-.28,.62-.67,1.06-1.16,.91-.98,2.17-2.34,3.59-3.87v.03c0-.24,0-.49,.02-.75,.1-2.25,.19-4.29,.26-5.77,.04-.73,.07-1.33,.09-1.75,.01-.2,.02-.36,.03-.48,0-.11,.01-.17,.02-.17,0,0,0,.06,0,.17,0,.12,0,.28-.01,.48-.01,.42-.03,1.02-.06,1.75-.06,1.49-.14,3.52-.23,5.77-.01,.26-.02,.51-.03,.75v.02s-.01,.01-.01,.01c-1.42,1.52-2.69,2.87-3.61,3.84-.45,.48-.82,.87-1.09,1.14-.12,.13-.22,.23-.3,.31-.07,.07-.11,.1-.11,.1Z"/><g><path class="cls-9" d="M90.26,41.11l-2.56,.18-2.07,2.12s.27,.28,.81,.01c.23-.12-.31,.44-.31,.44h-1.37s-.15,.33,.16,.46,1.44,.26,1.44,.26l.13-.16s.18,.23,.53,.19c0,0,.4,.21,.96,.16s.86-.18,.86-.18l2.56-2.1-1.13-1.38Z"/><path class="cls-8" d="M87.98,42.08s-.39,.22-.81,.59c-.41,.37-.7,.72-.68,.73,.02,.02,.33-.3,.74-.67,.41-.37,.76-.64,.75-.66Z"/><path class="cls-8" d="M87.49,43.55s-.29,.2-.6,.48c-.32,.28-.56,.53-.54,.55,.02,.02,.29-.2,.6-.48,.32-.28,.56-.53,.54-.55Z"/><path class="cls-8" d="M88.01,43.86s-.22,.18-.49,.38c-.27,.21-.52,.34-.5,.37,0,.02,.28-.08,.56-.29,.28-.21,.46-.44,.44-.45Z"/><path class="cls-8" d="M88.55,44.13s-.18,.13-.4,.3c-.21,.17-.39,.3-.38,.32,.01,.02,.22-.08,.44-.25,.22-.17,.36-.35,.34-.37Z"/></g><path class="cls-7" d="M94.97,25.23s1.81-.11,2.64,2.36c.83,2.47,2.42,8.43,2.27,10.07-.14,1.64-9.02,5.67-9.02,5.67l-2.01-2.5,6.73-4.42-1.78-7.9s-.71-3.07,1.16-3.28Z"/><path class="cls-12" d="M95.64,25.4s-.23,0-.56,.14c-.32,.13-.72,.46-.96,.95-.23,.49-.28,.99-.3,1.35-.02,.36-.02,.58-.03,.58-.01,0-.04-.22-.04-.59,0-.36,.04-.88,.28-1.39,.25-.51,.67-.85,1.02-.98,.17-.06,.32-.09,.43-.09,.1,0,.16,0,.16,.01Z"/><path class="cls-12" d="M97.26,36.77s-.34-.13-.77-.19c-.43-.07-.79-.01-.8-.04,0-.02,.36-.13,.81-.06,.46,.07,.77,.27,.76,.29Z"/></svg>