<?xml version="1.0" encoding="UTF-8"?><svg id="Camada_1" xmlns="http://www.w3.org/2000/svg" viewBox="0 0 136.41 91"><defs><style>.cls-1,.cls-2{fill:#0071bc;}.cls-3{fill:#f7931e;}.cls-4{fill:#f5f5f5;}.cls-5{fill:#fff;}.cls-6{fill:#ececec;}.cls-7{fill:#ffbf9d;}.cls-8{fill:#fafafa;}.cls-9{fill:#ff9a6c;}.cls-10{fill:#ff735d;}.cls-11{fill:#b8695e;}.cls-12{fill:#925249;}.cls-13{fill:#e1e1e1;}.cls-14{fill:#375a64;}.cls-15{fill:#1a2e35;}.cls-2{stroke:#000;stroke-miterlimit:10;stroke-width:2px;}</style></defs><path class="cls-13" d="M12.95,52.99s-.05-.53-.05-1.18,.02-1.18,.05-1.18,.05,.53,.05,1.18-.02,1.18-.05,1.18Z"/><path class="cls-13" d="M12.95,57.71s-.05-.53-.05-1.18,.02-1.18,.05-1.18,.05,.53,.05,1.18-.02,1.18-.05,1.18Z"/><path class="cls-13" d="M12.95,62.43s-.05-.53-.05-1.18,.02-1.18,.05-1.18,.05,.53,.05,1.18-.02,1.18-.05,1.18Z"/><path class="cls-13" d="M12.95,67.15s-.05-.53-.05-1.18,.02-1.18,.05-1.18,.05,.53,.05,1.18-.02,1.18-.05,1.18Z"/><path class="cls-13" d="M12.95,71.86s-.05-.53-.05-1.18,.02-1.18,.05-1.18,.05,.53,.05,1.18-.02,1.18-.05,1.18Z"/><path class="cls-13" d="M14.85,74.68s-.53,.05-1.18,.05c-.27,0-.52,0-.72-.01h0s-.04-.02-.04-.04c0-.28,.02-.46,.04-.46s.03,.18,.04,.46l-.04-.04c.2,0,.45-.01,.72-.01,.65,0,1.18,.02,1.18,.05Z"/><path class="cls-13" d="M19.57,74.68s-.53,.05-1.18,.05-1.18-.02-1.18-.05,.53-.05,1.18-.05,1.18,.02,1.18,.05Z"/><path class="cls-13" d="M24.29,74.68s-.53,.05-1.18,.05-1.18-.02-1.18-.05,.53-.05,1.18-.05,1.18,.02,1.18,.05Z"/><path class="cls-13" d="M28.11,74.68s-.33,.05-.73,.05-.73-.02-.73-.05,.33-.05,.73-.05,.73,.02,.73,.05Z"/><path class="cls-13" d="M59.89,7.05s.26-.05,.59-.05,.59,.02,.59,.05-.26,.05-.59,.05-.59-.02-.59-.05Z"/><path class="cls-13" d="M55.82,7.05s.46-.05,1.02-.05,1.02,.02,1.02,.05-.46,.05-1.02,.05-1.02-.02-1.02-.05Z"/><path class="cls-13" d="M51.75,7.05s.46-.05,1.02-.05,1.02,.02,1.02,.05-.46,.05-1.02,.05-1.02-.02-1.02-.05Z"/><path class="cls-13" d="M48.54,8.23s-.05-.53-.05-1.18c.1-.1,.03-.03,.05-.05h.03s.03,0,.03,0h.06s.08,0,.12,0c.08,0,.15,0,.22,0,.13,0,.25,0,.37,.01,.21,0,.35,.02,.35,.04s-.13,.03-.35,.04c-.12,0-.25,0-.37,.01-.07,0-.15,0-.22,0-.04,0-.08,0-.12,0h-.06s-.03,0-.03,0h-.02s0,0,0,0h0s-.05,.05,.05-.05c0,.65-.02,1.18-.05,1.18Z"/><path class="cls-13" d="M48.54,12.81s-.05-.51-.05-1.14,.02-1.14,.05-1.14,.05,.51,.05,1.14-.02,1.14-.05,1.14Z"/><path class="cls-13" d="M48.54,16.27s-.05-.26-.05-.59,.02-.59,.05-.59,.05,.26,.05,.59-.02,.59-.05,.59Z"/><path class="cls-13" d="M108.39,24.14s-.53,.05-1.18,.05-1.18-.02-1.18-.05,.53-.05,1.18-.05,1.18,.02,1.18,.05Z"/><path class="cls-13" d="M113.11,24.14s-.53,.05-1.18,.05-1.18-.02-1.18-.05,.53-.05,1.18-.05,1.18,.02,1.18,.05Z"/><path class="cls-13" d="M117.83,24.14s-.53,.05-1.18,.05-1.18-.02-1.18-.05,.53-.05,1.18-.05,1.18,.02,1.18,.05Z"/><path class="cls-13" d="M122.55,24.14s-.53,.05-1.18,.05-1.18-.02-1.18-.05,.53-.05,1.18-.05,1.18,.02,1.18,.05Z"/><path class="cls-13" d="M127.26,24.14s-.53,.05-1.18,.05-1.18-.02-1.18-.05,.53-.05,1.18-.05,1.18,.02,1.18,.05Z"/><path class="cls-13" d="M131.89,24.23s-.01-.03-.02-.09l.02,.02c-.18,.02-.6,.03-1.09,.03-.65,0-1.18-.02-1.18-.05s.53-.05,1.18-.05c.49,0,.91,.01,1.09,.03h0s.02,.01,.02,.02c0,.06-.01,.09-.02,.09Z"/><path class="cls-13" d="M131.89,28.95s-.05-.53-.05-1.18,.02-1.18,.05-1.18,.05,.53,.05,1.18-.02,1.18-.05,1.18Z"/><path class="cls-13" d="M131.89,33.67s-.05-.53-.05-1.18,.02-1.18,.05-1.18,.05,.53,.05,1.18-.02,1.18-.05,1.18Z"/><path class="cls-13" d="M131.89,38.39s-.05-.53-.05-1.18,.02-1.18,.05-1.18,.05,.53,.05,1.18-.02,1.18-.05,1.18Z"/><path class="cls-13" d="M131.89,43.11s-.05-.53-.05-1.18,.02-1.18,.05-1.18,.05,.53,.05,1.18-.02,1.18-.05,1.18Z"/><path class="cls-13" d="M131.89,47.83s-.05-.53-.05-1.18,.02-1.18,.05-1.18,.05,.53,.05,1.18-.02,1.18-.05,1.18Z"/><path class="cls-13" d="M129.64,50.29s.53-.05,1.18-.05c.48,0,.89,.01,1.08,.03l-.02,.02c0-.07,.01-.1,.02-.1s.01,.04,.02,.1c0,.01,0,.02-.02,.02h0c-.18,.02-.6,.03-1.08,.03-.65,0-1.18-.02-1.18-.05Z"/><path class="cls-13" d="M124.92,50.29s.53-.05,1.18-.05,1.18,.02,1.18,.05-.53,.05-1.18,.05-1.18-.02-1.18-.05Z"/><path class="cls-6" d="M119.94,18.99l.48,7.75c.02,.28,.25,.49,.52,.49h13.96c.29,0,.52-.23,.52-.52v-6.04c0-.29-.24-.53-.53-.52l-8.58,.06c-.14,0-.27-.05-.37-.15l-1.49-1.47c-.1-.1-.23-.15-.37-.15h-3.62c-.3,0-.54,.25-.52,.56Z"/><rect class="cls-4" x="120.18" y="19.24" width="15.25" height="9.11"/><path class="cls-6" d="M118.96,20.05l1.16,9.5c.02,.17,.16,.3,.33,.3h14.86c.18,0,.32-.14,.34-.31l.75-9.5c.02-.2-.14-.36-.34-.36h-16.77c-.2,0-.36,.18-.33,.38Z"/><path class="cls-6" d="M10.08,12.47c1.27-.53,2.17-1.84,2.18-3.39,0-2.02-1.52-3.67-3.42-3.68-1.9,0-3.44,1.62-3.45,3.65,0,1.56,.9,2.88,2.19,3.42-5.28,.8-5.04,6.54-5.04,6.54l12.49,.06s.28-5.8-4.95-6.6Z"/><path class="cls-4" d="M114.01,7.71c.94-.4,1.61-1.37,1.62-2.51,0-1.5-1.13-2.72-2.54-2.73-1.41,0-2.55,1.21-2.56,2.71,0,1.16,.67,2.14,1.62,2.54-3.92,.59-3.74,4.85-3.74,4.85l9.27,.04s.21-4.31-3.68-4.9Z"/><path class="cls-4" d="M28.17,6.24c.6-.25,1.03-.87,1.03-1.6,0-.95-.72-1.73-1.61-1.74-.89,0-1.62,.77-1.63,1.72,0,.74,.43,1.36,1.03,1.61-2.49,.38-2.38,3.08-2.38,3.08l5.89,.03s.13-2.74-2.34-3.11Z"/><path class="cls-4" d="M79.31,81.67c.77-.32,1.32-1.12,1.33-2.06,0-1.23-.93-2.23-2.08-2.24-1.15,0-2.09,.99-2.1,2.22,0,.95,.55,1.75,1.33,2.08-3.22,.48-3.07,3.98-3.07,3.98l7.6,.04s.17-3.53-3.01-4.01Z"/><rect class="cls-4" x="114.97" y="67.68" width="18.44" height="17.84"/><polygon class="cls-13" points="116.4 84 121.5 74.81 125.68 80.68 128.21 77.57 131.99 84 116.4 84"/><path class="cls-13" d="M127.45,73.03c0,.73-.59,1.33-1.33,1.33s-1.33-.59-1.33-1.33,.59-1.33,1.33-1.33,1.33,.59,1.33,1.33Z"/><path class="cls-13" d="M131.99,84.05s0-.03,0-.07c0-.05,0-.12,0-.21,0-.19,0-.46,0-.8,0-.71-.01-1.73-.02-3.03,0-2.61-.02-6.32-.04-10.77l.08,.08c-4.51,0-9.86,0-15.58,.01-.02,.02,.16-.17,.09-.09h0v1.01c0,.34,0,.67,0,1.01,0,.67,0,1.33,0,1.99,0,1.31,0,2.6,0,3.85,0,2.5,0,4.86,0,7.04l-.08-.08c4.65,.02,8.54,.03,11.27,.04,1.36,0,2.44,.02,3.18,.02,.36,0,.64,0,.84,0,.09,0,.16,0,.22,0,.05,0,.08,0,.08,0,0,0-.02,0-.07,0-.05,0-.12,0-.21,0-.2,0-.47,0-.83,0-.74,0-1.81,.01-3.16,.02-2.74,0-6.65,.02-11.32,.04h-.08s0-.08,0-.08c0-2.17,0-4.54,0-7.04,0-1.25,0-2.53,0-3.85,0-.66,0-1.32,0-1.99,0-.33,0-.67,0-1.01v-.76s0-.13,0-.13v-.11h0c-.08,.07,.11-.12,.09-.1,5.72,0,11.07,0,15.58,.01h.08s0,.08,0,.08c-.02,4.48-.03,8.2-.04,10.82,0,1.29-.02,2.31-.02,3.01,0,.34,0,.6,0,.79,0,.08,0,.15,0,.2,0,.04,0,.07,0,.06Z"/><rect class="cls-6" y="54.93" width="7.85" height="7.59"/><polygon class="cls-13" points=".61 61.88 2.78 57.97 4.56 60.47 5.63 59.14 7.24 61.88 .61 61.88"/><path class="cls-13" d="M5.31,57.21c0,.31-.25,.56-.56,.56s-.56-.25-.56-.56,.25-.56,.56-.56,.56,.25,.56,.56Z"/><path class="cls-13" d="M7.24,61.9s0-.01,0-.03c0-.02,0-.05,0-.09,0-.08,0-.19,0-.34,0-.3,0-.74,0-1.29,0-1.11,0-2.69-.02-4.58l.03,.03c-1.92,0-4.2,0-6.63,0,0,0,.07-.07,.04-.04H.65v.43c0,.14,0,.29,0,.43,0,.28,0,.57,0,.85,0,.56,0,1.1,0,1.64,0,1.06,0,2.07,0,2.99l-.03-.03c1.98,0,3.63,.01,4.79,.02,.58,0,1.04,0,1.35,0,.15,0,.27,0,.36,0,.04,0,.07,0,.09,0,.02,0,.03,0,.03,0,0,0,0,0-.03,0-.02,0-.05,0-.09,0-.08,0-.2,0-.35,0-.31,0-.77,0-1.35,0-1.17,0-2.83,0-4.82,.02h-.03s0-.03,0-.03c0-.92,0-1.93,0-2.99,0-.53,0-1.08,0-1.64,0-.28,0-.56,0-.85,0-.14,0-.29,0-.43v-.32s0-.05,0-.05v-.03H.57v-.02H.57s.05-.05,.04-.04c2.43,0,4.71,0,6.63,0h.03s0,.03,0,.03c0,1.9-.01,3.49-.02,4.61,0,.55,0,.98,0,1.28,0,.14,0,.26,0,.34,0,.04,0,.06,0,.09,0,.02,0,.03,0,.03Z"/><path class="cls-4" d="M3.93,68.82l.44,7.16c.02,.26,.23,.45,.48,.45h12.9c.27,0,.48-.22,.48-.48v-5.58c0-.27-.22-.49-.49-.48l-7.93,.05c-.13,0-.25-.05-.34-.14l-1.38-1.36c-.09-.09-.21-.14-.34-.14h-3.34c-.28,0-.5,.24-.48,.51Z"/><rect class="cls-8" x="4.14" y="69.05" width="14.09" height="8.42"/><path class="cls-4" d="M3.02,69.8l1.08,8.78c.02,.16,.15,.27,.31,.27h13.73c.16,0,.3-.12,.31-.29l.69-8.78c.01-.18-.13-.34-.31-.34H3.33c-.19,0-.33,.16-.31,.35Z"/><path class="cls-6" d="M71.25,44.76s-.03-.13-.04-.39c0-.13-.02-.28-.05-.46-.03-.18-.05-.39-.12-.62-.1-.47-.31-1.02-.65-1.6-.34-.58-.82-1.19-1.49-1.72-.66-.52-1.5-.96-2.48-1.16-.97-.19-2.07-.18-3.12,.19-.53,.17-1.04,.43-1.51,.77-.24,.16-.46,.36-.68,.55-.2,.22-.42,.43-.59,.67-.75,.95-1.19,2.18-1.23,3.46-.02,1.28,.36,2.53,1.06,3.52,.16,.25,.37,.47,.56,.7,.22,.2,.42,.42,.66,.59,.46,.36,.95,.65,1.48,.85,1.03,.42,2.13,.48,3.1,.35,.98-.15,1.84-.55,2.53-1.03,.69-.49,1.21-1.08,1.57-1.64,.36-.57,.6-1.11,.72-1.57,.08-.23,.11-.44,.15-.62,.04-.18,.06-.33,.07-.46,.03-.25,.05-.38,.06-.38,.01,0,.01,.13,0,.39,0,.13,0,.29-.04,.47-.03,.19-.05,.4-.12,.63-.11,.48-.33,1.04-.69,1.63-.36,.59-.88,1.21-1.59,1.73-.71,.52-1.6,.95-2.63,1.12-1.02,.16-2.17,.11-3.26-.33-.55-.2-1.08-.5-1.56-.88-.25-.18-.47-.4-.69-.62-.21-.24-.42-.47-.6-.74-.74-1.04-1.15-2.36-1.13-3.72,.04-1.35,.51-2.66,1.31-3.66,.19-.26,.41-.48,.63-.71,.24-.2,.47-.41,.72-.58,.5-.35,1.04-.63,1.6-.8,1.11-.38,2.26-.38,3.27-.17,1.02,.21,1.89,.69,2.57,1.24,.68,.56,1.17,1.2,1.51,1.81,.33,.61,.53,1.19,.61,1.67,.06,.24,.08,.45,.09,.64,.02,.19,.03,.34,.02,.47,0,.26-.01,.39-.02,.39Z"/><path class="cls-6" d="M70.03,40.97s-.1,.11-.31,.27c-.12,.08-.25,.18-.39,.28-.08,.05-.16,.11-.25,.17-.1,.05-.2,.1-.3,.16-.81,.47-2.1,.95-3.57,.9-.18,0-.36-.02-.54-.02-.18-.03-.35-.05-.52-.08-.08-.01-.17-.03-.25-.04-.08-.02-.16-.04-.24-.06-.16-.04-.32-.08-.47-.13-.6-.21-1.11-.45-1.51-.7-.81-.49-1.21-.94-1.18-.97,.03-.04,.48,.34,1.29,.76,.41,.22,.91,.43,1.49,.61,.15,.04,.3,.07,.45,.11,.08,.02,.15,.04,.23,.06,.08,.01,.16,.02,.24,.04,.16,.02,.33,.05,.5,.07,.17,0,.34,.01,.52,.02,1.4,.05,2.64-.37,3.46-.78,.1-.05,.21-.09,.3-.13,.09-.05,.18-.1,.26-.14,.15-.08,.29-.16,.41-.23,.23-.12,.37-.18,.38-.16Z"/><path class="cls-6" d="M60.32,48.35s.1-.11,.31-.27c.12-.08,.25-.18,.39-.28,.08-.05,.16-.11,.25-.17,.1-.05,.2-.1,.3-.16,.81-.47,2.1-.95,3.57-.9,.18,0,.36,.02,.54,.02,.18,.03,.35,.05,.52,.08,.08,.01,.17,.03,.25,.04,.08,.02,.16,.04,.24,.06,.16,.04,.32,.08,.47,.13,.6,.21,1.11,.45,1.51,.7,.81,.49,1.21,.94,1.18,.97-.03,.04-.48-.34-1.29-.76-.41-.22-.91-.43-1.49-.61-.15-.04-.3-.07-.45-.11-.08-.02-.15-.04-.23-.06-.08-.01-.16-.02-.24-.04-.16-.02-.33-.05-.5-.07-.17,0-.34-.01-.52-.02-1.4-.05-2.64,.37-3.46,.78-.1,.05-.21,.09-.3,.13-.09,.05-.18,.1-.26,.14-.15,.08-.29,.16-.41,.23-.23,.12-.37,.18-.38,.16Z"/><path class="cls-6" d="M71.25,44.9c0,.09-2.72,.1-6.08,.02-3.35-.08-6.07-.22-6.07-.31,0-.09,2.72-.1,6.08-.02,3.35,.08,6.07,.22,6.07,.31Z"/><path class="cls-6" d="M64.89,50.68c-.09,0-.1-2.72-.02-6.07,.08-3.35,.22-6.07,.31-6.07,.09,0,.1,2.72,.02,6.07-.08,3.35-.22,6.07-.31,6.07Z"/><path class="cls-6" d="M64.89,50.67s-.69-.42-1.46-1.45c-.38-.51-.78-1.17-1.09-1.97-.3-.8-.49-1.73-.47-2.72,.02-.99,.27-1.92,.61-2.69,.35-.78,.78-1.42,1.19-1.91,.82-.99,1.49-1.43,1.51-1.39,.03,.04-.58,.54-1.33,1.54-.37,.5-.77,1.13-1.09,1.89-.32,.75-.54,1.64-.56,2.58-.02,.94,.15,1.84,.43,2.61,.28,.77,.64,1.42,.99,1.94,.7,1.04,1.31,1.55,1.27,1.58Z"/><path class="cls-6" d="M65.32,38.54s.69,.42,1.46,1.45c.38,.51,.78,1.17,1.09,1.97,.3,.8,.49,1.73,.47,2.72-.02,.99-.27,1.92-.61,2.69-.35,.78-.78,1.42-1.19,1.91-.82,.99-1.49,1.43-1.51,1.39-.03-.04,.58-.54,1.33-1.54,.37-.5,.77-1.13,1.09-1.89,.32-.75,.54-1.64,.56-2.58,.02-.94-.15-1.84-.43-2.61-.28-.77-.64-1.42-.99-1.94-.7-1.04-1.31-1.55-1.27-1.58Z"/><rect class="cls-5" x="79.45" y="43.2" width="44.74" height="33.23"/><path class="cls-15" d="M124.19,76.42c0-.35-.02-13.11-.04-33.23l.04,.04c-12.6,0-28.06,0-44.74,0h0l.05-.05c0,11.94,0,23.24,0,33.23l-.05-.05c26.49,.03,44.33,.05,44.74,.05-.41,0-18.25,.02-44.74,.05h-.05s0-.05,0-.05c0-9.98,0-21.29,0-33.23v-.05h.05c16.68,0,32.14,0,44.74,0h.04v.04c-.03,20.11-.04,32.88-.04,33.23Z"/><path class="cls-13" d="M124.19,48.12s-9.99,.05-22.32,.05-22.32-.02-22.32-.05,9.99-.05,22.32-.05,22.32,.02,22.32,.05Z"/><path class="cls-13" d="M82.17,45.64c0,.37-.3,.67-.67,.67s-.67-.3-.67-.67,.3-.67,.67-.67,.67,.3,.67,.67Z"/><path class="cls-13" d="M84.2,45.64c0,.37-.3,.67-.67,.67s-.67-.3-.67-.67,.3-.67,.67-.67,.67,.3,.67,.67Z"/><path class="cls-13" d="M86.23,45.64c0,.37-.3,.67-.67,.67s-.67-.3-.67-.67,.3-.67,.67-.67,.67,.3,.67,.67Z"/><path class="cls-13" d="M103.59,40.72c-.2-.44-.71-.72-1.18-.65-.54-.47-1.41-.5-1.97-.06-.41-.27-.96-.31-1.4-.1-.44,.21-.76,.66-.8,1.15-.48-.1-1.02,.14-1.27,.56-.25,.43-.19,1.01,.14,1.38-.54,.15-.92,.74-.83,1.29,.09,.55,.64,.99,1.2,.95l5.84-3.21c.36-.32,.48-.88,.28-1.32Z"/><path class="cls-7" d="M97.29,45.4c.33-2.5,2.52-4.34,5.05-4.21h.25c2.7,.3,3.95,2.76,3.59,5.44l-.84,8.98-.05,.44-6.3,.94,.12-2.29s-2.58-.53-2.48-3.13c.05-1.26,.35-3.83,.66-6.16Z"/><path class="cls-9" d="M99.1,54.69s1.65,.18,3.45-.83c0,0-.89,1.83-3.47,1.47l.02-.64Z"/><path class="cls-15" d="M97.86,47.93c-.02,.2,.14,.37,.34,.39,.2,.02,.38-.12,.4-.32,.02-.2-.14-.37-.34-.39-.2-.02-.38,.12-.4,.32Z"/><path class="cls-15" d="M97.79,46.7c.04,.05,.33-.14,.73-.12,.4,.02,.68,.24,.73,.19,.02-.02-.02-.11-.14-.21-.12-.1-.33-.2-.58-.21-.25-.01-.46,.07-.59,.16-.13,.09-.17,.17-.15,.2Z"/><path class="cls-15" d="M101.38,48.17c-.02,.2,.14,.37,.34,.39,.2,.02,.38-.12,.4-.32,.02-.2-.14-.37-.34-.39-.2-.02-.38,.12-.4,.32Z"/><path class="cls-15" d="M101.71,46.97c.04,.05,.34-.14,.73-.12,.4,.02,.68,.24,.73,.19,.02-.02-.02-.11-.14-.21-.12-.1-.33-.2-.58-.21-.25-.01-.46,.07-.59,.16-.13,.09-.17,.17-.15,.2Z"/><path class="cls-15" d="M100.12,49.86s-.24-.08-.64-.15c-.1-.02-.2-.04-.21-.11-.02-.07,.03-.18,.08-.3,.11-.24,.22-.5,.34-.76,.47-1.08,.82-1.98,.78-2-.04-.02-.46,.85-.94,1.93-.11,.27-.22,.52-.33,.77-.04,.11-.12,.24-.07,.4,.02,.08,.1,.14,.16,.16,.06,.02,.12,.03,.17,.03,.4,.04,.65,.06,.66,.03Z"/><path class="cls-15" d="M101.28,50.19c-.06,0-.09,.43-.47,.72-.39,.29-.85,.22-.85,.28,0,.03,.1,.09,.29,.1,.19,.02,.47-.03,.71-.21,.24-.18,.35-.42,.37-.6,.03-.18-.02-.29-.05-.29Z"/><path class="cls-13" d="M101.69,45.4c.03,.11,.44,.08,.9,.16,.47,.07,.84,.23,.91,.13,.03-.05-.03-.15-.18-.26-.15-.11-.38-.22-.66-.27-.28-.04-.54-.01-.71,.05-.18,.06-.27,.14-.25,.19Z"/><path class="cls-13" d="M97.99,45.55c.07,.09,.35,.01,.68,.03,.33,0,.61,.09,.68,0,.03-.04,0-.14-.13-.23-.12-.09-.31-.17-.54-.18-.23,0-.43,.07-.55,.16-.12,.09-.16,.18-.14,.22Z"/><path class="cls-13" d="M97.6,44.22s.77-1.59,1.57-1.93c.97-.41,1.33,.65,2.25,.44,.92-.21,1.85-.6,2.74,.14,.97,.82,.47,1.33,.48,2.49,.02,4.69,.81,6.05,1.16,3.86,.04-.24,.72-.4,.87-1.41,.19-1.32,.32-2.92,.08-3.87-.21-.8-.63-1.37-1.41-2.01-1.23-1.01-2.98-1.12-4.18-1.06-1.2,.06-3.56,1.32-3.55,3.36Z"/><path class="cls-7" d="M105.64,49.14c.04-.4,.4-.7,.8-.64,.48,.07,1.01,.37,.93,1.37-.14,1.77-1.9,1.26-1.89,1.21,0-.03,.11-1.2,.17-1.94Z"/><path class="cls-9" d="M105.9,50.45s.03,.02,.08,.05c.05,.03,.14,.05,.23,.02,.19-.05,.38-.34,.41-.66,.02-.16,0-.32-.05-.45-.04-.13-.12-.23-.21-.26-.09-.03-.16,.02-.19,.07-.03,.05-.02,.08-.03,.09,0,0-.04-.03-.02-.1,.01-.03,.03-.07,.08-.11,.05-.03,.11-.04,.17-.03,.14,.02,.25,.16,.3,.3,.06,.15,.09,.32,.07,.5-.04,.36-.25,.68-.51,.73-.13,.02-.23-.02-.28-.07-.05-.05-.06-.09-.05-.09Z"/><path class="cls-13" d="M105.77,45.7c-.24,.15-.49,.3-.77,.31-.28,.01-.59-.16-.62-.44-.01-.12,.02-.27-.05-.37-.09-.12-.27-.09-.42-.08-.52,.03-1.03-.36-1.14-.87-.14,.19-.45,.17-.64,.03-.19-.14-.31-.36-.46-.54-.15-.19-.36-.36-.59-.34-.13,.01-.26,.08-.39,.07-.23-.03-.33-.31-.36-.54s-.04-.5-.23-.64c-.18-.13-.42-.07-.63-.05-.22,.02-.49-.04-.54-.26-.02-.11,.03-.23,.1-.32,.3-.42,.91-.59,1.38-.37,.2-.58,.77-1.01,1.39-1.04,.61-.03,1.23,.33,1.49,.88,.39-.32,.95-.44,1.43-.3,.49,.14,.9,.52,1.07,1,.44-.09,.92,.1,1.18,.47,.26,.37,.27,.89,.03,1.27,.31,.2,.57,.53,.56,.9-.01,.37-.39,.72-.74,.6,.13,.29,0,.68-.29,.82-.29,.15-.68,.03-.84-.24"/><path class="cls-5" d="M106.94,45.07s.03,.15-.13,.34c-.08,.09-.2,.18-.37,.19-.16,.02-.36-.03-.5-.17h.08c-.1,.14-.22,.29-.38,.42-.1,.08-.21,.15-.33,.19-.12,.04-.25,.04-.36,.02-.22-.04-.41-.17-.5-.32-.09-.15-.11-.29-.13-.38-.01-.09-.01-.14,0-.14,0,0,.02,.05,.05,.14,.03,.09,.06,.22,.15,.35,.16,.26,.7,.42,1.07,.08,.15-.12,.27-.26,.36-.4l.03-.05,.04,.04c.12,.12,.28,.17,.42,.16,.14,0,.26-.08,.33-.15,.15-.15,.16-.3,.17-.29Z"/><path class="cls-5" d="M103.79,40.84s-.05,.01-.13,.04c-.08,.03-.2,.09-.29,.22l-.02,.03-.02-.03c-.16-.23-.42-.53-.82-.74-.2-.1-.44-.18-.69-.19-.25-.01-.52,.05-.76,.18-.19,.1-.35,.24-.47,.4-.12,.16-.19,.34-.22,.53v.06s-.06-.02-.06-.02c-.26-.09-.54-.05-.74,.05-.21,.1-.35,.26-.43,.41-.16,.31-.12,.52-.14,.52,0,0-.02-.05-.01-.15,0-.1,.02-.24,.1-.4,.08-.16,.22-.34,.44-.46,.22-.12,.52-.16,.81-.07l-.06,.04c.03-.2,.11-.4,.23-.57,.13-.17,.3-.32,.5-.43,.26-.14,.55-.2,.82-.19,.27,.02,.52,.1,.73,.21,.42,.22,.68,.54,.83,.79h-.05c.11-.14,.24-.2,.32-.22,.09-.02,.14-.02,.14-.01Z"/><path class="cls-9" d="M101.87,50.48s-.03-.19-.17-.35c-.14-.17-.32-.2-.32-.23,0-.01,.05-.03,.13,0,.08,.02,.18,.07,.27,.17,.08,.1,.12,.21,.12,.29,0,.08-.02,.13-.03,.13Z"/><path class="cls-9" d="M102.06,50s-.09-.05-.18-.1c-.09-.05-.18-.06-.18-.09,0-.03,.11-.06,.23,0,.12,.06,.16,.18,.13,.19Z"/><path class="cls-9" d="M103.97,54.26s.03-.01,.05-.04c.02-.03,.04-.09,.01-.16-.03-.07-.1-.13-.15-.25-.02-.06-.03-.14,.01-.21,.04-.06,.09-.1,.12-.15,.14-.17-.25-.31-.19-.53,.01-.09,.06-.16,.1-.19,.04-.03,.07-.03,.07-.03,.01,.01-.1,.06-.11,.22,0,.08,.04,.14,.12,.22,.04,.04,.09,.09,.11,.15,.03,.07,.01,.17-.03,.22-.04,.06-.09,.09-.12,.14-.02,.04-.02,.08,0,.12,.03,.09,.11,.17,.13,.26,.03,.09,0,.18-.05,.21-.05,.03-.08,.02-.08,.02Z"/><path class="cls-9" d="M104.53,54.2s0-.03-.02-.07c-.01-.04-.04-.09-.09-.15-.02-.03-.05-.07-.07-.12-.02-.05-.04-.11-.02-.17,.04-.13,.14-.2,.2-.29,.06-.09,.01-.17-.06-.25-.03-.04-.07-.08-.09-.13-.02-.05-.02-.1-.02-.15,.02-.18,.15-.23,.15-.22,.01,.01-.08,.08-.08,.22,0,.07,.03,.14,.11,.22,.03,.04,.08,.08,.1,.15,.03,.07,0,.15-.03,.21-.07,.12-.17,.18-.19,.26-.03,.08,.02,.16,.06,.23,.04,.07,.07,.13,.07,.18,0,.05-.01,.07-.02,.07Z"/><path class="cls-13" d="M108.9,68.55l2.36,2.27-.76-4.35,4.79-1.51s1.27,5.97,1.49,7.38c.4,2.53-.09,6.13-2.45,6.38-2.55,.27-4.48-2.24-5.71-3.9-.94-1.27-2.46-3.49-2.46-3.49l2.75-2.79"/><path class="cls-13" d="M90.66,64.69c-.77,2.42-1.84,2.78-2.27,9.71-.08,1.35,.21,3.15,1.49,3.59,1.42,.48,3.6-.4,4.29-1.57v-4.77l-3.51-6.96Z"/><path class="cls-15" d="M93.83,74.81s-.16-.48-.47-1.02c-.31-.54-.67-.9-.65-.91,0,0,.11,.07,.25,.22,.14,.15,.32,.38,.48,.65,.16,.27,.27,.54,.33,.74,.06,.2,.08,.32,.07,.33Z"/><path class="cls-13" d="M89.5,67.47c.04-.14,2.4-6.57,3.16-7.98,.9-1.68,2.8-2.43,3.97-2.5,1.18-.07,13.77,.93,13.77,.93,0,0,3.53,.89,4.24,4.08,.89,4,1.61,7.95,1.61,7.95l-6.31,1.36-.74-1.87-11.86,2.65-2.9-4.28-4.95-.33Z"/><polygon class="cls-13" points="111.23 58.29 106.32 56.12 105.76 54 100.02 56.71 98.82 55.39 98.32 56.88 97.06 57.29 94.58 62.18 94.13 73.49 94.17 76.42 111.14 76.54 111 71.73 111.23 58.29"/><path class="cls-13" d="M105.76,54s-.64,.19-2.29,1.07c-1.61,.86-3.45,1.65-3.45,1.65l.14,2.59,6.11-3.07"/><polyline class="cls-13" points="98.82 55.39 100.02 56.71 99.38 59.49 98.31 56.98"/><path d="M100,57c-.05,.04-.39,3.21-.39,3.21l6.12-3.7-5.57,2.8-.16-2.31Z"/><path class="cls-1" d="M100.06,76.46s-.13-4.7-.01-7.64c.09-2.42-.29-8.6-.29-8.6l-.8-.13s-1.49,6.01-2.05,13.37l-.23,2.98"/><path class="cls-15" d="M109.78,64s.03,.09,.06,.25c.03,.18,.07,.41,.12,.69,.1,.6,.24,1.39,.39,2.27,.15,.89,.29,1.69,.37,2.27,.04,.29,.08,.53,.1,.69,.02,.16,.03,.25,.02,.26,0,0-.03-.09-.06-.25-.03-.18-.07-.41-.12-.69-.1-.6-.24-1.39-.4-2.27-.15-.89-.28-1.69-.37-2.28-.04-.28-.07-.51-.1-.69-.02-.16-.03-.25-.02-.26Z"/><path class="cls-15" d="M111.6,58.66s-.17,.15-.41,.4c-.25,.25-.56,.64-.82,1.12-.26,.48-.41,.95-.48,1.3-.08,.35-.09,.57-.11,.57,0,0,0-.06,0-.16,0-.1,.02-.25,.05-.42,.06-.35,.2-.84,.46-1.33,.26-.49,.59-.87,.85-1.12,.13-.12,.24-.22,.32-.28,.08-.06,.13-.09,.13-.09Z"/><polygon class="cls-2" points="100.04 57.95 99.5 57.74 98.98 58.63 98.88 60.09 99.61 60.21 100.16 59.31 100.04 57.95"/><path class="cls-15" d="M94.13,62.3s.04,3.16,.04,7.06-.02,7.06-.04,7.06-.04-3.16-.04-7.06,.02-7.06,.04-7.06Z"/><path class="cls-15" d="M100.08,56.69s-.12,.2-.31,.53c-.19,.32-.45,.78-.7,1.3-.02,.04-.04,.09-.06,.13l-.04,.08-.04-.08c-.24-.5-.41-.96-.51-1.29-.05-.17-.09-.31-.11-.4-.02-.1-.03-.15-.03-.15,.01,0,.08,.2,.2,.53,.12,.33,.3,.78,.53,1.28h-.08s.04-.08,.06-.13c.25-.53,.51-.98,.72-1.3,.1-.16,.19-.28,.26-.37,.06-.08,.1-.13,.11-.13Z"/><path class="cls-15" d="M106.32,56.12s-.03,.02-.08,.05c-.06,.03-.15,.08-.25,.13-.23,.12-.53,.28-.91,.47-.77,.4-1.82,.97-2.99,1.6-.71,.38-1.39,.73-1.97,1.02l-.05,.03v-.06c0-.76-.01-1.4-.02-1.86,0-.22,0-.39,0-.53,0-.12,0-.19,0-.19,0,0,0,.06,.02,.19,0,.13,.01,.31,.02,.53,.01,.46,.03,1.1,.05,1.86l-.05-.03c.58-.3,1.25-.65,1.97-1.03,1.17-.62,2.23-1.19,3.01-1.57,.39-.19,.71-.35,.93-.45,.1-.05,.19-.09,.25-.12,.06-.03,.09-.04,.09-.03Z"/><path class="cls-15" d="M94.87,58.12s-.08,.17-.21,.45c-.12,.28-.27,.67-.35,1.13-.08,.45-.09,.88-.07,1.18,.02,.3,.05,.49,.03,.49,0,0-.02-.04-.04-.13-.02-.08-.04-.21-.06-.36-.03-.31-.03-.73,.05-1.2,.09-.46,.24-.86,.38-1.14,.07-.14,.13-.24,.18-.32,.05-.07,.08-.11,.08-.11Z"/><path class="cls-15" d="M99.48,60.3s-.15-.05-.31-.15c-.16-.1-.28-.2-.26-.22,.01-.02,.15,.05,.31,.15,.16,.1,.28,.2,.26,.22Z"/><path class="cls-15" d="M99.74,59.95s-.19-.32-.37-.74c-.18-.42-.31-.76-.29-.77,.02,0,.19,.32,.37,.74,.18,.42,.31,.76,.29,.77Z"/><path d="M103.2,72.88c-.03-.13-.07-.28-.19-.36-.2-.13-.46,.04-.67,.17-.55,.33-1.22,.31-1.86,.29-1.92-.08-3.84-.23-5.73-.54-.93-.16-1.86-.36-2.69-.8s-1.55-1.16-1.82-2.06l-.44-.24c.34,.73,.31,2.81,.43,3.61,.12,.8,.48,1.37,1.25,1.62,.31,.1,.64,.08,.97,.07,3.16-.16,6.34-.01,9.5-.17,.45-.02,.97-.08,1.22-.46,.2-.32,.12-.74,.03-1.11Z"/><path class="cls-15" d="M115.07,74.68s0-.01-.02-.04c-.01-.03-.03-.07-.06-.11-.03-.05-.06-.11-.09-.18-.05-.07-.1-.15-.16-.23-.24-.35-.65-.81-1.23-1.33-.57-.53-1.3-1.12-2.11-1.79-.41-.34-.84-.7-1.27-1.1-.43-.4-.87-.82-1.27-1.32h.06c-.77,.81-1.6,1.67-2.46,2.57-.11,.12-.22,.23-.33,.34v-.05c.93,1.36,1.78,2.67,2.67,3.78,.44,.55,.89,1.05,1.34,1.49,.44,.45,.87,.84,1.3,1.16,.85,.64,1.7,.92,2.3,.9,.07,0,.14,0,.21,0,.07,0,.13-.01,.18-.02,.06,0,.11-.01,.16-.02,.05-.01,.09-.02,.13-.03,.07-.02,.13-.03,.17-.04,.04,0,.06-.01,.06-.01,0,0-.02,0-.06,.02-.04,.01-.1,.03-.17,.05-.04,0-.08,.02-.13,.03-.05,0-.1,.01-.16,.02-.06,0-.12,.02-.18,.02-.07,0-.14,0-.21,0-.6,.03-1.47-.25-2.33-.89-.43-.31-.87-.71-1.31-1.16-.45-.44-.9-.94-1.35-1.5-.9-1.1-1.74-2.42-2.67-3.78l-.02-.03,.02-.02c.1-.11,.22-.23,.33-.34,.86-.9,1.69-1.77,2.46-2.57l.03-.03,.03,.04c.39,.49,.83,.92,1.26,1.32,.43,.4,.86,.76,1.26,1.1,.81,.68,1.53,1.28,2.1,1.81,.57,.53,.98,1,1.21,1.35,.06,.09,.11,.17,.15,.24,.03,.07,.06,.14,.09,.19,.02,.05,.04,.09,.05,.11,.01,.03,.02,.04,.02,.04Z"/><path d="M106.72,72.24l-.27-.08c.23,1.33,.96,3.2,1.62,4.38h1.92c-.73-.91-3.27-4.3-3.27-4.3Z"/><path class="cls-7" d="M108.52,68.93l-3.88-4.24-2.33-.44-2.64,.33s-.11,.42,.33,.64l-.98,.06s-.2,.5,.36,.73l-.7,.12s.31,.71,1.09,.57c.78-.14,2.06-.14,2.06-.14l1.37,.75-2.04-.08-1.48,.28s-.2,.38,.14,.47c.33,.09,1.62,0,1.62,0l1.85,.59s.72,1.02,.97,1.3c.25,.28,1.45,.8,1.45,.8l.59,.53,2.21-2.26Z"/><path class="cls-9" d="M99.02,65.28s.29,0,.76-.03c.47-.04,1.11-.1,1.82-.17,.24-.03,.47-.05,.68-.08h-.03c.53,.15,.99,.27,1.31,.35,.33,.08,.52,.12,.53,.11,0-.02-.18-.09-.5-.19-.32-.11-.77-.25-1.3-.41h-.01s-.01,0-.01,0c-.22,.02-.44,.05-.68,.07-.71,.08-1.35,.15-1.81,.22-.46,.06-.75,.11-.75,.13Z"/><path class="cls-9" d="M98.86,66.1s.27,0,.69-.05c.42-.05,1-.12,1.64-.22,.22-.03,.44-.07,.64-.1h-.04c.92,.35,1.59,.59,1.61,.56,.01-.03-.64-.33-1.55-.7h-.02s-.02,0-.02,0c-.2,.03-.42,.06-.64,.09-.64,.09-1.22,.19-1.64,.26-.42,.08-.67,.13-.67,.15Z"/><path class="cls-15" d="M88.97,65.44l1.97,7.44c.11,.41,.49,.7,.91,.69l10.19-.2c.58-.01,1.01-.55,.89-1.12l-1.5-7.12c-.09-.43-.47-.73-.9-.73h-10.75c-.55,0-.95,.52-.81,1.05Z"/><path class="cls-5" d="M95.63,67.39c.28,.14,.4,.44,.28,.69-.12,.25-.44,.33-.72,.2-.28-.14-.4-.44-.28-.69,.12-.25,.44-.33,.72-.2Z"/><path class="cls-7" d="M88.23,67.06c-.2-.22-.18-.58,0-.82,.18-.24,.48-.36,.78-.37s.59,.07,.86,.18c.34,.13,.67,.29,.98,.49,.22,.14,.44,.32,.49,.57,.04,.25-.23,.54-.46,.42,.29,.12,.59,.43,.63,.75s-.13,.5-.44,.59c.24,.09,.39,.39,.28,.62-.11,.24-.45,.31-.7,.21-.25-.1-.43-.31-.61-.51,.18,.31,.24,.68,.17,1.02-.69-.24-1.22-.88-1.31-1.61-.34-.25-.45-.76-.25-1.14-.28-.09-.59-.51-.57-.8"/><path class="cls-9" d="M91.07,68.88s-.12-.09-.3-.23c-.18-.14-.45-.33-.78-.4-.17-.04-.33-.04-.48,0-.14,.04-.26,.1-.35,.17-.17,.15-.21,.29-.23,.29,0,0,0-.04,.03-.1,.03-.06,.08-.14,.17-.23,.09-.08,.21-.16,.37-.2,.15-.04,.33-.04,.51,0,.36,.08,.63,.28,.8,.43,.18,.15,.27,.26,.26,.27Z"/><path class="cls-9" d="M90.99,67.56s-.14-.04-.36-.15c-.11-.05-.24-.11-.38-.17-.15-.05-.32-.1-.5-.13-.18-.03-.35-.03-.5,0-.15,.03-.28,.09-.37,.16-.19,.14-.23,.3-.24,.29,0,0,0-.04,.03-.1,.03-.06,.09-.15,.18-.23,.1-.08,.23-.15,.39-.19,.16-.04,.35-.03,.53,0,.18,.03,.35,.08,.51,.14,.15,.06,.28,.13,.38,.19,.21,.12,.34,.19,.34,.2Z"/><path class="cls-8" d="M86.66,50.85l-2.49-.06c-.48-.92-1.21-1.72-2.16-2.29-2.74-1.64-6.3-.75-7.94,2-1.64,2.74-.75,6.3,2,7.94,2.74,1.64,6.3,.75,7.94-2,.68-1.15,.93-2.43,.78-3.66h0s1.87-1.93,1.87-1.93Z"/><path class="cls-15" d="M86.66,50.85c-.09,.09-.68,.71-1.86,1.94l-.02,.02v-.03s-.01,0-.01,0h.03c.05,.41,.06,.87,0,1.38-.06,.51-.19,1.05-.43,1.6-.12,.27-.26,.55-.43,.81-.09,.13-.17,.27-.27,.4-.1,.13-.21,.25-.31,.38-.45,.5-1.01,.94-1.66,1.28-.65,.34-1.4,.57-2.19,.63-.79,.07-1.63-.02-2.42-.31-.79-.29-1.55-.75-2.18-1.38-.62-.63-1.13-1.41-1.41-2.29l-.1-.34c-.04-.11-.05-.23-.08-.34-.02-.11-.05-.23-.06-.34l-.04-.35c-.02-.11-.02-.23-.02-.34,0-.11,0-.23,0-.34,0-.11,.02-.23,.03-.34,.01-.11,.01-.23,.04-.34,.14-.89,.5-1.73,.99-2.43,.49-.7,1.13-1.28,1.83-1.68,.7-.4,1.46-.65,2.2-.74,.74-.09,1.46-.04,2.12,.12,.66,.16,1.24,.44,1.75,.75,.5,.32,.92,.7,1.25,1.08,.33,.38,.58,.77,.77,1.14h-.01c1.59,.04,2.37,.06,2.49,.06-.12,0-.9-.01-2.49-.04h-.01s0,0,0,0c-.19-.36-.44-.75-.77-1.13-.33-.38-.75-.75-1.25-1.06-.51-.3-1.08-.58-1.73-.74-.65-.15-1.37-.21-2.1-.11-.73,.09-1.48,.34-2.17,.74-.69,.4-1.32,.97-1.8,1.67-.49,.7-.83,1.52-.98,2.4-.03,.11-.03,.22-.04,.33,0,.11-.02,.22-.03,.34,0,.11,0,.23,0,.34,0,.11,0,.23,.02,.34l.04,.34c0,.11,.04,.23,.06,.34,.03,.11,.04,.23,.07,.34l.1,.33c.27,.87,.78,1.64,1.39,2.26,.62,.62,1.36,1.08,2.15,1.37,.79,.28,1.61,.37,2.39,.31,.78-.07,1.52-.29,2.17-.62,.65-.33,1.2-.77,1.65-1.26,.11-.13,.21-.25,.31-.38,.09-.13,.18-.26,.27-.39,.17-.26,.31-.53,.43-.8,.23-.54,.37-1.08,.43-1.58,.06-.5,.05-.97,0-1.38l-.02-.13,.05,.13h0s-.03,0-.03,0c1.2-1.22,1.8-1.83,1.89-1.92Z"/><path class="cls-15" d="M77.33,53.32c0,.32-.26,.59-.59,.59s-.59-.26-.59-.59,.26-.59,.59-.59,.59,.26,.59,.59Z"/><path class="cls-15" d="M79.68,53.32c0,.32-.26,.59-.59,.59s-.59-.26-.59-.59,.26-.59,.59-.59,.59,.26,.59,.59Z"/><path class="cls-15" d="M82.03,53.03c.16,.28,.07,.64-.22,.8-.28,.16-.64,.07-.8-.22s-.07-.64,.22-.8,.64-.07,.8,.22Z"/><rect class="cls-5" x="61.15" y="3.8" width="44.74" height="32.71"/><path class="cls-15" d="M105.88,36.51c0-.34-.02-12.89-.04-32.71l.04,.04c-12.55,0-28.03,0-44.74,0h0l.05-.05c0,11.74,0,22.86,0,32.71l-.05-.05c26.47,.03,44.33,.05,44.74,.05-.41,0-18.27,.02-44.74,.05h-.05s0-.05,0-.05c0-9.85,0-20.97,0-32.71v-.05s.05,0,.05,0h0c16.71,0,32.18,0,44.74,0h.04s0,.04,0,.04c-.03,19.82-.04,32.36-.04,32.71Z"/><path class="cls-13" d="M106.04,8.56s-9.99,.05-22.32,.05-22.32-.02-22.32-.05,9.99-.05,22.32-.05,22.32,.02,22.32,.05Z"/><path class="cls-13" d="M64.01,6.08c0,.37-.3,.67-.67,.67s-.67-.3-.67-.67,.3-.67,.67-.67,.67,.3,.67,.67Z"/><path class="cls-13" d="M66.04,6.08c0,.37-.3,.67-.67,.67s-.67-.3-.67-.67,.3-.67,.67-.67,.67,.3,.67,.67Z"/><path class="cls-13" d="M68.07,6.08c0,.37-.3,.67-.67,.67s-.67-.3-.67-.67,.3-.67,.67-.67,.67,.3,.67,.67Z"/><path class="cls-7" d="M64.05,16.75l.28-.18c.52-.33,1.21-.15,1.5,.39,.45,.83,1.02,1.98,1.02,1.98l-1.19,1.89h-.4c-.43,.29-1.45-.27-2.13-.69-.69-.42-.35-.84-.35-.84-.43-.59,.16-.84,.16-.84-.36-.54,.17-.9,.17-.9"/><rect class="cls-5" x="55.92" y="11.5" width="8.78" height="12.29" transform="translate(-2.24 11.67) rotate(-10.85)"/><path class="cls-15" d="M57.15,24.5s0-.02-.01-.05c0-.04-.02-.1-.03-.17-.03-.15-.07-.37-.13-.65-.11-.58-.28-1.41-.49-2.47-.41-2.13-1-5.15-1.69-8.72v-.05s.04,0,.04,0c2.6-.5,5.53-1.06,8.62-1.66h0s.05,0,.05,0v.05c.87,4.52,1.67,8.7,2.31,12.07v.04s-.03,0-.03,0c-2.62,.49-4.78,.9-6.29,1.18-.75,.14-1.33,.25-1.73,.32-.2,.04-.35,.06-.45,.08-.1,.02-.15,.02-.15,.02,0,0,.06-.01,.16-.04,.11-.02,.26-.05,.46-.09,.4-.08,.99-.2,1.74-.34,1.5-.29,3.65-.71,6.26-1.22l-.03,.05c-.65-3.37-1.45-7.55-2.32-12.07l.06,.04h0c-3.09,.59-6.01,1.15-8.62,1.65l.04-.05c.67,3.56,1.24,6.57,1.64,8.7,.2,1.06,.36,1.9,.46,2.48,.05,.29,.09,.51,.12,.66,.01,.07,.02,.13,.03,.17,0,.04,0,.06,0,.06Z"/><path class="cls-15" d="M56.28,15.2s1.42-.32,3.18-.66c1.76-.34,3.19-.59,3.2-.56,0,.03-1.42,.32-3.18,.66-1.76,.34-3.19,.59-3.2,.56Z"/><path class="cls-15" d="M56.44,16.05s1.42-.32,3.18-.66c1.76-.34,3.19-.59,3.2-.56,0,.03-1.42,.32-3.18,.66-1.76,.34-3.19,.59-3.2,.56Z"/><path class="cls-15" d="M56.61,16.9s1.42-.32,3.18-.66c1.76-.34,3.19-.59,3.2-.56,0,.03-1.42,.32-3.18,.66-1.76,.34-3.19,.59-3.2,.56Z"/><path class="cls-15" d="M56.77,17.75s1.42-.32,3.18-.66c1.76-.34,3.19-.59,3.2-.56,0,.03-1.42,.32-3.18,.66-1.76,.34-3.19,.59-3.2,.56Z"/><path class="cls-15" d="M56.93,18.61s1.42-.32,3.18-.66c1.76-.34,3.19-.59,3.2-.56,0,.03-1.42,.32-3.18,.66-1.76,.34-3.19,.59-3.2,.56Z"/><path class="cls-15" d="M57.1,19.46s1.42-.32,3.18-.66c1.76-.34,3.19-.59,3.2-.56,0,.03-1.42,.32-3.18,.66-1.76,.34-3.19,.59-3.2,.56Z"/><path class="cls-15" d="M57.26,20.31s1.42-.32,3.18-.66c1.76-.34,3.19-.59,3.2-.56,0,.03-1.42,.32-3.18,.66-1.76,.34-3.19,.59-3.2,.56Z"/><path class="cls-15" d="M57.42,21.16s1.42-.32,3.18-.66c1.76-.34,3.19-.59,3.2-.56,0,.03-1.42,.32-3.18,.66-1.76,.34-3.19,.59-3.2,.56Z"/><path class="cls-15" d="M57.59,22.01s1.42-.32,3.18-.66c1.76-.34,3.19-.59,3.2-.56,0,.03-1.42,.32-3.18,.66-1.76,.34-3.19,.59-3.2,.56Z"/><path class="cls-15" d="M62.27,11.45s.03,.08,.06,.21c.04,.16,.08,.36,.13,.59,.01,.06,.03,.13,.04,.2,.01,.07,.01,.16-.01,.24-.05,.16-.19,.3-.38,.33-.18,.04-.4-.06-.5-.24-.03-.04-.04-.09-.06-.14,0-.05-.02-.09-.03-.14-.02-.09-.04-.19-.05-.28-.04-.19-.07-.38-.11-.56-.02-.09-.03-.18-.05-.27-.02-.08-.04-.18-.03-.27,.01-.18,.11-.34,.23-.45,.13-.1,.28-.14,.41-.14,.28,0,.46,.19,.52,.31,.04,.06,.05,.12,.06,.16,0,.04,0,.06,0,.06-.01,0-.02-.08-.1-.2-.07-.11-.24-.26-.49-.26-.12,0-.25,.04-.36,.13-.11,.09-.18,.23-.19,.39,0,.08,.01,.16,.03,.24,.02,.09,.03,.18,.05,.27,.04,.18,.07,.37,.11,.56,.02,.1,.04,.19,.05,.28,0,.05,.02,.09,.03,.14,0,.04,.02,.08,.04,.12,.08,.14,.25,.22,.4,.19,.15-.02,.27-.13,.31-.26,.02-.06,.03-.13,.02-.19-.01-.07-.02-.13-.03-.2-.04-.24-.07-.44-.1-.6-.02-.14-.03-.22-.02-.22Z"/><path class="cls-7" d="M64.84,16.4c-.06,0-2.62,.4-2.62,.4-.05,.23,.09,.57,.69,.58,.57,0,1.08-.04,1.08-.04,0,0,.63,1.32,1.25,1.46s.32-1.27,.32-1.27h0l-.73-1.14Z"/><path class="cls-15" d="M94.11,8.09c.22-.52,.45-1.05,.47-1.61,.02-.56-.21-1.17-.7-1.43-.45-.24-1-.13-1.48-.3-.59-.21-.96-.8-1.22-1.39-.26-.58,.1-.8-.34-1.25-.59-.6-.97-.69-1.71-.32-.53-.38-2.39-1.06-2.92-1.08-.79-.02-1.7,.04-2.25,.61-.43,.44-.7,1-1.23,1.32-.73,.44-1.65,.07-2.5,.1-.17,0-.37,.05-.44,.21-.06,.14,0,.29,.07,.43,.22,.45,.44,.91,.65,1.36-.35,.16-.79,.15-1.13-.03,.04,.89,.4,1.76,1.01,2.42-.15-.11-.38,0-.45,.17-.07,.17-.04,.36,0,.54,.29,1.09,1.08,2.04,2.09,2.53,1.02,.49,2.25,.52,3.28,.08l4.66,.35c.13,.36,.44,.65,.8,.75,.52-.39,.61-.6,.61-.6,.32,.24,.07,.12,.32,.24,.58,.28,1.43-.05,1.56-.7,.05-.27,.13-.53,.31-.71,.18-.19,.45-.26,.68-.38,.37-.18,.67-.5,.85-.87-.38,0-.75-.16-1.01-.44Z"/><path class="cls-7" d="M90.81,6.09l.12,9.63c.02,1.64-.28,4.05-2.87,3.96h0c-2.24-.24-2.84-2.37-2.85-3.89,0-.72-.02-1.33-.02-1.4,0,0-2.45-.2-2.66-2.62-.1-1.17-.11-3.6-.09-5.8,.02-2.36,1.85-4.31,4.2-4.48l.23-.02c2.53-.04,3.98,2.09,3.95,4.63Z"/><path class="cls-9" d="M85.18,14.38s1.54-.02,3.09-1.16c0,0-.64,1.83-3.08,1.79v-.62Z"/><path class="cls-15" d="M86.57,6.95s.33-.18,.73-.19c.41-.02,.71,.19,.75,.14,.02-.02-.03-.11-.16-.21-.13-.09-.35-.18-.6-.17-.25,0-.46,.11-.58,.21-.12,.1-.16,.19-.14,.22Z"/><path class="cls-15" d="M86.49,7.85c0,.17,.16,.31,.34,.31,.18,0,.32-.15,.32-.32,0-.17-.16-.31-.34-.31-.18,0-.32,.15-.32,.32Z"/><path class="cls-15" d="M85.55,9.77s-.23-.04-.61-.07c-.1,0-.19-.02-.21-.08-.03-.07,0-.17,.04-.29,.07-.24,.15-.49,.23-.75,.32-1.06,.54-1.93,.49-1.94-.04-.01-.33,.84-.65,1.9-.08,.26-.15,.51-.22,.75-.03,.11-.08,.24-.02,.38,.03,.07,.1,.12,.17,.13,.06,.01,.12,.01,.16,.01,.38,0,.61-.02,.61-.04Z"/><path class="cls-15" d="M86.74,5.42c.04,.09,.36,.02,.75,.04,.39,.01,.71,.11,.75,.02,.02-.04-.04-.12-.17-.2-.13-.08-.34-.15-.57-.16-.23,0-.44,.04-.58,.11-.14,.07-.2,.15-.19,.19Z"/><path class="cls-15" d="M82.88,6.18c.04,.07,.36,0,.74-.02,.38-.02,.7,.04,.74-.04,.02-.04-.05-.1-.18-.16-.13-.06-.34-.1-.57-.09-.23,0-.43,.07-.56,.14-.13,.07-.19,.14-.17,.17Z"/><path class="cls-7" d="M90.74,7.9s1.63-.61,1.7,1.05c.07,1.66-1.61,1.39-1.62,1.34,0-.05-.08-2.39-.08-2.39Z"/><path class="cls-9" d="M91.3,9.64s.03,.02,.08,.04c.05,.02,.13,.03,.22,0,.17-.07,.31-.36,.31-.66,0-.15-.04-.29-.1-.41-.06-.12-.14-.2-.23-.21-.09-.02-.15,.04-.17,.09-.02,.05,0,.08-.02,.08,0,0-.04-.03-.03-.1,0-.03,.02-.07,.06-.11,.04-.03,.1-.05,.16-.05,.13,0,.25,.12,.31,.25,.07,.13,.12,.29,.12,.46,0,.34-.16,.66-.39,.74-.12,.04-.21,0-.27-.03-.05-.04-.06-.08-.06-.08Z"/><path class="cls-15" d="M85.94,10.93s.31-.14,.54-.44c.11-.15,.18-.31,.23-.43,.05-.12,.09-.2,.1-.19,.02,0,.01,.09-.01,.22-.03,.13-.08,.32-.21,.49-.13,.17-.3,.28-.42,.33-.13,.05-.21,.05-.22,.04Z"/><path class="cls-15" d="M92.95,5.21c-.35-.59-.43-1.29-.62-1.94-.19-.65-.55-1.33-1.2-1.56h-.01c-.58-.23-1.29-.23-1.76,.17-.12-.86-.87-1.55-1.72-1.77-.84-.22-2.2-.09-3,.24-.63,.25-1.23,.77-1.96,1.52-.31,.32-.59,.66-.85,1.03l-.73,2.26c-.08,.06-.15,.13-.21,.21-.29,.4,.25,.9,.62,.57,0,0,0,0,0,0,.08,.13,.13,.26,.19,.39h0s.01,.03,.01,.03c.04,.08,.08,.16,.12,.24h0s.57,2.5,.57,2.5c.04-.68-.01-3.06,.02-3.74,1.05-.05,2.01-.47,2.71-1.25,.37-.41,.67-.93,1.16-1.18,.64-.32,1.41-.09,2.09,.15l-.03-.03c.35,.16,.67,.39,.94,.68-.15,1.34-.01,2.72,.41,4,.06,.19,.24,.59,.43,.67,.37,.14,.47-.24,.7-.44,.17-.15,.41-.17,.68-.17,.16-.41,.32-1.11,.46-1.72,.23,.07,.47,.09,.7,.05-.07-.17-.14-.34-.21-.51,.09,.06,.19,.12,.3,.14,.11,.02,.23-.02,.28-.12,.06-.13-.02-.27-.1-.4Z"/><path class="cls-14" d="M88.6,2.16s.1,.06,.24,.22c.14,.16,.3,.43,.37,.8,.04,.19,.06,.39,.06,.62,0,.22-.02,.46-.03,.71-.02,.25-.03,.52-.02,.79,0,.14,.02,.28,.05,.42,.03,.14,.07,.29,.17,.41,.08,.1,.22,.14,.34,.12,.12-.02,.23-.09,.31-.17,.16-.18,.19-.41,.23-.62h-.05c.08,.19,.17,.37,.29,.51,.12,.15,.3,.24,.47,.26,.09,0,.18,0,.25-.04,.08-.04,.13-.1,.17-.17,.04-.07,.06-.14,.05-.21,0-.07-.03-.14-.08-.19l-.03,.02c.19,.21,.38,.33,.52,.39,.07,.03,.12,.05,.16,.06,.04,.01,.06,.02,.06,.01,0,0-.02,0-.05-.02-.04-.01-.09-.04-.16-.07-.13-.07-.32-.19-.5-.4l-.03,.02c.08,.09,.09,.24,.02,.36-.04,.06-.09,.12-.15,.15-.07,.03-.15,.04-.23,.04-.16-.02-.32-.11-.44-.24-.12-.14-.2-.31-.28-.5l-.03-.08-.02,.08c-.04,.2-.08,.42-.22,.59-.07,.08-.17,.14-.28,.16-.11,.02-.22-.01-.29-.1-.09-.1-.13-.24-.16-.38-.03-.14-.05-.27-.05-.41-.02-.27,0-.54,.01-.79,.02-.25,.03-.49,.03-.72,0-.23-.03-.44-.07-.62-.08-.38-.25-.66-.39-.81-.15-.16-.26-.21-.26-.21Z"/><path class="cls-14" d="M81.1,4.52s0,0,.02,.02c.02,.01,.04,.03,.06,.04,.03,.02,.06,.04,.1,.07,.04,.02,.09,.05,.15,.08,.23,.11,.59,.21,1.04,.19,.45-.03,.98-.18,1.46-.54,.48-.35,.91-.86,1.26-1.45,.18-.29,.32-.59,.48-.87,.16-.28,.33-.54,.54-.74,.21-.2,.45-.35,.7-.42,.12-.04,.25-.05,.37-.04,.12,0,.23,.03,.34,.06,.21,.07,.38,.19,.51,.3,.13,.12,.21,.25,.27,.35,.11,.22,.12,.37,.13,.36,0,0,0,0,0-.03,0-.02,0-.04-.01-.07-.01-.06-.04-.16-.09-.27-.06-.11-.14-.24-.27-.37-.13-.12-.3-.24-.51-.32-.11-.04-.22-.06-.35-.07-.12,0-.25,0-.38,.04-.26,.07-.51,.22-.72,.43-.22,.21-.39,.47-.55,.75-.16,.28-.3,.58-.48,.87-.34,.58-.76,1.09-1.24,1.44-.47,.35-.99,.51-1.43,.54-.44,.03-.8-.07-1.03-.17-.23-.1-.33-.19-.34-.18Z"/><path class="cls-14" d="M80.88,3.45s.03,.02,.09,.06c.06,.04,.15,.08,.26,.13,.11,.05,.25,.1,.41,.13,.16,.04,.33,.06,.52,.07,.19,0,.36-.01,.52-.04,.16-.03,.3-.07,.42-.11,.11-.04,.21-.08,.27-.11,.06-.03,.09-.05,.09-.05,0,0-.14,.06-.37,.13-.11,.04-.25,.07-.41,.09-.16,.02-.33,.04-.51,.03-.18,0-.36-.03-.51-.06-.15-.04-.29-.08-.4-.12-.22-.09-.35-.16-.36-.15Z"/><path class="cls-15" d="M82.86,7.1s.33-.18,.73-.19c.41-.02,.71,.19,.75,.14,.02-.02-.03-.11-.16-.21-.13-.09-.35-.18-.6-.17-.25,0-.46,.11-.58,.21-.12,.1-.16,.19-.14,.22Z"/><path class="cls-15" d="M83.09,7.91c0,.17,.16,.31,.34,.31,.18,0,.32-.15,.32-.32,0-.17-.16-.31-.34-.31-.18,0-.32,.15-.32,.32Z"/><path class="cls-14" d="M81.25,16.91l-8.77,5.74-5.34-4.17-1.66,2.64s3.11,3.6,4.26,4.82c1.15,1.22,1.92,1.88,2.83,1.76,.91-.12,8.5-3.07,8.5-3.07l1.15-8.05-.48,.12c-.17,.04-.34,.11-.49,.21Z"/><path class="cls-14" d="M91.04,14.95c-1.96,1.23-3.94,1.7-5.94,.9l-3.01,.77-1.46,2.54c-.23,.4-.33,.86-.3,1.32l.58,9.74-1.77,6.18,17.36,.15-.86-4.6-2.15-16.51-2.44-.5Z"/><path class="cls-14" d="M93.69,22.86l-.54-7.46s4.09,.38,5.44,3.26c1.14,2.43,4.56,9.49,4.9,10.49,.99,2.93-.83,7.22-7.19,6.98l-.73-3.99-1.87-9.29Z"/><path class="cls-15" d="M96.96,29.06s.03,.11,.1,.29c.07,.18,.17,.42,.29,.69,.12,.26,.22,.49,.31,.68,.08,.17,.13,.28,.13,.28,0,0-.03-.11-.1-.29-.07-.18-.17-.42-.29-.69-.12-.26-.22-.49-.31-.68-.08-.17-.13-.28-.13-.28Z"/><path class="cls-15" d="M94.7,23.2s.02-.47,.02-1.06-.01-1.06-.02-1.06-.02,.47-.02,1.06,.01,1.06,.02,1.06Z"/><path class="cls-15" d="M95.3,20.02s.02-.04,.04-.12c.02-.08,.05-.19,.1-.32,.09-.27,.24-.63,.45-1,.22-.37,.46-.68,.66-.88,.1-.1,.18-.19,.23-.24,.06-.06,.09-.09,.08-.09,0,0-.04,.02-.1,.08-.06,.05-.15,.13-.25,.23-.2,.2-.45,.51-.67,.88-.22,.38-.36,.74-.45,1.02-.04,.14-.07,.25-.08,.33-.02,.08-.02,.12-.02,.12Z"/><path class="cls-15" d="M80.88,19.56s.01,.09,.02,.24c0,.16,.01,.38,0,.67,0,.56-.07,1.34-.13,2.19-.07,.85-.1,1.63-.09,2.19,0,.28,.02,.51,.03,.66,.01,.16,.01,.24,0,.24,0,0-.02-.08-.05-.24-.02-.16-.05-.38-.06-.66-.03-.56-.01-1.34,.06-2.2,.07-.85,.14-1.63,.16-2.18,.01-.28,.02-.51,.02-.66,0-.16,0-.24,.02-.24Z"/><path class="cls-15" d="M99.56,30.43s-.1,.06-.28,.16c-.18,.1-.44,.24-.76,.43-.32,.19-.69,.42-1.13,.65-.22,.11-.45,.22-.69,.33-.25,.1-.5,.21-.76,.31-.08,.03-.16,.07-.23,.1l.03-.06c.17,1.06,.31,2,.41,2.68,.05,.33,.08,.6,.11,.81,.02,.19,.03,.3,.03,.3,0,0-.03-.1-.07-.29-.04-.21-.09-.48-.14-.8-.12-.68-.27-1.62-.44-2.68v-.04s.03-.02,.03-.02c.07-.03,.15-.06,.23-.1,.26-.11,.51-.21,.76-.31,.24-.1,.47-.21,.69-.32,.43-.22,.81-.45,1.13-.63,.32-.18,.59-.32,.78-.4,.09-.04,.17-.07,.22-.1,.05-.02,.08-.03,.08-.03Z"/><path class="cls-15" d="M100.49,29.16s-.21,.06-.52,.18c-.32,.12-.74,.33-1.14,.66-.4,.33-.69,.7-.86,.99-.18,.29-.26,.49-.27,.48,0,0,0-.05,.04-.15,.03-.09,.09-.22,.17-.37,.16-.31,.45-.7,.86-1.04,.41-.34,.85-.55,1.18-.65,.17-.05,.3-.08,.4-.1,.1-.01,.15-.02,.15-.01Z"/><path class="cls-10" d="M93.87,36.47l4.27-10.29c.19-.47-.05-.85-.55-.85h-.86c-.35,0-.59-.19-.61-.49l-.03-.38c-.02-.3-.26-.49-.61-.49h-4.08c-.32,0-.68,.16-.94,.42l-.33,.32c-.27,.26-.63,.42-.94,.42h-5.19c-.5,0-1.05,.38-1.24,.85l-4.23,10.5h15.35Z"/><path d="M93.87,36.47l4.27-10.29c.19-.47-.05-.85-.55-.85h-.86c-.35,0-.59-.19-.61-.49l-.03-.38c-.02-.3-.26-.49-.61-.49h-4.08c-.32,0-.68,.16-.94,.42l-.33,.32c-.27,.26-.63,.42-.94,.42h-5.19c-.5,0-1.05,.38-1.24,.85l-4.23,10.5h15.35Z"/><path class="cls-13" d="M94.58,32.98l1.61-6.22c.11-.41-.16-.82-.54-.82h-12.61c-.25,0-.47,.19-.54,.46l-2.34,9.36c-.1,.41,.06,.66,.44,.65h12.69c.25,0,.46-.19,.53-.46l.76-2.98Z"/><path class="cls-6" d="M93.71,36.19l.69-9.8c.02-.35-.25-.64-.6-.64h-13.07v10.44h12.98Z"/><path class="cls-8" d="M93.85,36.42l-1.55-10.1c-.07-.33-.37-.56-.71-.56h-13.22c-.52,0-.87,.52-.67,1l2.85,9.24,13.3,.43Z"/><path class="cls-3" d="M93.87,36.47l-3.21-9.46c-.13-.39-.49-.66-.89-.66h-13.63c-.44,0-.75,.45-.61,.88l2.98,9.24h15.35Z"/><path d="M87.28,34.89s.51,.02,.75,.04c1.13,.08,2.28-.13,3.31-.59,.32-.14,.66-.34,.76-.68,.11-.38-.14-.77-.43-1.03-.3-.26-.66-.44-.92-.73-.26-.3-.38-.77-.13-1.07l.07,.05c.18,.47,.7,.69,1.12,.96,.79,.5,1.39,1.28,1.66,2.18,.15,.49,.19,1.06-.11,1.48-.21,.3-.56,.46-.9,.59-1.03,.38-2.13,.4-3.23,.4-.35,0-1.41-.01-1.41-.01-.34-.09-.45-.27-.65-.55-.19-.26-.14-.82,.1-1.03Z"/><path class="cls-7" d="M87.28,34.89l3.55-.53,1.38-.79c.18-.1,.31-.29,.32-.5,0,0,0,0,0-.01,.01-.26-.15-.5-.39-.6-.44-.18-1.13-.43-1.43-.95-.43-.74,0-.9,0-.9l2.97,1.19,2.1,1.43,.42,2.38-2.93,.96s-3.27,.18-4.17,.08c-.9-.1-.9-.52-.9-.52-.17-.05-.51-.35-.51-.63-.44-.41-.42-.6-.42-.6"/><path class="cls-9" d="M91.83,35.91s-.05,0-.15,.03c-.09,.02-.23,.05-.4,.09-.33,.07-.8,.14-1.32,.16-.52,.02-.99-.01-1.33-.05-.17-.02-.31-.04-.4-.05-.09-.01-.15-.02-.15-.02,0,0,.05,.02,.14,.04,.09,.02,.23,.05,.4,.07,.34,.05,.81,.09,1.34,.07,.52-.02,.99-.1,1.33-.18,.17-.04,.3-.08,.39-.1,.09-.03,.14-.05,.14-.05Z"/><path class="cls-9" d="M91.51,35.36s-.05,0-.15,.03c-.09,.02-.23,.05-.4,.09-.34,.07-.82,.13-1.34,.15-.53,.02-1.01-.02-1.35-.06-.17-.02-.31-.04-.41-.06-.1-.01-.15-.02-.15-.02,0,0,.05,.02,.15,.04,.09,.02,.23,.05,.41,.08,.34,.05,.83,.1,1.36,.08,.53-.02,1.01-.09,1.35-.17,.17-.04,.31-.07,.4-.1,.09-.03,.14-.05,.14-.05Z"/><rect class="cls-5" x="24.34" y="52.67" width="44.74" height="33.23"/><path class="cls-15" d="M69.08,85.9c0-.35-.02-13.11-.04-33.23l.04,.04c-12.6,0-28.06,0-44.74,0h0l.05-.05c0,11.94,0,23.24,0,33.23l-.05-.05c26.49,.03,44.33,.05,44.74,.05-.41,0-18.25,.02-44.74,.05h-.05s0-.05,0-.05c0-9.98,0-21.29,0-33.23v-.05s.05,0,.05,0h0c16.68,0,32.14,0,44.74,0h.04v.04c-.03,20.11-.04,32.88-.04,33.23Z"/><path class="cls-13" d="M69.08,57.09s-10.02,.05-22.37,.05-22.37-.02-22.37-.05,10.02-.05,22.37-.05,22.37,.02,22.37,.05Z"/><circle class="cls-13" cx="26.23" cy="54.67" r=".66"/><circle class="cls-13" cx="28.22" cy="54.67" r=".66"/><circle class="cls-13" cx="30.2" cy="54.67" r=".66"/><path class="cls-11" d="M64.15,79.21s1.09-1.43,1.6-1.48c.51-.06,3.73,.06,4.18,0,.45-.06,2.99-1.13,2.99-1.13,0,0,.45,.15,.4,.56-.06,.4-2.88,1.93-3.22,1.98-.34,.06-3.05,.26-3.05,.26l-.68,1.23-2.22-1.41Z"/><path class="cls-15" d="M54.8,61.22c.55-.25,.95-.8,1-1.4,.06-.6-.23-1.22-.73-1.56l-1.98-.67c-.29,2.56-.59,5.11-.91,7.67,.53-.03,1.08-.12,1.52-.42,.44-.3,.73-.88,.56-1.38,.43-.15,.78-.52,.88-.97,.11-.44-.03-.94-.35-1.26Z"/><path class="cls-11" d="M45.08,59.72l.07-.91,5.57-.48c1.7,0,3.35,1.87,3.28,3.57-.07,1.89-.24,4.19-.6,5.57-.73,2.77-2.93,2.91-2.93,2.91l-.2,2.79c-.15,1.63-1.55,1.85-3.18,1.7h0c-1.59-.14-2.78-1.52-2.69-3.12l.68-12.03Z"/><path class="cls-15" d="M53.12,63.9c-.01,.19-.19,.34-.39,.33-.2,0-.35-.17-.34-.36,.01-.19,.19-.34,.39-.33,.2,0,.35,.17,.34,.36Z"/><path class="cls-15" d="M53.29,63.03s-.3-.19-.69-.23c-.39-.04-.69,.13-.73,.07-.02-.02,.04-.1,.17-.18,.13-.08,.35-.14,.59-.12,.24,.03,.44,.14,.54,.24,.11,.1,.14,.19,.12,.21Z"/><path class="cls-15" d="M49.49,63.67c-.01,.19-.19,.34-.39,.33-.2,0-.35-.17-.34-.36,.01-.19,.19-.34,.39-.33,.2,0,.35,.17,.34,.36Z"/><path class="cls-15" d="M49.46,62.71s-.3-.19-.69-.23c-.39-.04-.69,.13-.73,.07-.02-.02,.04-.1,.17-.18,.13-.08,.35-.14,.59-.12,.24,.03,.44,.14,.54,.24,.11,.1,.14,.19,.12,.21Z"/><path class="cls-15" d="M50.57,65.74s.25-.04,.64-.05c.1,0,.2-.01,.22-.08,.03-.07,0-.18-.04-.3-.07-.25-.14-.51-.22-.79-.3-1.12-.5-2.03-.46-2.04,.05-.01,.32,.88,.62,2,.07,.28,.14,.54,.2,.79,.03,.12,.08,.25,.01,.39-.03,.07-.11,.12-.18,.13-.07,.01-.12,0-.17,0-.4-.02-.64-.04-.64-.06Z"/><path class="cls-12" d="M50.47,70.38s-2-.09-3.76-1.41c0,0,.75,2.07,3.69,2.11l.07-.7Z"/><path class="cls-15" d="M49.66,61.63c-.05,.1-.43,.01-.89,.02-.46,0-.84,.1-.89,0-.02-.05,.05-.14,.21-.23,.16-.09,.4-.16,.68-.16,.28,0,.52,.07,.68,.15,.16,.08,.24,.18,.21,.22Z"/><path class="cls-15" d="M53.41,61.7c-.08,.08-.34-.04-.66-.07-.32-.05-.6,0-.65-.1-.02-.05,.03-.13,.16-.2,.13-.07,.33-.12,.55-.09,.22,.03,.4,.13,.51,.23,.1,.1,.13,.2,.1,.24Z"/><path class="cls-15" d="M55.25,59.48c.61-.33,.95-1.05,.87-1.74-.09-.68-.58-1.29-1.21-1.55-.13-.05-.26-.09-.4-.12-.25-.18-.54-.3-.85-.34,0-.37-.3-.68-.64-.81-.34-.13-.72-.11-1.09-.07-.31-.48-.87-.81-1.44-.84-.58-.03-1.16,.22-1.53,.67-.38-.28-.89-.37-1.34-.23s-.82,.49-.98,.93c-.41-.03-.83,.12-1.13,.4-.11,.1-.21,.23-.28,.36-.14,.15-.26,.33-.32,.53-.69,0-1.35,.48-1.59,1.13-.23,.65-.02,1.43,.51,1.88-.38,.3-.6,.79-.58,1.27,.02,.48,.27,.95,.67,1.22-.22,.49-.22,1.07,0,1.57,.09,.21,.24,.42,.45,.51,0,.04,.02,.08,.03,.11,.14,.28,.57,.21,.83,.04,.64-.41,1.04-1.12,1.28-1.85,.24-.72,.36-1.49,.6-2.21,0-.02,.01-.03,.02-.05,.1-.3,.27-.58,.49-.8,.2,.18,.4,.36,.63,.5,.81,.51,1.96,.4,2.66-.25,.53,.55,1.26,.9,2.01,.98,.76,.08,1.52,.01,2.15-.41,.12-.08,.29-.23,.38-.44,.06-.13-.06-.32-.19-.37Z"/><path class="cls-11" d="M45.15,63.49s-1.45-.73-1.68,.8c-.23,1.54,1.36,1.45,1.37,1.41,0-.04,.31-2.21,.31-2.21Z"/><path class="cls-12" d="M44.46,65.05s-.03,.01-.08,.03c-.05,.01-.13,.02-.2-.03-.15-.08-.25-.36-.22-.64,.02-.14,.07-.27,.13-.37,.06-.11,.15-.17,.23-.18,.08,0,.13,.05,.15,.1,.01,.05,0,.08,0,.08,0,0,.04-.02,.03-.09,0-.03-.01-.07-.05-.11-.03-.04-.08-.06-.14-.06-.12,0-.24,.08-.32,.2-.08,.11-.14,.26-.16,.41-.04,.31,.08,.62,.29,.72,.1,.04,.2,.03,.25,0,.05-.03,.07-.06,.06-.07Z"/><path class="cls-14" d="M56.06,57.48s0,.01,0,.04c0,.03,.01,.06,.01,.11,0,.1,0,.25-.06,.43-.06,.18-.18,.4-.4,.56-.21,.16-.52,.28-.86,.25l.03-.02c-.12,.44-.38,.9-.8,1.27-.21,.18-.45,.34-.74,.43-.28,.1-.6,.09-.9,.03-.3-.06-.58-.18-.83-.32-.25-.14-.48-.3-.66-.51h.05c-.44,.33-.92,.53-1.38,.57-.46,.03-.85-.09-1.15-.23-.3-.15-.5-.33-.62-.45-.06-.06-.11-.12-.14-.15-.03-.04-.04-.06-.04-.06,0,0,.06,.07,.19,.2,.13,.12,.33,.29,.62,.43,.29,.14,.68,.25,1.12,.22,.44-.04,.91-.25,1.34-.56l.03-.02,.02,.02c.17,.2,.4,.36,.64,.49,.25,.14,.52,.25,.81,.31,.29,.06,.6,.07,.87-.02,.27-.08,.51-.24,.72-.42,.4-.36,.67-.81,.79-1.23v-.02s.03,0,.03,0c.32,.04,.62-.07,.83-.23,.21-.16,.33-.36,.39-.53,.06-.18,.07-.32,.07-.42,0-.1-.01-.15,0-.15Z"/><path class="cls-14" d="M45.13,56.6s-.11,.18-.2,.51c-.09,.33-.15,.85,.07,1.4v.02s-.01,.01-.01,.01c-.2,.13-.37,.33-.49,.57-.11,.24-.17,.53-.11,.82,.07,.38,.28,.7,.55,.9l.03,.02-.02,.03c-.2,.3-.29,.64-.3,.94-.01,.3,.05,.57,.13,.78,.16,.42,.38,.59,.37,.6,0,0-.01,0-.04-.03-.02-.02-.06-.05-.1-.1-.08-.09-.19-.24-.27-.45-.09-.21-.16-.48-.15-.79,0-.31,.09-.66,.3-.97v.05c-.28-.21-.51-.55-.57-.94-.05-.3,0-.61,.12-.86,.12-.25,.31-.46,.52-.6v.04c-.23-.57-.17-1.1-.06-1.44,.05-.17,.11-.3,.16-.38,.02-.04,.04-.07,.06-.09,.01-.02,.02-.03,.02-.03Z"/><path class="cls-15" d="M44.03,65.54s-.06,.1-.07,.27c0,.08,.01,.19,.08,.27,.06,.08,.18,.15,.3,.13,.12-.02,.2-.12,.23-.23,.03-.11,0-.21-.02-.29-.05-.16-.11-.26-.1-.27,0,0,.08,.08,.15,.25,.03,.08,.06,.2,.03,.32-.01,.06-.04,.13-.09,.18-.05,.05-.12,.09-.19,.1-.15,.02-.29-.06-.37-.16-.08-.11-.09-.23-.07-.32,.03-.19,.11-.27,.12-.27Z"/><path class="cls-12" d="M49.56,66.2c-.17,.15-.27,.39-.25,.61,.02,.23,.16,.44,.36,.55,.08,.04,.17,.07,.26,.06,.16-.02,.27-.17,.36-.3,.07-.11,.15-.22,.22-.33,.03-.04,.05-.08,.04-.12-.01-.05-.06-.07-.1-.09-.29-.14-.57-.27-.86-.41"/><path class="cls-15" d="M49.93,67.38s-.17,0-.4-.14c-.11-.07-.24-.19-.3-.37-.03-.09-.03-.2,0-.29,.03-.09,.07-.19,.13-.27,.06-.08,.14-.15,.22-.2l.03-.02,.03,.02c.55,.34,1,.55,.99,.57,0,.03-.48-.14-1.05-.48h.06c-.07,.04-.14,.1-.19,.17-.1,.15-.17,.33-.13,.47,.04,.15,.14,.26,.24,.33,.21,.14,.36,.19,.36,.2Z"/><path class="cls-14" d="M29.37,85.91s5.59-10.03,6.52-11.65c1.09-1.91,2.05-2.6,2.91-3.02,.9-.44,1.89-.64,2.89-.65l2.77-.02s1.05,1.58,2.48,1.89c1.97,.43,3.45-1.04,3.45-1.04l3.98,1.63-.8,7.36c-.2,1.86-.88,3.63-1.97,5.14l-.26,.34h-14.69s1.7-5.31,1.7-5.31l-3.15,5.31h-5.85Z"/><path class="cls-14" d="M54.38,73.06s1.16,.68,2.03,3.5c.87,2.82,2.75,7.83,2.75,7.83l4.72-5.35,2.8,1.78s-4.52,7.84-5.23,8.77c-1.07,1.38-3.77,2.17-5.36,.34-1.15-1.34-3.91-7.8-3.91-7.8l2.2-9.06Z"/><path class="cls-15" d="M52.68,77.15s.02,.03,.04,.08c.02,.06,.06,.14,.11,.25,.09,.22,.2,.54,.3,.95,.21,.82,.34,2,.15,3.28-.19,1.28-.68,2.37-1.12,3.09-.22,.36-.42,.64-.57,.82-.07,.09-.13,.16-.17,.21-.04,.05-.06,.07-.07,.07,0,0,.07-.11,.21-.3,.14-.19,.33-.47,.54-.83,.42-.72,.89-1.8,1.08-3.07,.19-1.27,.07-2.44-.12-3.25-.09-.41-.19-.73-.27-.96-.07-.22-.12-.35-.11-.35Z"/><path class="cls-15" d="M39.28,76.25s0,.04,0,.1c-.01,.08-.02,.17-.04,.29-.04,.25-.1,.62-.18,1.07-.16,.9-.43,2.13-.8,3.47-.37,1.34-.77,2.54-1.09,3.39-.16,.43-.29,.77-.39,1.01-.05,.11-.08,.2-.11,.27-.03,.06-.04,.09-.05,.09,0,0,0-.04,.03-.1,.03-.07,.06-.17,.1-.28,.09-.25,.21-.6,.36-1.02,.3-.86,.69-2.06,1.06-3.4,.37-1.34,.64-2.57,.83-3.46,.09-.44,.16-.79,.21-1.06,.02-.12,.04-.21,.06-.29,.01-.07,.02-.1,.03-.1Z"/><path class="cls-11" d="M32.26,85.9s.53-.73,.8-.86c.26-.14,.63-.13,.78,0l.16,.14s.83-.37,1.23-.09c0,0,.79-.37,1.17,.05,0,0,.61-.4,.87-.05,.26,.34,.23,.93,.11,1.23-.12,.3-.36,1.32-.54,1.34,0,0-.48,.05-.55-.21-.06-.26-.09-.39-.09-.39,0,0-.19,.93-.41,.97-.22,.05-.65,.02-.66-.39,0,0-.21,.31-.41,.22-.2-.09-.45-.24-.43-.49,.02-.25,.03-.5,.03-.5,0,0-.11,.37-.29,.29-.18-.08-.37-.06-.47-.37-.1-.31-.36-.9-.36-.9h-.92Z"/><path class="cls-12" d="M34.28,86.87s.04-.1,.08-.26c.04-.16,.07-.39,.03-.64-.05-.25-.16-.46-.26-.59-.1-.14-.18-.21-.17-.22,0,0,.1,.05,.21,.18,.11,.13,.24,.35,.29,.61,.05,.26,0,.51-.05,.67-.06,.16-.13,.25-.13,.25Z"/><path class="cls-12" d="M35.28,85.11s.06,.13,.11,.37c.05,.23,.08,.56,.06,.92-.02,.36-.1,.68-.18,.9-.08,.22-.15,.35-.15,.35-.03,0,.21-.55,.25-1.25,.05-.71-.11-1.27-.08-1.28Z"/><path class="cls-12" d="M36.41,85.17s.08,.44,.01,.98c-.06,.54-.21,.96-.23,.95-.02,0,.09-.43,.15-.96,.06-.53,.04-.97,.07-.97Z"/><path class="cls-11" d="M39.51,85.38c-.03-.09-.12-.14-.21-.17-.21-.06-.44,.02-.6,.16-.17,.14-.33,.36-.44,.54h1.17c-.01-.18,.14-.37,.07-.53Z"/><path class="cls-1" d="M69.86,69.07h6.31c0,3.46-2.85,6.31-6.31,6.31s-6.31-2.85-6.31-6.31,2.84-6.3,6.29-6.31v6.31Z"/><path class="cls-3" d="M70.98,68.06l-.02-6.31s.01,0,.02,0c3.45,0,6.29,2.82,6.31,6.27l-6.31,.04Z"/><path class="cls-8" d="M40.85,66.45l-1.23-2.16c.54-.88,.86-1.92,.86-3.03,0-3.2-2.59-5.79-5.79-5.79s-5.79,2.59-5.79,5.79,2.59,5.79,5.79,5.79c1.34,0,2.56-.45,3.54-1.21h0s2.62,.62,2.62,.62Z"/><path class="cls-15" d="M40.85,66.45c-.12-.03-.95-.22-2.62-.6h-.03s.02-.03,.02-.03h0s.03,.02,.03,.02c-.33,.26-.73,.51-1.19,.72-.47,.21-1,.38-1.59,.45-.29,.04-.6,.06-.92,.05-.16,0-.32-.01-.48-.03-.16-.02-.32-.05-.49-.07-.66-.13-1.33-.38-1.95-.77-.63-.39-1.2-.91-1.67-1.56-.46-.64-.81-1.41-.98-2.24-.16-.83-.15-1.72,.07-2.58,.22-.86,.63-1.69,1.24-2.38l.24-.26c.08-.09,.17-.16,.25-.24,.09-.08,.17-.16,.26-.23l.28-.21c.09-.07,.19-.13,.29-.19,.1-.06,.2-.12,.29-.18,.1-.05,.21-.1,.31-.15,.1-.05,.2-.1,.31-.14,.84-.33,1.74-.46,2.6-.4,.86,.06,1.68,.31,2.38,.7,.71,.39,1.3,.92,1.76,1.5,.46,.59,.79,1.23,.99,1.88,.2,.65,.25,1.29,.25,1.88-.02,.6-.13,1.14-.28,1.63-.16,.48-.37,.9-.58,1.25v-.02c.78,1.39,1.15,2.07,1.21,2.17-.06-.11-.45-.78-1.24-2.16h0s0-.02,0-.02c.21-.35,.42-.76,.57-1.24,.15-.48,.26-1.02,.27-1.61,0-.59-.06-1.23-.26-1.87-.2-.64-.52-1.28-.98-1.86-.46-.58-1.05-1.1-1.75-1.49-.7-.39-1.51-.63-2.36-.69-.85-.06-1.73,.07-2.56,.4-.11,.03-.2,.09-.31,.14-.1,.05-.2,.1-.3,.15-.1,.06-.19,.12-.29,.18-.1,.06-.2,.12-.28,.19l-.27,.21c-.09,.07-.17,.15-.26,.23-.08,.08-.17,.15-.25,.24l-.23,.26c-.61,.68-1.01,1.51-1.23,2.35-.22,.85-.23,1.73-.07,2.55,.16,.82,.51,1.58,.96,2.21,.46,.64,1.03,1.16,1.65,1.54,.62,.39,1.28,.63,1.93,.76,.16,.03,.33,.05,.48,.07,.16,.01,.32,.02,.48,.03,.31,.02,.62,0,.91-.04,.58-.08,1.11-.24,1.58-.44,.46-.21,.86-.45,1.19-.71l.11-.08-.08,.11h0s-.01-.03-.01-.03c1.66,.4,2.49,.6,2.62,.63Z"/><path class="cls-15" d="M33.05,61.25c0,.32-.26,.59-.59,.59s-.59-.26-.59-.59,.26-.59,.59-.59,.59,.26,.59,.59Z"/><path class="cls-15" d="M35.41,61.25c0,.32-.26,.59-.59,.59s-.59-.26-.59-.59,.26-.59,.59-.59,.59,.26,.59,.59Z"/><path class="cls-15" d="M37.76,60.96c.16,.28,.07,.64-.22,.8-.28,.16-.64,.07-.8-.22s-.07-.64,.22-.8c.28-.16,.64-.07,.8,.22Z"/><path class="cls-7" d="M34.23,28.46s1.05,.34,1.7,1.47c.64,1.13,.47,1.68,.3,2.35-.17,.67-.46,1.99-.48,1.9-.02-.09-1.52-5.73-1.52-5.73Z"/><rect class="cls-5" x="7.4" y="14.73" width="45.79" height="34.01"/><path class="cls-15" d="M53.19,48.73c0-.35-.02-13.42-.04-34.01l.04,.04c-12.89,0-28.71,0-45.78,0h0l.05-.05c0,12.22,0,23.79,0,34.01l-.05-.05c27.11,.03,45.38,.05,45.79,.05-.41,0-18.68,.02-45.79,.05h-.05s0-.05,0-.05c0-10.22,0-21.79,0-34.01v-.05h.06c17.07,0,32.89,0,45.78,0h.04v.04c-.03,20.59-.04,33.66-.04,34.01Z"/><path class="cls-13" d="M53.11,19.48s-10.15,.05-22.67,.05-22.67-.02-22.67-.05,10.15-.05,22.67-.05,22.67,.02,22.67,.05Z"/><path class="cls-13" d="M10.4,17c0,.37-.3,.67-.67,.67s-.67-.3-.67-.67,.3-.67,.67-.67,.67,.3,.67,.67Z"/><path class="cls-13" d="M12.43,17c0,.37-.3,.67-.67,.67s-.67-.3-.67-.67,.3-.67,.67-.67,.67,.3,.67,.67Z"/><path class="cls-13" d="M14.46,17c0,.37-.3,.67-.67,.67s-.67-.3-.67-.67,.3-.67,.67-.67,.67,.3,.67,.67Z"/><path class="cls-15" d="M32.74,13.97c-.15-.55-.45-1.1-.95-1.39-.24-.14-.5-.21-.74-.34-.29-.16-.53-.39-.8-.58-.66-.46-1.53-.62-2.32-.42-.78,.2-1.47,.75-1.84,1.47-.56-.43-1.53-.25-2.19,0-.66,.24-1.21,1.03-1.37,1.71l3.1,.94c.62,.68,1.31,1.31,2.12,1.74,.81,.44,1.75,.67,2.65,.54,.91-.14,1.77-.68,2.18-1.5,.33-.66,.35-1.45,.15-2.16Z"/><path class="cls-15" d="M34.94,24.22c.79-.55,.98-1.79,.39-2.55-.17-.23-.41-.43-.45-.71-.02-.17,.03-.35,.08-.52,.28-1.14-.18-2.42-1.12-3.11-.02-.64-.37-1.98-1.18-2.49l-3.66,.51c.17,3.86,.16,7.72-.03,11.57-.03,.59-.05,1.23,.27,1.72,.46,.7,1.41,.85,2.25,.87,.8,.02,1.62-.01,2.38-.28s1.45-.79,1.77-1.53c.49-1.13-.02-2.45-.69-3.49Z"/><path class="cls-7" d="M23.77,16.42l-.11-.82,4.83-1.51c1.5-.34,3.33,1,3.6,2.52,.3,1.69,.6,3.76,.55,5.05-.11,2.59-2.03,3.14-2.03,3.14l.2,1.54c.2,1.56-.9,2.98-2.46,3.18h0c-1.55,.2-2.97-.9-3.18-2.45l-1.4-10.65Z"/><path class="cls-15" d="M31.76,18.52c.03,.17-.1,.34-.28,.37-.18,.03-.34-.08-.37-.26-.03-.17,.1-.34,.28-.37,.18-.03,.35,.08,.37,.26Z"/><path class="cls-15" d="M31.68,17.75s-.3-.11-.66-.07c-.35,.04-.59,.25-.63,.21-.02-.02,.01-.1,.11-.19,.1-.09,.28-.2,.5-.22,.22-.02,.41,.04,.53,.11,.12,.07,.16,.14,.15,.16Z"/><path class="cls-15" d="M28.48,18.96c.03,.17-.1,.34-.28,.37-.18,.03-.34-.08-.37-.26-.03-.17,.1-.34,.28-.37,.18-.03,.35,.08,.37,.26Z"/><path class="cls-15" d="M28.23,18.22s-.3-.11-.66-.07c-.35,.04-.59,.25-.63,.21-.02-.02,.01-.1,.11-.19,.1-.09,.28-.2,.5-.22,.22-.02,.41,.04,.53,.11,.12,.07,.16,.14,.15,.16Z"/><path class="cls-15" d="M29.8,20.68s.21-.08,.56-.17c.09-.02,.17-.05,.18-.11,.01-.07-.04-.16-.09-.26-.11-.21-.22-.43-.34-.65-.48-.93-.84-1.7-.8-1.72,.04-.02,.46,.72,.94,1.65,.12,.23,.23,.45,.33,.66,.05,.1,.12,.21,.09,.35-.02,.07-.08,.13-.13,.15-.06,.02-.11,.03-.15,.04-.35,.06-.58,.09-.58,.07Z"/><path class="cls-9" d="M30.61,24.81s-1.79,.31-3.6-.51c0,0,1.07,1.69,3.68,1.15l-.07-.64Z"/><path class="cls-9" d="M29.75,21.54c-.15-.15-.38-.22-.6-.17-.15,.03-.3,.13-.37,.26-.08,.13-.08,.31,.02,.42,.11,.12,.31,.13,.47,.06,.16-.07,.29-.19,.42-.32,.03-.03,.07-.07,.09-.12,.02-.04,.02-.1-.02-.13"/><path class="cls-15" d="M28.8,21.04c.06,0,.1,.37,.46,.6,.36,.23,.76,.14,.77,.2,0,.02-.08,.08-.25,.11-.17,.03-.42,0-.64-.14-.22-.14-.33-.36-.36-.51-.03-.16,0-.26,.03-.26Z"/><path class="cls-15" d="M28.16,16.83c-.02,.1-.38,.09-.79,.19-.41,.09-.73,.25-.79,.17-.03-.04,.02-.13,.14-.24,.12-.11,.33-.22,.57-.28,.24-.06,.48-.04,.63,0,.16,.04,.24,.11,.23,.16Z"/><path class="cls-15" d="M31.43,16.75c-.05,.09-.3,.03-.6,.06-.29,.02-.53,.12-.6,.04-.03-.04,0-.12,.1-.21,.1-.09,.27-.17,.47-.19,.2-.02,.38,.04,.49,.11,.11,.07,.16,.15,.13,.19Z"/><path class="cls-15" d="M24.32,13.86c-.5,.16-1.07,1.53-.92,2.04s.62,.87,1.13,1c.51,.13,1.05,.05,1.56-.1,.71-.22,1.47-.71,1.52-1.45,.7,.7,1.77,1,2.73,.75,.96-.25,1.66-1.71,1.93-2.66l-7.94,.42Z"/><path class="cls-14" d="M29.26,18.98s0-.13-.06-.35c-.06-.21-.2-.53-.53-.77-.16-.12-.36-.22-.59-.26-.23-.04-.49-.03-.73,.06-.25,.09-.48,.26-.65,.49-.17,.23-.27,.52-.27,.82,0,.3,.1,.6,.27,.82,.17,.23,.4,.4,.65,.49,.25,.09,.5,.1,.73,.06,.23-.04,.43-.14,.59-.26,.32-.24,.47-.56,.53-.77,.06-.22,.05-.35,.06-.35,0,0,0,.03,0,.09,0,.06,0,.15-.03,.26-.05,.22-.19,.56-.52,.82-.17,.13-.38,.24-.62,.28-.24,.04-.52,.04-.78-.06-.26-.09-.52-.27-.7-.52-.18-.24-.29-.56-.29-.88,0-.32,.11-.64,.29-.88,.18-.25,.43-.43,.7-.52,.26-.1,.54-.1,.78-.06,.24,.05,.46,.16,.62,.28,.33,.26,.48,.6,.52,.82,.03,.11,.03,.2,.03,.26,0,.06,0,.09,0,.09Z"/><path class="cls-14" d="M32.88,18.33s0-.13-.06-.35c-.06-.21-.2-.53-.53-.77-.16-.12-.36-.22-.59-.26-.23-.04-.49-.03-.73,.06-.25,.09-.48,.26-.65,.49-.17,.23-.27,.52-.27,.82,0,.3,.1,.6,.27,.82,.17,.23,.4,.4,.65,.49,.25,.09,.5,.1,.73,.06,.23-.04,.43-.14,.59-.26,.32-.24,.47-.56,.53-.77,.06-.22,.05-.35,.06-.35,0,0,0,.03,0,.09,0,.06,0,.15-.03,.26-.05,.22-.19,.56-.52,.82-.17,.13-.38,.24-.62,.28-.24,.04-.52,.04-.78-.06-.26-.09-.52-.27-.7-.52-.18-.24-.29-.56-.29-.88,0-.32,.11-.64,.29-.88,.18-.25,.43-.43,.7-.52,.26-.1,.54-.1,.78-.06,.24,.05,.46,.16,.62,.28,.33,.26,.48,.6,.52,.82,.03,.11,.03,.2,.03,.26,0,.06,0,.09,0,.09Z"/><path class="cls-14" d="M29.05,18.18s-.01-.07,.03-.16c.05-.09,.15-.21,.31-.26,.16-.05,.31-.01,.4,.04,.09,.05,.13,.11,.12,.12,0,.01-.06-.02-.15-.05-.09-.03-.22-.05-.35,0-.13,.04-.23,.13-.28,.2-.06,.07-.08,.13-.1,.12Z"/><path class="cls-14" d="M26.32,19.32s-.24,.13-.56,.24c-.32,.11-.58,.17-.59,.14,0-.03,.24-.13,.56-.24,.32-.11,.58-.17,.59-.14Z"/><path class="cls-7" d="M51.37,23.72c.42-.16,.25-.6,.25-.6l-1.57,.47s.83-.34,1.26-.69c.43-.35,.21-.65,.21-.65l-1.62,.62-.91,.54-2.29,3.5s1.79,.88,2.11,.62c.56-.44,.86-1.43,.99-1.94,.22-.06,.93-.28,1.12-.4,.23-.15,.34-.38,.34-.38l-1.25,.24c.18-.05,1.34-.45,1.43-.59,.16-.25,.06-.36,.06-.36l-1.57,.24,.16-.12s.88-.35,1.28-.51Z"/><path class="cls-7" d="M45.6,27.36l-5.27,4.83c-.65-.15-8.68-4.95-8.68-4.95l-1.27,6.17s8.21,3.78,10.47,3.32c.37-.07,.98-.12,1.36-.61,1.81-2.32,5.64-8.07,5.64-8.07l-2.26-.68Z"/><path class="cls-7" d="M49.18,27.12l-.95-.46,.69-1.25,.54-1.14,.84-1.55-1.27,.48c-.15,.06-.28,.17-.38,.29l-2.09,2.89-.93,.95,.9,2.41,1.05-1.64,.62-.14c.62-.14,1.01-.84,1.01-.84Z"/><path class="cls-7" d="M47.65,25.16c.44-.22,.9-.4,1.37-.53,.15-.04,.31-.08,.47-.06,.16,.02,.32,.12,.36,.28,.05,.18-.07,.36-.22,.46-.15,.1-.34,.13-.51,.18-.18,.05-.36,.11-.47,.25-.11,.13-.14,.31-.2,.47-.19,.52-.67,.93-1.21,1.04"/><path class="cls-9" d="M47.23,27.25s.08-.03,.23-.08c.14-.06,.35-.16,.55-.36,.1-.1,.2-.21,.28-.35,.08-.14,.14-.3,.19-.48,.03-.09,.07-.19,.14-.27,.07-.08,.16-.14,.26-.18,.2-.09,.41-.11,.6-.19,.1-.04,.18-.09,.24-.17,.06-.07,.1-.16,.09-.25,0-.18-.2-.3-.37-.31-.18-.01-.35,.04-.5,.09-.16,.05-.31,.09-.44,.14-.27,.09-.48,.18-.62,.24-.15,.06-.23,.1-.23,.09,0,0,.07-.05,.21-.12,.14-.07,.35-.17,.61-.27,.13-.05,.28-.1,.44-.15,.16-.05,.33-.11,.53-.1,.1,0,.2,.04,.29,.1,.09,.06,.16,.17,.16,.28,0,.24-.18,.43-.39,.51-.21,.09-.42,.1-.6,.18-.09,.04-.17,.09-.23,.16-.06,.07-.1,.15-.13,.24-.06,.17-.12,.35-.21,.49-.09,.15-.19,.27-.3,.36-.21,.2-.43,.29-.58,.34-.08,.02-.14,.04-.18,.04-.04,0-.06,0-.06,0Z"/><path class="cls-15" d="M31.05,44.61h-10.8s-1.6,2.01-2.65,4.1l15.4,.06c.3-.5-1.95-4.16-1.95-4.16Z"/><path class="cls-10" d="M34.25,34.79c-.37-4.84-1.57-7.88-1.57-7.88l-1.87-.58h0c-.28,1.24-2.3,1.64-3.44,1.1l-1.21-.63c-3.89-.58-3.69-.26-4.59,.28-.78,.47-.71,3.98-.71,3.98,0,0-1.94,9.14-1.84,10.61,.11,1.47,1.24,2.94,1.24,2.94h10.8c1.09,0,1.4-2.46,1.32-3.35-.08-.89,1.99-4.88,1.87-6.47Z"/><path class="cls-15" d="M23.99,37.83s.06,.06,.18,.15c.12,.09,.31,.21,.56,.33,.25,.12,.56,.22,.92,.28,.36,.05,.77,.05,1.18-.05,.83-.19,1.45-.68,1.83-1.06,.19-.19,.33-.37,.42-.49,.09-.12,.13-.2,.13-.2-.02-.01-.21,.26-.6,.63-.39,.36-1,.83-1.8,1.01-.8,.19-1.56,.02-2.04-.19-.49-.21-.76-.42-.77-.41Z"/><path d="M29.03,37.03c-.08,.82-.47,1.61-1.11,2.12-.64,.52-1.52,.73-2.31,.5-.79-.23-1.44-.91-1.58-1.72,.56,.25,1.12,.51,1.72,.6,1.29,.19,2.66-.45,3.33-1.57-.03,.03-.06,.06-.09,.09"/><path class="cls-10" d="M16.7,34.57l5.44,2.55s2.22-4.91,2.41-5.58c.19-.67,.79-1.73,.18-3.13-.61-1.4-2.26-1.91-3.17-1.32-2.04,1.33-4.86,7.48-4.86,7.48Z"/><path class="cls-10" d="M33.82,34.83c.25,0,3.17,1.53,3.17,1.53l1.66-5.51c-2.48-1.65-4.52-3.54-5.97-3.93l.76,4.55,.37,3.36Z"/><path class="cls-15" d="M16.7,34.57s.04,0,.11,.04c.08,.03,.18,.08,.3,.13,.27,.12,.65,.29,1.1,.49,.94,.43,2.21,1.01,3.61,1.65,.15,.07,.3,.14,.44,.2l-.07,.02c.63-1.29,1.18-2.45,1.57-3.29,.19-.41,.34-.74,.46-.99,.05-.11,.09-.2,.12-.27,.03-.06,.05-.09,.05-.09,0,0,0,.04-.03,.1-.02,.06-.06,.16-.11,.28-.1,.24-.24,.58-.43,1-.37,.84-.91,2.01-1.54,3.31l-.02,.05-.05-.02c-.14-.06-.29-.13-.44-.2-1.4-.65-2.67-1.24-3.6-1.68-.45-.21-.82-.39-1.09-.52-.12-.06-.22-.11-.29-.15-.07-.03-.1-.05-.1-.06Z"/><path class="cls-15" d="M33.32,30.31s.05,.12,.11,.34c.07,.24,.17,.55,.29,.93,.24,.78,.58,1.89,.6,3.16,0,.64-.14,1.23-.29,1.75-.15,.52-.33,.98-.48,1.37-.15,.38-.28,.69-.37,.9-.09,.21-.14,.33-.15,.33,0,0,0-.03,.02-.09,.02-.07,.05-.15,.09-.25,.09-.23,.2-.54,.34-.91,.14-.39,.31-.84,.45-1.37,.14-.52,.27-1.11,.28-1.73-.02-1.25-.34-2.35-.56-3.13-.11-.4-.2-.72-.26-.94-.03-.11-.05-.2-.06-.26-.01-.06-.02-.09-.01-.09Z"/><path class="cls-15" d="M28.71,29.21c-.08-.8-.51-1.54-1.07-2.11-.28-.28-.62-.57-.68-.96-.07-.51,.37-.99,.3-1.51-.09-.64-.89-.92-1.18-1.5-.38-.78,.29-1.79-.13-2.56-.25-.46-.84-.71-.96-1.22-.08-.33,.55-.81,.7-1.53,.33-1.61,.5-2.85-1.07-3.79l-.91-1.25c-1.02,.5-1.88,1.62-1.9,2.8,0,.55,.28,1.11,.03,1.61-.34,.7-1.12,1.13-1.36,1.86-.34,1.05,.6,2.24,.19,3.27-.24,.61-.87,.95-1.27,1.47-.62,.81-.56,2.07,.14,2.82-.99,.67-1.46,2.04-1.07,3.17,.16,.48,.53,.95,1.03,.98,.72,.04,1.13-.78,1.66-1.27,.82-.77,2.26-.73,3.04,.08,.56,.58,.78,1.44,1.43,1.91,.65,.47,1.62,.39,2.24-.12,.63-.51,.91-1.36,.83-2.16Z"/><path class="cls-7" d="M21.61,36.77c-1.03,1.69-1.75,2.67-1.75,2.67l9.25,5.63-1.08,2.5-11.99-4.94s-1.18-1.22-.76-2.57l1.91-5.28,4.43,1.98Z"/><path class="cls-9" d="M17.61,40.3s.46-.34,1.11-.57c.65-.24,1.22-.25,1.21-.29,0-.03-.58-.07-1.25,.18-.67,.25-1.09,.66-1.07,.68Z"/><path class="cls-7" d="M36.28,46.79l-2.31-1.1-4.5-.36-.37-.25-1.08,2.5s1.18,.56,1.8,.61l3.78-.11,1.98,.21,.69-1.5Z"/><path class="cls-13" d="M49.25,37.9l-12.97,.11c-.42,0-.82,.2-.89,.62l-1.42,9.46h-6.68c-.22,0-.39,.17-.39,.39s.17,.39,.39,.39h21.34l1.46-9.98c.08-.52-.32-.98-.84-.98Z"/><path class="cls-15" d="M49.25,37.9s.07,0,.2,.02c.13,.03,.33,.11,.5,.33,.08,.11,.14,.25,.16,.41,.02,.17-.03,.34-.05,.53-.05,.38-.12,.82-.19,1.32-.29,1.98-.7,4.84-1.2,8.35v.03s-.04,0-.04,0c-5.52,0-12.78,0-20.71,.01h-.56c-.09,0-.21,0-.29-.06-.09-.05-.16-.14-.2-.23-.08-.2,.02-.44,.2-.54,.09-.05,.21-.06,.29-.05h.27c.73,0,1.45,0,2.17,0,1.43,0,2.82,0,4.16,0l-.05,.04c.51-3.39,.99-6.55,1.41-9.38,.01-.18,.1-.37,.24-.49,.14-.13,.32-.19,.5-.22,.18-.03,.35-.01,.52-.02,.17,0,.34,0,.51,0,.67,0,1.33,0,1.95-.01,1.26,0,2.42-.02,3.47-.02,2.11-.01,3.79-.02,4.94-.03,.57,0,1.02,0,1.32,0,.15,0,.26,0,.34,0,.08,0,.12,0,.12,0,0,0-.04,0-.12,0-.08,0-.19,0-.34,0-.3,0-.75,.01-1.32,.02-1.16,.01-2.84,.03-4.94,.05-1.05,.01-2.22,.02-3.47,.03-.63,0-1.28,.01-1.95,.02-.17,0-.34,0-.51,0-.17,0-.35,0-.51,.02-.16,.03-.33,.09-.45,.2-.13,.11-.19,.27-.21,.44-.42,2.83-.89,5.99-1.4,9.38v.04h-.05c-1.34,0-2.73,0-4.16,0-.71,0-1.44,0-2.17,0h-.27c-.1,0-.17,0-.24,.04-.14,.08-.21,.26-.15,.41,.03,.07,.08,.14,.15,.18,.07,.04,.15,.05,.24,.04,.19,0,.37,0,.56,0,7.93,0,15.18,0,20.71,.01l-.04,.03c.52-3.51,.94-6.37,1.24-8.35,.07-.49,.14-.93,.2-1.32,.02-.19,.07-.37,.05-.53-.02-.16-.07-.3-.15-.4-.15-.21-.35-.3-.48-.33-.13-.03-.2-.03-.2-.03Z"/><circle class="cls-5" cx="42.21" cy="43.26" r=".81"/><path class="cls-15" d="M34.5,48.77s.43-2.4,.92-5.38c.49-2.97,.87-5.39,.86-5.39-.02,0-.43,2.4-.92,5.38-.49,2.97-.87,5.39-.86,5.39Z"/></svg>